<?xml version="1.0" encoding="UTF-8" standalone="no"?>
<!-- Created with Inkscape (http://www.inkscape.org/) -->

<svg
   width="197.37357mm"
   height="71.303513mm"
   viewBox="0 0 197.37357 71.303513"
   version="1.1"
   id="svg5"
   sodipodi:docname="setup.svg"
   inkscape:version="1.1.2 (0a00cf5339, 2022-02-04)"
   xmlns:inkscape="http://www.inkscape.org/namespaces/inkscape"
   xmlns:sodipodi="http://sodipodi.sourceforge.net/DTD/sodipodi-0.dtd"
   xmlns:xlink="http://www.w3.org/1999/xlink"
   xmlns="http://www.w3.org/2000/svg"
   xmlns:svg="http://www.w3.org/2000/svg">
  <sodipodi:namedview
     id="namedview7"
     pagecolor="#ffffff"
     bordercolor="#666666"
     borderopacity="1.0"
     inkscape:pageshadow="2"
     inkscape:pageopacity="0.0"
     inkscape:pagecheckerboard="0"
     inkscape:document-units="mm"
     showgrid="false"
     inkscape:zoom="1.2966075"
     inkscape:cx="336.64775"
     inkscape:cy="99.490401"
     inkscape:window-width="1920"
     inkscape:window-height="1012"
     inkscape:window-x="0"
     inkscape:window-y="0"
     inkscape:window-maximized="1"
     inkscape:current-layer="layer1" />
  <defs
     id="defs2">
    <marker
       style="overflow:visible"
       id="Arrow2Mend"
       refX="0"
       refY="0"
       orient="auto"
       inkscape:stockid="Arrow2Mend"
       inkscape:isstock="true">
      <path
         transform="scale(-0.6)"
         d="M 8.7185878,4.0337352 -2.2072895,0.01601326 8.7185884,-4.0017078 c -1.7454984,2.3720609 -1.7354408,5.6174519 -6e-7,8.035443 z"
         style="fill:context-stroke;fill-rule:evenodd;stroke:context-stroke;stroke-width:0.625;stroke-linejoin:round"
         id="path1360" />
    </marker>
    <marker
       style="overflow:visible"
       id="marker1611"
       refX="0"
       refY="0"
       orient="auto"
       inkscape:stockid="Arrow1Send"
       inkscape:isstock="true">
      <path
         transform="matrix(-0.2,0,0,-0.2,-1.2,0)"
         style="fill:context-stroke;fill-rule:evenodd;stroke:context-stroke;stroke-width:1pt"
         d="M 0,0 5,-5 -12.5,0 5,5 Z"
         id="path1609" />
    </marker>
    <marker
       style="overflow:visible"
       id="Arrow1Mend"
       refX="0"
       refY="0"
       orient="auto"
       inkscape:stockid="Arrow1Mend"
       inkscape:isstock="true">
      <path
         transform="matrix(-0.4,0,0,-0.4,-4,0)"
         style="fill:context-stroke;fill-rule:evenodd;stroke:context-stroke;stroke-width:1pt"
         d="M 0,0 5,-5 -12.5,0 5,5 Z"
         id="path1342" />
    </marker>
    <marker
       style="overflow:visible"
       id="Arrow1Send"
       refX="0"
       refY="0"
       orient="auto"
       inkscape:stockid="Arrow1Send"
       inkscape:isstock="true">
      <path
         transform="matrix(-0.2,0,0,-0.2,-1.2,0)"
         style="fill:context-stroke;fill-rule:evenodd;stroke:context-stroke;stroke-width:1pt"
         d="M 0,0 5,-5 -12.5,0 5,5 Z"
         id="path1348" />
    </marker>
    <marker
       style="overflow:visible"
       id="Arrow2Mend-3"
       refX="0"
       refY="0"
       orient="auto"
       inkscape:stockid="Arrow2Mend"
       inkscape:isstock="true">
      <path
         transform="scale(-0.6)"
         d="M 8.7185878,4.0337352 -2.2072895,0.01601326 8.7185884,-4.0017078 c -1.7454984,2.3720609 -1.7354408,5.6174519 -6e-7,8.035443 z"
         style="fill:context-stroke;fill-rule:evenodd;stroke:context-stroke;stroke-width:0.625;stroke-linejoin:round"
         id="path1360-6" />
    </marker>
    <g
       id="g9721">
      <symbol
         overflow="visible"
         id="symbol8629">
        <path
           style="stroke:none"
           d=""
           id="path8810" />
      </symbol>
      <symbol
         overflow="visible"
         id="symbol9487">
        <path
           style="stroke:none"
           d="m 3.78125,-0.546875 v 0.65625 L 5.25,0 v -0.3125 c -0.6875,0 -0.78125,-0.0625 -0.78125,-0.5625 V -6.921875 L 3.046875,-6.8125 V -6.5 c 0.6875,0 0.765625,0.0625 0.765625,0.5625 v 2.15625 c -0.28125,-0.359375 -0.71875,-0.625 -1.25,-0.625 -1.171875,0 -2.21875,0.984375 -2.21875,2.265625 0,1.265625 0.96875,2.25 2.109375,2.25 0.640625,0 1.078125,-0.34375 1.328125,-0.65625 z m 0,-2.671875 v 2.046875 c 0,0.171875 0,0.1875 -0.109375,0.359375 C 3.375,-0.328125 2.9375,-0.109375 2.5,-0.109375 2.046875,-0.109375 1.6875,-0.375 1.453125,-0.75 1.203125,-1.15625 1.171875,-1.71875 1.171875,-2.140625 1.171875,-2.5 1.1875,-3.09375 1.46875,-3.546875 1.6875,-3.859375 2.0625,-4.1875 2.609375,-4.1875 c 0.34375,0 0.765625,0.15625 1.0625,0.59375 0.109375,0.171875 0.109375,0.1875 0.109375,0.375 z m 0,0"
           id="path8242" />
      </symbol>
      <symbol
         overflow="visible"
         id="symbol3655">
        <path
           style="stroke:none"
           d="m 2.078125,-1.9375 c 0.21875,0.046875 1.03125,0.203125 1.03125,0.921875 0,0.5 -0.34375,0.90625 -1.125,0.90625 -0.84375,0 -1.203125,-0.5625 -1.390625,-1.421875 C 0.5625,-1.65625 0.5625,-1.6875 0.453125,-1.6875 c -0.125,0 -0.125,0.0625 -0.125,0.234375 V -0.125 c 0,0.171875 0,0.234375 0.109375,0.234375 0.046875,0 0.0625,-0.015625 0.25,-0.203125 0.015625,-0.015625 0.015625,-0.03125 0.203125,-0.21875 0.4375,0.40625 0.890625,0.421875 1.09375,0.421875 1.140625,0 1.609375,-0.671875 1.609375,-1.390625 0,-0.515625 -0.296875,-0.828125 -0.421875,-0.9375 C 2.84375,-2.546875 2.453125,-2.625 2.03125,-2.703125 1.46875,-2.8125 0.8125,-2.9375 0.8125,-3.515625 c 0,-0.359375 0.25,-0.765625 1.109375,-0.765625 1.09375,0 1.15625,0.90625 1.171875,1.203125 0,0.09375 0.09375,0.09375 0.109375,0.09375 0.140625,0 0.140625,-0.046875 0.140625,-0.234375 v -1.015625 c 0,-0.15625 0,-0.234375 -0.109375,-0.234375 -0.046875,0 -0.078125,0 -0.203125,0.125 -0.03125,0.03125 -0.125,0.125 -0.171875,0.15625 -0.375,-0.28125 -0.78125,-0.28125 -0.9375,-0.28125 -1.21875,0 -1.59375,0.671875 -1.59375,1.234375 0,0.34375 0.15625,0.625 0.421875,0.84375 0.328125,0.25 0.609375,0.3125 1.328125,0.453125 z m 0,0"
           id="path7089" />
      </symbol>
    </g>
    <g
       id="g9182">
      <symbol
         overflow="visible"
         id="symbol1406">
        <path
           style="stroke:none"
           d=""
           id="path5202" />
      </symbol>
      <symbol
         overflow="visible"
         id="symbol8806">
        <path
           style="stroke:none"
           d="m 3.296875,2.390625 c 0,-0.03125 0,-0.046875 -0.171875,-0.21875 C 1.890625,0.921875 1.5625,-0.96875 1.5625,-2.5 c 0,-1.734375 0.375,-3.46875 1.609375,-4.703125 0.125,-0.125 0.125,-0.140625 0.125,-0.171875 0,-0.078125 -0.03125,-0.109375 -0.09375,-0.109375 -0.109375,0 -1,0.6875 -1.59375,1.953125 -0.5,1.09375 -0.625,2.203125 -0.625,3.03125 0,0.78125 0.109375,1.984375 0.65625,3.125 C 2.25,1.84375 3.09375,2.5 3.203125,2.5 c 0.0625,0 0.09375,-0.03125 0.09375,-0.109375 z m 0,0"
           id="path564" />
      </symbol>
      <symbol
         overflow="visible"
         id="symbol8841">
        <path
           style="stroke:none"
           d="m 2.9375,-6.375 c 0,-0.25 0,-0.265625 -0.234375,-0.265625 C 2.078125,-6 1.203125,-6 0.890625,-6 v 0.3125 c 0.203125,0 0.78125,0 1.296875,-0.265625 v 5.171875 c 0,0.359375 -0.03125,0.46875 -0.921875,0.46875 h -0.3125 V 0 c 0.34375,-0.03125 1.203125,-0.03125 1.609375,-0.03125 0.390625,0 1.265625,0 1.609375,0.03125 v -0.3125 h -0.3125 c -0.90625,0 -0.921875,-0.109375 -0.921875,-0.46875 z m 0,0"
           id="path8183" />
      </symbol>
      <symbol
         overflow="visible"
         id="symbol8805">
        <path
           style="stroke:none"
           d="m 2.875,-2.5 c 0,-0.765625 -0.109375,-1.96875 -0.65625,-3.109375 -0.59375,-1.21875 -1.453125,-1.875 -1.546875,-1.875 -0.0625,0 -0.109375,0.046875 -0.109375,0.109375 0,0.03125 0,0.046875 0.1875,0.234375 0.984375,0.984375 1.546875,2.5625 1.546875,4.640625 0,1.71875 -0.359375,3.46875 -1.59375,4.71875 C 0.5625,2.34375 0.5625,2.359375 0.5625,2.390625 0.5625,2.453125 0.609375,2.5 0.671875,2.5 0.765625,2.5 1.671875,1.8125 2.25,0.546875 2.765625,-0.546875 2.875,-1.65625 2.875,-2.5 Z m 0,0"
           id="path1126" />
      </symbol>
    </g>
    <g
       id="g7105">
      <symbol
         overflow="visible"
         id="symbol1224">
        <path
           style="stroke:none"
           d=""
           id="path7414" />
      </symbol>
      <symbol
         overflow="visible"
         id="symbol6130">
        <path
           style="stroke:none"
           d="m 2.9375,-6.375 c 0,-0.25 0,-0.265625 -0.234375,-0.265625 C 2.078125,-6 1.203125,-6 0.890625,-6 v 0.3125 c 0.203125,0 0.78125,0 1.296875,-0.265625 v 5.171875 c 0,0.359375 -0.03125,0.46875 -0.921875,0.46875 h -0.3125 V 0 c 0.34375,-0.03125 1.203125,-0.03125 1.609375,-0.03125 0.390625,0 1.265625,0 1.609375,0.03125 v -0.3125 h -0.3125 c -0.90625,0 -0.921875,-0.109375 -0.921875,-0.46875 z m 0,0"
           id="path4525" />
      </symbol>
      <symbol
         overflow="visible"
         id="symbol5166">
        <path
           style="stroke:none"
           d=""
           id="path6490" />
      </symbol>
      <symbol
         overflow="visible"
         id="symbol8295">
        <path
           style="stroke:none"
           d="M 5.296875,-7.703125 C 5.03125,-7.671875 4.75,-7.65625 4.484375,-7.59375 c -2.265625,0.53125 -3.9375,2.625 -3.9375,5.078125 0,2.15625 1.34375,4.375 3.65625,5.03125 0.4375,0.125 0.890625,0.203125 1.34375,0.203125 2.75,0 4.875,-2.359375 4.96875,-5.015625 V -2.5 C 10.515625,-5.171875 8.5,-7.703125 5.4375,-7.703125 Z m -4.34375,5.40625 V -2.4375 c 0,-2.484375 1.78125,-4.875 4.578125,-4.875 H 5.671875 C 8.03125,-7.203125 10.125,-5.203125 10.125,-2.5 10.125,-0.0625 8.25,2.296875 5.5,2.296875 3.328125,2.296875 1.4375,0.609375 1.03125,-1.5625 0.984375,-1.796875 0.984375,-2.046875 0.953125,-2.296875 Z m 0,0"
           id="path3231" />
      </symbol>
    </g>
    <g
       id="g3796">
      <symbol
         overflow="visible"
         id="symbol9218">
        <path
           style="stroke:none"
           d=""
           id="path3857" />
      </symbol>
      <symbol
         overflow="visible"
         id="symbol9734">
        <path
           style="stroke:none"
           d="m 1.265625,-0.765625 1.0625,-1.03125 c 1.546875,-1.375 2.140625,-1.90625 2.140625,-2.90625 0,-1.140625 -0.890625,-1.9375 -2.109375,-1.9375 -1.125,0 -1.859375,0.921875 -1.859375,1.8125 0,0.546875 0.5,0.546875 0.53125,0.546875 0.171875,0 0.515625,-0.109375 0.515625,-0.53125 0,-0.25 -0.1875,-0.515625 -0.53125,-0.515625 -0.078125,0 -0.09375,0 -0.125,0.015625 0.21875,-0.65625 0.765625,-1.015625 1.34375,-1.015625 0.90625,0 1.328125,0.8125 1.328125,1.625 C 3.5625,-3.90625 3.078125,-3.125 2.515625,-2.5 l -1.90625,2.125 C 0.5,-0.265625 0.5,-0.234375 0.5,0 H 4.203125 L 4.46875,-1.734375 H 4.234375 C 4.171875,-1.4375 4.109375,-1 4,-0.84375 3.9375,-0.765625 3.28125,-0.765625 3.0625,-0.765625 Z m 0,0"
           id="path937" />
      </symbol>
      <symbol
         overflow="visible"
         id="symbol4092">
        <path
           style="stroke:none"
           d=""
           id="path7106" />
      </symbol>
      <symbol
         overflow="visible"
         id="symbol4930">
        <path
           style="stroke:none"
           d="M 5.296875,-7.703125 C 5.03125,-7.671875 4.75,-7.65625 4.484375,-7.59375 c -2.265625,0.53125 -3.9375,2.625 -3.9375,5.078125 0,2.15625 1.34375,4.375 3.65625,5.03125 0.4375,0.125 0.890625,0.203125 1.34375,0.203125 2.75,0 4.875,-2.359375 4.96875,-5.015625 V -2.5 C 10.515625,-5.171875 8.5,-7.703125 5.4375,-7.703125 Z m -4.34375,5.40625 V -2.4375 c 0,-2.484375 1.78125,-4.875 4.578125,-4.875 H 5.671875 C 8.03125,-7.203125 10.125,-5.203125 10.125,-2.5 10.125,-0.0625 8.25,2.296875 5.5,2.296875 3.328125,2.296875 1.4375,0.609375 1.03125,-1.5625 0.984375,-1.796875 0.984375,-2.046875 0.953125,-2.296875 Z m 0,0"
           id="path3861" />
      </symbol>
    </g>
    <g
       id="g8008">
      <symbol
         overflow="visible"
         id="symbol3140">
        <path
           style="stroke:none"
           d=""
           id="path5446" />
      </symbol>
      <symbol
         overflow="visible"
         id="symbol2381">
        <path
           style="stroke:none"
           d="m 2.890625,-3.515625 c 0.8125,-0.265625 1.390625,-0.953125 1.390625,-1.75 0,-0.8125 -0.875,-1.375 -1.828125,-1.375 -1,0 -1.765625,0.59375 -1.765625,1.359375 0,0.328125 0.21875,0.515625 0.515625,0.515625 0.296875,0 0.5,-0.21875 0.5,-0.515625 0,-0.484375 -0.46875,-0.484375 -0.609375,-0.484375 0.296875,-0.5 0.953125,-0.625 1.3125,-0.625 0.421875,0 0.96875,0.21875 0.96875,1.109375 0,0.125 -0.03125,0.703125 -0.28125,1.140625 C 2.796875,-3.65625 2.453125,-3.625 2.203125,-3.625 2.125,-3.609375 1.890625,-3.59375 1.8125,-3.59375 c -0.078125,0.015625 -0.140625,0.03125 -0.140625,0.125 0,0.109375 0.0625,0.109375 0.234375,0.109375 h 0.4375 c 0.8125,0 1.1875,0.671875 1.1875,1.65625 0,1.359375 -0.6875,1.640625 -1.125,1.640625 -0.4375,0 -1.1875,-0.171875 -1.53125,-0.75 0.34375,0.046875 0.65625,-0.171875 0.65625,-0.546875 0,-0.359375 -0.265625,-0.5625 -0.546875,-0.5625 -0.25,0 -0.5625,0.140625 -0.5625,0.578125 0,0.90625 0.921875,1.5625 2.015625,1.5625 1.21875,0 2.125,-0.90625 2.125,-1.921875 0,-0.8125 -0.640625,-1.59375 -1.671875,-1.8125 z m 0,0"
           id="path8141" />
      </symbol>
      <symbol
         overflow="visible"
         id="symbol917">
        <path
           style="stroke:none"
           d=""
           id="path9608" />
      </symbol>
      <symbol
         overflow="visible"
         id="symbol9865">
        <path
           style="stroke:none"
           d="M 5.296875,-7.703125 C 5.03125,-7.671875 4.75,-7.65625 4.484375,-7.59375 c -2.265625,0.53125 -3.9375,2.625 -3.9375,5.078125 0,2.15625 1.34375,4.375 3.65625,5.03125 0.4375,0.125 0.890625,0.203125 1.34375,0.203125 2.75,0 4.875,-2.359375 4.96875,-5.015625 V -2.5 C 10.515625,-5.171875 8.5,-7.703125 5.4375,-7.703125 Z m -4.34375,5.40625 V -2.4375 c 0,-2.484375 1.78125,-4.875 4.578125,-4.875 H 5.671875 C 8.03125,-7.203125 10.125,-5.203125 10.125,-2.5 10.125,-0.0625 8.25,2.296875 5.5,2.296875 3.328125,2.296875 1.4375,0.609375 1.03125,-1.5625 0.984375,-1.796875 0.984375,-2.046875 0.953125,-2.296875 Z m 0,0"
           id="path825" />
      </symbol>
    </g>
    <g
       id="g8347">
      <symbol
         overflow="visible"
         id="symbol417">
        <path
           style="stroke:none"
           d=""
           id="path6364" />
      </symbol>
      <symbol
         overflow="visible"
         id="symbol1037">
        <path
           style="stroke:none"
           d="m 2.9375,-1.640625 v 0.859375 c 0,0.359375 -0.03125,0.46875 -0.765625,0.46875 H 1.96875 V 0 C 2.375,-0.03125 2.890625,-0.03125 3.3125,-0.03125 c 0.421875,0 0.9375,0 1.359375,0.03125 v -0.3125 h -0.21875 c -0.734375,0 -0.75,-0.109375 -0.75,-0.46875 V -1.640625 H 4.6875 v -0.3125 H 3.703125 v -4.53125 c 0,-0.203125 0,-0.265625 -0.171875,-0.265625 -0.078125,0 -0.109375,0 -0.1875,0.125 l -3.0625,4.671875 v 0.3125 z m 0.046875,-0.3125 H 0.5625 l 2.421875,-3.71875 z m 0,0"
           id="path2918" />
      </symbol>
      <symbol
         overflow="visible"
         id="symbol1267">
        <path
           style="stroke:none"
           d=""
           id="path4948" />
      </symbol>
      <symbol
         overflow="visible"
         id="symbol6234">
        <path
           style="stroke:none"
           d="M 5.296875,-7.703125 C 5.03125,-7.671875 4.75,-7.65625 4.484375,-7.59375 c -2.265625,0.53125 -3.9375,2.625 -3.9375,5.078125 0,2.15625 1.34375,4.375 3.65625,5.03125 0.4375,0.125 0.890625,0.203125 1.34375,0.203125 2.75,0 4.875,-2.359375 4.96875,-5.015625 V -2.5 C 10.515625,-5.171875 8.5,-7.703125 5.4375,-7.703125 Z m -4.34375,5.40625 V -2.4375 c 0,-2.484375 1.78125,-4.875 4.578125,-4.875 H 5.671875 C 8.03125,-7.203125 10.125,-5.203125 10.125,-2.5 10.125,-0.0625 8.25,2.296875 5.5,2.296875 3.328125,2.296875 1.4375,0.609375 1.03125,-1.5625 0.984375,-1.796875 0.984375,-2.046875 0.953125,-2.296875 Z m 0,0"
           id="path8849" />
      </symbol>
    </g>
    <g
       id="g9012">
      <symbol
         overflow="visible"
         id="symbol5570">
        <path
           style="stroke:none"
           d=""
           id="path5883" />
      </symbol>
      <symbol
         overflow="visible"
         id="symbol2722">
        <path
           style="stroke:none"
           d="m 4.46875,-2 c 0,-1.1875 -0.8125,-2.1875 -1.890625,-2.1875 -0.46875,0 -0.90625,0.15625 -1.265625,0.515625 V -5.625 c 0.203125,0.0625 0.53125,0.125 0.84375,0.125 1.234375,0 1.9375,-0.90625 1.9375,-1.03125 0,-0.0625 -0.03125,-0.109375 -0.109375,-0.109375 0,0 -0.03125,0 -0.078125,0.03125 C 3.703125,-6.515625 3.21875,-6.3125 2.546875,-6.3125 2.15625,-6.3125 1.6875,-6.390625 1.21875,-6.59375 1.140625,-6.625 1.125,-6.625 1.109375,-6.625 1,-6.625 1,-6.546875 1,-6.390625 V -3.4375 c 0,0.171875 0,0.25 0.140625,0.25 0.078125,0 0.09375,-0.015625 0.140625,-0.078125 C 1.390625,-3.421875 1.75,-3.96875 2.5625,-3.96875 c 0.515625,0 0.765625,0.453125 0.84375,0.640625 0.15625,0.375 0.1875,0.75 0.1875,1.25 0,0.359375 0,0.953125 -0.25,1.375 C 3.109375,-0.3125 2.734375,-0.0625 2.28125,-0.0625 c -0.71875,0 -1.296875,-0.53125 -1.46875,-1.109375 0.03125,0 0.0625,0.015625 0.171875,0.015625 0.328125,0 0.5,-0.25 0.5,-0.484375 0,-0.25 -0.171875,-0.5 -0.5,-0.5 C 0.84375,-2.140625 0.5,-2.0625 0.5,-1.609375 0.5,-0.75 1.1875,0.21875 2.296875,0.21875 3.453125,0.21875 4.46875,-0.734375 4.46875,-2 Z m 0,0"
           id="path8128" />
      </symbol>
      <symbol
         overflow="visible"
         id="symbol8684">
        <path
           style="stroke:none"
           d=""
           id="path8925" />
      </symbol>
      <symbol
         overflow="visible"
         id="symbol5985">
        <path
           style="stroke:none"
           d="M 5.296875,-7.703125 C 5.03125,-7.671875 4.75,-7.65625 4.484375,-7.59375 c -2.265625,0.53125 -3.9375,2.625 -3.9375,5.078125 0,2.15625 1.34375,4.375 3.65625,5.03125 0.4375,0.125 0.890625,0.203125 1.34375,0.203125 2.75,0 4.875,-2.359375 4.96875,-5.015625 V -2.5 C 10.515625,-5.171875 8.5,-7.703125 5.4375,-7.703125 Z m -4.34375,5.40625 V -2.4375 c 0,-2.484375 1.78125,-4.875 4.578125,-4.875 H 5.671875 C 8.03125,-7.203125 10.125,-5.203125 10.125,-2.5 10.125,-0.0625 8.25,2.296875 5.5,2.296875 3.328125,2.296875 1.4375,0.609375 1.03125,-1.5625 0.984375,-1.796875 0.984375,-2.046875 0.953125,-2.296875 Z m 0,0"
           id="path3692" />
      </symbol>
    </g>
    <g
       id="g701">
      <symbol
         overflow="visible"
         id="symbol6120">
        <path
           style="stroke:none"
           d=""
           id="path2046" />
      </symbol>
      <symbol
         overflow="visible"
         id="symbol87">
        <path
           style="stroke:none"
           d="m 1.3125,-3.265625 v -0.25 c 0,-2.515625 1.234375,-2.875 1.75,-2.875 0.234375,0 0.65625,0.0625 0.875,0.40625 -0.15625,0 -0.546875,0 -0.546875,0.4375 0,0.3125 0.234375,0.46875 0.453125,0.46875 0.15625,0 0.46875,-0.09375 0.46875,-0.484375 0,-0.59375 -0.4375,-1.078125 -1.265625,-1.078125 -1.28125,0 -2.625,1.28125 -2.625,3.484375 0,2.671875 1.15625,3.375 2.078125,3.375 1.109375,0 2.0625,-0.9375 2.0625,-2.25 0,-1.265625 -0.890625,-2.21875 -2,-2.21875 -0.671875,0 -1.046875,0.5 -1.25,0.984375 z M 2.5,-0.0625 c -0.625,0 -0.921875,-0.59375 -0.984375,-0.75 -0.1875,-0.46875 -0.1875,-1.265625 -0.1875,-1.4375 0,-0.78125 0.328125,-1.78125 1.21875,-1.78125 0.171875,0 0.625,0 0.9375,0.625 0.171875,0.359375 0.171875,0.875 0.171875,1.359375 0,0.484375 0,0.984375 -0.171875,1.34375 C 3.1875,-0.109375 2.734375,-0.0625 2.5,-0.0625 Z m 0,0"
           id="path5100" />
      </symbol>
      <symbol
         overflow="visible"
         id="symbol2094">
        <path
           style="stroke:none"
           d=""
           id="path6753" />
      </symbol>
      <symbol
         overflow="visible"
         id="symbol8033">
        <path
           style="stroke:none"
           d="M 5.296875,-7.703125 C 5.03125,-7.671875 4.75,-7.65625 4.484375,-7.59375 c -2.265625,0.53125 -3.9375,2.625 -3.9375,5.078125 0,2.15625 1.34375,4.375 3.65625,5.03125 0.4375,0.125 0.890625,0.203125 1.34375,0.203125 2.75,0 4.875,-2.359375 4.96875,-5.015625 V -2.5 C 10.515625,-5.171875 8.5,-7.703125 5.4375,-7.703125 Z m -4.34375,5.40625 V -2.4375 c 0,-2.484375 1.78125,-4.875 4.578125,-4.875 H 5.671875 C 8.03125,-7.203125 10.125,-5.203125 10.125,-2.5 10.125,-0.0625 8.25,2.296875 5.5,2.296875 3.328125,2.296875 1.4375,0.609375 1.03125,-1.5625 0.984375,-1.796875 0.984375,-2.046875 0.953125,-2.296875 Z m 0,0"
           id="path6894" />
      </symbol>
    </g>
    <g
       id="g5872">
      <symbol
         overflow="visible"
         id="symbol5359">
        <path
           style="stroke:none"
           d=""
           id="path8685" />
      </symbol>
      <symbol
         overflow="visible"
         id="symbol7072">
        <path
           style="stroke:none"
           d="m 3.78125,-0.546875 v 0.65625 L 5.25,0 v -0.3125 c -0.6875,0 -0.78125,-0.0625 -0.78125,-0.5625 V -6.921875 L 3.046875,-6.8125 V -6.5 c 0.6875,0 0.765625,0.0625 0.765625,0.5625 v 2.15625 c -0.28125,-0.359375 -0.71875,-0.625 -1.25,-0.625 -1.171875,0 -2.21875,0.984375 -2.21875,2.265625 0,1.265625 0.96875,2.25 2.109375,2.25 0.640625,0 1.078125,-0.34375 1.328125,-0.65625 z m 0,-2.671875 v 2.046875 c 0,0.171875 0,0.1875 -0.109375,0.359375 C 3.375,-0.328125 2.9375,-0.109375 2.5,-0.109375 2.046875,-0.109375 1.6875,-0.375 1.453125,-0.75 1.203125,-1.15625 1.171875,-1.71875 1.171875,-2.140625 1.171875,-2.5 1.1875,-3.09375 1.46875,-3.546875 1.6875,-3.859375 2.0625,-4.1875 2.609375,-4.1875 c 0.34375,0 0.765625,0.15625 1.0625,0.59375 0.109375,0.171875 0.109375,0.1875 0.109375,0.375 z m 0,0"
           id="path1243" />
      </symbol>
      <symbol
         overflow="visible"
         id="symbol8543">
        <path
           style="stroke:none"
           d="m 2.078125,-1.9375 c 0.21875,0.046875 1.03125,0.203125 1.03125,0.921875 0,0.5 -0.34375,0.90625 -1.125,0.90625 -0.84375,0 -1.203125,-0.5625 -1.390625,-1.421875 C 0.5625,-1.65625 0.5625,-1.6875 0.453125,-1.6875 c -0.125,0 -0.125,0.0625 -0.125,0.234375 V -0.125 c 0,0.171875 0,0.234375 0.109375,0.234375 0.046875,0 0.0625,-0.015625 0.25,-0.203125 0.015625,-0.015625 0.015625,-0.03125 0.203125,-0.21875 0.4375,0.40625 0.890625,0.421875 1.09375,0.421875 1.140625,0 1.609375,-0.671875 1.609375,-1.390625 0,-0.515625 -0.296875,-0.828125 -0.421875,-0.9375 C 2.84375,-2.546875 2.453125,-2.625 2.03125,-2.703125 1.46875,-2.8125 0.8125,-2.9375 0.8125,-3.515625 c 0,-0.359375 0.25,-0.765625 1.109375,-0.765625 1.09375,0 1.15625,0.90625 1.171875,1.203125 0,0.09375 0.09375,0.09375 0.109375,0.09375 0.140625,0 0.140625,-0.046875 0.140625,-0.234375 v -1.015625 c 0,-0.15625 0,-0.234375 -0.109375,-0.234375 -0.046875,0 -0.078125,0 -0.203125,0.125 -0.03125,0.03125 -0.125,0.125 -0.171875,0.15625 -0.375,-0.28125 -0.78125,-0.28125 -0.9375,-0.28125 -1.21875,0 -1.59375,0.671875 -1.59375,1.234375 0,0.34375 0.15625,0.625 0.421875,0.84375 0.328125,0.25 0.609375,0.3125 1.328125,0.453125 z m 0,0"
           id="path8087" />
      </symbol>
      <symbol
         overflow="visible"
         id="symbol1753">
        <path
           style="stroke:none"
           d="m 1.71875,-3.984375 h 1.4375 v -0.3125 H 1.71875 V -6.125 h -0.25 c 0,0.8125 -0.296875,1.875 -1.28125,1.921875 v 0.21875 h 0.84375 v 2.75 c 0,1.21875 0.9375,1.34375 1.296875,1.34375 0.703125,0 0.984375,-0.703125 0.984375,-1.34375 v -0.5625 h -0.25 V -1.25 c 0,0.734375 -0.296875,1.109375 -0.671875,1.109375 -0.671875,0 -0.671875,-0.90625 -0.671875,-1.078125 z m 0,0"
           id="path1947" />
      </symbol>
      <symbol
         overflow="visible"
         id="symbol4237">
        <path
           style="stroke:none"
           d=""
           id="path1110" />
      </symbol>
      <symbol
         overflow="visible"
         id="symbol5041">
        <path
           style="stroke:none"
           d="M 5.296875,-7.703125 C 5.03125,-7.671875 4.75,-7.65625 4.484375,-7.59375 c -2.265625,0.53125 -3.9375,2.625 -3.9375,5.078125 0,2.15625 1.34375,4.375 3.65625,5.03125 0.4375,0.125 0.890625,0.203125 1.34375,0.203125 2.75,0 4.875,-2.359375 4.96875,-5.015625 V -2.5 C 10.515625,-5.171875 8.5,-7.703125 5.4375,-7.703125 Z m -4.34375,5.40625 V -2.4375 c 0,-2.484375 1.78125,-4.875 4.578125,-4.875 H 5.671875 C 8.03125,-7.203125 10.125,-5.203125 10.125,-2.5 10.125,-0.0625 8.25,2.296875 5.5,2.296875 3.328125,2.296875 1.4375,0.609375 1.03125,-1.5625 0.984375,-1.796875 0.984375,-2.046875 0.953125,-2.296875 Z m 0,0"
           id="path9101" />
      </symbol>
    </g>
    <g
       id="g9661">
      <symbol
         overflow="visible"
         id="symbol9288">
        <path
           style="stroke:none"
           d=""
           id="path8783" />
      </symbol>
      <symbol
         overflow="visible"
         id="symbol6230">
        <path
           style="stroke:none"
           d="M 1.765625,-6.921875 0.328125,-6.8125 V -6.5 c 0.703125,0 0.78125,0.0625 0.78125,0.5625 V -0.75 c 0,0.4375 -0.109375,0.4375 -0.78125,0.4375 V 0 C 0.65625,-0.015625 1.1875,-0.03125 1.4375,-0.03125 c 0.25,0 0.734375,0.015625 1.109375,0.03125 v -0.3125 c -0.671875,0 -0.78125,0 -0.78125,-0.4375 z m 0,0"
           id="path3091" />
      </symbol>
    </g>
    <pattern
       patternUnits="userSpaceOnUse"
       width="12.522523"
       height="204.51382"
       patternTransform="translate(304.92865,380.25677)"
       id="pattern7280">
      <path
         style="fill:none;fill-opacity:1;stroke:#000000;stroke-width:0.375917;stroke-miterlimit:4;stroke-dasharray:none;stroke-opacity:1"
         id="path6089-2"
         sodipodi:type="arc"
         sodipodi:cx="38.663231"
         sodipodi:cy="102.25691"
         sodipodi:rx="37.940193"
         sodipodi:ry="144.35774"
         sodipodi:start="2.3561945"
         sodipodi:end="3.9269908"
         sodipodi:arc-type="arc"
         sodipodi:open="true"
         d="m 11.835463,204.33325 a 37.940193,144.35774 0 0 1 0,-204.15267454" />
    </pattern>
  </defs>
  <g
     inkscape:label="Layer 1"
     inkscape:groupmode="layer"
     id="layer1"
     transform="translate(-6.9463277,-92.277898)">
    <path
       id="path157"
       style="fill:none;stroke:#000000;stroke-width:1.5;stroke-linecap:butt;stroke-linejoin:miter;stroke-miterlimit:4;stroke-dasharray:none;stroke-opacity:1"
       d="m 282.16591,133.09706 251.20768,-1e-5"
       transform="matrix(0.26458333,0,0,0.26458333,6.9463277,92.277898)" />
    <path
       id="path9792"
       style="fill:none;stroke:#000000;stroke-width:1.5;stroke-linecap:butt;stroke-linejoin:miter;stroke-miterlimit:4;stroke-dasharray:none;stroke-opacity:1"
       d="M 22.31564,133.09705 H 219.51927"
       transform="matrix(0.26458333,0,0,0.26458333,6.9463277,92.277898)" />
    <g
       id="g1198"
       transform="matrix(0.72993381,0,0,0.72993381,0.76247336,39.688376)">
      <ellipse
         style="fill:#cccccc;fill-rule:evenodd;stroke-width:0.264583"
         id="path1078"
         cx="22.113424"
         cy="103.84187"
         rx="3.1611745"
         ry="6.3223491" />
      <circle
         style="fill:#ffdd55;fill-rule:evenodd;stroke-width:0.264583"
         id="path1076"
         cx="22.113424"
         cy="100.76724"
         r="6.5091491" />
    </g>
    <path
       style="fill:none;stroke:#000000;stroke-width:1.05833;stroke-linecap:butt;stroke-linejoin:miter;stroke-miterlimit:4;stroke-dasharray:none;stroke-opacity:1;marker-end:url(#Arrow2Mend)"
       d="M 31.508649,127.60084 V 105.70941"
       id="path1251" />
    <path
       style="fill:none;stroke:#000000;stroke-width:1.93258;stroke-linecap:butt;stroke-linejoin:miter;stroke-miterlimit:4;stroke-dasharray:none;stroke-opacity:1;marker-end:url(#Arrow2Mend-3)"
       d="m 135.92397,127.37555 v 32.44313"
       id="path1251-7" />
    <g
       inkscape:label=""
       transform="matrix(0.57240048,0,0,0.57240048,-48.048006,61.135332)"
       id="g2377">
      <g
         id="g525"
         transform="translate(3.6047949,-0.70341776)">
        <g
           style="fill:#000000;fill-opacity:1"
           id="g6235"
           transform="translate(0,1.0583333)">
          <use
             xlink:href="#symbol6130"
             x="94.968002"
             y="81.663002"
             id="use9086"
             width="100%"
             height="100%" />
        </g>
        <g
           style="fill:#000000;fill-opacity:1"
           id="g1709">
          <use
             xlink:href="#symbol8295"
             x="91.925003"
             y="81.962997"
             id="use4829"
             width="100%"
             height="100%" />
        </g>
      </g>
    </g>
    <g
       inkscape:label=""
       transform="matrix(0.57240048,0,0,0.57240048,-26.928416,54.400666)"
       id="g2542">
      <g
         id="g3384">
        <g
           style="fill:#000000;fill-opacity:1"
           id="g5473"
           transform="translate(0,1.0583333)">
          <use
             xlink:href="#symbol9734"
             x="94.968002"
             y="81.663002"
             id="use4598"
             width="100%"
             height="100%" />
        </g>
        <g
           style="fill:#000000;fill-opacity:1"
           id="g7842">
          <use
             xlink:href="#symbol4930"
             x="91.925003"
             y="81.962997"
             id="use3616"
             width="100%"
             height="100%" />
        </g>
      </g>
    </g>
    <g
       inkscape:label=""
       transform="matrix(0.57240048,0,0,0.57240048,18.256733,49.771511)"
       id="g2737">
      <g
         id="g6314">
        <g
           style="fill:#000000;fill-opacity:1"
           id="g2558"
           transform="translate(0,1.0583333)">
          <use
             xlink:href="#symbol2381"
             x="94.968002"
             y="81.663002"
             id="use1148"
             width="100%"
             height="100%" />
        </g>
        <g
           style="fill:#000000;fill-opacity:1"
           id="g3935">
          <use
             xlink:href="#symbol9865"
             x="91.925003"
             y="81.962997"
             id="use2822"
             width="100%"
             height="100%" />
        </g>
      </g>
    </g>
    <g
       inkscape:label=""
       transform="matrix(0.57240048,0,0,0.57240048,43.60739,78.011896)"
       id="g2963">
      <g
         id="g7768">
        <g
           style="fill:#000000;fill-opacity:1"
           id="g8016"
           transform="translate(0,1.0583333)">
          <use
             xlink:href="#symbol1037"
             x="94.968002"
             y="81.663002"
             id="use3715"
             width="100%"
             height="100%" />
        </g>
        <g
           style="fill:#000000;fill-opacity:1"
           id="g5823">
          <use
             xlink:href="#symbol6234"
             x="91.925003"
             y="81.962997"
             id="use7169"
             width="100%"
             height="100%" />
        </g>
      </g>
    </g>
    <g
       inkscape:label=""
       transform="matrix(0.57240048,0,0,0.57240048,73.077992,115.10954)"
       id="g3218">
      <g
         id="g924">
        <g
           style="fill:#000000;fill-opacity:1"
           id="g9611"
           transform="translate(0,1.0583333)">
          <use
             xlink:href="#symbol2722"
             x="94.968002"
             y="81.663002"
             id="use5495"
             width="100%"
             height="100%" />
        </g>
        <g
           style="fill:#000000;fill-opacity:1"
           id="g3564">
          <use
             xlink:href="#symbol5985"
             x="91.925003"
             y="81.962997"
             id="use7017"
             width="100%"
             height="100%" />
        </g>
      </g>
    </g>
    <g
       inkscape:label=""
       transform="matrix(0.57240048,0,0,0.57240048,136.09258,76.721539)"
       id="g3503">
      <g
         id="g9999">
        <g
           style="fill:#000000;fill-opacity:1"
           id="g9574"
           transform="translate(0,1.0583333)">
          <use
             xlink:href="#symbol87"
             x="94.968002"
             y="81.663002"
             id="use3010"
             width="100%"
             height="100%" />
        </g>
        <g
           style="fill:#000000;fill-opacity:1"
           id="g8635">
          <use
             xlink:href="#symbol8033"
             x="91.925003"
             y="81.962997"
             id="use171"
             width="100%"
             height="100%" />
        </g>
      </g>
    </g>
    <g
       inkscape:label=""
       transform="matrix(0.8356782,0,0,0.8356782,-41.446867,52.43708)"
       id="g4522">
      <g
         id="g1606">
        <g
           style="fill:#000000;fill-opacity:1"
           id="g7776">
          <use
             xlink:href="#symbol6230"
             x="91.925003"
             y="81.962997"
             id="use5934"
             width="100%"
             height="100%" />
        </g>
      </g>
    </g>
    <g
       id="g8821"
       transform="translate(19.722008,19.293494)">
      <circle
         style="fill:#666666;stroke:none;stroke-width:0.571356;stroke-miterlimit:4;stroke-dasharray:none;stroke-opacity:1"
         id="path5803"
         cx="160.53395"
         cy="110.98721"
         r="3.9149814" />
      <rect
         style="fill:#666666;stroke:none;stroke-width:0.396875;stroke-miterlimit:4;stroke-dasharray:none;stroke-opacity:1"
         id="rect5312"
         width="18.134232"
         height="6.3899665"
         x="142.86755"
         y="111.73782"
         rx="0"
         ry="0.962421" />
      <rect
         style="fill:#80e5ff;stroke:none;stroke-width:0.396875;stroke-miterlimit:4;stroke-dasharray:none;stroke-opacity:1"
         id="rect5312-5"
         width="18.134232"
         height="3.5039454"
         x="166.46365"
         y="112.31108"
         rx="0"
         ry="0.962421" />
      <rect
         style="fill:#808080;stroke:none;stroke-width:0.370458;stroke-miterlimit:4;stroke-dasharray:none;stroke-opacity:1"
         id="rect4980"
         width="34.79768"
         height="17.567266"
         x="147.82358"
         y="109.9259"
         rx="4.2250462"
         ry="4.2250462" />
    </g>
    <path
       style="fill:none;fill-opacity:1;stroke:#000000;stroke-width:0.375917;stroke-miterlimit:4;stroke-dasharray:none;stroke-opacity:1"
       id="path6089"
       sodipodi:type="arc"
       sodipodi:cx="75.033691"
       sodipodi:cy="127.66508"
       sodipodi:rx="10.038342"
       sodipodi:ry="38.194653"
       sodipodi:start="2.3561945"
       sodipodi:end="3.9269908"
       sodipodi:arc-type="arc"
       d="m 67.935511,154.67277 a 10.038342,38.194653 0 0 1 0,-54.01539"
       sodipodi:open="true" />
    <path
       style="fill:none;fill-opacity:1;stroke:#000000;stroke-width:0.375917;stroke-miterlimit:4;stroke-dasharray:none;stroke-opacity:1"
       id="path6089-1"
       sodipodi:type="arc"
       sodipodi:cx="-71.420662"
       sodipodi:cy="-127.66508"
       sodipodi:rx="10.038342"
       sodipodi:ry="38.194653"
       sodipodi:start="2.3561945"
       sodipodi:end="3.9269908"
       sodipodi:arc-type="arc"
       sodipodi:open="true"
       d="m -78.518842,-100.65738 a 10.038342,38.194653 0 0 1 0,-54.01539"
       transform="scale(-1)" />
  </g>
</svg>
