<?xml version="1.0" encoding="utf-8" standalone="no"?>
<!DOCTYPE svg PUBLIC "-//W3C//DTD SVG 1.1//EN"
  "http://www.w3.org/Graphics/SVG/1.1/DTD/svg11.dtd">
<svg xmlns:xlink="http://www.w3.org/1999/xlink" width="377.017613pt" height="255.867796pt" viewBox="0 0 377.017613 255.867796" xmlns="http://www.w3.org/2000/svg" version="1.1">
 <metadata>
  <rdf:RDF xmlns:dc="http://purl.org/dc/elements/1.1/" xmlns:cc="http://creativecommons.org/ns#" xmlns:rdf="http://www.w3.org/1999/02/22-rdf-syntax-ns#">
   <cc:Work>
    <dc:type rdf:resource="http://purl.org/dc/dcmitype/StillImage"/>
    <dc:date>2023-05-22T21:44:26.533685</dc:date>
    <dc:format>image/svg+xml</dc:format>
    <dc:creator>
     <cc:Agent>
      <dc:title>Matplotlib v3.7.1, https://matplotlib.org/</dc:title>
     </cc:Agent>
    </dc:creator>
   </cc:Work>
  </rdf:RDF>
 </metadata>
 <defs>
  <style type="text/css">*{stroke-linejoin: round; stroke-linecap: butt}</style>
 </defs>
 <g id="figure_1">
  <g id="patch_1">
   <path d="M -0 255.867796 
L 377.017613 255.867796 
L 377.017613 0 
L -0 0 
z
" style="fill: #ffffff"/>
  </g>
  <g id="axes_1">
   <g id="patch_2">
    <path d="M 38.617613 225.36 
L 373.417613 225.36 
L 373.417613 3.6 
L 38.617613 3.6 
z
" style="fill: #ffffff"/>
   </g>
   <g id="matplotlib.axis_1">
    <g id="xtick_1">
     <g id="line2d_1">
      <defs>
       <path id="md7f26a28ea" d="M 0 0 
L 0 -3 
" style="stroke: #000000; stroke-width: 0.5"/>
      </defs>
      <g>
       <use xlink:href="#md7f26a28ea" x="89.056913" y="225.36" style="stroke: #000000; stroke-width: 0.5"/>
      </g>
     </g>
     <g id="line2d_2">
      <defs>
       <path id="mcf552f47c3" d="M 0 0 
L 0 3 
" style="stroke: #000000; stroke-width: 0.5"/>
      </defs>
      <g>
       <use xlink:href="#mcf552f47c3" x="89.056913" y="3.6" style="stroke: #000000; stroke-width: 0.5"/>
      </g>
     </g>
     <g id="text_1">
      <!-- $\mathdefault{0.4}$ -->
      <g transform="translate(81.578092 237.093772) scale(0.12 -0.12)">
       <defs>
        <path id="CMR17-30" d="M 2688 2038 
C 2688 2430 2682 3099 2413 3613 
C 2176 4063 1798 4224 1466 4224 
C 1158 4224 768 4082 525 3620 
C 269 3137 243 2539 243 2038 
C 243 1671 250 1112 448 623 
C 723 -39 1216 -128 1466 -128 
C 1760 -128 2208 -7 2470 604 
C 2662 1048 2688 1568 2688 2038 
z
M 1466 -26 
C 1056 -26 813 328 723 816 
C 653 1196 653 1749 653 2109 
C 653 2604 653 3015 736 3407 
C 858 3954 1216 4121 1466 4121 
C 1728 4121 2067 3947 2189 3420 
C 2272 3054 2278 2623 2278 2109 
C 2278 1691 2278 1176 2202 797 
C 2067 96 1690 -26 1466 -26 
z
" transform="scale(0.015625)"/>
        <path id="CMMI12-3a" d="M 1178 307 
C 1178 492 1024 620 870 620 
C 685 620 557 467 557 313 
C 557 128 710 0 864 0 
C 1050 0 1178 153 1178 307 
z
" transform="scale(0.015625)"/>
        <path id="CMR17-34" d="M 2150 4147 
C 2150 4281 2144 4288 2029 4288 
L 128 1254 
L 128 1088 
L 1779 1088 
L 1779 460 
C 1779 230 1766 166 1318 166 
L 1197 166 
L 1197 0 
C 1402 12 1747 12 1965 12 
C 2182 12 2528 12 2733 0 
L 2733 166 
L 2611 166 
C 2163 166 2150 230 2150 460 
L 2150 1088 
L 2803 1088 
L 2803 1254 
L 2150 1254 
L 2150 4147 
z
M 1798 3723 
L 1798 1254 
L 256 1254 
L 1798 3723 
z
" transform="scale(0.015625)"/>
       </defs>
       <use xlink:href="#CMR17-30" transform="scale(0.996264)"/>
       <use xlink:href="#CMMI12-3a" transform="translate(45.690477 0) scale(0.996264)"/>
       <use xlink:href="#CMR17-34" transform="translate(72.787654 0) scale(0.996264)"/>
      </g>
     </g>
    </g>
    <g id="xtick_2">
     <g id="line2d_3">
      <g>
       <use xlink:href="#md7f26a28ea" x="155.511852" y="225.36" style="stroke: #000000; stroke-width: 0.5"/>
      </g>
     </g>
     <g id="line2d_4">
      <g>
       <use xlink:href="#mcf552f47c3" x="155.511852" y="3.6" style="stroke: #000000; stroke-width: 0.5"/>
      </g>
     </g>
     <g id="text_2">
      <!-- $\mathdefault{0.6}$ -->
      <g transform="translate(148.033031 237.093772) scale(0.12 -0.12)">
       <defs>
        <path id="CMR17-36" d="M 678 2198 
C 678 3712 1395 4076 1811 4076 
C 1946 4076 2272 4049 2400 3782 
C 2298 3782 2106 3782 2106 3558 
C 2106 3385 2246 3328 2336 3328 
C 2394 3328 2566 3353 2566 3571 
C 2566 3987 2246 4224 1805 4224 
C 1043 4224 243 3411 243 2011 
C 243 257 966 -128 1478 -128 
C 2099 -128 2688 431 2688 1295 
C 2688 2101 2170 2688 1517 2688 
C 1126 2688 838 2430 678 1979 
L 678 2198 
z
M 1478 25 
C 691 25 691 1212 691 1450 
C 691 1914 909 2585 1504 2585 
C 1613 2585 1926 2585 2138 2140 
C 2253 1889 2253 1624 2253 1302 
C 2253 954 2253 696 2118 438 
C 1978 173 1773 25 1478 25 
z
" transform="scale(0.015625)"/>
       </defs>
       <use xlink:href="#CMR17-30" transform="scale(0.996264)"/>
       <use xlink:href="#CMMI12-3a" transform="translate(45.690477 0) scale(0.996264)"/>
       <use xlink:href="#CMR17-36" transform="translate(72.787654 0) scale(0.996264)"/>
      </g>
     </g>
    </g>
    <g id="xtick_3">
     <g id="line2d_5">
      <g>
       <use xlink:href="#md7f26a28ea" x="221.966792" y="225.36" style="stroke: #000000; stroke-width: 0.5"/>
      </g>
     </g>
     <g id="line2d_6">
      <g>
       <use xlink:href="#mcf552f47c3" x="221.966792" y="3.6" style="stroke: #000000; stroke-width: 0.5"/>
      </g>
     </g>
     <g id="text_3">
      <!-- $\mathdefault{0.8}$ -->
      <g transform="translate(214.487971 237.093772) scale(0.12 -0.12)">
       <defs>
        <path id="CMR17-38" d="M 1741 2289 
C 2144 2494 2554 2803 2554 3298 
C 2554 3884 1990 4224 1472 4224 
C 890 4224 378 3800 378 3215 
C 378 3054 416 2777 666 2533 
C 730 2469 998 2276 1171 2154 
C 883 2006 211 1652 211 945 
C 211 282 838 -128 1459 -128 
C 2144 -128 2720 366 2720 1022 
C 2720 1607 2330 1877 2074 2051 
L 1741 2289 
z
M 902 2855 
C 851 2887 595 3086 595 3388 
C 595 3781 998 4076 1459 4076 
C 1965 4076 2336 3716 2336 3298 
C 2336 2700 1670 2359 1638 2359 
C 1632 2359 1626 2359 1574 2398 
L 902 2855 
z
M 2080 1536 
C 2176 1466 2483 1253 2483 861 
C 2483 385 2010 25 1472 25 
C 890 25 448 443 448 951 
C 448 1459 838 1884 1280 2083 
L 2080 1536 
z
" transform="scale(0.015625)"/>
       </defs>
       <use xlink:href="#CMR17-30" transform="scale(0.996264)"/>
       <use xlink:href="#CMMI12-3a" transform="translate(45.690477 0) scale(0.996264)"/>
       <use xlink:href="#CMR17-38" transform="translate(72.787654 0) scale(0.996264)"/>
      </g>
     </g>
    </g>
    <g id="xtick_4">
     <g id="line2d_7">
      <g>
       <use xlink:href="#md7f26a28ea" x="288.421732" y="225.36" style="stroke: #000000; stroke-width: 0.5"/>
      </g>
     </g>
     <g id="line2d_8">
      <g>
       <use xlink:href="#mcf552f47c3" x="288.421732" y="3.6" style="stroke: #000000; stroke-width: 0.5"/>
      </g>
     </g>
     <g id="text_4">
      <!-- $\mathdefault{1.0}$ -->
      <g transform="translate(280.942911 237.093772) scale(0.12 -0.12)">
       <defs>
        <path id="CMR17-31" d="M 1702 4083 
C 1702 4217 1696 4224 1606 4224 
C 1357 3927 979 3833 621 3820 
C 602 3820 570 3820 563 3808 
C 557 3795 557 3782 557 3648 
C 755 3648 1088 3686 1344 3839 
L 1344 467 
C 1344 243 1331 166 781 166 
L 589 166 
L 589 0 
C 896 6 1216 12 1523 12 
C 1830 12 2150 6 2458 0 
L 2458 166 
L 2266 166 
C 1715 166 1702 236 1702 467 
L 1702 4083 
z
" transform="scale(0.015625)"/>
       </defs>
       <use xlink:href="#CMR17-31" transform="scale(0.996264)"/>
       <use xlink:href="#CMMI12-3a" transform="translate(45.690477 0) scale(0.996264)"/>
       <use xlink:href="#CMR17-30" transform="translate(72.787654 0) scale(0.996264)"/>
      </g>
     </g>
    </g>
    <g id="xtick_5">
     <g id="line2d_9">
      <g>
       <use xlink:href="#md7f26a28ea" x="354.876671" y="225.36" style="stroke: #000000; stroke-width: 0.5"/>
      </g>
     </g>
     <g id="line2d_10">
      <g>
       <use xlink:href="#mcf552f47c3" x="354.876671" y="3.6" style="stroke: #000000; stroke-width: 0.5"/>
      </g>
     </g>
     <g id="text_5">
      <!-- $\mathdefault{1.2}$ -->
      <g transform="translate(347.39785 237.093772) scale(0.12 -0.12)">
       <defs>
        <path id="CMR17-32" d="M 2669 990 
L 2554 990 
C 2490 537 2438 460 2413 422 
C 2381 371 1920 371 1830 371 
L 602 371 
C 832 620 1280 1073 1824 1596 
C 2214 1966 2669 2400 2669 3033 
C 2669 3788 2067 4224 1395 4224 
C 691 4224 262 3603 262 3027 
C 262 2777 448 2745 525 2745 
C 589 2745 781 2783 781 3007 
C 781 3206 614 3264 525 3264 
C 486 3264 448 3257 422 3244 
C 544 3788 915 4057 1306 4057 
C 1862 4057 2227 3616 2227 3033 
C 2227 2477 1901 1998 1536 1583 
L 262 147 
L 262 0 
L 2515 0 
L 2669 990 
z
" transform="scale(0.015625)"/>
       </defs>
       <use xlink:href="#CMR17-31" transform="scale(0.996264)"/>
       <use xlink:href="#CMMI12-3a" transform="translate(45.690477 0) scale(0.996264)"/>
       <use xlink:href="#CMR17-32" transform="translate(72.787654 0) scale(0.996264)"/>
      </g>
     </g>
    </g>
    <g id="xtick_6">
     <g id="line2d_11">
      <defs>
       <path id="ma39f368c64" d="M 0 0 
L 0 -1.5 
" style="stroke: #000000; stroke-width: 0.5"/>
      </defs>
      <g>
       <use xlink:href="#ma39f368c64" x="39.215708" y="225.36" style="stroke: #000000; stroke-width: 0.5"/>
      </g>
     </g>
     <g id="line2d_12">
      <defs>
       <path id="m59cfbdceeb" d="M 0 0 
L 0 1.5 
" style="stroke: #000000; stroke-width: 0.5"/>
      </defs>
      <g>
       <use xlink:href="#m59cfbdceeb" x="39.215708" y="3.6" style="stroke: #000000; stroke-width: 0.5"/>
      </g>
     </g>
    </g>
    <g id="xtick_7">
     <g id="line2d_13">
      <g>
       <use xlink:href="#ma39f368c64" x="55.829443" y="225.36" style="stroke: #000000; stroke-width: 0.5"/>
      </g>
     </g>
     <g id="line2d_14">
      <g>
       <use xlink:href="#m59cfbdceeb" x="55.829443" y="3.6" style="stroke: #000000; stroke-width: 0.5"/>
      </g>
     </g>
    </g>
    <g id="xtick_8">
     <g id="line2d_15">
      <g>
       <use xlink:href="#ma39f368c64" x="72.443178" y="225.36" style="stroke: #000000; stroke-width: 0.5"/>
      </g>
     </g>
     <g id="line2d_16">
      <g>
       <use xlink:href="#m59cfbdceeb" x="72.443178" y="3.6" style="stroke: #000000; stroke-width: 0.5"/>
      </g>
     </g>
    </g>
    <g id="xtick_9">
     <g id="line2d_17">
      <g>
       <use xlink:href="#ma39f368c64" x="105.670648" y="225.36" style="stroke: #000000; stroke-width: 0.5"/>
      </g>
     </g>
     <g id="line2d_18">
      <g>
       <use xlink:href="#m59cfbdceeb" x="105.670648" y="3.6" style="stroke: #000000; stroke-width: 0.5"/>
      </g>
     </g>
    </g>
    <g id="xtick_10">
     <g id="line2d_19">
      <g>
       <use xlink:href="#ma39f368c64" x="122.284383" y="225.36" style="stroke: #000000; stroke-width: 0.5"/>
      </g>
     </g>
     <g id="line2d_20">
      <g>
       <use xlink:href="#m59cfbdceeb" x="122.284383" y="3.6" style="stroke: #000000; stroke-width: 0.5"/>
      </g>
     </g>
    </g>
    <g id="xtick_11">
     <g id="line2d_21">
      <g>
       <use xlink:href="#ma39f368c64" x="138.898117" y="225.36" style="stroke: #000000; stroke-width: 0.5"/>
      </g>
     </g>
     <g id="line2d_22">
      <g>
       <use xlink:href="#m59cfbdceeb" x="138.898117" y="3.6" style="stroke: #000000; stroke-width: 0.5"/>
      </g>
     </g>
    </g>
    <g id="xtick_12">
     <g id="line2d_23">
      <g>
       <use xlink:href="#ma39f368c64" x="172.125587" y="225.36" style="stroke: #000000; stroke-width: 0.5"/>
      </g>
     </g>
     <g id="line2d_24">
      <g>
       <use xlink:href="#m59cfbdceeb" x="172.125587" y="3.6" style="stroke: #000000; stroke-width: 0.5"/>
      </g>
     </g>
    </g>
    <g id="xtick_13">
     <g id="line2d_25">
      <g>
       <use xlink:href="#ma39f368c64" x="188.739322" y="225.36" style="stroke: #000000; stroke-width: 0.5"/>
      </g>
     </g>
     <g id="line2d_26">
      <g>
       <use xlink:href="#m59cfbdceeb" x="188.739322" y="3.6" style="stroke: #000000; stroke-width: 0.5"/>
      </g>
     </g>
    </g>
    <g id="xtick_14">
     <g id="line2d_27">
      <g>
       <use xlink:href="#ma39f368c64" x="205.353057" y="225.36" style="stroke: #000000; stroke-width: 0.5"/>
      </g>
     </g>
     <g id="line2d_28">
      <g>
       <use xlink:href="#m59cfbdceeb" x="205.353057" y="3.6" style="stroke: #000000; stroke-width: 0.5"/>
      </g>
     </g>
    </g>
    <g id="xtick_15">
     <g id="line2d_29">
      <g>
       <use xlink:href="#ma39f368c64" x="238.580527" y="225.36" style="stroke: #000000; stroke-width: 0.5"/>
      </g>
     </g>
     <g id="line2d_30">
      <g>
       <use xlink:href="#m59cfbdceeb" x="238.580527" y="3.6" style="stroke: #000000; stroke-width: 0.5"/>
      </g>
     </g>
    </g>
    <g id="xtick_16">
     <g id="line2d_31">
      <g>
       <use xlink:href="#ma39f368c64" x="255.194262" y="225.36" style="stroke: #000000; stroke-width: 0.5"/>
      </g>
     </g>
     <g id="line2d_32">
      <g>
       <use xlink:href="#m59cfbdceeb" x="255.194262" y="3.6" style="stroke: #000000; stroke-width: 0.5"/>
      </g>
     </g>
    </g>
    <g id="xtick_17">
     <g id="line2d_33">
      <g>
       <use xlink:href="#ma39f368c64" x="271.807997" y="225.36" style="stroke: #000000; stroke-width: 0.5"/>
      </g>
     </g>
     <g id="line2d_34">
      <g>
       <use xlink:href="#m59cfbdceeb" x="271.807997" y="3.6" style="stroke: #000000; stroke-width: 0.5"/>
      </g>
     </g>
    </g>
    <g id="xtick_18">
     <g id="line2d_35">
      <g>
       <use xlink:href="#ma39f368c64" x="305.035467" y="225.36" style="stroke: #000000; stroke-width: 0.5"/>
      </g>
     </g>
     <g id="line2d_36">
      <g>
       <use xlink:href="#m59cfbdceeb" x="305.035467" y="3.6" style="stroke: #000000; stroke-width: 0.5"/>
      </g>
     </g>
    </g>
    <g id="xtick_19">
     <g id="line2d_37">
      <g>
       <use xlink:href="#ma39f368c64" x="321.649201" y="225.36" style="stroke: #000000; stroke-width: 0.5"/>
      </g>
     </g>
     <g id="line2d_38">
      <g>
       <use xlink:href="#m59cfbdceeb" x="321.649201" y="3.6" style="stroke: #000000; stroke-width: 0.5"/>
      </g>
     </g>
    </g>
    <g id="xtick_20">
     <g id="line2d_39">
      <g>
       <use xlink:href="#ma39f368c64" x="338.262936" y="225.36" style="stroke: #000000; stroke-width: 0.5"/>
      </g>
     </g>
     <g id="line2d_40">
      <g>
       <use xlink:href="#m59cfbdceeb" x="338.262936" y="3.6" style="stroke: #000000; stroke-width: 0.5"/>
      </g>
     </g>
    </g>
    <g id="xtick_21">
     <g id="line2d_41">
      <g>
       <use xlink:href="#ma39f368c64" x="371.490406" y="225.36" style="stroke: #000000; stroke-width: 0.5"/>
      </g>
     </g>
     <g id="line2d_42">
      <g>
       <use xlink:href="#m59cfbdceeb" x="371.490406" y="3.6" style="stroke: #000000; stroke-width: 0.5"/>
      </g>
     </g>
    </g>
    <g id="text_6">
     <!-- Частота, МГц -->
     <g transform="translate(173.26044 250.331865) scale(0.09996 -0.09996)">
      <defs>
       <path id="SFRM3583-d7" d="M 467 4352 
L 467 4211 
L 595 4211 
C 742 4211 877 4192 877 3981 
L 877 2803 
C 877 2293 1421 1981 1869 1981 
L 2176 1981 
C 2541 1981 2925 1988 3264 2115 
L 3264 395 
C 3264 179 3181 140 2854 140 
L 2854 0 
L 3987 0 
L 3987 140 
L 3878 140 
C 3712 140 3571 159 3571 408 
C 3571 459 3578 503 3578 554 
L 3578 3943 
C 3578 4192 3686 4211 3987 4211 
L 3987 4352 
L 2854 4352 
L 2854 4211 
L 2970 4211 
C 3130 4211 3264 4192 3264 3969 
L 3264 2293 
C 3264 2096 2470 2090 2086 2090 
L 1798 2090 
C 1389 2102 1190 2478 1190 2841 
L 1190 3988 
C 1190 4204 1363 4211 1600 4211 
L 1600 4352 
L 467 4352 
z
" transform="scale(0.015625)"/>
       <path id="SFRM3583-e0" d="M 576 2058 
C 659 2401 883 2738 1274 2738 
C 1619 2738 1869 2408 1920 2090 
C 1933 2006 1933 1915 1933 1831 
L 1933 1579 
C 1318 1579 474 1436 320 659 
C 314 620 314 575 314 536 
C 314 102 800 -64 1133 -64 
C 1446 -64 1856 141 1939 497 
L 1946 497 
C 1946 225 2125 -45 2394 -45 
C 2746 -45 2829 335 2829 614 
L 2829 905 
L 2746 905 
L 2746 575 
C 2746 368 2701 70 2470 70 
C 2208 70 2195 413 2195 588 
L 2195 1792 
C 2195 1954 2189 2123 2125 2278 
C 1990 2595 1638 2816 1293 2816 
C 800 2816 480 2375 480 1896 
C 480 1773 570 1702 672 1702 
C 774 1702 858 1786 858 1890 
C 858 1987 794 2077 672 2077 
C 640 2077 608 2071 576 2058 
z
M 1933 1507 
L 1933 873 
C 1933 445 1670 44 1229 12 
L 1190 12 
C 896 12 627 245 627 562 
C 627 1236 1363 1507 1933 1507 
z
" transform="scale(0.015625)"/>
       <path id="SFRM3583-f1" d="M 2221 2078 
C 2189 2084 2157 2091 2125 2091 
C 2022 2091 1946 2000 1946 1903 
C 1946 1806 2022 1709 2131 1709 
C 2221 1709 2310 1773 2323 1871 
L 2323 1909 
C 2323 2356 1965 2816 1440 2816 
C 717 2816 269 2058 269 1372 
C 269 693 678 0 1363 -64 
L 1427 -64 
C 1882 -64 2240 227 2368 660 
C 2374 686 2381 712 2381 738 
C 2381 757 2368 764 2355 764 
C 2285 764 2272 641 2246 576 
C 2131 246 1824 20 1498 20 
C 890 20 595 744 595 1275 
C 595 1819 710 2731 1453 2731 
C 1811 2731 2138 2434 2221 2078 
z
" transform="scale(0.015625)"/>
       <path id="SFRM3583-f2" d="M 198 2752 
L 141 1785 
L 224 1785 
C 237 2028 243 2348 378 2515 
C 512 2656 723 2675 902 2675 
L 1126 2675 
C 1286 2675 1299 2560 1299 2444 
L 1299 377 
C 1299 102 1158 76 768 76 
L 768 0 
L 2093 0 
L 2093 76 
L 1933 76 
C 1734 76 1562 102 1562 377 
L 1562 2444 
C 1562 2560 1574 2675 1734 2675 
L 1958 2675 
C 2221 2675 2534 2630 2586 2259 
C 2618 2105 2630 1945 2637 1785 
L 2720 1785 
L 2662 2752 
L 198 2752 
z
" transform="scale(0.015625)"/>
       <path id="SFRM3583-ee" d="M 1350 2816 
C 614 2725 237 2032 237 1359 
C 237 673 685 -64 1440 -64 
L 1504 -64 
C 2240 26 2624 712 2624 1366 
C 2624 2021 2182 2816 1440 2816 
C 1408 2822 1382 2816 1350 2816 
z
M 563 1256 
L 563 1359 
C 563 1845 621 2388 1114 2660 
C 1197 2699 1293 2731 1389 2738 
L 1434 2738 
C 2054 2738 2298 2006 2298 1482 
C 2298 971 2246 240 1606 46 
C 1549 33 1491 20 1434 20 
C 960 20 653 499 595 958 
C 576 1055 576 1159 563 1256 
z
" transform="scale(0.015625)"/>
       <path id="SFRM3583-2c" d="M 973 125 
C 992 73 992 22 992 -36 
L 992 -120 
C 992 -481 877 -791 666 -1100 
C 653 -1120 621 -1146 621 -1178 
C 621 -1197 634 -1216 653 -1216 
C 710 -1216 845 -991 896 -875 
C 1011 -636 1069 -372 1069 -107 
C 1069 73 1062 448 800 448 
C 685 448 589 351 589 235 
C 589 112 698 28 800 28 
C 864 28 934 60 973 125 
z
" transform="scale(0.015625)"/>
       <path id="SFRM3583-cc" d="M 474 4352 
L 474 4211 
L 582 4211 
C 736 4211 890 4192 890 3975 
C 890 3924 883 3873 883 3829 
L 883 796 
C 883 733 890 669 890 599 
C 890 395 832 140 474 140 
L 474 0 
L 1382 0 
L 1382 140 
C 1005 140 973 401 973 624 
L 979 4217 
C 1005 4083 1069 3950 1114 3822 
C 1562 2631 1965 1427 2394 229 
C 2419 153 2458 0 2515 0 
C 2592 0 2790 663 2906 988 
C 3283 2013 3642 3058 4013 4096 
C 4026 4141 4051 4185 4058 4236 
L 4064 363 
C 4064 191 3994 140 3654 140 
L 3654 0 
L 4774 0 
L 4774 140 
L 4666 140 
C 4499 140 4365 159 4365 408 
L 4365 3797 
C 4365 3841 4358 3892 4358 3943 
C 4358 4198 4506 4211 4774 4211 
L 4774 4352 
L 4096 4352 
L 4032 4339 
L 3917 4052 
L 2624 421 
L 1331 4052 
L 1216 4339 
L 1152 4352 
L 474 4352 
z
" transform="scale(0.015625)"/>
       <path id="SFRM3583-c3" d="M 467 4352 
L 467 4211 
L 576 4211 
C 742 4211 877 4192 877 3943 
L 877 408 
C 877 159 768 140 467 140 
L 467 0 
L 1702 0 
L 1702 140 
L 1536 140 
C 1350 140 1184 147 1184 408 
C 1184 459 1190 510 1190 561 
L 1190 3886 
C 1190 3924 1184 3962 1184 4007 
C 1184 4147 1242 4211 1376 4211 
L 2131 4211 
C 2547 4211 2989 4173 3149 3638 
C 3219 3421 3232 3192 3258 2969 
L 3341 2969 
L 3206 4352 
L 467 4352 
z
" transform="scale(0.015625)"/>
       <path id="SFRM3583-f6" d="M 288 2752 
L 288 2688 
L 378 2688 
C 531 2688 666 2656 666 2432 
L 666 343 
C 666 119 538 87 378 87 
L 288 87 
L 288 11 
L 2176 11 
C 2470 11 2752 -21 2861 -449 
C 2899 -635 2912 -833 2925 -1024 
L 3008 -1024 
L 2925 87 
L 2835 87 
C 2675 87 2515 106 2515 343 
L 2515 2439 
C 2515 2656 2650 2688 2803 2688 
L 2893 2688 
L 2893 2752 
L 1875 2752 
L 1875 2681 
L 1965 2681 
C 2118 2681 2253 2649 2253 2426 
L 2253 283 
C 2253 155 2202 79 2061 79 
C 2010 79 1958 85 1920 85 
L 1082 85 
C 966 85 934 175 928 257 
L 928 2407 
C 928 2656 1062 2681 1229 2681 
L 1306 2681 
L 1306 2752 
L 1005 2752 
L 288 2752 
z
" transform="scale(0.015625)"/>
      </defs>
      <use xlink:href="#SFRM3583-d7" transform="scale(0.996264)"/>
      <use xlink:href="#SFRM3583-e0" transform="translate(69.320979 0) scale(0.996264)"/>
      <use xlink:href="#SFRM3583-f1" transform="translate(113.899446 0) scale(0.996264)"/>
      <use xlink:href="#SFRM3583-f2" transform="translate(153.517844 0) scale(0.996264)"/>
      <use xlink:href="#SFRM3583-ee" transform="translate(198.096311 0) scale(0.996264)"/>
      <use xlink:href="#SFRM3583-f2" transform="translate(242.674778 0) scale(0.996264)"/>
      <use xlink:href="#SFRM3583-e0" transform="translate(284.773256 0) scale(0.996264)"/>
      <use xlink:href="#SFRM3583-2c" transform="translate(329.351723 0) scale(0.996264)"/>
      <use xlink:href="#SFRM3583-cc" transform="translate(383.788348 0) scale(0.996264)"/>
      <use xlink:href="#SFRM3583-c3" transform="translate(465.509421 0) scale(0.996264)"/>
      <use xlink:href="#SFRM3583-f6" transform="translate(521.219104 0) scale(0.996264)"/>
     </g>
    </g>
   </g>
   <g id="matplotlib.axis_2">
    <g id="ytick_1">
     <g id="line2d_43">
      <defs>
       <path id="mfc1be373ae" d="M 0 0 
L 3 0 
" style="stroke: #000000; stroke-width: 0.5"/>
      </defs>
      <g>
       <use xlink:href="#mfc1be373ae" x="38.617613" y="209.028837" style="stroke: #000000; stroke-width: 0.5"/>
      </g>
     </g>
     <g id="line2d_44">
      <defs>
       <path id="mec1dad7007" d="M 0 0 
L -3 0 
" style="stroke: #000000; stroke-width: 0.5"/>
      </defs>
      <g>
       <use xlink:href="#mec1dad7007" x="373.417613" y="209.028837" style="stroke: #000000; stroke-width: 0.5"/>
      </g>
     </g>
     <g id="text_7">
      <!-- $\mathdefault{40}$ -->
      <g transform="translate(23.411632 213.145723) scale(0.12 -0.12)">
       <use xlink:href="#CMR17-34" transform="scale(0.996264)"/>
       <use xlink:href="#CMR17-30" transform="translate(45.690477 0) scale(0.996264)"/>
      </g>
     </g>
    </g>
    <g id="ytick_2">
     <g id="line2d_45">
      <g>
       <use xlink:href="#mfc1be373ae" x="38.617613" y="177.773023" style="stroke: #000000; stroke-width: 0.5"/>
      </g>
     </g>
     <g id="line2d_46">
      <g>
       <use xlink:href="#mec1dad7007" x="373.417613" y="177.773023" style="stroke: #000000; stroke-width: 0.5"/>
      </g>
     </g>
     <g id="text_8">
      <!-- $\mathdefault{60}$ -->
      <g transform="translate(23.411632 181.889909) scale(0.12 -0.12)">
       <use xlink:href="#CMR17-36" transform="scale(0.996264)"/>
       <use xlink:href="#CMR17-30" transform="translate(45.690477 0) scale(0.996264)"/>
      </g>
     </g>
    </g>
    <g id="ytick_3">
     <g id="line2d_47">
      <g>
       <use xlink:href="#mfc1be373ae" x="38.617613" y="146.517209" style="stroke: #000000; stroke-width: 0.5"/>
      </g>
     </g>
     <g id="line2d_48">
      <g>
       <use xlink:href="#mec1dad7007" x="373.417613" y="146.517209" style="stroke: #000000; stroke-width: 0.5"/>
      </g>
     </g>
     <g id="text_9">
      <!-- $\mathdefault{80}$ -->
      <g transform="translate(23.411632 150.634095) scale(0.12 -0.12)">
       <use xlink:href="#CMR17-38" transform="scale(0.996264)"/>
       <use xlink:href="#CMR17-30" transform="translate(45.690477 0) scale(0.996264)"/>
      </g>
     </g>
    </g>
    <g id="ytick_4">
     <g id="line2d_49">
      <g>
       <use xlink:href="#mfc1be373ae" x="38.617613" y="115.261395" style="stroke: #000000; stroke-width: 0.5"/>
      </g>
     </g>
     <g id="line2d_50">
      <g>
       <use xlink:href="#mec1dad7007" x="373.417613" y="115.261395" style="stroke: #000000; stroke-width: 0.5"/>
      </g>
     </g>
     <g id="text_10">
      <!-- $\mathdefault{100}$ -->
      <g transform="translate(17.558642 119.378281) scale(0.12 -0.12)">
       <use xlink:href="#CMR17-31" transform="scale(0.996264)"/>
       <use xlink:href="#CMR17-30" transform="translate(45.690477 0) scale(0.996264)"/>
       <use xlink:href="#CMR17-30" transform="translate(91.380954 0) scale(0.996264)"/>
      </g>
     </g>
    </g>
    <g id="ytick_5">
     <g id="line2d_51">
      <g>
       <use xlink:href="#mfc1be373ae" x="38.617613" y="84.005581" style="stroke: #000000; stroke-width: 0.5"/>
      </g>
     </g>
     <g id="line2d_52">
      <g>
       <use xlink:href="#mec1dad7007" x="373.417613" y="84.005581" style="stroke: #000000; stroke-width: 0.5"/>
      </g>
     </g>
     <g id="text_11">
      <!-- $\mathdefault{120}$ -->
      <g transform="translate(17.558642 88.122467) scale(0.12 -0.12)">
       <use xlink:href="#CMR17-31" transform="scale(0.996264)"/>
       <use xlink:href="#CMR17-32" transform="translate(45.690477 0) scale(0.996264)"/>
       <use xlink:href="#CMR17-30" transform="translate(91.380954 0) scale(0.996264)"/>
      </g>
     </g>
    </g>
    <g id="ytick_6">
     <g id="line2d_53">
      <g>
       <use xlink:href="#mfc1be373ae" x="38.617613" y="52.749767" style="stroke: #000000; stroke-width: 0.5"/>
      </g>
     </g>
     <g id="line2d_54">
      <g>
       <use xlink:href="#mec1dad7007" x="373.417613" y="52.749767" style="stroke: #000000; stroke-width: 0.5"/>
      </g>
     </g>
     <g id="text_12">
      <!-- $\mathdefault{140}$ -->
      <g transform="translate(17.558642 56.866653) scale(0.12 -0.12)">
       <use xlink:href="#CMR17-31" transform="scale(0.996264)"/>
       <use xlink:href="#CMR17-34" transform="translate(45.690477 0) scale(0.996264)"/>
       <use xlink:href="#CMR17-30" transform="translate(91.380954 0) scale(0.996264)"/>
      </g>
     </g>
    </g>
    <g id="ytick_7">
     <g id="line2d_55">
      <g>
       <use xlink:href="#mfc1be373ae" x="38.617613" y="21.493953" style="stroke: #000000; stroke-width: 0.5"/>
      </g>
     </g>
     <g id="line2d_56">
      <g>
       <use xlink:href="#mec1dad7007" x="373.417613" y="21.493953" style="stroke: #000000; stroke-width: 0.5"/>
      </g>
     </g>
     <g id="text_13">
      <!-- $\mathdefault{160}$ -->
      <g transform="translate(17.558642 25.610839) scale(0.12 -0.12)">
       <use xlink:href="#CMR17-31" transform="scale(0.996264)"/>
       <use xlink:href="#CMR17-36" transform="translate(45.690477 0) scale(0.996264)"/>
       <use xlink:href="#CMR17-30" transform="translate(91.380954 0) scale(0.996264)"/>
      </g>
     </g>
    </g>
    <g id="ytick_8">
     <g id="line2d_57">
      <defs>
       <path id="m5f7254a115" d="M 0 0 
L 1.5 0 
" style="stroke: #000000; stroke-width: 0.5"/>
      </defs>
      <g>
       <use xlink:href="#m5f7254a115" x="38.617613" y="224.656744" style="stroke: #000000; stroke-width: 0.5"/>
      </g>
     </g>
     <g id="line2d_58">
      <defs>
       <path id="m52a6cb5587" d="M 0 0 
L -1.5 0 
" style="stroke: #000000; stroke-width: 0.5"/>
      </defs>
      <g>
       <use xlink:href="#m52a6cb5587" x="373.417613" y="224.656744" style="stroke: #000000; stroke-width: 0.5"/>
      </g>
     </g>
    </g>
    <g id="ytick_9">
     <g id="line2d_59">
      <g>
       <use xlink:href="#m5f7254a115" x="38.617613" y="216.842791" style="stroke: #000000; stroke-width: 0.5"/>
      </g>
     </g>
     <g id="line2d_60">
      <g>
       <use xlink:href="#m52a6cb5587" x="373.417613" y="216.842791" style="stroke: #000000; stroke-width: 0.5"/>
      </g>
     </g>
    </g>
    <g id="ytick_10">
     <g id="line2d_61">
      <g>
       <use xlink:href="#m5f7254a115" x="38.617613" y="201.214884" style="stroke: #000000; stroke-width: 0.5"/>
      </g>
     </g>
     <g id="line2d_62">
      <g>
       <use xlink:href="#m52a6cb5587" x="373.417613" y="201.214884" style="stroke: #000000; stroke-width: 0.5"/>
      </g>
     </g>
    </g>
    <g id="ytick_11">
     <g id="line2d_63">
      <g>
       <use xlink:href="#m5f7254a115" x="38.617613" y="193.40093" style="stroke: #000000; stroke-width: 0.5"/>
      </g>
     </g>
     <g id="line2d_64">
      <g>
       <use xlink:href="#m52a6cb5587" x="373.417613" y="193.40093" style="stroke: #000000; stroke-width: 0.5"/>
      </g>
     </g>
    </g>
    <g id="ytick_12">
     <g id="line2d_65">
      <g>
       <use xlink:href="#m5f7254a115" x="38.617613" y="185.586977" style="stroke: #000000; stroke-width: 0.5"/>
      </g>
     </g>
     <g id="line2d_66">
      <g>
       <use xlink:href="#m52a6cb5587" x="373.417613" y="185.586977" style="stroke: #000000; stroke-width: 0.5"/>
      </g>
     </g>
    </g>
    <g id="ytick_13">
     <g id="line2d_67">
      <g>
       <use xlink:href="#m5f7254a115" x="38.617613" y="169.95907" style="stroke: #000000; stroke-width: 0.5"/>
      </g>
     </g>
     <g id="line2d_68">
      <g>
       <use xlink:href="#m52a6cb5587" x="373.417613" y="169.95907" style="stroke: #000000; stroke-width: 0.5"/>
      </g>
     </g>
    </g>
    <g id="ytick_14">
     <g id="line2d_69">
      <g>
       <use xlink:href="#m5f7254a115" x="38.617613" y="162.145116" style="stroke: #000000; stroke-width: 0.5"/>
      </g>
     </g>
     <g id="line2d_70">
      <g>
       <use xlink:href="#m52a6cb5587" x="373.417613" y="162.145116" style="stroke: #000000; stroke-width: 0.5"/>
      </g>
     </g>
    </g>
    <g id="ytick_15">
     <g id="line2d_71">
      <g>
       <use xlink:href="#m5f7254a115" x="38.617613" y="154.331163" style="stroke: #000000; stroke-width: 0.5"/>
      </g>
     </g>
     <g id="line2d_72">
      <g>
       <use xlink:href="#m52a6cb5587" x="373.417613" y="154.331163" style="stroke: #000000; stroke-width: 0.5"/>
      </g>
     </g>
    </g>
    <g id="ytick_16">
     <g id="line2d_73">
      <g>
       <use xlink:href="#m5f7254a115" x="38.617613" y="138.703256" style="stroke: #000000; stroke-width: 0.5"/>
      </g>
     </g>
     <g id="line2d_74">
      <g>
       <use xlink:href="#m52a6cb5587" x="373.417613" y="138.703256" style="stroke: #000000; stroke-width: 0.5"/>
      </g>
     </g>
    </g>
    <g id="ytick_17">
     <g id="line2d_75">
      <g>
       <use xlink:href="#m5f7254a115" x="38.617613" y="130.889302" style="stroke: #000000; stroke-width: 0.5"/>
      </g>
     </g>
     <g id="line2d_76">
      <g>
       <use xlink:href="#m52a6cb5587" x="373.417613" y="130.889302" style="stroke: #000000; stroke-width: 0.5"/>
      </g>
     </g>
    </g>
    <g id="ytick_18">
     <g id="line2d_77">
      <g>
       <use xlink:href="#m5f7254a115" x="38.617613" y="123.075349" style="stroke: #000000; stroke-width: 0.5"/>
      </g>
     </g>
     <g id="line2d_78">
      <g>
       <use xlink:href="#m52a6cb5587" x="373.417613" y="123.075349" style="stroke: #000000; stroke-width: 0.5"/>
      </g>
     </g>
    </g>
    <g id="ytick_19">
     <g id="line2d_79">
      <g>
       <use xlink:href="#m5f7254a115" x="38.617613" y="107.447442" style="stroke: #000000; stroke-width: 0.5"/>
      </g>
     </g>
     <g id="line2d_80">
      <g>
       <use xlink:href="#m52a6cb5587" x="373.417613" y="107.447442" style="stroke: #000000; stroke-width: 0.5"/>
      </g>
     </g>
    </g>
    <g id="ytick_20">
     <g id="line2d_81">
      <g>
       <use xlink:href="#m5f7254a115" x="38.617613" y="99.633488" style="stroke: #000000; stroke-width: 0.5"/>
      </g>
     </g>
     <g id="line2d_82">
      <g>
       <use xlink:href="#m52a6cb5587" x="373.417613" y="99.633488" style="stroke: #000000; stroke-width: 0.5"/>
      </g>
     </g>
    </g>
    <g id="ytick_21">
     <g id="line2d_83">
      <g>
       <use xlink:href="#m5f7254a115" x="38.617613" y="91.819535" style="stroke: #000000; stroke-width: 0.5"/>
      </g>
     </g>
     <g id="line2d_84">
      <g>
       <use xlink:href="#m52a6cb5587" x="373.417613" y="91.819535" style="stroke: #000000; stroke-width: 0.5"/>
      </g>
     </g>
    </g>
    <g id="ytick_22">
     <g id="line2d_85">
      <g>
       <use xlink:href="#m5f7254a115" x="38.617613" y="76.191628" style="stroke: #000000; stroke-width: 0.5"/>
      </g>
     </g>
     <g id="line2d_86">
      <g>
       <use xlink:href="#m52a6cb5587" x="373.417613" y="76.191628" style="stroke: #000000; stroke-width: 0.5"/>
      </g>
     </g>
    </g>
    <g id="ytick_23">
     <g id="line2d_87">
      <g>
       <use xlink:href="#m5f7254a115" x="38.617613" y="68.377674" style="stroke: #000000; stroke-width: 0.5"/>
      </g>
     </g>
     <g id="line2d_88">
      <g>
       <use xlink:href="#m52a6cb5587" x="373.417613" y="68.377674" style="stroke: #000000; stroke-width: 0.5"/>
      </g>
     </g>
    </g>
    <g id="ytick_24">
     <g id="line2d_89">
      <g>
       <use xlink:href="#m5f7254a115" x="38.617613" y="60.563721" style="stroke: #000000; stroke-width: 0.5"/>
      </g>
     </g>
     <g id="line2d_90">
      <g>
       <use xlink:href="#m52a6cb5587" x="373.417613" y="60.563721" style="stroke: #000000; stroke-width: 0.5"/>
      </g>
     </g>
    </g>
    <g id="ytick_25">
     <g id="line2d_91">
      <g>
       <use xlink:href="#m5f7254a115" x="38.617613" y="44.935814" style="stroke: #000000; stroke-width: 0.5"/>
      </g>
     </g>
     <g id="line2d_92">
      <g>
       <use xlink:href="#m52a6cb5587" x="373.417613" y="44.935814" style="stroke: #000000; stroke-width: 0.5"/>
      </g>
     </g>
    </g>
    <g id="ytick_26">
     <g id="line2d_93">
      <g>
       <use xlink:href="#m5f7254a115" x="38.617613" y="37.12186" style="stroke: #000000; stroke-width: 0.5"/>
      </g>
     </g>
     <g id="line2d_94">
      <g>
       <use xlink:href="#m52a6cb5587" x="373.417613" y="37.12186" style="stroke: #000000; stroke-width: 0.5"/>
      </g>
     </g>
    </g>
    <g id="ytick_27">
     <g id="line2d_95">
      <g>
       <use xlink:href="#m5f7254a115" x="38.617613" y="29.307907" style="stroke: #000000; stroke-width: 0.5"/>
      </g>
     </g>
     <g id="line2d_96">
      <g>
       <use xlink:href="#m52a6cb5587" x="373.417613" y="29.307907" style="stroke: #000000; stroke-width: 0.5"/>
      </g>
     </g>
    </g>
    <g id="ytick_28">
     <g id="line2d_97">
      <g>
       <use xlink:href="#m5f7254a115" x="38.617613" y="13.68" style="stroke: #000000; stroke-width: 0.5"/>
      </g>
     </g>
     <g id="line2d_98">
      <g>
       <use xlink:href="#m52a6cb5587" x="373.417613" y="13.68" style="stroke: #000000; stroke-width: 0.5"/>
      </g>
     </g>
    </g>
    <g id="ytick_29">
     <g id="line2d_99">
      <g>
       <use xlink:href="#m5f7254a115" x="38.617613" y="5.866047" style="stroke: #000000; stroke-width: 0.5"/>
      </g>
     </g>
     <g id="line2d_100">
      <g>
       <use xlink:href="#m52a6cb5587" x="373.417613" y="5.866047" style="stroke: #000000; stroke-width: 0.5"/>
      </g>
     </g>
    </g>
    <g id="text_14">
     <!-- $\Delta x_m / \Delta m$ -->
     <g transform="translate(11.068985 137.038875) rotate(-90) scale(0.09996 -0.09996)">
      <defs>
       <path id="CMR17-1" d="M 2598 4435 
C 2547 4544 2522 4544 2470 4544 
C 2394 4544 2387 4531 2342 4441 
L 269 108 
C 262 96 237 38 237 32 
C 237 6 243 0 358 0 
L 4576 0 
C 4691 0 4698 6 4698 32 
C 4698 38 4672 96 4666 108 
L 2598 4435 
z
M 2310 4056 
L 4083 358 
L 531 358 
L 2310 4056 
z
" transform="scale(0.015625)"/>
       <path id="CMMI12-78" d="M 3034 2624 
C 2829 2585 2752 2431 2752 2310 
C 2752 2156 2874 2105 2963 2105 
C 3155 2105 3290 2271 3290 2444 
C 3290 2694 2982 2816 2714 2816 
C 2323 2816 2106 2451 2048 2329 
C 1901 2790 1504 2816 1389 2816 
C 736 2816 390 1993 390 1849 
C 390 1823 416 1790 461 1790 
C 512 1790 525 1829 538 1855 
C 755 2572 1184 2687 1370 2687 
C 1658 2687 1715 2438 1715 2284 
C 1715 2143 1677 1993 1600 1678 
L 1382 778 
C 1286 390 1101 64 762 64 
C 730 64 570 64 435 126 
C 666 166 717 358 717 435 
C 717 563 621 640 499 640 
C 346 640 179 505 179 300 
C 179 57 480 -64 755 -64 
C 1062 -64 1280 153 1414 415 
C 1517 64 1837 -64 2074 -64 
C 2726 -64 3072 751 3072 896 
C 3072 929 3046 955 3008 955 
C 2950 955 2944 922 2925 870 
C 2752 300 2381 64 2093 64 
C 1869 64 1747 204 1747 467 
C 1747 607 1773 712 1875 1146 
L 2099 2039 
C 2195 2425 2413 2687 2707 2687 
C 2720 2687 2899 2687 3034 2624 
z
" transform="scale(0.015625)"/>
       <path id="CMMI12-6d" d="M 1318 1870 
C 1331 1909 1491 2228 1728 2432 
C 1894 2585 2112 2687 2362 2687 
C 2618 2687 2707 2496 2707 2241 
C 2707 2202 2707 2075 2630 1775 
L 2470 1117 
C 2419 925 2298 453 2285 383 
C 2259 287 2221 121 2221 95 
C 2221 6 2291 -64 2387 -64 
C 2579 -64 2611 83 2669 313 
L 3053 1838 
C 3066 1890 3398 2687 4102 2687 
C 4358 2687 4448 2496 4448 2241 
C 4448 1883 4198 1187 4058 804 
C 4000 651 3968 568 3968 453 
C 3968 166 4166 -64 4474 -64 
C 5069 -64 5293 874 5293 913 
C 5293 945 5267 970 5229 970 
C 5171 970 5165 951 5133 842 
C 4986 332 4749 64 4493 64 
C 4429 64 4326 70 4326 274 
C 4326 440 4403 645 4429 715 
C 4544 1021 4832 1775 4832 2145 
C 4832 2528 4608 2816 4122 2816 
C 3693 2816 3347 2573 3091 2196 
C 3072 2541 2861 2816 2381 2816 
C 1811 2816 1510 2413 1395 2253 
C 1376 2617 1114 2816 832 2816 
C 646 2816 499 2726 378 2483 
C 262 2253 173 1864 173 1838 
C 173 1813 198 1781 243 1781 
C 294 1781 301 1787 339 1934 
C 435 2311 557 2687 813 2687 
C 960 2687 1011 2585 1011 2394 
C 1011 2253 947 2004 902 1807 
L 723 1117 
C 698 996 627 708 595 593 
C 550 427 480 127 480 95 
C 480 6 550 -64 646 -64 
C 723 -64 813 -26 864 70 
C 877 102 934 325 966 453 
L 1107 1028 
L 1318 1870 
z
" transform="scale(0.015625)"/>
       <path id="CMMI12-3d" d="M 2746 4563 
C 2746 4569 2784 4665 2784 4678 
C 2784 4755 2720 4800 2669 4800 
C 2637 4800 2579 4800 2528 4659 
L 384 -1364 
C 384 -1370 346 -1466 346 -1479 
C 346 -1556 410 -1600 461 -1600 
C 499 -1600 557 -1594 602 -1460 
L 2746 4563 
z
" transform="scale(0.015625)"/>
      </defs>
      <use xlink:href="#CMR17-1" transform="scale(0.996264)"/>
      <use xlink:href="#CMMI12-78" transform="translate(76.91959 0) scale(0.996264)"/>
      <use xlink:href="#CMMI12-6d" transform="translate(132.353649 -14.943915) scale(0.697382)"/>
      <use xlink:href="#CMMI12-3d" transform="translate(192.580572 0) scale(0.996264)"/>
      <use xlink:href="#CMR17-1" transform="translate(241.355491 0) scale(0.996264)"/>
      <use xlink:href="#CMMI12-6d" transform="translate(318.275081 0) scale(0.996264)"/>
     </g>
    </g>
   </g>
   <g id="line2d_101">
    <path d="M 53.835795 210.298778 
L 102.015629 180.094543 
L 178.438816 132.184383 
L 255.858815 83.649306 
L 308.025944 50.945414 
L 358.199431 19.491342 
" clip-path="url(#p913a41d0a6)" style="fill: none; stroke: #0c5da5; stroke-linecap: square"/>
   </g>
   <g id="line2d_102">
    <defs>
     <path id="mbcc64ce618" d="M 0 1.5 
C 0.397805 1.5 0.77937 1.341951 1.06066 1.06066 
C 1.341951 0.77937 1.5 0.397805 1.5 0 
C 1.5 -0.397805 1.341951 -0.77937 1.06066 -1.06066 
C 0.77937 -1.341951 0.397805 -1.5 0 -1.5 
C -0.397805 -1.5 -0.77937 -1.341951 -1.06066 -1.06066 
C -1.341951 -0.77937 -1.5 -0.397805 -1.5 0 
C -1.5 0.397805 -1.341951 0.77937 -1.06066 1.06066 
C -0.77937 1.341951 -0.397805 1.5 0 1.5 
z
" style="stroke: #0c5da5"/>
    </defs>
    <g clip-path="url(#p913a41d0a6)">
     <use xlink:href="#mbcc64ce618" x="53.835795" y="215.28" style="fill: #0c5da5; stroke: #0c5da5"/>
     <use xlink:href="#mbcc64ce618" x="102.015629" y="174.647442" style="fill: #0c5da5; stroke: #0c5da5"/>
     <use xlink:href="#mbcc64ce618" x="178.438816" y="127.763721" style="fill: #0c5da5; stroke: #0c5da5"/>
     <use xlink:href="#mbcc64ce618" x="255.858815" y="87.131163" style="fill: #0c5da5; stroke: #0c5da5"/>
     <use xlink:href="#mbcc64ce618" x="308.025944" y="54.138915" style="fill: #0c5da5; stroke: #0c5da5"/>
     <use xlink:href="#mbcc64ce618" x="358.199431" y="13.68" style="fill: #0c5da5; stroke: #0c5da5"/>
    </g>
   </g>
   <g id="patch_3">
    <path d="M 38.617613 225.36 
L 38.617613 3.6 
" style="fill: none; stroke: #000000; stroke-width: 0.5; stroke-linejoin: miter; stroke-linecap: square"/>
   </g>
   <g id="patch_4">
    <path d="M 373.417613 225.36 
L 373.417613 3.6 
" style="fill: none; stroke: #000000; stroke-width: 0.5; stroke-linejoin: miter; stroke-linecap: square"/>
   </g>
   <g id="patch_5">
    <path d="M 38.617613 225.36 
L 373.417613 225.36 
" style="fill: none; stroke: #000000; stroke-width: 0.5; stroke-linejoin: miter; stroke-linecap: square"/>
   </g>
   <g id="patch_6">
    <path d="M 38.617613 3.6 
L 373.417613 3.6 
" style="fill: none; stroke: #000000; stroke-width: 0.5; stroke-linejoin: miter; stroke-linecap: square"/>
   </g>
  </g>
 </g>
 <defs>
  <clipPath id="p913a41d0a6">
   <rect x="38.617613" y="3.6" width="334.8" height="221.76"/>
  </clipPath>
 </defs>
</svg>
