<?xml version="1.0" encoding="utf-8" standalone="no"?>
<!DOCTYPE svg PUBLIC "-//W3C//DTD SVG 1.1//EN"
  "http://www.w3.org/Graphics/SVG/1.1/DTD/svg11.dtd">
<svg xmlns:xlink="http://www.w3.org/1999/xlink" width="380.868452pt" height="257.575641pt" viewBox="0 0 380.868452 257.575641" xmlns="http://www.w3.org/2000/svg" version="1.1">
 <metadata>
  <rdf:RDF xmlns:dc="http://purl.org/dc/elements/1.1/" xmlns:cc="http://creativecommons.org/ns#" xmlns:rdf="http://www.w3.org/1999/02/22-rdf-syntax-ns#">
   <cc:Work>
    <dc:type rdf:resource="http://purl.org/dc/dcmitype/StillImage"/>
    <dc:date>2023-03-18T16:12:38.303789</dc:date>
    <dc:format>image/svg+xml</dc:format>
    <dc:creator>
     <cc:Agent>
      <dc:title>Matplotlib v3.7.0, https://matplotlib.org/</dc:title>
     </cc:Agent>
    </dc:creator>
   </cc:Work>
  </rdf:RDF>
 </metadata>
 <defs>
  <style type="text/css">*{stroke-linejoin: round; stroke-linecap: butt}</style>
 </defs>
 <g id="figure_1">
  <g id="patch_1">
   <path d="M 0 257.575641 
L 380.868452 257.575641 
L 380.868452 0 
L 0 0 
z
" style="fill: #ffffff"/>
  </g>
  <g id="axes_1">
   <g id="patch_2">
    <path d="M 42.468452 225.36 
L 377.268452 225.36 
L 377.268452 3.6 
L 42.468452 3.6 
z
" style="fill: #ffffff"/>
   </g>
   <g id="matplotlib.axis_1">
    <g id="xtick_1">
     <g id="line2d_1">
      <defs>
       <path id="ma6ad3eaece" d="M 0 0 
L 0 -3 
" style="stroke: #000000; stroke-width: 0.5"/>
      </defs>
      <g>
       <use xlink:href="#ma6ad3eaece" x="57.686634" y="225.36" style="stroke: #000000; stroke-width: 0.5"/>
      </g>
     </g>
     <g id="line2d_2">
      <defs>
       <path id="m64b848487a" d="M 0 0 
L 0 3 
" style="stroke: #000000; stroke-width: 0.5"/>
      </defs>
      <g>
       <use xlink:href="#m64b848487a" x="57.686634" y="3.6" style="stroke: #000000; stroke-width: 0.5"/>
      </g>
     </g>
     <g id="text_1">
      <!-- $\mathdefault{0}$ -->
      <g transform="translate(54.760139 237.093772) scale(0.12 -0.12)">
       <defs>
        <path id="CMR17-30" d="M 2688 2025 
C 2688 2416 2682 3080 2413 3591 
C 2176 4039 1798 4198 1466 4198 
C 1158 4198 768 4058 525 3597 
C 269 3118 243 2524 243 2025 
C 243 1661 250 1106 448 619 
C 723 -39 1216 -128 1466 -128 
C 1760 -128 2208 -7 2470 600 
C 2662 1042 2688 1559 2688 2025 
z
M 1466 -26 
C 1056 -26 813 325 723 812 
C 653 1188 653 1738 653 2096 
C 653 2588 653 2997 736 3387 
C 858 3929 1216 4096 1466 4096 
C 1728 4096 2067 3923 2189 3400 
C 2272 3036 2278 2607 2278 2096 
C 2278 1680 2278 1169 2202 792 
C 2067 95 1690 -26 1466 -26 
z
" transform="scale(0.015625)"/>
       </defs>
       <use xlink:href="#CMR17-30" transform="scale(0.996264)"/>
      </g>
     </g>
    </g>
    <g id="xtick_2">
     <g id="line2d_3">
      <g>
       <use xlink:href="#ma6ad3eaece" x="118.559361" y="225.36" style="stroke: #000000; stroke-width: 0.5"/>
      </g>
     </g>
     <g id="line2d_4">
      <g>
       <use xlink:href="#m64b848487a" x="118.559361" y="3.6" style="stroke: #000000; stroke-width: 0.5"/>
      </g>
     </g>
     <g id="text_2">
      <!-- $\mathdefault{200}$ -->
      <g transform="translate(109.779876 237.093772) scale(0.12 -0.12)">
       <defs>
        <path id="CMR17-32" d="M 2669 989 
L 2554 989 
C 2490 536 2438 459 2413 420 
C 2381 369 1920 369 1830 369 
L 602 369 
C 832 619 1280 1072 1824 1597 
C 2214 1967 2669 2402 2669 3035 
C 2669 3790 2067 4224 1395 4224 
C 691 4224 262 3604 262 3030 
C 262 2780 448 2748 525 2748 
C 589 2748 781 2787 781 3010 
C 781 3207 614 3264 525 3264 
C 486 3264 448 3258 422 3245 
C 544 3790 915 4058 1306 4058 
C 1862 4058 2227 3617 2227 3035 
C 2227 2479 1901 2000 1536 1584 
L 262 146 
L 262 0 
L 2515 0 
L 2669 989 
z
" transform="scale(0.015625)"/>
       </defs>
       <use xlink:href="#CMR17-32" transform="scale(0.996264)"/>
       <use xlink:href="#CMR17-30" transform="translate(45.690477 0) scale(0.996264)"/>
       <use xlink:href="#CMR17-30" transform="translate(91.380954 0) scale(0.996264)"/>
      </g>
     </g>
    </g>
    <g id="xtick_3">
     <g id="line2d_5">
      <g>
       <use xlink:href="#ma6ad3eaece" x="179.432089" y="225.36" style="stroke: #000000; stroke-width: 0.5"/>
      </g>
     </g>
     <g id="line2d_6">
      <g>
       <use xlink:href="#m64b848487a" x="179.432089" y="3.6" style="stroke: #000000; stroke-width: 0.5"/>
      </g>
     </g>
     <g id="text_3">
      <!-- $\mathdefault{400}$ -->
      <g transform="translate(170.652603 237.093772) scale(0.12 -0.12)">
       <defs>
        <path id="CMR17-34" d="M 2150 4122 
C 2150 4256 2144 4256 2029 4256 
L 128 1254 
L 128 1088 
L 1779 1088 
L 1779 457 
C 1779 224 1766 160 1318 160 
L 1197 160 
L 1197 0 
C 1402 0 1747 0 1965 0 
C 2182 0 2528 0 2733 0 
L 2733 160 
L 2611 160 
C 2163 160 2150 224 2150 457 
L 2150 1088 
L 2803 1088 
L 2803 1254 
L 2150 1254 
L 2150 4122 
z
M 1798 3703 
L 1798 1254 
L 256 1254 
L 1798 3703 
z
" transform="scale(0.015625)"/>
       </defs>
       <use xlink:href="#CMR17-34" transform="scale(0.996264)"/>
       <use xlink:href="#CMR17-30" transform="translate(45.690477 0) scale(0.996264)"/>
       <use xlink:href="#CMR17-30" transform="translate(91.380954 0) scale(0.996264)"/>
      </g>
     </g>
    </g>
    <g id="xtick_4">
     <g id="line2d_7">
      <g>
       <use xlink:href="#ma6ad3eaece" x="240.304816" y="225.36" style="stroke: #000000; stroke-width: 0.5"/>
      </g>
     </g>
     <g id="line2d_8">
      <g>
       <use xlink:href="#m64b848487a" x="240.304816" y="3.6" style="stroke: #000000; stroke-width: 0.5"/>
      </g>
     </g>
     <g id="text_4">
      <!-- $\mathdefault{600}$ -->
      <g transform="translate(231.525331 237.093772) scale(0.12 -0.12)">
       <defs>
        <path id="CMR17-36" d="M 678 2176 
C 678 3690 1395 4032 1811 4032 
C 1946 4032 2272 4009 2400 3776 
C 2298 3776 2106 3776 2106 3553 
C 2106 3381 2246 3323 2336 3323 
C 2394 3323 2566 3348 2566 3560 
C 2566 3954 2246 4179 1805 4179 
C 1043 4179 243 3390 243 1984 
C 243 253 966 -128 1478 -128 
C 2099 -128 2688 427 2688 1283 
C 2688 2081 2170 2662 1517 2662 
C 1126 2662 838 2407 678 1960 
L 678 2176 
z
M 1478 25 
C 691 25 691 1200 691 1436 
C 691 1896 909 2560 1504 2560 
C 1613 2560 1926 2560 2138 2120 
C 2253 1870 2253 1609 2253 1289 
C 2253 944 2253 690 2118 434 
C 1978 171 1773 25 1478 25 
z
" transform="scale(0.015625)"/>
       </defs>
       <use xlink:href="#CMR17-36" transform="scale(0.996264)"/>
       <use xlink:href="#CMR17-30" transform="translate(45.690477 0) scale(0.996264)"/>
       <use xlink:href="#CMR17-30" transform="translate(91.380954 0) scale(0.996264)"/>
      </g>
     </g>
    </g>
    <g id="xtick_5">
     <g id="line2d_9">
      <g>
       <use xlink:href="#ma6ad3eaece" x="301.177543" y="225.36" style="stroke: #000000; stroke-width: 0.5"/>
      </g>
     </g>
     <g id="line2d_10">
      <g>
       <use xlink:href="#m64b848487a" x="301.177543" y="3.6" style="stroke: #000000; stroke-width: 0.5"/>
      </g>
     </g>
     <g id="text_5">
      <!-- $\mathdefault{800}$ -->
      <g transform="translate(292.398058 237.093772) scale(0.12 -0.12)">
       <defs>
        <path id="CMR17-38" d="M 1741 2264 
C 2144 2467 2554 2773 2554 3263 
C 2554 3841 1990 4179 1472 4179 
C 890 4179 378 3759 378 3180 
C 378 3021 416 2747 666 2505 
C 730 2442 998 2251 1171 2130 
C 883 1983 211 1634 211 934 
C 211 279 838 -128 1459 -128 
C 2144 -128 2720 362 2720 1010 
C 2720 1590 2330 1857 2074 2029 
L 1741 2264 
z
M 902 2822 
C 851 2854 595 3051 595 3351 
C 595 3739 998 4032 1459 4032 
C 1965 4032 2336 3676 2336 3262 
C 2336 2669 1670 2331 1638 2331 
C 1632 2331 1626 2331 1574 2370 
L 902 2822 
z
M 2080 1519 
C 2176 1449 2483 1240 2483 851 
C 2483 381 2010 25 1472 25 
C 890 25 448 438 448 940 
C 448 1443 838 1862 1280 2060 
L 2080 1519 
z
" transform="scale(0.015625)"/>
       </defs>
       <use xlink:href="#CMR17-38" transform="scale(0.996264)"/>
       <use xlink:href="#CMR17-30" transform="translate(45.690477 0) scale(0.996264)"/>
       <use xlink:href="#CMR17-30" transform="translate(91.380954 0) scale(0.996264)"/>
      </g>
     </g>
    </g>
    <g id="xtick_6">
     <g id="line2d_11">
      <g>
       <use xlink:href="#ma6ad3eaece" x="362.05027" y="225.36" style="stroke: #000000; stroke-width: 0.5"/>
      </g>
     </g>
     <g id="line2d_12">
      <g>
       <use xlink:href="#m64b848487a" x="362.05027" y="3.6" style="stroke: #000000; stroke-width: 0.5"/>
      </g>
     </g>
     <g id="text_6">
      <!-- $\mathdefault{1000}$ -->
      <g transform="translate(350.34429 237.093772) scale(0.12 -0.12)">
       <defs>
        <path id="CMR17-31" d="M 1702 4058 
C 1702 4192 1696 4192 1606 4192 
C 1357 3916 979 3827 621 3827 
C 602 3827 570 3827 563 3808 
C 557 3795 557 3782 557 3648 
C 755 3648 1088 3686 1344 3839 
L 1344 461 
C 1344 236 1331 160 781 160 
L 589 160 
L 589 0 
C 896 0 1216 0 1523 0 
C 1830 0 2150 0 2458 0 
L 2458 160 
L 2266 160 
C 1715 160 1702 230 1702 458 
L 1702 4058 
z
" transform="scale(0.015625)"/>
       </defs>
       <use xlink:href="#CMR17-31" transform="scale(0.996264)"/>
       <use xlink:href="#CMR17-30" transform="translate(45.690477 0) scale(0.996264)"/>
       <use xlink:href="#CMR17-30" transform="translate(91.380954 0) scale(0.996264)"/>
       <use xlink:href="#CMR17-30" transform="translate(137.071431 0) scale(0.996264)"/>
      </g>
     </g>
    </g>
    <g id="xtick_7">
     <g id="line2d_13">
      <defs>
       <path id="m4ffd51f04c" d="M 0 0 
L 0 -1.5 
" style="stroke: #000000; stroke-width: 0.5"/>
      </defs>
      <g>
       <use xlink:href="#m4ffd51f04c" x="72.904816" y="225.36" style="stroke: #000000; stroke-width: 0.5"/>
      </g>
     </g>
     <g id="line2d_14">
      <defs>
       <path id="mb52c597dfc" d="M 0 0 
L 0 1.5 
" style="stroke: #000000; stroke-width: 0.5"/>
      </defs>
      <g>
       <use xlink:href="#mb52c597dfc" x="72.904816" y="3.6" style="stroke: #000000; stroke-width: 0.5"/>
      </g>
     </g>
    </g>
    <g id="xtick_8">
     <g id="line2d_15">
      <g>
       <use xlink:href="#m4ffd51f04c" x="88.122998" y="225.36" style="stroke: #000000; stroke-width: 0.5"/>
      </g>
     </g>
     <g id="line2d_16">
      <g>
       <use xlink:href="#mb52c597dfc" x="88.122998" y="3.6" style="stroke: #000000; stroke-width: 0.5"/>
      </g>
     </g>
    </g>
    <g id="xtick_9">
     <g id="line2d_17">
      <g>
       <use xlink:href="#m4ffd51f04c" x="103.34118" y="225.36" style="stroke: #000000; stroke-width: 0.5"/>
      </g>
     </g>
     <g id="line2d_18">
      <g>
       <use xlink:href="#mb52c597dfc" x="103.34118" y="3.6" style="stroke: #000000; stroke-width: 0.5"/>
      </g>
     </g>
    </g>
    <g id="xtick_10">
     <g id="line2d_19">
      <g>
       <use xlink:href="#m4ffd51f04c" x="133.777543" y="225.36" style="stroke: #000000; stroke-width: 0.5"/>
      </g>
     </g>
     <g id="line2d_20">
      <g>
       <use xlink:href="#mb52c597dfc" x="133.777543" y="3.6" style="stroke: #000000; stroke-width: 0.5"/>
      </g>
     </g>
    </g>
    <g id="xtick_11">
     <g id="line2d_21">
      <g>
       <use xlink:href="#m4ffd51f04c" x="148.995725" y="225.36" style="stroke: #000000; stroke-width: 0.5"/>
      </g>
     </g>
     <g id="line2d_22">
      <g>
       <use xlink:href="#mb52c597dfc" x="148.995725" y="3.6" style="stroke: #000000; stroke-width: 0.5"/>
      </g>
     </g>
    </g>
    <g id="xtick_12">
     <g id="line2d_23">
      <g>
       <use xlink:href="#m4ffd51f04c" x="164.213907" y="225.36" style="stroke: #000000; stroke-width: 0.5"/>
      </g>
     </g>
     <g id="line2d_24">
      <g>
       <use xlink:href="#mb52c597dfc" x="164.213907" y="3.6" style="stroke: #000000; stroke-width: 0.5"/>
      </g>
     </g>
    </g>
    <g id="xtick_13">
     <g id="line2d_25">
      <g>
       <use xlink:href="#m4ffd51f04c" x="194.65027" y="225.36" style="stroke: #000000; stroke-width: 0.5"/>
      </g>
     </g>
     <g id="line2d_26">
      <g>
       <use xlink:href="#mb52c597dfc" x="194.65027" y="3.6" style="stroke: #000000; stroke-width: 0.5"/>
      </g>
     </g>
    </g>
    <g id="xtick_14">
     <g id="line2d_27">
      <g>
       <use xlink:href="#m4ffd51f04c" x="209.868452" y="225.36" style="stroke: #000000; stroke-width: 0.5"/>
      </g>
     </g>
     <g id="line2d_28">
      <g>
       <use xlink:href="#mb52c597dfc" x="209.868452" y="3.6" style="stroke: #000000; stroke-width: 0.5"/>
      </g>
     </g>
    </g>
    <g id="xtick_15">
     <g id="line2d_29">
      <g>
       <use xlink:href="#m4ffd51f04c" x="225.086634" y="225.36" style="stroke: #000000; stroke-width: 0.5"/>
      </g>
     </g>
     <g id="line2d_30">
      <g>
       <use xlink:href="#mb52c597dfc" x="225.086634" y="3.6" style="stroke: #000000; stroke-width: 0.5"/>
      </g>
     </g>
    </g>
    <g id="xtick_16">
     <g id="line2d_31">
      <g>
       <use xlink:href="#m4ffd51f04c" x="255.522998" y="225.36" style="stroke: #000000; stroke-width: 0.5"/>
      </g>
     </g>
     <g id="line2d_32">
      <g>
       <use xlink:href="#mb52c597dfc" x="255.522998" y="3.6" style="stroke: #000000; stroke-width: 0.5"/>
      </g>
     </g>
    </g>
    <g id="xtick_17">
     <g id="line2d_33">
      <g>
       <use xlink:href="#m4ffd51f04c" x="270.74118" y="225.36" style="stroke: #000000; stroke-width: 0.5"/>
      </g>
     </g>
     <g id="line2d_34">
      <g>
       <use xlink:href="#mb52c597dfc" x="270.74118" y="3.6" style="stroke: #000000; stroke-width: 0.5"/>
      </g>
     </g>
    </g>
    <g id="xtick_18">
     <g id="line2d_35">
      <g>
       <use xlink:href="#m4ffd51f04c" x="285.959361" y="225.36" style="stroke: #000000; stroke-width: 0.5"/>
      </g>
     </g>
     <g id="line2d_36">
      <g>
       <use xlink:href="#mb52c597dfc" x="285.959361" y="3.6" style="stroke: #000000; stroke-width: 0.5"/>
      </g>
     </g>
    </g>
    <g id="xtick_19">
     <g id="line2d_37">
      <g>
       <use xlink:href="#m4ffd51f04c" x="316.395725" y="225.36" style="stroke: #000000; stroke-width: 0.5"/>
      </g>
     </g>
     <g id="line2d_38">
      <g>
       <use xlink:href="#mb52c597dfc" x="316.395725" y="3.6" style="stroke: #000000; stroke-width: 0.5"/>
      </g>
     </g>
    </g>
    <g id="xtick_20">
     <g id="line2d_39">
      <g>
       <use xlink:href="#m4ffd51f04c" x="331.613907" y="225.36" style="stroke: #000000; stroke-width: 0.5"/>
      </g>
     </g>
     <g id="line2d_40">
      <g>
       <use xlink:href="#mb52c597dfc" x="331.613907" y="3.6" style="stroke: #000000; stroke-width: 0.5"/>
      </g>
     </g>
    </g>
    <g id="xtick_21">
     <g id="line2d_41">
      <g>
       <use xlink:href="#m4ffd51f04c" x="346.832089" y="225.36" style="stroke: #000000; stroke-width: 0.5"/>
      </g>
     </g>
     <g id="line2d_42">
      <g>
       <use xlink:href="#mb52c597dfc" x="346.832089" y="3.6" style="stroke: #000000; stroke-width: 0.5"/>
      </g>
     </g>
    </g>
    <g id="xtick_22">
     <g id="line2d_43">
      <g>
       <use xlink:href="#m4ffd51f04c" x="377.268452" y="225.36" style="stroke: #000000; stroke-width: 0.5"/>
      </g>
     </g>
     <g id="line2d_44">
      <g>
       <use xlink:href="#mb52c597dfc" x="377.268452" y="3.6" style="stroke: #000000; stroke-width: 0.5"/>
      </g>
     </g>
    </g>
    <g id="text_7">
     <!-- Радиус в безразмерных координатах -->
     <g transform="translate(111.611033 251.651592) scale(0.12 -0.12)">
      <defs>
       <path id="SFRM3583-d0" d="M 467 4365 
L 467 4224 
L 576 4224 
C 742 4224 877 4205 877 3955 
L 877 410 
C 877 160 768 141 467 141 
L 467 0 
L 1600 0 
L 1600 141 
L 1491 141 
C 1331 141 1190 160 1190 395 
L 1190 2067 
L 2170 2067 
C 2778 2067 3578 2388 3578 3210 
C 3578 3871 2963 4313 2310 4365 
L 467 4365 
z
M 1184 2176 
L 1184 4044 
C 1184 4160 1235 4224 1357 4224 
L 2106 4224 
C 2650 4224 3226 3986 3226 3184 
C 3226 2536 2746 2176 2054 2176 
L 1184 2176 
z
" transform="scale(0.015625)"/>
       <path id="SFRM3583-e0" d="M 576 2080 
C 659 2413 883 2740 1274 2740 
C 1619 2740 1869 2415 1920 2101 
C 1933 2018 1933 1928 1933 1846 
L 1933 1597 
C 1318 1597 474 1456 320 686 
C 314 647 314 603 314 564 
C 314 134 800 -32 1133 -32 
C 1446 -32 1856 177 1939 535 
L 1946 535 
C 1946 268 2125 0 2394 0 
C 2746 0 2829 376 2829 650 
L 2829 936 
L 2746 936 
L 2746 612 
C 2746 408 2701 115 2470 115 
C 2208 115 2195 453 2195 625 
L 2195 1810 
C 2195 1969 2189 2134 2125 2288 
C 1990 2599 1638 2816 1293 2816 
C 800 2816 480 2386 480 1918 
C 480 1798 570 1728 672 1728 
C 774 1728 858 1811 858 1914 
C 858 2010 794 2099 672 2099 
C 640 2099 608 2093 576 2080 
z
M 1933 1527 
L 1933 898 
C 1933 475 1670 77 1229 45 
L 1190 45 
C 896 45 627 276 627 590 
C 627 1257 1363 1527 1933 1527 
z
" transform="scale(0.015625)"/>
       <path id="SFRM3583-e4" d="M 832 2749 
L 832 2679 
L 915 2679 
C 1088 2679 1203 2628 1203 2443 
L 1203 2406 
C 1203 1642 1152 89 256 89 
L 173 -1024 
L 256 -1024 
C 275 -746 282 -328 448 -164 
C 582 -32 774 0 960 0 
L 2150 0 
C 2438 0 2778 0 2854 -438 
C 2899 -631 2912 -831 2925 -1024 
L 3008 -1024 
L 2925 89 
L 2835 89 
C 2675 89 2515 108 2515 344 
L 2515 2430 
C 2515 2647 2650 2679 2803 2679 
L 2893 2679 
L 2893 2749 
L 832 2749 
z
M 2246 248 
C 2246 108 2157 89 2061 89 
L 845 89 
C 806 96 774 115 768 160 
C 768 216 851 287 890 344 
C 1331 1006 1261 1979 1293 2456 
L 1293 2494 
C 1293 2609 1344 2679 1466 2679 
L 2074 2679 
C 2227 2679 2253 2578 2253 2475 
L 2253 356 
C 2253 319 2253 287 2246 248 
z
" transform="scale(0.015625)"/>
       <path id="SFRM3583-e8" d="M 288 2749 
L 288 2679 
L 378 2679 
C 531 2679 666 2647 666 2423 
L 666 333 
C 666 109 538 77 378 77 
L 288 77 
L 288 0 
L 1306 0 
L 1306 77 
L 1216 77 
C 1075 77 960 96 928 269 
L 928 314 
C 928 397 1005 468 1050 532 
C 1331 953 1632 1369 1926 1784 
L 2131 2078 
C 2170 2136 2214 2187 2246 2251 
L 2253 333 
C 2253 103 2112 77 1965 77 
L 1875 77 
L 1875 0 
L 2893 0 
L 2893 77 
L 2803 77 
C 2643 77 2515 109 2515 333 
L 2515 2423 
C 2515 2647 2650 2679 2803 2679 
L 2893 2679 
L 2893 2749 
L 1875 2749 
L 1875 2679 
L 1965 2679 
C 2106 2679 2221 2653 2253 2481 
L 2253 2436 
C 2253 2353 2176 2282 2131 2218 
C 1850 1797 1549 1381 1254 966 
L 1050 671 
C 1011 614 966 563 934 499 
L 928 2423 
C 928 2634 1050 2679 1216 2679 
L 1306 2679 
L 1306 2749 
L 998 2749 
L 288 2749 
z
" transform="scale(0.015625)"/>
       <path id="SFRM3583-f3" d="M 90 2819 
L 90 2749 
C 410 2749 435 2620 595 2220 
C 864 1556 1146 885 1395 215 
C 1414 164 1453 105 1453 47 
C 1453 -88 1318 -314 1261 -456 
C 1152 -752 992 -1171 627 -1171 
C 493 -1171 352 -1114 256 -1024 
C 358 -1024 448 -966 448 -851 
C 448 -755 371 -685 275 -685 
C 186 -685 109 -749 109 -864 
C 109 -1114 390 -1248 614 -1248 
L 621 -1248 
C 1043 -1248 1210 -809 1350 -460 
L 1562 63 
C 1798 657 2035 1258 2272 1852 
C 2304 1930 2336 2000 2362 2078 
C 2470 2342 2586 2737 2931 2737 
L 2931 2819 
L 2189 2819 
L 2189 2749 
C 2310 2749 2400 2620 2400 2504 
C 2400 2394 2349 2265 2310 2168 
C 2150 1775 1997 1374 1837 980 
L 1683 600 
C 1658 528 1626 464 1606 393 
L 1600 393 
C 1549 619 1427 845 1338 1058 
C 1190 1420 1050 1787 909 2149 
L 832 2343 
C 800 2413 755 2504 755 2582 
C 755 2671 832 2749 1018 2749 
L 1018 2819 
L 717 2819 
L 90 2819 
z
" transform="scale(0.015625)"/>
       <path id="SFRM3583-f1" d="M 2221 2092 
C 2189 2099 2157 2105 2125 2105 
C 2022 2105 1946 2016 1946 1920 
C 1946 1824 2022 1728 2131 1728 
C 2221 1728 2310 1792 2323 1888 
L 2323 1926 
C 2323 2366 1965 2819 1440 2819 
C 717 2819 269 2069 269 1390 
C 269 718 678 32 1363 -32 
L 1427 -32 
C 1882 -32 2240 257 2368 688 
C 2374 713 2381 739 2381 765 
C 2381 784 2368 790 2355 790 
C 2285 790 2272 669 2246 604 
C 2131 276 1824 51 1498 51 
C 890 51 595 769 595 1295 
C 595 1833 710 2737 1453 2737 
C 1811 2737 2138 2443 2221 2092 
z
" transform="scale(0.015625)"/>
       <path id="SFRM3583-e2" d="M 294 2749 
L 294 2679 
L 358 2679 
C 525 2679 666 2660 666 2423 
L 666 340 
C 666 96 525 77 358 77 
L 294 77 
L 294 0 
L 1818 0 
C 2208 32 2624 273 2669 709 
L 2669 760 
C 2669 1224 2003 1478 1722 1478 
C 1792 1511 1875 1517 1952 1544 
C 2208 1622 2541 1792 2541 2114 
C 2541 2638 1843 2749 1472 2749 
L 294 2749 
z
M 928 1460 
L 1606 1460 
C 2003 1460 2349 1176 2349 771 
L 2349 759 
C 2323 324 1946 77 1555 77 
L 1120 77 
C 979 77 928 115 928 368 
L 928 1460 
z
M 928 1536 
L 928 2425 
C 928 2549 947 2679 1120 2679 
L 1440 2679 
C 1632 2679 1811 2679 1971 2568 
C 2118 2463 2221 2293 2221 2117 
C 2221 1705 1728 1536 1440 1536 
L 928 1536 
z
" transform="scale(0.015625)"/>
       <path id="SFRM3583-e1" d="M 333 1946 
C 326 1959 326 1978 326 1991 
C 326 2522 429 3206 896 3564 
C 1165 3776 1510 3859 1830 3955 
C 2099 4025 2381 4102 2522 4384 
C 2528 4390 2534 4409 2534 4422 
C 2534 4448 2515 4448 2496 4448 
C 2406 4448 2227 4346 2112 4301 
C 1677 4128 1184 4044 806 3756 
C 218 3300 243 2327 237 1583 
L 237 1295 
C 275 661 691 0 1376 0 
L 1427 0 
C 2157 0 2624 703 2624 1400 
C 2624 2008 2298 2642 1645 2793 
C 1574 2813 1504 2819 1434 2819 
C 934 2819 467 2418 333 1946 
z
M 563 1282 
L 563 1384 
C 563 1862 621 2399 1114 2666 
C 1197 2705 1293 2737 1389 2737 
L 1434 2737 
C 2054 2737 2298 2018 2298 1503 
C 2298 1000 2246 281 1606 90 
C 1549 77 1491 64 1434 64 
C 960 64 653 536 595 988 
C 576 1084 576 1186 563 1282 
z
" transform="scale(0.015625)"/>
       <path id="SFRM3583-e5" d="M 563 1524 
L 2246 1524 
C 2259 1524 2285 1517 2310 1517 
C 2355 1517 2374 1543 2374 1581 
C 2374 2154 2099 2816 1382 2816 
C 614 2816 237 2031 237 1405 
C 237 778 589 70 1350 -26 
C 1376 -26 1402 -32 1427 -32 
C 1869 -32 2208 273 2355 686 
C 2362 705 2368 730 2368 749 
C 2368 768 2362 787 2336 787 
C 2272 787 2266 686 2246 628 
C 2118 324 1843 57 1485 57 
C 1216 57 960 210 813 425 
C 576 742 563 1149 563 1524 
z
M 570 1600 
C 582 2103 832 2740 1370 2740 
C 1818 2740 2010 2264 2061 1890 
C 2067 1793 2067 1697 2080 1600 
L 570 1600 
z
" transform="scale(0.015625)"/>
       <path id="SFRM3583-e7" d="M 1389 1523 
L 1389 1530 
C 1632 1555 2291 1741 2291 2144 
C 2291 2694 1587 2816 1139 2816 
C 877 2816 550 2738 397 2491 
C 326 2590 237 2816 179 2816 
C 166 2808 160 2787 160 2772 
L 160 1948 
C 160 1922 160 1896 186 1889 
L 205 1889 
C 256 1889 256 1968 262 2007 
C 390 2537 742 2740 1158 2740 
C 1491 2740 1978 2609 1978 2145 
C 1978 1785 1574 1536 1248 1536 
L 858 1536 
C 826 1536 800 1529 794 1504 
L 794 1498 
C 794 1466 832 1460 864 1460 
L 1101 1460 
C 1504 1460 1997 1334 2035 787 
L 2035 743 
C 2035 265 1568 51 1101 51 
C 653 51 282 221 211 724 
C 211 742 205 768 186 768 
L 166 768 
C 134 768 128 742 128 718 
C 128 207 621 -32 1114 -32 
C 1562 -32 2355 70 2355 762 
C 2355 1274 1747 1485 1389 1523 
z
" transform="scale(0.015625)"/>
       <path id="SFRM3583-f0" d="M 288 2750 
L 288 2608 
L 371 2608 
C 576 2608 666 2524 666 2326 
L 666 -731 
C 666 -775 672 -818 672 -862 
C 672 -1062 512 -1075 346 -1075 
L 288 -1075 
L 288 -1216 
L 1306 -1216 
L 1306 -1075 
L 1216 -1075 
C 1069 -1075 928 -1056 928 -854 
L 934 471 
C 1069 135 1459 -32 1728 -32 
C 2438 -32 2912 691 2912 1400 
C 2912 2032 2534 2819 1798 2819 
C 1453 2819 1050 2600 928 2298 
L 922 2819 
L 288 2750 
z
M 2579 1278 
C 2547 780 2278 45 1709 45 
C 1370 45 922 349 922 749 
C 922 788 928 827 928 866 
L 928 1821 
C 928 1885 922 1950 922 2014 
C 922 2375 1357 2737 1734 2737 
C 2349 2737 2586 1898 2586 1394 
C 2586 1355 2586 1317 2579 1278 
z
" transform="scale(0.015625)"/>
       <path id="SFRM3583-ec" d="M 294 2749 
L 294 2679 
L 384 2679 
C 538 2679 672 2641 672 2423 
L 672 979 
C 672 870 678 755 678 639 
C 678 404 659 77 294 77 
L 294 0 
L 1139 0 
L 1139 77 
C 787 77 762 378 762 588 
L 768 2628 
C 813 2410 947 2168 1030 1944 
L 1549 620 
C 1606 460 1670 308 1734 148 
C 1747 103 1766 7 1824 0 
C 1894 0 2029 416 2099 614 
C 2342 1209 2560 1816 2803 2410 
C 2835 2487 2874 2570 2893 2653 
L 2899 340 
C 2899 109 2771 77 2611 77 
L 2522 77 
L 2522 0 
L 3526 0 
L 3526 77 
L 3437 77 
C 3277 77 3149 109 3149 333 
L 3149 2423 
C 3149 2647 3283 2679 3437 2679 
L 3526 2679 
L 3526 2749 
L 2938 2749 
L 2874 2737 
L 2835 2685 
L 1914 326 
L 1043 2564 
L 960 2737 
L 890 2749 
L 294 2749 
z
" transform="scale(0.015625)"/>
       <path id="SFRM3583-ed" d="M 288 2749 
L 288 2679 
L 378 2679 
C 531 2679 666 2647 666 2423 
L 666 333 
C 666 109 538 77 378 77 
L 288 77 
L 288 0 
L 1306 0 
L 1306 77 
L 1229 77 
C 1088 77 954 90 928 266 
L 928 1460 
L 2253 1460 
L 2253 266 
C 2227 90 2093 77 1952 77 
L 1875 77 
L 1875 0 
L 2893 0 
L 2893 77 
L 2803 77 
C 2643 77 2515 109 2515 333 
L 2515 2423 
C 2515 2647 2650 2679 2803 2679 
L 2893 2679 
L 2893 2749 
L 1875 2749 
L 1875 2679 
L 1958 2679 
C 2144 2679 2253 2633 2253 2413 
L 2253 1536 
L 928 1536 
L 928 2413 
C 928 2633 1037 2679 1222 2679 
L 1306 2679 
L 1306 2749 
L 998 2749 
L 288 2749 
z
" transform="scale(0.015625)"/>
       <path id="SFRM3583-fb" d="M 288 2752 
L 288 2688 
L 378 2688 
C 531 2688 666 2656 666 2430 
L 666 322 
C 666 96 538 64 378 64 
L 288 64 
L 288 0 
L 1747 0 
C 2150 0 2675 252 2675 760 
C 2675 1031 2483 1269 2253 1398 
C 2003 1533 1741 1533 1466 1533 
L 928 1533 
L 928 2419 
C 928 2642 1037 2688 1222 2688 
L 1306 2688 
L 1306 2752 
L 998 2752 
L 288 2752 
z
M 928 1463 
L 1536 1463 
C 1946 1463 2349 1193 2349 763 
L 2349 738 
C 2349 327 1933 64 1555 64 
L 1082 64 
C 928 64 928 198 928 353 
L 928 1463 
z
M 2835 2752 
L 2835 2688 
L 2925 2688 
C 3078 2688 3213 2656 3213 2436 
L 3213 316 
C 3213 96 3085 64 2925 64 
L 2835 64 
L 2835 0 
L 3853 0 
L 3853 64 
L 3763 64 
C 3603 64 3475 96 3475 322 
L 3475 2430 
C 3475 2656 3610 2688 3763 2688 
L 3853 2688 
L 3853 2752 
L 2835 2752 
z
" transform="scale(0.015625)"/>
       <path id="SFRM3583-f5" d="M 51 2749 
L 51 2679 
C 147 2679 250 2679 339 2634 
C 467 2570 550 2442 634 2332 
C 858 2044 1075 1750 1299 1461 
C 1325 1429 1376 1384 1376 1346 
C 1363 1275 1184 1090 1088 967 
C 998 846 896 730 806 609 
C 608 358 358 77 19 77 
L 19 0 
L 851 0 
L 851 77 
C 762 109 730 160 730 237 
C 730 435 890 588 1005 723 
C 1152 908 1299 1093 1446 1285 
C 1510 1170 1606 1067 1690 966 
C 1856 742 2202 372 2202 224 
C 2202 154 2131 77 2048 77 
L 2048 0 
L 3002 0 
L 3002 77 
C 2650 77 2566 244 2400 442 
C 2170 750 1939 1057 1696 1358 
C 1670 1391 1619 1436 1619 1481 
L 1619 1487 
C 1619 1538 1798 1730 1882 1839 
C 2093 2095 2426 2679 2906 2679 
L 2906 2749 
L 2074 2749 
L 2074 2679 
C 2157 2653 2195 2602 2195 2519 
C 2195 2308 2029 2154 1907 2008 
C 1786 1854 1670 1694 1542 1547 
C 1491 1643 1414 1726 1344 1810 
L 902 2385 
C 870 2429 851 2481 851 2525 
C 851 2589 909 2679 1005 2679 
L 1005 2749 
L 691 2749 
L 51 2749 
z
" transform="scale(0.015625)"/>
       <path id="SFRM3583-ea" d="M 288 2749 
L 288 2679 
L 378 2679 
C 531 2679 666 2647 666 2423 
L 666 333 
C 666 109 538 77 378 77 
L 288 77 
L 288 0 
L 1299 0 
L 1299 77 
L 1216 77 
C 1030 77 922 122 922 340 
L 922 1049 
C 922 1119 941 1145 992 1196 
L 1094 1285 
C 1210 1387 1325 1502 1453 1592 
C 1517 1470 1613 1362 1690 1246 
C 1869 991 2061 742 2234 479 
L 2272 423 
C 2304 365 2355 282 2355 212 
C 2355 122 2266 77 2189 77 
L 2189 0 
L 3085 0 
L 3085 77 
C 2816 77 2650 308 2515 518 
C 2253 883 2003 1241 1741 1605 
C 1709 1656 1677 1707 1632 1752 
L 1632 1758 
C 1933 1983 2176 2280 2496 2486 
C 2630 2582 2784 2679 2957 2679 
L 2957 2749 
L 2176 2749 
L 2176 2679 
C 2240 2647 2259 2628 2259 2577 
C 2259 2378 2067 2250 2067 2250 
C 1920 2110 1766 1989 1613 1854 
C 1382 1650 1158 1446 922 1247 
L 922 2359 
C 922 2589 979 2679 1222 2679 
L 1299 2679 
L 1299 2749 
L 288 2749 
z
" transform="scale(0.015625)"/>
       <path id="SFRM3583-ee" d="M 1350 2816 
C 614 2726 237 2042 237 1376 
C 237 698 685 -32 1440 -32 
L 1504 -32 
C 2240 58 2624 736 2624 1382 
C 2624 2035 2182 2822 1440 2822 
C 1408 2822 1382 2816 1350 2816 
z
M 563 1274 
L 563 1376 
C 563 1856 621 2395 1114 2663 
C 1197 2702 1293 2734 1389 2734 
L 1434 2734 
C 2054 2734 2298 2012 2298 1495 
C 2298 990 2246 269 1606 77 
C 1549 64 1491 51 1434 51 
C 960 51 653 525 595 979 
C 576 1075 576 1178 563 1274 
z
" transform="scale(0.015625)"/>
       <path id="SFRM3583-f2" d="M 198 2752 
L 141 1786 
L 224 1786 
C 237 2029 243 2349 378 2516 
C 512 2656 723 2676 902 2676 
L 1126 2676 
C 1286 2676 1299 2560 1299 2445 
L 1299 378 
C 1299 103 1158 77 768 77 
L 768 0 
L 2093 0 
L 2093 77 
L 1933 77 
C 1734 77 1562 103 1562 378 
L 1562 2445 
C 1562 2560 1574 2676 1734 2676 
L 1958 2676 
C 2221 2676 2534 2631 2586 2260 
C 2618 2106 2630 1946 2637 1786 
L 2720 1786 
L 2662 2752 
L 198 2752 
z
" transform="scale(0.015625)"/>
      </defs>
      <use xlink:href="#SFRM3583-d0" transform="scale(0.996264)"/>
      <use xlink:href="#SFRM3583-e0" transform="translate(58.189747 0) scale(0.996264)"/>
      <use xlink:href="#SFRM3583-e4" transform="translate(102.768214 0) scale(0.996264)"/>
      <use xlink:href="#SFRM3583-e8" transform="translate(152.306642 0) scale(0.996264)"/>
      <use xlink:href="#SFRM3583-f3" transform="translate(201.845071 0) scale(0.996264)"/>
      <use xlink:href="#SFRM3583-f1" transform="translate(246.423522 0) scale(0.996264)"/>
      <use xlink:href="#SFRM3583-e2" transform="translate(315.740214 0) scale(0.996264)"/>
      <use xlink:href="#SFRM3583-e1" transform="translate(390.016974 0) scale(0.996264)"/>
      <use xlink:href="#SFRM3583-e5" transform="translate(434.595441 0) scale(0.996264)"/>
      <use xlink:href="#SFRM3583-e7" transform="translate(474.21384 0) scale(0.996264)"/>
      <use xlink:href="#SFRM3583-f0" transform="translate(513.832239 0) scale(0.996264)"/>
      <use xlink:href="#SFRM3583-e0" transform="translate(563.370667 0) scale(0.996264)"/>
      <use xlink:href="#SFRM3583-e7" transform="translate(607.949134 0) scale(0.996264)"/>
      <use xlink:href="#SFRM3583-ec" transform="translate(647.567532 0) scale(0.996264)"/>
      <use xlink:href="#SFRM3583-e5" transform="translate(707.026066 0) scale(0.996264)"/>
      <use xlink:href="#SFRM3583-f0" transform="translate(746.644465 0) scale(0.996264)"/>
      <use xlink:href="#SFRM3583-ed" transform="translate(796.182893 0) scale(0.996264)"/>
      <use xlink:href="#SFRM3583-fb" transform="translate(845.721322 0) scale(0.996264)"/>
      <use xlink:href="#SFRM3583-f5" transform="translate(910.139908 0) scale(0.996264)"/>
      <use xlink:href="#SFRM3583-ea" transform="translate(986.896641 0) scale(0.996264)"/>
      <use xlink:href="#SFRM3583-ee" transform="translate(1033.955081 0) scale(0.996264)"/>
      <use xlink:href="#SFRM3583-ee" transform="translate(1078.533548 0) scale(0.996264)"/>
      <use xlink:href="#SFRM3583-f0" transform="translate(1123.112015 0) scale(0.996264)"/>
      <use xlink:href="#SFRM3583-e4" transform="translate(1170.170455 0) scale(0.996264)"/>
      <use xlink:href="#SFRM3583-e8" transform="translate(1219.708883 0) scale(0.996264)"/>
      <use xlink:href="#SFRM3583-ed" transform="translate(1269.247311 0) scale(0.996264)"/>
      <use xlink:href="#SFRM3583-e0" transform="translate(1318.785739 0) scale(0.996264)"/>
      <use xlink:href="#SFRM3583-f2" transform="translate(1363.364206 0) scale(0.996264)"/>
      <use xlink:href="#SFRM3583-e0" transform="translate(1405.462684 0) scale(0.996264)"/>
      <use xlink:href="#SFRM3583-f5" transform="translate(1450.041151 0) scale(0.996264)"/>
     </g>
    </g>
   </g>
   <g id="matplotlib.axis_2">
    <g id="ytick_1">
     <g id="line2d_45">
      <defs>
       <path id="mb4334d9257" d="M 0 0 
L 3 0 
" style="stroke: #000000; stroke-width: 0.5"/>
      </defs>
      <g>
       <use xlink:href="#mb4334d9257" x="42.468452" y="210.625014" style="stroke: #000000; stroke-width: 0.5"/>
      </g>
     </g>
     <g id="line2d_46">
      <defs>
       <path id="mc1e46d4919" d="M 0 0 
L -3 0 
" style="stroke: #000000; stroke-width: 0.5"/>
      </defs>
      <g>
       <use xlink:href="#mc1e46d4919" x="377.268452" y="210.625014" style="stroke: #000000; stroke-width: 0.5"/>
      </g>
     </g>
     <g id="text_8">
      <!-- $\mathdefault{0.20}$ -->
      <g transform="translate(18.15782 214.7419) scale(0.12 -0.12)">
       <defs>
        <path id="CMMI12-3a" d="M 1178 307 
C 1178 492 1024 619 870 619 
C 685 619 557 466 557 313 
C 557 128 710 0 864 0 
C 1050 0 1178 153 1178 307 
z
" transform="scale(0.015625)"/>
       </defs>
       <use xlink:href="#CMR17-30" transform="scale(0.996264)"/>
       <use xlink:href="#CMMI12-3a" transform="translate(45.690477 0) scale(0.996264)"/>
       <use xlink:href="#CMR17-32" transform="translate(72.787654 0) scale(0.996264)"/>
       <use xlink:href="#CMR17-30" transform="translate(118.478131 0) scale(0.996264)"/>
      </g>
     </g>
    </g>
    <g id="ytick_2">
     <g id="line2d_47">
      <g>
       <use xlink:href="#mb4334d9257" x="42.468452" y="183.848451" style="stroke: #000000; stroke-width: 0.5"/>
      </g>
     </g>
     <g id="line2d_48">
      <g>
       <use xlink:href="#mc1e46d4919" x="377.268452" y="183.848451" style="stroke: #000000; stroke-width: 0.5"/>
      </g>
     </g>
     <g id="text_9">
      <!-- $\mathdefault{0.25}$ -->
      <g transform="translate(18.15782 187.965337) scale(0.12 -0.12)">
       <defs>
        <path id="CMR17-35" d="M 730 3692 
C 794 3666 1056 3584 1325 3584 
C 1920 3584 2246 3911 2432 4100 
C 2432 4157 2432 4192 2394 4192 
C 2387 4192 2374 4192 2323 4163 
C 2099 4058 1837 3973 1517 3973 
C 1325 3973 1037 3999 723 4139 
C 653 4171 640 4171 634 4171 
C 602 4171 595 4164 595 4037 
L 595 2203 
C 595 2089 595 2057 659 2057 
C 691 2057 704 2070 736 2114 
C 941 2401 1222 2522 1542 2522 
C 1766 2522 2246 2382 2246 1289 
C 2246 1085 2246 715 2054 421 
C 1894 159 1645 25 1370 25 
C 947 25 518 320 403 814 
C 429 807 480 795 506 795 
C 589 795 749 840 749 1038 
C 749 1210 627 1280 506 1280 
C 358 1280 262 1190 262 1011 
C 262 454 704 -128 1382 -128 
C 2042 -128 2669 440 2669 1264 
C 2669 2030 2170 2624 1549 2624 
C 1222 2624 947 2503 730 2274 
L 730 3692 
z
" transform="scale(0.015625)"/>
       </defs>
       <use xlink:href="#CMR17-30" transform="scale(0.996264)"/>
       <use xlink:href="#CMMI12-3a" transform="translate(45.690477 0) scale(0.996264)"/>
       <use xlink:href="#CMR17-32" transform="translate(72.787654 0) scale(0.996264)"/>
       <use xlink:href="#CMR17-35" transform="translate(118.478131 0) scale(0.996264)"/>
      </g>
     </g>
    </g>
    <g id="ytick_3">
     <g id="line2d_49">
      <g>
       <use xlink:href="#mb4334d9257" x="42.468452" y="157.071889" style="stroke: #000000; stroke-width: 0.5"/>
      </g>
     </g>
     <g id="line2d_50">
      <g>
       <use xlink:href="#mc1e46d4919" x="377.268452" y="157.071889" style="stroke: #000000; stroke-width: 0.5"/>
      </g>
     </g>
     <g id="text_10">
      <!-- $\mathdefault{0.30}$ -->
      <g transform="translate(18.15782 161.188775) scale(0.12 -0.12)">
       <defs>
        <path id="CMR17-33" d="M 1414 2157 
C 1984 2157 2234 1662 2234 1090 
C 2234 320 1824 25 1453 25 
C 1114 25 563 194 390 693 
C 422 680 454 680 486 680 
C 640 680 755 782 755 948 
C 755 1133 614 1216 486 1216 
C 378 1216 211 1165 211 926 
C 211 335 787 -128 1466 -128 
C 2176 -128 2720 430 2720 1085 
C 2720 1707 2208 2157 1600 2227 
C 2086 2328 2554 2756 2554 3329 
C 2554 3820 2048 4179 1472 4179 
C 890 4179 378 3829 378 3329 
C 378 3110 544 3072 627 3072 
C 762 3072 877 3155 877 3321 
C 877 3486 762 3569 627 3569 
C 602 3569 570 3569 544 3557 
C 730 3959 1235 4032 1459 4032 
C 1683 4032 2106 3925 2106 3320 
C 2106 3143 2080 2828 1862 2550 
C 1670 2304 1453 2304 1242 2284 
C 1210 2284 1062 2269 1037 2269 
C 992 2263 966 2257 966 2208 
C 966 2163 973 2157 1101 2157 
L 1414 2157 
z
" transform="scale(0.015625)"/>
       </defs>
       <use xlink:href="#CMR17-30" transform="scale(0.996264)"/>
       <use xlink:href="#CMMI12-3a" transform="translate(45.690477 0) scale(0.996264)"/>
       <use xlink:href="#CMR17-33" transform="translate(72.787654 0) scale(0.996264)"/>
       <use xlink:href="#CMR17-30" transform="translate(118.478131 0) scale(0.996264)"/>
      </g>
     </g>
    </g>
    <g id="ytick_4">
     <g id="line2d_51">
      <g>
       <use xlink:href="#mb4334d9257" x="42.468452" y="130.295326" style="stroke: #000000; stroke-width: 0.5"/>
      </g>
     </g>
     <g id="line2d_52">
      <g>
       <use xlink:href="#mc1e46d4919" x="377.268452" y="130.295326" style="stroke: #000000; stroke-width: 0.5"/>
      </g>
     </g>
     <g id="text_11">
      <!-- $\mathdefault{0.35}$ -->
      <g transform="translate(18.15782 134.412212) scale(0.12 -0.12)">
       <use xlink:href="#CMR17-30" transform="scale(0.996264)"/>
       <use xlink:href="#CMMI12-3a" transform="translate(45.690477 0) scale(0.996264)"/>
       <use xlink:href="#CMR17-33" transform="translate(72.787654 0) scale(0.996264)"/>
       <use xlink:href="#CMR17-35" transform="translate(118.478131 0) scale(0.996264)"/>
      </g>
     </g>
    </g>
    <g id="ytick_5">
     <g id="line2d_53">
      <g>
       <use xlink:href="#mb4334d9257" x="42.468452" y="103.518763" style="stroke: #000000; stroke-width: 0.5"/>
      </g>
     </g>
     <g id="line2d_54">
      <g>
       <use xlink:href="#mc1e46d4919" x="377.268452" y="103.518763" style="stroke: #000000; stroke-width: 0.5"/>
      </g>
     </g>
     <g id="text_12">
      <!-- $\mathdefault{0.40}$ -->
      <g transform="translate(18.15782 107.635649) scale(0.12 -0.12)">
       <use xlink:href="#CMR17-30" transform="scale(0.996264)"/>
       <use xlink:href="#CMMI12-3a" transform="translate(45.690477 0) scale(0.996264)"/>
       <use xlink:href="#CMR17-34" transform="translate(72.787654 0) scale(0.996264)"/>
       <use xlink:href="#CMR17-30" transform="translate(118.478131 0) scale(0.996264)"/>
      </g>
     </g>
    </g>
    <g id="ytick_6">
     <g id="line2d_55">
      <g>
       <use xlink:href="#mb4334d9257" x="42.468452" y="76.742201" style="stroke: #000000; stroke-width: 0.5"/>
      </g>
     </g>
     <g id="line2d_56">
      <g>
       <use xlink:href="#mc1e46d4919" x="377.268452" y="76.742201" style="stroke: #000000; stroke-width: 0.5"/>
      </g>
     </g>
     <g id="text_13">
      <!-- $\mathdefault{0.45}$ -->
      <g transform="translate(18.15782 80.859087) scale(0.12 -0.12)">
       <use xlink:href="#CMR17-30" transform="scale(0.996264)"/>
       <use xlink:href="#CMMI12-3a" transform="translate(45.690477 0) scale(0.996264)"/>
       <use xlink:href="#CMR17-34" transform="translate(72.787654 0) scale(0.996264)"/>
       <use xlink:href="#CMR17-35" transform="translate(118.478131 0) scale(0.996264)"/>
      </g>
     </g>
    </g>
    <g id="ytick_7">
     <g id="line2d_57">
      <g>
       <use xlink:href="#mb4334d9257" x="42.468452" y="49.965638" style="stroke: #000000; stroke-width: 0.5"/>
      </g>
     </g>
     <g id="line2d_58">
      <g>
       <use xlink:href="#mc1e46d4919" x="377.268452" y="49.965638" style="stroke: #000000; stroke-width: 0.5"/>
      </g>
     </g>
     <g id="text_14">
      <!-- $\mathdefault{0.50}$ -->
      <g transform="translate(18.15782 54.082524) scale(0.12 -0.12)">
       <use xlink:href="#CMR17-30" transform="scale(0.996264)"/>
       <use xlink:href="#CMMI12-3a" transform="translate(45.690477 0) scale(0.996264)"/>
       <use xlink:href="#CMR17-35" transform="translate(72.787654 0) scale(0.996264)"/>
       <use xlink:href="#CMR17-30" transform="translate(118.478131 0) scale(0.996264)"/>
      </g>
     </g>
    </g>
    <g id="ytick_8">
     <g id="line2d_59">
      <g>
       <use xlink:href="#mb4334d9257" x="42.468452" y="23.189075" style="stroke: #000000; stroke-width: 0.5"/>
      </g>
     </g>
     <g id="line2d_60">
      <g>
       <use xlink:href="#mc1e46d4919" x="377.268452" y="23.189075" style="stroke: #000000; stroke-width: 0.5"/>
      </g>
     </g>
     <g id="text_15">
      <!-- $\mathdefault{0.55}$ -->
      <g transform="translate(18.15782 27.305961) scale(0.12 -0.12)">
       <use xlink:href="#CMR17-30" transform="scale(0.996264)"/>
       <use xlink:href="#CMMI12-3a" transform="translate(45.690477 0) scale(0.996264)"/>
       <use xlink:href="#CMR17-35" transform="translate(72.787654 0) scale(0.996264)"/>
       <use xlink:href="#CMR17-35" transform="translate(118.478131 0) scale(0.996264)"/>
      </g>
     </g>
    </g>
    <g id="ytick_9">
     <g id="line2d_61">
      <defs>
       <path id="m0ca83924c8" d="M 0 0 
L 1.5 0 
" style="stroke: #000000; stroke-width: 0.5"/>
      </defs>
      <g>
       <use xlink:href="#m0ca83924c8" x="42.468452" y="221.335639" style="stroke: #000000; stroke-width: 0.5"/>
      </g>
     </g>
     <g id="line2d_62">
      <defs>
       <path id="m6aeb5db638" d="M 0 0 
L -1.5 0 
" style="stroke: #000000; stroke-width: 0.5"/>
      </defs>
      <g>
       <use xlink:href="#m6aeb5db638" x="377.268452" y="221.335639" style="stroke: #000000; stroke-width: 0.5"/>
      </g>
     </g>
    </g>
    <g id="ytick_10">
     <g id="line2d_63">
      <g>
       <use xlink:href="#m0ca83924c8" x="42.468452" y="215.980326" style="stroke: #000000; stroke-width: 0.5"/>
      </g>
     </g>
     <g id="line2d_64">
      <g>
       <use xlink:href="#m6aeb5db638" x="377.268452" y="215.980326" style="stroke: #000000; stroke-width: 0.5"/>
      </g>
     </g>
    </g>
    <g id="ytick_11">
     <g id="line2d_65">
      <g>
       <use xlink:href="#m0ca83924c8" x="42.468452" y="205.269701" style="stroke: #000000; stroke-width: 0.5"/>
      </g>
     </g>
     <g id="line2d_66">
      <g>
       <use xlink:href="#m6aeb5db638" x="377.268452" y="205.269701" style="stroke: #000000; stroke-width: 0.5"/>
      </g>
     </g>
    </g>
    <g id="ytick_12">
     <g id="line2d_67">
      <g>
       <use xlink:href="#m0ca83924c8" x="42.468452" y="199.914389" style="stroke: #000000; stroke-width: 0.5"/>
      </g>
     </g>
     <g id="line2d_68">
      <g>
       <use xlink:href="#m6aeb5db638" x="377.268452" y="199.914389" style="stroke: #000000; stroke-width: 0.5"/>
      </g>
     </g>
    </g>
    <g id="ytick_13">
     <g id="line2d_69">
      <g>
       <use xlink:href="#m0ca83924c8" x="42.468452" y="194.559076" style="stroke: #000000; stroke-width: 0.5"/>
      </g>
     </g>
     <g id="line2d_70">
      <g>
       <use xlink:href="#m6aeb5db638" x="377.268452" y="194.559076" style="stroke: #000000; stroke-width: 0.5"/>
      </g>
     </g>
    </g>
    <g id="ytick_14">
     <g id="line2d_71">
      <g>
       <use xlink:href="#m0ca83924c8" x="42.468452" y="189.203764" style="stroke: #000000; stroke-width: 0.5"/>
      </g>
     </g>
     <g id="line2d_72">
      <g>
       <use xlink:href="#m6aeb5db638" x="377.268452" y="189.203764" style="stroke: #000000; stroke-width: 0.5"/>
      </g>
     </g>
    </g>
    <g id="ytick_15">
     <g id="line2d_73">
      <g>
       <use xlink:href="#m0ca83924c8" x="42.468452" y="178.493139" style="stroke: #000000; stroke-width: 0.5"/>
      </g>
     </g>
     <g id="line2d_74">
      <g>
       <use xlink:href="#m6aeb5db638" x="377.268452" y="178.493139" style="stroke: #000000; stroke-width: 0.5"/>
      </g>
     </g>
    </g>
    <g id="ytick_16">
     <g id="line2d_75">
      <g>
       <use xlink:href="#m0ca83924c8" x="42.468452" y="173.137826" style="stroke: #000000; stroke-width: 0.5"/>
      </g>
     </g>
     <g id="line2d_76">
      <g>
       <use xlink:href="#m6aeb5db638" x="377.268452" y="173.137826" style="stroke: #000000; stroke-width: 0.5"/>
      </g>
     </g>
    </g>
    <g id="ytick_17">
     <g id="line2d_77">
      <g>
       <use xlink:href="#m0ca83924c8" x="42.468452" y="167.782514" style="stroke: #000000; stroke-width: 0.5"/>
      </g>
     </g>
     <g id="line2d_78">
      <g>
       <use xlink:href="#m6aeb5db638" x="377.268452" y="167.782514" style="stroke: #000000; stroke-width: 0.5"/>
      </g>
     </g>
    </g>
    <g id="ytick_18">
     <g id="line2d_79">
      <g>
       <use xlink:href="#m0ca83924c8" x="42.468452" y="162.427201" style="stroke: #000000; stroke-width: 0.5"/>
      </g>
     </g>
     <g id="line2d_80">
      <g>
       <use xlink:href="#m6aeb5db638" x="377.268452" y="162.427201" style="stroke: #000000; stroke-width: 0.5"/>
      </g>
     </g>
    </g>
    <g id="ytick_19">
     <g id="line2d_81">
      <g>
       <use xlink:href="#m0ca83924c8" x="42.468452" y="151.716576" style="stroke: #000000; stroke-width: 0.5"/>
      </g>
     </g>
     <g id="line2d_82">
      <g>
       <use xlink:href="#m6aeb5db638" x="377.268452" y="151.716576" style="stroke: #000000; stroke-width: 0.5"/>
      </g>
     </g>
    </g>
    <g id="ytick_20">
     <g id="line2d_83">
      <g>
       <use xlink:href="#m0ca83924c8" x="42.468452" y="146.361264" style="stroke: #000000; stroke-width: 0.5"/>
      </g>
     </g>
     <g id="line2d_84">
      <g>
       <use xlink:href="#m6aeb5db638" x="377.268452" y="146.361264" style="stroke: #000000; stroke-width: 0.5"/>
      </g>
     </g>
    </g>
    <g id="ytick_21">
     <g id="line2d_85">
      <g>
       <use xlink:href="#m0ca83924c8" x="42.468452" y="141.005951" style="stroke: #000000; stroke-width: 0.5"/>
      </g>
     </g>
     <g id="line2d_86">
      <g>
       <use xlink:href="#m6aeb5db638" x="377.268452" y="141.005951" style="stroke: #000000; stroke-width: 0.5"/>
      </g>
     </g>
    </g>
    <g id="ytick_22">
     <g id="line2d_87">
      <g>
       <use xlink:href="#m0ca83924c8" x="42.468452" y="135.650638" style="stroke: #000000; stroke-width: 0.5"/>
      </g>
     </g>
     <g id="line2d_88">
      <g>
       <use xlink:href="#m6aeb5db638" x="377.268452" y="135.650638" style="stroke: #000000; stroke-width: 0.5"/>
      </g>
     </g>
    </g>
    <g id="ytick_23">
     <g id="line2d_89">
      <g>
       <use xlink:href="#m0ca83924c8" x="42.468452" y="124.940013" style="stroke: #000000; stroke-width: 0.5"/>
      </g>
     </g>
     <g id="line2d_90">
      <g>
       <use xlink:href="#m6aeb5db638" x="377.268452" y="124.940013" style="stroke: #000000; stroke-width: 0.5"/>
      </g>
     </g>
    </g>
    <g id="ytick_24">
     <g id="line2d_91">
      <g>
       <use xlink:href="#m0ca83924c8" x="42.468452" y="119.584701" style="stroke: #000000; stroke-width: 0.5"/>
      </g>
     </g>
     <g id="line2d_92">
      <g>
       <use xlink:href="#m6aeb5db638" x="377.268452" y="119.584701" style="stroke: #000000; stroke-width: 0.5"/>
      </g>
     </g>
    </g>
    <g id="ytick_25">
     <g id="line2d_93">
      <g>
       <use xlink:href="#m0ca83924c8" x="42.468452" y="114.229388" style="stroke: #000000; stroke-width: 0.5"/>
      </g>
     </g>
     <g id="line2d_94">
      <g>
       <use xlink:href="#m6aeb5db638" x="377.268452" y="114.229388" style="stroke: #000000; stroke-width: 0.5"/>
      </g>
     </g>
    </g>
    <g id="ytick_26">
     <g id="line2d_95">
      <g>
       <use xlink:href="#m0ca83924c8" x="42.468452" y="108.874076" style="stroke: #000000; stroke-width: 0.5"/>
      </g>
     </g>
     <g id="line2d_96">
      <g>
       <use xlink:href="#m6aeb5db638" x="377.268452" y="108.874076" style="stroke: #000000; stroke-width: 0.5"/>
      </g>
     </g>
    </g>
    <g id="ytick_27">
     <g id="line2d_97">
      <g>
       <use xlink:href="#m0ca83924c8" x="42.468452" y="98.163451" style="stroke: #000000; stroke-width: 0.5"/>
      </g>
     </g>
     <g id="line2d_98">
      <g>
       <use xlink:href="#m6aeb5db638" x="377.268452" y="98.163451" style="stroke: #000000; stroke-width: 0.5"/>
      </g>
     </g>
    </g>
    <g id="ytick_28">
     <g id="line2d_99">
      <g>
       <use xlink:href="#m0ca83924c8" x="42.468452" y="92.808138" style="stroke: #000000; stroke-width: 0.5"/>
      </g>
     </g>
     <g id="line2d_100">
      <g>
       <use xlink:href="#m6aeb5db638" x="377.268452" y="92.808138" style="stroke: #000000; stroke-width: 0.5"/>
      </g>
     </g>
    </g>
    <g id="ytick_29">
     <g id="line2d_101">
      <g>
       <use xlink:href="#m0ca83924c8" x="42.468452" y="87.452826" style="stroke: #000000; stroke-width: 0.5"/>
      </g>
     </g>
     <g id="line2d_102">
      <g>
       <use xlink:href="#m6aeb5db638" x="377.268452" y="87.452826" style="stroke: #000000; stroke-width: 0.5"/>
      </g>
     </g>
    </g>
    <g id="ytick_30">
     <g id="line2d_103">
      <g>
       <use xlink:href="#m0ca83924c8" x="42.468452" y="82.097513" style="stroke: #000000; stroke-width: 0.5"/>
      </g>
     </g>
     <g id="line2d_104">
      <g>
       <use xlink:href="#m6aeb5db638" x="377.268452" y="82.097513" style="stroke: #000000; stroke-width: 0.5"/>
      </g>
     </g>
    </g>
    <g id="ytick_31">
     <g id="line2d_105">
      <g>
       <use xlink:href="#m0ca83924c8" x="42.468452" y="71.386888" style="stroke: #000000; stroke-width: 0.5"/>
      </g>
     </g>
     <g id="line2d_106">
      <g>
       <use xlink:href="#m6aeb5db638" x="377.268452" y="71.386888" style="stroke: #000000; stroke-width: 0.5"/>
      </g>
     </g>
    </g>
    <g id="ytick_32">
     <g id="line2d_107">
      <g>
       <use xlink:href="#m0ca83924c8" x="42.468452" y="66.031576" style="stroke: #000000; stroke-width: 0.5"/>
      </g>
     </g>
     <g id="line2d_108">
      <g>
       <use xlink:href="#m6aeb5db638" x="377.268452" y="66.031576" style="stroke: #000000; stroke-width: 0.5"/>
      </g>
     </g>
    </g>
    <g id="ytick_33">
     <g id="line2d_109">
      <g>
       <use xlink:href="#m0ca83924c8" x="42.468452" y="60.676263" style="stroke: #000000; stroke-width: 0.5"/>
      </g>
     </g>
     <g id="line2d_110">
      <g>
       <use xlink:href="#m6aeb5db638" x="377.268452" y="60.676263" style="stroke: #000000; stroke-width: 0.5"/>
      </g>
     </g>
    </g>
    <g id="ytick_34">
     <g id="line2d_111">
      <g>
       <use xlink:href="#m0ca83924c8" x="42.468452" y="55.320951" style="stroke: #000000; stroke-width: 0.5"/>
      </g>
     </g>
     <g id="line2d_112">
      <g>
       <use xlink:href="#m6aeb5db638" x="377.268452" y="55.320951" style="stroke: #000000; stroke-width: 0.5"/>
      </g>
     </g>
    </g>
    <g id="ytick_35">
     <g id="line2d_113">
      <g>
       <use xlink:href="#m0ca83924c8" x="42.468452" y="44.610325" style="stroke: #000000; stroke-width: 0.5"/>
      </g>
     </g>
     <g id="line2d_114">
      <g>
       <use xlink:href="#m6aeb5db638" x="377.268452" y="44.610325" style="stroke: #000000; stroke-width: 0.5"/>
      </g>
     </g>
    </g>
    <g id="ytick_36">
     <g id="line2d_115">
      <g>
       <use xlink:href="#m0ca83924c8" x="42.468452" y="39.255013" style="stroke: #000000; stroke-width: 0.5"/>
      </g>
     </g>
     <g id="line2d_116">
      <g>
       <use xlink:href="#m6aeb5db638" x="377.268452" y="39.255013" style="stroke: #000000; stroke-width: 0.5"/>
      </g>
     </g>
    </g>
    <g id="ytick_37">
     <g id="line2d_117">
      <g>
       <use xlink:href="#m0ca83924c8" x="42.468452" y="33.8997" style="stroke: #000000; stroke-width: 0.5"/>
      </g>
     </g>
     <g id="line2d_118">
      <g>
       <use xlink:href="#m6aeb5db638" x="377.268452" y="33.8997" style="stroke: #000000; stroke-width: 0.5"/>
      </g>
     </g>
    </g>
    <g id="ytick_38">
     <g id="line2d_119">
      <g>
       <use xlink:href="#m0ca83924c8" x="42.468452" y="28.544388" style="stroke: #000000; stroke-width: 0.5"/>
      </g>
     </g>
     <g id="line2d_120">
      <g>
       <use xlink:href="#m6aeb5db638" x="377.268452" y="28.544388" style="stroke: #000000; stroke-width: 0.5"/>
      </g>
     </g>
    </g>
    <g id="ytick_39">
     <g id="line2d_121">
      <g>
       <use xlink:href="#m0ca83924c8" x="42.468452" y="17.833763" style="stroke: #000000; stroke-width: 0.5"/>
      </g>
     </g>
     <g id="line2d_122">
      <g>
       <use xlink:href="#m6aeb5db638" x="377.268452" y="17.833763" style="stroke: #000000; stroke-width: 0.5"/>
      </g>
     </g>
    </g>
    <g id="ytick_40">
     <g id="line2d_123">
      <g>
       <use xlink:href="#m0ca83924c8" x="42.468452" y="12.47845" style="stroke: #000000; stroke-width: 0.5"/>
      </g>
     </g>
     <g id="line2d_124">
      <g>
       <use xlink:href="#m6aeb5db638" x="377.268452" y="12.47845" style="stroke: #000000; stroke-width: 0.5"/>
      </g>
     </g>
    </g>
    <g id="ytick_41">
     <g id="line2d_125">
      <g>
       <use xlink:href="#m0ca83924c8" x="42.468452" y="7.123138" style="stroke: #000000; stroke-width: 0.5"/>
      </g>
     </g>
     <g id="line2d_126">
      <g>
       <use xlink:href="#m6aeb5db638" x="377.268452" y="7.123138" style="stroke: #000000; stroke-width: 0.5"/>
      </g>
     </g>
    </g>
    <g id="text_16">
     <!-- Интенсивность -->
     <g transform="translate(11.833772 154.463994) rotate(-90) scale(0.12 -0.12)">
      <defs>
       <path id="SFRM3583-c8" d="M 467 4365 
L 467 4224 
L 576 4224 
C 742 4224 877 4205 877 3955 
L 877 410 
C 877 160 768 141 467 141 
L 467 0 
L 1600 0 
L 1600 141 
L 1491 141 
C 1344 141 1190 154 1190 320 
C 1190 384 1235 436 1267 486 
C 1779 1317 2266 2173 2771 3010 
L 3117 3585 
C 3162 3668 3226 3745 3258 3834 
L 3264 365 
C 3264 192 3194 141 2854 141 
L 2854 0 
L 3987 0 
L 3987 141 
L 3878 141 
C 3712 141 3571 160 3571 410 
C 3571 460 3578 505 3578 556 
L 3578 3955 
C 3578 4205 3686 4224 3987 4224 
L 3987 4365 
L 2854 4365 
L 2854 4224 
L 2963 4224 
C 3110 4224 3264 4211 3264 4045 
C 3264 3981 3219 3929 3187 3879 
C 2675 3048 2189 2192 1683 1355 
L 1338 780 
C 1293 697 1229 620 1197 531 
L 1190 4000 
C 1190 4173 1261 4224 1600 4224 
L 1600 4365 
L 467 4365 
z
" transform="scale(0.015625)"/>
       <path id="SFRM3583-fc" d="M 294 2749 
L 294 2679 
L 358 2679 
C 525 2679 666 2660 666 2423 
L 666 340 
C 666 96 525 77 358 77 
L 294 77 
L 294 0 
L 1472 0 
C 1741 0 2003 0 2246 133 
C 2477 267 2669 501 2669 768 
C 2669 1333 2029 1536 1587 1536 
L 928 1536 
L 928 2413 
C 928 2633 1043 2679 1222 2679 
L 1299 2679 
L 1299 2749 
L 294 2749 
z
M 928 1460 
L 1530 1460 
C 1939 1460 2342 1199 2342 768 
L 2342 743 
C 2342 331 1920 77 1555 77 
L 1082 77 
C 928 77 928 210 928 363 
L 928 1460 
z
" transform="scale(0.015625)"/>
      </defs>
      <use xlink:href="#SFRM3583-c8" transform="scale(0.996264)"/>
      <use xlink:href="#SFRM3583-ed" transform="translate(69.320979 0) scale(0.996264)"/>
      <use xlink:href="#SFRM3583-f2" transform="translate(118.859407 0) scale(0.996264)"/>
      <use xlink:href="#SFRM3583-e5" transform="translate(163.437874 0) scale(0.996264)"/>
      <use xlink:href="#SFRM3583-ed" transform="translate(203.056273 0) scale(0.996264)"/>
      <use xlink:href="#SFRM3583-f1" transform="translate(252.594701 0) scale(0.996264)"/>
      <use xlink:href="#SFRM3583-e8" transform="translate(292.2131 0) scale(0.996264)"/>
      <use xlink:href="#SFRM3583-e2" transform="translate(341.751528 0) scale(0.996264)"/>
      <use xlink:href="#SFRM3583-ed" transform="translate(386.329995 0) scale(0.996264)"/>
      <use xlink:href="#SFRM3583-ee" transform="translate(435.868423 0) scale(0.996264)"/>
      <use xlink:href="#SFRM3583-f1" transform="translate(480.44689 0) scale(0.996264)"/>
      <use xlink:href="#SFRM3583-f2" transform="translate(520.065289 0) scale(0.996264)"/>
      <use xlink:href="#SFRM3583-fc" transform="translate(564.643755 0) scale(0.996264)"/>
     </g>
    </g>
   </g>
   <g id="line2d_127">
    <path d="M 57.686634 213.843703 
L 57.836346 214.698432 
L 58.28548 215.28 
L 58.734615 213.343393 
L 59.483173 201.769625 
L 60.082019 194.294662 
L 60.830577 186.850909 
L 61.279712 182.271132 
L 61.579135 179.624923 
L 62.177981 176.587177 
L 62.627116 174.863937 
L 63.375674 169.50456 
L 64.124232 163.103055 
L 64.723078 158.990762 
L 65.022501 158.767108 
L 65.321925 158.69239 
L 65.471636 158.88646 
L 66.070482 157.665492 
L 66.369906 155.927419 
L 67.268175 145.578935 
L 67.417887 144.724531 
L 67.567598 144.660414 
L 67.71731 144.936344 
L 68.016733 146.408393 
L 68.166445 146.785002 
L 68.316156 146.70881 
L 68.615579 146.885183 
L 68.765291 147.478512 
L 68.915002 147.362212 
L 69.064714 147.003036 
L 69.214426 146.077565 
L 69.364137 144.189476 
L 69.66356 138.730477 
L 70.262407 131.499477 
L 70.56183 130.605908 
L 70.711541 130.319413 
L 71.010964 131.545115 
L 71.609811 136.588907 
L 71.759522 135.991492 
L 71.909234 136.150298 
L 72.50808 131.196416 
L 73.256638 118.120887 
L 73.556061 116.703152 
L 73.855484 117.033022 
L 74.005196 117.490714 
L 74.304619 119.287596 
L 74.753754 124.440444 
L 75.053177 125.050133 
L 75.202889 125.186767 
L 75.3526 123.606569 
L 75.652023 115.750955 
L 76.101158 105.68061 
L 76.400581 103.0826 
L 76.550293 103.102132 
L 76.849716 104.861808 
L 77.149139 108.095352 
L 77.747985 117.092556 
L 77.897697 118.298572 
L 78.047409 118.251321 
L 78.19712 118.348922 
L 78.346832 117.190349 
L 78.646255 110.916276 
L 79.245101 96.013473 
L 79.394813 95.162834 
L 79.694236 95.466752 
L 80.143371 98.505916 
L 80.742217 111.157424 
L 81.04164 112.383649 
L 81.191352 111.446924 
L 81.490775 105.994584 
L 82.538756 79.550804 
L 82.688467 79.729502 
L 82.838179 80.580937 
L 83.137602 84.009139 
L 84.335295 105.051085 
L 84.634718 102.258238 
L 85.532987 75.522856 
L 85.832411 72.912587 
L 85.982122 73.662605 
L 86.131834 73.444775 
L 86.73068 80.946646 
L 87.329526 97.202976 
L 87.479238 98.685305 
L 87.62895 98.72925 
L 87.778661 98.526665 
L 88.078084 92.534537 
L 89.126065 70.156951 
L 89.5752 68.095772 
L 89.724912 68.231987 
L 90.024335 72.186001 
L 91.072316 97.813726 
L 91.222027 99.071535 
L 91.371739 98.662282 
L 91.671162 95.147519 
L 92.120297 83.878971 
L 92.41972 74.755358 
L 92.719143 70.839035 
L 92.868855 70.236746 
L 93.168278 70.421428 
L 93.467701 72.131496 
L 93.767124 75.612041 
L 94.066547 83.15446 
L 94.665394 90.657199 
L 94.815105 90.81735 
L 95.413952 87.013015 
L 96.012798 79.906021 
L 96.461933 70.787584 
L 96.761356 68.660187 
L 96.911067 68.469556 
L 97.060779 68.773227 
L 97.509914 71.737773 
L 98.408183 80.839662 
L 98.707606 82.118391 
L 99.007029 81.676092 
L 99.306453 80.01841 
L 99.605876 76.402597 
L 100.504145 66.56356 
L 100.95328 65.793391 
L 101.252703 66.953331 
L 101.701838 72.156971 
L 101.851549 72.923896 
L 102.001261 73.018265 
L 102.600107 75.984573 
L 102.749819 76.264731 
L 103.498377 73.362745 
L 103.947511 68.34639 
L 104.246935 66.975435 
L 104.396646 66.534281 
L 104.546358 66.582673 
L 104.696069 67.070358 
L 105.294916 71.843536 
L 106.043474 74.866239 
L 106.342897 75.032353 
L 106.792031 73.991076 
L 106.941743 74.552766 
L 107.091455 74.542921 
L 107.390878 73.893672 
L 107.540589 73.075166 
L 107.690301 72.933072 
L 107.989724 71.983317 
L 108.139436 71.773625 
L 108.289147 71.773905 
L 108.438859 71.601277 
L 108.58857 70.957952 
L 108.738282 71.023273 
L 108.887993 70.554441 
L 109.337128 71.691191 
L 109.48684 72.381784 
L 109.786263 72.266201 
L 109.935975 71.559591 
L 110.085686 71.437973 
L 110.684532 69.551776 
L 110.834244 69.668128 
L 110.983956 69.07289 
L 111.133667 69.246027 
L 111.283379 68.909719 
L 111.43309 68.972187 
L 111.582802 69.396638 
L 111.882225 68.429152 
L 112.181648 66.886574 
L 112.33136 66.718842 
L 112.481071 67.100324 
L 113.079918 70.62143 
L 113.678764 71.713291 
L 113.828476 72.029806 
L 113.978187 71.896073 
L 114.127899 71.98283 
L 114.27761 72.278816 
L 114.577033 70.832914 
L 115.17588 65.594193 
L 115.475303 63.702708 
L 115.625014 63.523016 
L 115.774726 63.782249 
L 115.924438 63.199994 
L 116.672996 57.124384 
L 116.822707 57.354514 
L 117.12213 59.676209 
L 117.571265 64.835092 
L 117.870688 68.509932 
L 118.619246 73.025828 
L 118.768958 73.097986 
L 119.068381 73.830926 
L 119.218092 73.810539 
L 119.367804 73.306471 
L 119.667227 73.306356 
L 119.96665 74.792395 
L 120.116362 74.921401 
L 120.415785 71.260774 
L 120.86492 57.509991 
L 121.164343 53.152635 
L 121.763189 50.605999 
L 121.912901 50.664879 
L 122.062612 50.89971 
L 122.212324 51.600154 
L 122.661459 56.359403 
L 122.81117 58.596982 
L 123.260305 69.87447 
L 123.70944 76.608322 
L 124.158574 79.600006 
L 124.308286 79.43479 
L 124.457998 79.801218 
L 124.607709 79.066112 
L 125.056844 79.990135 
L 125.206555 78.604221 
L 125.65569 71.418878 
L 125.955113 69.803974 
L 126.254536 63.088268 
L 126.853383 37.591335 
L 127.152806 36.372464 
L 127.302517 37.1296 
L 127.751652 42.298829 
L 128.200787 51.878507 
L 129.39848 76.386547 
L 129.847614 80.795137 
L 130.147037 81.195939 
L 130.296749 80.630699 
L 130.596172 77.787229 
L 131.34473 59.882042 
L 132.093288 44.479131 
L 132.392711 36.505785 
L 132.692134 30.144199 
L 132.991557 28.532937 
L 133.141269 27.879986 
L 133.290981 27.84623 
L 133.440692 27.411787 
L 133.590404 27.470658 
L 133.740115 27.324705 
L 134.039538 28.559457 
L 134.338962 33.367996 
L 135.386943 62.063458 
L 135.836077 75.771307 
L 136.285212 84.169301 
L 136.734347 88.514023 
L 136.884058 88.789741 
L 137.03377 88.381674 
L 137.183482 87.602089 
L 137.333193 87.515599 
L 137.482905 88.057547 
L 137.782328 87.570622 
L 138.231463 84.820352 
L 138.530886 79.647384 
L 139.578867 43.849118 
L 140.028002 38.091091 
L 140.477136 34.050409 
L 140.776559 32.599731 
L 141.075983 33.801792 
L 141.974252 47.591716 
L 142.273675 53.205827 
L 142.72281 63.836242 
L 143.171945 86.937267 
L 143.621079 97.568545 
L 144.219926 102.799569 
L 144.369637 102.777231 
L 144.519349 102.353995 
L 144.66906 102.453835 
L 144.818772 101.786322 
L 144.968484 100.429979 
L 145.717041 86.021136 
L 147.214157 49.594975 
L 147.51358 47.297467 
L 147.813004 41.416181 
L 148.561561 20.740971 
L 148.860985 18.972499 
L 149.010696 19.016961 
L 149.160408 19.239171 
L 149.310119 19.688432 
L 149.609542 20.828321 
L 149.908966 21.48812 
L 150.058677 21.359615 
L 150.208389 22.014196 
L 150.507812 27.757876 
L 150.807235 33.865145 
L 151.106658 37.832476 
L 152.304351 68.523713 
L 152.753486 82.663205 
L 152.903197 85.895194 
L 153.352332 101.069457 
L 153.801467 110.30844 
L 154.10089 113.935718 
L 154.250601 114.793902 
L 154.400313 114.648851 
L 154.550025 115.215149 
L 154.699736 114.988706 
L 154.849448 115.055039 
L 154.999159 115.317915 
L 155.298582 114.654624 
L 155.747717 111.481823 
L 156.04714 108.906473 
L 157.244833 87.273936 
L 157.693968 75.774847 
L 157.843679 73.43685 
L 159.191083 36.263385 
L 160.089353 22.379068 
L 160.538488 20.780725 
L 160.688199 20.659106 
L 160.987622 19.937004 
L 161.436757 19.731084 
L 161.586469 19.342291 
L 162.035603 19.15655 
L 162.335027 20.491005 
L 163.383008 26.466465 
L 163.832142 26.766693 
L 164.131565 27.879244 
L 164.5807 32.21107 
L 165.029835 38.7095 
L 165.329258 40.292086 
L 165.928104 46.679479 
L 166.227528 53.114889 
L 166.526951 59.54155 
L 167.42522 67.763989 
L 167.724643 68.715705 
L 168.024066 71.126535 
L 168.772624 84.290648 
L 169.820605 103.139644 
L 170.419452 118.399249 
L 170.718875 122.235041 
L 171.018298 123.985517 
L 171.317721 123.459352 
L 171.617144 120.365779 
L 171.916567 116.068572 
L 172.066279 115.974404 
L 172.215991 116.556559 
L 172.515414 122.806181 
L 173.11426 140.586553 
L 173.413683 142.32839 
L 173.563395 142.461721 
L 173.862818 141.355278 
L 174.162241 139.160841 
L 174.461664 138.310392 
L 174.611376 138.383658 
L 174.761087 138.221125 
L 175.060511 139.002841 
L 175.210222 138.865554 
L 175.95878 140.348701 
L 176.108492 140.656078 
L 176.407915 140.664493 
L 176.557626 140.881665 
L 176.707338 140.838228 
L 176.85705 141.085118 
L 177.006761 141.572636 
L 177.156473 141.17796 
L 177.605607 141.933776 
L 177.905031 142.446318 
L 178.204454 142.798451 
L 178.503877 142.188599 
L 178.653588 142.128907 
L 179.551858 140.391036 
L 179.701569 140.346296 
L 180.150704 140.877201 
L 180.300416 140.886576 
L 180.599839 140.445052 
L 180.899262 140.538113 
L 181.048974 140.607096 
L 181.198685 140.997085 
L 181.498108 140.800268 
L 181.64782 140.915138 
L 181.947243 140.712615 
L 182.096955 140.736386 
L 182.396378 140.472264 
L 182.845513 139.324789 
L 182.995224 139.357301 
L 183.294647 139.827844 
L 183.444359 139.4404 
L 183.59407 139.699125 
L 183.893494 138.982265 
L 184.043205 139.330684 
L 184.342628 138.257936 
L 185.390609 131.608897 
L 185.540321 131.069739 
L 185.690033 131.661626 
L 186.139167 131.765953 
L 186.43859 130.981216 
L 186.738014 129.36785 
L 187.037437 125.209327 
L 187.33686 121.992243 
L 187.636283 120.679554 
L 187.785995 120.733441 
L 188.085418 120.017242 
L 188.384841 119.484957 
L 188.534553 119.649496 
L 188.684264 119.638559 
L 188.833976 120.42438 
L 188.983687 120.392128 
L 189.28311 119.616144 
L 189.432822 119.248226 
L 189.582534 119.191632 
L 190.331091 114.60459 
L 190.929938 108.706715 
L 191.828207 89.624912 
L 192.427054 75.311588 
L 194.223592 53.553954 
L 195.720708 38.269438 
L 195.87042 38.204472 
L 196.020131 37.701798 
L 197.517247 27.76357 
L 198.415517 20.597887 
L 199.014363 18.015274 
L 199.164075 17.73087 
L 199.313786 18.062457 
L 199.463498 18.687646 
L 199.762921 23.173299 
L 200.062344 27.82164 
L 200.361767 30.963555 
L 201.858883 53.163115 
L 204.104557 102.056177 
L 204.553691 113.630818 
L 205.152538 123.541402 
L 205.451961 127.932868 
L 205.601672 129.474509 
L 205.751384 129.73954 
L 205.901095 129.339623 
L 206.499942 125.666505 
L 206.799365 123.709159 
L 207.098788 117.947985 
L 207.997058 89.334532 
L 208.446192 67.628822 
L 209.045039 38.896548 
L 209.344462 30.767757 
L 210.242731 18.13061 
L 210.691866 16.160504 
L 211.141001 14.278788 
L 211.290712 14.065302 
L 211.440424 14.656405 
L 211.590135 13.68 
L 211.739847 14.300172 
L 211.889559 14.300513 
L 212.03927 14.712759 
L 212.188982 16.113437 
L 212.338693 16.181911 
L 212.787828 22.393954 
L 213.386674 38.90649 
L 214.135232 70.811624 
L 214.88379 95.226886 
L 215.482636 105.578759 
L 215.78206 107.393866 
L 215.931771 107.247766 
L 216.081483 106.907755 
L 216.231194 105.730448 
L 216.680329 96.885854 
L 217.428887 73.36587 
L 218.177445 45.991162 
L 218.776291 28.562757 
L 219.375137 18.213637 
L 219.674561 16.888136 
L 219.824272 16.865712 
L 219.973984 17.61617 
L 220.722542 27.676241 
L 221.4711 49.77617 
L 222.818504 95.225657 
L 223.267638 98.146209 
L 223.41735 98.325194 
L 223.567062 97.799108 
L 223.716773 96.202368 
L 224.315619 82.47208 
L 224.764754 64.900293 
L 225.213889 40.4554 
L 225.962447 22.200314 
L 226.711005 16.222735 
L 227.160139 18.859825 
L 227.459563 24.712246 
L 227.758986 32.280962 
L 228.956678 80.113869 
L 229.256102 85.165463 
L 229.555525 87.35082 
L 230.154371 88.388449 
L 230.304083 88.052905 
L 230.603506 83.03396 
L 231.05264 67.76088 
L 231.352064 54.979585 
L 231.95091 36.27259 
L 232.549756 28.634569 
L 232.849179 26.115973 
L 232.998891 25.823673 
L 233.148603 25.877171 
L 233.448026 28.557575 
L 233.747449 35.098556 
L 235.094853 77.905216 
L 235.394276 82.437074 
L 235.543988 83.027279 
L 235.693699 82.918591 
L 235.843411 82.54006 
L 236.142834 79.305575 
L 236.442257 72.191966 
L 237.340527 40.710914 
L 237.63995 35.156437 
L 237.939373 33.3063 
L 238.238796 32.122792 
L 238.538219 30.437966 
L 238.687931 30.307112 
L 238.837642 30.903923 
L 238.987354 32.712264 
L 240.334758 68.008846 
L 240.634181 69.705873 
L 240.783893 69.554427 
L 240.933605 69.204421 
L 241.233028 67.315283 
L 241.532451 60.161414 
L 241.831874 51.599253 
L 242.730143 38.366844 
L 243.179278 34.358978 
L 243.32899 34.003247 
L 243.478701 34.186896 
L 243.628413 34.721674 
L 243.927836 37.069268 
L 244.676394 52.876821 
L 244.975817 58.288504 
L 245.27524 60.7256 
L 245.424952 60.980976 
L 245.574663 60.902182 
L 246.023798 59.751883 
L 246.17351 59.131902 
L 246.472933 56.24254 
L 247.071779 48.111812 
L 247.520914 43.479833 
L 247.820337 41.961796 
L 248.11976 43.738234 
L 248.568895 49.480426 
L 248.868318 49.998701 
L 249.616876 54.612119 
L 249.766588 55.135691 
L 250.066011 55.041879 
L 250.365434 53.550854 
L 250.515145 53.561417 
L 250.664857 52.971669 
L 250.814569 52.987508 
L 250.96428 53.172584 
L 251.263703 52.638612 
L 252.012261 47.679628 
L 252.311684 46.764793 
L 252.461396 46.773207 
L 252.760819 47.499234 
L 252.910531 47.809487 
L 253.060242 47.499404 
L 253.209954 48.015925 
L 253.8088 45.321841 
L 253.958512 45.583403 
L 254.257935 45.179302 
L 254.407646 45.268019 
L 254.557358 45.646827 
L 255.455628 52.310014 
L 255.755051 53.651147 
L 255.904762 53.478226 
L 256.054474 53.837801 
L 256.204185 53.046093 
L 256.353897 53.058608 
L 256.503609 52.948773 
L 257.851013 42.923295 
L 258.000724 42.558507 
L 258.150436 43.293975 
L 258.300147 43.452862 
L 258.749282 47.299559 
L 259.348129 55.453499 
L 259.946975 59.219208 
L 260.096686 59.557634 
L 260.545821 56.788822 
L 260.845244 52.453545 
L 261.743514 35.255178 
L 261.893225 34.535318 
L 262.192649 35.395506 
L 262.641783 38.094219 
L 262.941206 44.887832 
L 263.390341 55.855381 
L 263.689764 59.648836 
L 263.839476 59.971894 
L 263.989187 59.712076 
L 264.138899 58.815823 
L 264.438322 54.392789 
L 264.737745 44.398842 
L 265.18688 32.126817 
L 265.486303 28.646087 
L 265.785726 27.745192 
L 265.935438 28.152474 
L 266.08515 30.119318 
L 266.384573 42.8693 
L 266.833707 65.1941 
L 267.133131 68.609569 
L 267.432554 68.995116 
L 267.731977 66.09088 
L 268.181112 49.988765 
L 268.480535 36.20888 
L 268.779958 26.867561 
L 269.079381 23.334873 
L 269.229093 23.50672 
L 269.528516 25.266745 
L 269.678227 27.089528 
L 269.827939 30.521821 
L 270.426785 63.450524 
L 270.726208 69.749155 
L 270.87592 70.511993 
L 271.025632 69.974962 
L 271.175343 68.781563 
L 271.624478 49.311885 
L 271.923901 30.339071 
L 272.373036 18.795482 
L 272.522747 18.358122 
L 272.672459 18.460464 
L 272.971882 25.422691 
L 273.271305 39.829894 
L 273.72044 67.468811 
L 273.870152 73.053683 
L 274.019863 74.244364 
L 274.319286 72.377291 
L 274.468998 69.099029 
L 275.217556 27.731183 
L 275.516979 20.659027 
L 275.66669 19.855898 
L 275.816402 20.323971 
L 275.966114 22.195305 
L 276.415248 40.306681 
L 276.864383 68.092282 
L 277.014095 75.510601 
L 277.163806 76.519621 
L 277.313518 76.317696 
L 277.463229 75.596251 
L 277.612941 72.882943 
L 278.062076 43.955352 
L 278.51121 20.040861 
L 278.810634 14.845101 
L 278.960345 14.446569 
L 279.110057 14.948231 
L 279.40948 20.463977 
L 279.559191 26.746797 
L 280.158038 70.753968 
L 280.457461 75.136008 
L 280.607172 74.297203 
L 280.756884 68.134495 
L 281.206019 38.643511 
L 281.505442 25.197102 
L 281.804865 20.581027 
L 281.954577 21.275756 
L 282.254 28.956933 
L 282.553423 50.217319 
L 282.852846 70.687312 
L 283.152269 79.25517 
L 283.301981 80.307395 
L 283.451692 79.710027 
L 283.601404 76.180429 
L 284.349962 32.899802 
L 284.799097 21.457163 
L 284.948808 20.472768 
L 285.09852 21.469997 
L 285.248231 24.11446 
L 285.547655 35.805151 
L 285.996789 71.268606 
L 286.296212 77.845885 
L 286.445924 77.575778 
L 286.595636 76.460083 
L 286.745347 72.376883 
L 287.344193 36.862473 
L 287.643617 26.222823 
L 287.94304 23.893331 
L 288.092751 25.292185 
L 288.392175 33.05067 
L 289.140732 72.323771 
L 289.290444 74.517941 
L 289.440156 74.329565 
L 289.739579 67.241029 
L 290.039002 50.741887 
L 290.338425 39.386033 
L 290.637848 34.259013 
L 290.78756 34.827569 
L 290.937271 36.447825 
L 291.236694 45.512491 
L 291.685829 65.997296 
L 291.985252 72.492445 
L 292.134964 72.940592 
L 292.284676 71.762542 
L 292.434387 68.583489 
L 293.182945 40.136509 
L 293.482368 36.684684 
L 293.63208 36.310915 
L 293.781791 37.45436 
L 293.931503 40.415873 
L 294.829772 68.688568 
L 294.979484 68.751219 
L 295.129195 67.322707 
L 295.428619 61.492274 
L 295.728042 52.304769 
L 296.177177 44.769441 
L 296.4766 47.777411 
L 297.374869 65.741448 
L 297.524581 67.076504 
L 297.674292 67.271228 
L 297.824004 66.934579 
L 297.973715 65.166888 
L 298.572562 52.408698 
L 298.871985 49.931952 
L 299.021696 49.999978 
L 299.32112 52.332172 
L 299.919966 61.520626 
L 300.219389 63.045717 
L 300.518812 62.647369 
L 300.818235 61.117515 
L 301.566793 57.489792 
L 301.716505 57.335663 
L 301.866216 57.612603 
L 302.015928 58.381128 
L 302.315351 60.737284 
L 302.614774 61.405988 
L 302.764486 61.563064 
L 302.914197 61.528231 
L 303.063909 61.714128 
L 303.213621 61.678431 
L 303.662755 60.890641 
L 303.812467 60.924963 
L 304.11189 60.175228 
L 304.261602 60.395872 
L 304.561025 60.364151 
L 304.710736 60.60407 
L 305.01016 61.819922 
L 305.309583 62.966637 
L 305.459294 63.599177 
L 305.609006 63.674826 
L 306.207852 65.517538 
L 306.656987 65.265182 
L 306.806698 65.252938 
L 307.255833 62.937505 
L 308.004391 60.342596 
L 308.154103 60.806924 
L 308.453526 63.753856 
L 308.752949 66.597103 
L 308.902661 67.022538 
L 309.052372 67.022624 
L 309.202084 67.407605 
L 309.351795 67.08785 
L 309.501507 65.943693 
L 309.950642 60.565328 
L 310.250065 59.489407 
L 310.549488 60.693146 
L 310.6992 62.495243 
L 310.998623 67.707673 
L 311.298046 70.193859 
L 311.447757 70.676485 
L 311.597469 70.677227 
L 311.747181 70.21864 
L 312.046604 67.369678 
L 312.495738 60.715832 
L 312.795162 59.214242 
L 312.944873 59.662879 
L 313.094585 61.627916 
L 313.693431 74.109231 
L 313.843143 75.194916 
L 313.992854 74.837046 
L 314.142566 73.771789 
L 314.441989 67.652207 
L 314.891124 58.843092 
L 315.040835 57.669163 
L 315.190547 57.430663 
L 315.340258 58.536827 
L 316.088816 77.369256 
L 316.238528 78.027979 
L 316.388239 77.186752 
L 316.837374 66.753743 
L 317.136797 58.484958 
L 317.43622 55.929132 
L 317.585932 57.08792 
L 317.735644 59.417792 
L 318.184778 75.546948 
L 318.33449 79.69467 
L 318.484202 79.763847 
L 318.783625 75.847682 
L 319.532183 57.870115 
L 319.681894 58.23934 
L 319.831606 60.981368 
L 320.580164 82.987115 
L 320.729875 82.74037 
L 320.879587 81.537469 
L 321.029298 78.961265 
L 321.478433 63.042342 
L 321.628145 60.56463 
L 321.777856 60.437127 
L 321.927568 62.183804 
L 322.376703 75.936218 
L 322.526414 84.790747 
L 322.825837 87.535573 
L 322.975549 86.733522 
L 323.12526 84.35463 
L 323.574395 71.216383 
L 323.873818 64.562398 
L 324.02353 63.86495 
L 324.173241 64.816042 
L 324.322953 67.315628 
L 324.772088 82.416608 
L 324.921799 85.514039 
L 325.071511 85.443712 
L 325.370934 80.963936 
L 325.520646 78.48714 
L 325.820069 69.566957 
L 326.119492 67.187819 
L 326.269204 67.01216 
L 326.418915 68.211717 
L 326.568627 70.588323 
L 327.167473 85.488109 
L 327.466896 86.993932 
L 327.616608 85.478737 
L 328.065742 71.812676 
L 328.365166 68.99302 
L 328.514877 69.262008 
L 328.664589 69.885801 
L 328.8143 71.37972 
L 329.562858 86.605389 
L 329.71257 86.633928 
L 330.011993 81.881877 
L 330.311416 73.905295 
L 330.610839 70.545398 
L 330.760551 69.568398 
L 330.910262 70.244506 
L 331.65882 83.418541 
L 331.808532 83.056806 
L 332.257667 77.829994 
L 332.55709 72.930404 
L 332.856513 70.657853 
L 333.006225 71.224885 
L 333.305648 74.566205 
L 333.754782 82.761314 
L 333.904494 82.516682 
L 334.203917 80.203269 
L 334.50334 75.293382 
L 334.653052 73.514298 
L 334.952475 73.080591 
L 335.102187 73.431152 
L 335.40161 76.689533 
L 335.701033 79.770199 
L 336.000456 80.314248 
L 336.898726 77.253436 
L 337.048437 77.20856 
L 337.647283 80.955596 
L 337.796995 80.803499 
L 338.395841 78.305048 
L 338.695264 78.774373 
L 339.443822 82.65645 
L 339.892957 86.083823 
L 340.19238 87.099046 
L 340.342092 87.376858 
L 341.09065 90.375778 
L 341.240361 90.54036 
L 341.689496 91.387804 
L 341.839208 91.544835 
L 342.138631 92.106222 
L 343.186612 93.855879 
L 343.486035 93.199641 
L 343.785458 92.691558 
L 343.93517 92.773524 
L 344.234593 93.287546 
L 344.384304 93.252952 
L 344.534016 93.679626 
L 344.833439 93.793226 
L 344.983151 93.96122 
L 345.432285 91.962157 
L 346.180843 90.530373 
L 346.929401 93.785111 
L 347.079113 93.353682 
L 347.677959 86.073852 
L 347.977382 85.913488 
L 348.127094 86.823379 
L 348.426517 89.586886 
L 348.72594 91.33472 
L 348.875652 91.437205 
L 349.025363 91.113285 
L 349.324786 86.716328 
L 349.62421 83.662558 
L 349.773921 83.781796 
L 349.923633 85.017311 
L 350.672191 95.667296 
L 350.821902 96.20725 
L 350.971614 96.16059 
L 351.271037 92.77344 
L 351.57046 88.743285 
L 351.720172 87.473139 
L 351.869883 87.969968 
L 352.019595 89.642278 
L 352.319018 95.45806 
L 352.46873 96.219414 
L 352.618441 97.777831 
L 352.768153 98.136198 
L 353.217287 93.07694 
L 353.366999 92.234414 
L 353.516711 90.659041 
L 353.666422 90.709114 
L 353.965845 95.004145 
L 354.265268 102.033925 
L 354.41498 102.802284 
L 354.714403 101.984537 
L 355.013826 100.085605 
L 355.163538 98.461021 
L 355.313249 98.153527 
L 355.612673 99.524742 
L 356.061807 106.420233 
L 356.211519 107.207382 
L 356.361231 107.34542 
L 356.510942 107.168156 
L 356.810365 106.022571 
L 356.960077 105.844704 
L 357.109788 106.591961 
L 357.558923 112.176586 
L 357.858346 115.768795 
L 358.008058 116.240656 
L 358.307481 115.413385 
L 358.606904 114.913322 
L 358.756616 115.340941 
L 359.505174 124.168674 
L 359.654885 130.410114 
L 360.10402 133.737065 
L 360.253732 133.962223 
L 360.403443 134.757726 
L 360.553155 134.612435 
L 360.702866 134.228199 
L 360.852578 134.225129 
L 361.002289 135.062115 
L 361.750847 142.750702 
L 362.05027 143.764799 
L 362.05027 143.764799 
" clip-path="url(#p47c0035a6c)" style="fill: none; stroke: #0c5da5; stroke-linecap: square"/>
   </g>
   <g id="patch_3">
    <path d="M 42.468452 225.36 
L 42.468452 3.6 
" style="fill: none; stroke: #000000; stroke-width: 0.5; stroke-linejoin: miter; stroke-linecap: square"/>
   </g>
   <g id="patch_4">
    <path d="M 377.268452 225.36 
L 377.268452 3.6 
" style="fill: none; stroke: #000000; stroke-width: 0.5; stroke-linejoin: miter; stroke-linecap: square"/>
   </g>
   <g id="patch_5">
    <path d="M 42.468452 225.36 
L 377.268452 225.36 
" style="fill: none; stroke: #000000; stroke-width: 0.5; stroke-linejoin: miter; stroke-linecap: square"/>
   </g>
   <g id="patch_6">
    <path d="M 42.468452 3.6 
L 377.268452 3.6 
" style="fill: none; stroke: #000000; stroke-width: 0.5; stroke-linejoin: miter; stroke-linecap: square"/>
   </g>
  </g>
 </g>
 <defs>
  <clipPath id="p47c0035a6c">
   <rect x="42.468452" y="3.6" width="334.8" height="221.76"/>
  </clipPath>
 </defs>
</svg>
