<?xml version="1.0" encoding="utf-8" standalone="no"?>
<!DOCTYPE svg PUBLIC "-//W3C//DTD SVG 1.1//EN"
  "http://www.w3.org/Graphics/SVG/1.1/DTD/svg11.dtd">
<svg xmlns:xlink="http://www.w3.org/1999/xlink" width="380.868452pt" height="257.575641pt" viewBox="0 0 380.868452 257.575641" xmlns="http://www.w3.org/2000/svg" version="1.1">
 <metadata>
  <rdf:RDF xmlns:dc="http://purl.org/dc/elements/1.1/" xmlns:cc="http://creativecommons.org/ns#" xmlns:rdf="http://www.w3.org/1999/02/22-rdf-syntax-ns#">
   <cc:Work>
    <dc:type rdf:resource="http://purl.org/dc/dcmitype/StillImage"/>
    <dc:date>2023-03-28T16:15:19.881464</dc:date>
    <dc:format>image/svg+xml</dc:format>
    <dc:creator>
     <cc:Agent>
      <dc:title>Matplotlib v3.7.1, https://matplotlib.org/</dc:title>
     </cc:Agent>
    </dc:creator>
   </cc:Work>
  </rdf:RDF>
 </metadata>
 <defs>
  <style type="text/css">*{stroke-linejoin: round; stroke-linecap: butt}</style>
 </defs>
 <g id="figure_1">
  <g id="patch_1">
   <path d="M 0 257.575641 
L 380.868452 257.575641 
L 380.868452 0 
L 0 0 
z
" style="fill: #ffffff"/>
  </g>
  <g id="axes_1">
   <g id="patch_2">
    <path d="M 42.468452 225.36 
L 377.268452 225.36 
L 377.268452 3.6 
L 42.468452 3.6 
z
" style="fill: #ffffff"/>
   </g>
   <g id="matplotlib.axis_1">
    <g id="xtick_1">
     <g id="line2d_1">
      <defs>
       <path id="m9634913fdf" d="M 0 0 
L 0 -3 
" style="stroke: #000000; stroke-width: 0.5"/>
      </defs>
      <g>
       <use xlink:href="#m9634913fdf" x="57.686634" y="225.36" style="stroke: #000000; stroke-width: 0.5"/>
      </g>
     </g>
     <g id="line2d_2">
      <defs>
       <path id="m77eb7ffee4" d="M 0 0 
L 0 3 
" style="stroke: #000000; stroke-width: 0.5"/>
      </defs>
      <g>
       <use xlink:href="#m77eb7ffee4" x="57.686634" y="3.6" style="stroke: #000000; stroke-width: 0.5"/>
      </g>
     </g>
     <g id="text_1">
      <!-- $\mathdefault{0}$ -->
      <g transform="translate(54.760139 237.093772) scale(0.12 -0.12)">
       <defs>
        <path id="CMR17-30" d="M 2688 2038 
C 2688 2430 2682 3099 2413 3613 
C 2176 4063 1798 4224 1466 4224 
C 1158 4224 768 4082 525 3620 
C 269 3137 243 2539 243 2038 
C 243 1671 250 1112 448 623 
C 723 -39 1216 -128 1466 -128 
C 1760 -128 2208 -7 2470 604 
C 2662 1048 2688 1568 2688 2038 
z
M 1466 -26 
C 1056 -26 813 328 723 816 
C 653 1196 653 1749 653 2109 
C 653 2604 653 3015 736 3407 
C 858 3954 1216 4121 1466 4121 
C 1728 4121 2067 3947 2189 3420 
C 2272 3054 2278 2623 2278 2109 
C 2278 1691 2278 1176 2202 797 
C 2067 96 1690 -26 1466 -26 
z
" transform="scale(0.015625)"/>
       </defs>
       <use xlink:href="#CMR17-30" transform="scale(0.996264)"/>
      </g>
     </g>
    </g>
    <g id="xtick_2">
     <g id="line2d_3">
      <g>
       <use xlink:href="#m9634913fdf" x="118.559361" y="225.36" style="stroke: #000000; stroke-width: 0.5"/>
      </g>
     </g>
     <g id="line2d_4">
      <g>
       <use xlink:href="#m77eb7ffee4" x="118.559361" y="3.6" style="stroke: #000000; stroke-width: 0.5"/>
      </g>
     </g>
     <g id="text_2">
      <!-- $\mathdefault{200}$ -->
      <g transform="translate(109.779876 237.093772) scale(0.12 -0.12)">
       <defs>
        <path id="CMR17-32" d="M 2669 990 
L 2554 990 
C 2490 537 2438 460 2413 422 
C 2381 371 1920 371 1830 371 
L 602 371 
C 832 620 1280 1073 1824 1596 
C 2214 1966 2669 2400 2669 3033 
C 2669 3788 2067 4224 1395 4224 
C 691 4224 262 3603 262 3027 
C 262 2777 448 2745 525 2745 
C 589 2745 781 2783 781 3007 
C 781 3206 614 3264 525 3264 
C 486 3264 448 3257 422 3244 
C 544 3788 915 4057 1306 4057 
C 1862 4057 2227 3616 2227 3033 
C 2227 2477 1901 1998 1536 1583 
L 262 147 
L 262 0 
L 2515 0 
L 2669 990 
z
" transform="scale(0.015625)"/>
       </defs>
       <use xlink:href="#CMR17-32" transform="scale(0.996264)"/>
       <use xlink:href="#CMR17-30" transform="translate(45.690477 0) scale(0.996264)"/>
       <use xlink:href="#CMR17-30" transform="translate(91.380954 0) scale(0.996264)"/>
      </g>
     </g>
    </g>
    <g id="xtick_3">
     <g id="line2d_5">
      <g>
       <use xlink:href="#m9634913fdf" x="179.432089" y="225.36" style="stroke: #000000; stroke-width: 0.5"/>
      </g>
     </g>
     <g id="line2d_6">
      <g>
       <use xlink:href="#m77eb7ffee4" x="179.432089" y="3.6" style="stroke: #000000; stroke-width: 0.5"/>
      </g>
     </g>
     <g id="text_3">
      <!-- $\mathdefault{400}$ -->
      <g transform="translate(170.652603 237.093772) scale(0.12 -0.12)">
       <defs>
        <path id="CMR17-34" d="M 2150 4147 
C 2150 4281 2144 4288 2029 4288 
L 128 1254 
L 128 1088 
L 1779 1088 
L 1779 460 
C 1779 230 1766 166 1318 166 
L 1197 166 
L 1197 0 
C 1402 12 1747 12 1965 12 
C 2182 12 2528 12 2733 0 
L 2733 166 
L 2611 166 
C 2163 166 2150 230 2150 460 
L 2150 1088 
L 2803 1088 
L 2803 1254 
L 2150 1254 
L 2150 4147 
z
M 1798 3723 
L 1798 1254 
L 256 1254 
L 1798 3723 
z
" transform="scale(0.015625)"/>
       </defs>
       <use xlink:href="#CMR17-34" transform="scale(0.996264)"/>
       <use xlink:href="#CMR17-30" transform="translate(45.690477 0) scale(0.996264)"/>
       <use xlink:href="#CMR17-30" transform="translate(91.380954 0) scale(0.996264)"/>
      </g>
     </g>
    </g>
    <g id="xtick_4">
     <g id="line2d_7">
      <g>
       <use xlink:href="#m9634913fdf" x="240.304816" y="225.36" style="stroke: #000000; stroke-width: 0.5"/>
      </g>
     </g>
     <g id="line2d_8">
      <g>
       <use xlink:href="#m77eb7ffee4" x="240.304816" y="3.6" style="stroke: #000000; stroke-width: 0.5"/>
      </g>
     </g>
     <g id="text_4">
      <!-- $\mathdefault{600}$ -->
      <g transform="translate(231.525331 237.093772) scale(0.12 -0.12)">
       <defs>
        <path id="CMR17-36" d="M 678 2198 
C 678 3712 1395 4076 1811 4076 
C 1946 4076 2272 4049 2400 3782 
C 2298 3782 2106 3782 2106 3558 
C 2106 3385 2246 3328 2336 3328 
C 2394 3328 2566 3353 2566 3571 
C 2566 3987 2246 4224 1805 4224 
C 1043 4224 243 3411 243 2011 
C 243 257 966 -128 1478 -128 
C 2099 -128 2688 431 2688 1295 
C 2688 2101 2170 2688 1517 2688 
C 1126 2688 838 2430 678 1979 
L 678 2198 
z
M 1478 25 
C 691 25 691 1212 691 1450 
C 691 1914 909 2585 1504 2585 
C 1613 2585 1926 2585 2138 2140 
C 2253 1889 2253 1624 2253 1302 
C 2253 954 2253 696 2118 438 
C 1978 173 1773 25 1478 25 
z
" transform="scale(0.015625)"/>
       </defs>
       <use xlink:href="#CMR17-36" transform="scale(0.996264)"/>
       <use xlink:href="#CMR17-30" transform="translate(45.690477 0) scale(0.996264)"/>
       <use xlink:href="#CMR17-30" transform="translate(91.380954 0) scale(0.996264)"/>
      </g>
     </g>
    </g>
    <g id="xtick_5">
     <g id="line2d_9">
      <g>
       <use xlink:href="#m9634913fdf" x="301.177543" y="225.36" style="stroke: #000000; stroke-width: 0.5"/>
      </g>
     </g>
     <g id="line2d_10">
      <g>
       <use xlink:href="#m77eb7ffee4" x="301.177543" y="3.6" style="stroke: #000000; stroke-width: 0.5"/>
      </g>
     </g>
     <g id="text_5">
      <!-- $\mathdefault{800}$ -->
      <g transform="translate(292.398058 237.093772) scale(0.12 -0.12)">
       <defs>
        <path id="CMR17-38" d="M 1741 2289 
C 2144 2494 2554 2803 2554 3298 
C 2554 3884 1990 4224 1472 4224 
C 890 4224 378 3800 378 3215 
C 378 3054 416 2777 666 2533 
C 730 2469 998 2276 1171 2154 
C 883 2006 211 1652 211 945 
C 211 282 838 -128 1459 -128 
C 2144 -128 2720 366 2720 1022 
C 2720 1607 2330 1877 2074 2051 
L 1741 2289 
z
M 902 2855 
C 851 2887 595 3086 595 3388 
C 595 3781 998 4076 1459 4076 
C 1965 4076 2336 3716 2336 3298 
C 2336 2700 1670 2359 1638 2359 
C 1632 2359 1626 2359 1574 2398 
L 902 2855 
z
M 2080 1536 
C 2176 1466 2483 1253 2483 861 
C 2483 385 2010 25 1472 25 
C 890 25 448 443 448 951 
C 448 1459 838 1884 1280 2083 
L 2080 1536 
z
" transform="scale(0.015625)"/>
       </defs>
       <use xlink:href="#CMR17-38" transform="scale(0.996264)"/>
       <use xlink:href="#CMR17-30" transform="translate(45.690477 0) scale(0.996264)"/>
       <use xlink:href="#CMR17-30" transform="translate(91.380954 0) scale(0.996264)"/>
      </g>
     </g>
    </g>
    <g id="xtick_6">
     <g id="line2d_11">
      <g>
       <use xlink:href="#m9634913fdf" x="362.05027" y="225.36" style="stroke: #000000; stroke-width: 0.5"/>
      </g>
     </g>
     <g id="line2d_12">
      <g>
       <use xlink:href="#m77eb7ffee4" x="362.05027" y="3.6" style="stroke: #000000; stroke-width: 0.5"/>
      </g>
     </g>
     <g id="text_6">
      <!-- $\mathdefault{1000}$ -->
      <g transform="translate(350.34429 237.093772) scale(0.12 -0.12)">
       <defs>
        <path id="CMR17-31" d="M 1702 4083 
C 1702 4217 1696 4224 1606 4224 
C 1357 3927 979 3833 621 3820 
C 602 3820 570 3820 563 3808 
C 557 3795 557 3782 557 3648 
C 755 3648 1088 3686 1344 3839 
L 1344 467 
C 1344 243 1331 166 781 166 
L 589 166 
L 589 0 
C 896 6 1216 12 1523 12 
C 1830 12 2150 6 2458 0 
L 2458 166 
L 2266 166 
C 1715 166 1702 236 1702 467 
L 1702 4083 
z
" transform="scale(0.015625)"/>
       </defs>
       <use xlink:href="#CMR17-31" transform="scale(0.996264)"/>
       <use xlink:href="#CMR17-30" transform="translate(45.690477 0) scale(0.996264)"/>
       <use xlink:href="#CMR17-30" transform="translate(91.380954 0) scale(0.996264)"/>
       <use xlink:href="#CMR17-30" transform="translate(137.071431 0) scale(0.996264)"/>
      </g>
     </g>
    </g>
    <g id="xtick_7">
     <g id="line2d_13">
      <defs>
       <path id="ma5ed788e61" d="M 0 0 
L 0 -1.5 
" style="stroke: #000000; stroke-width: 0.5"/>
      </defs>
      <g>
       <use xlink:href="#ma5ed788e61" x="72.904816" y="225.36" style="stroke: #000000; stroke-width: 0.5"/>
      </g>
     </g>
     <g id="line2d_14">
      <defs>
       <path id="m285e891c8e" d="M 0 0 
L 0 1.5 
" style="stroke: #000000; stroke-width: 0.5"/>
      </defs>
      <g>
       <use xlink:href="#m285e891c8e" x="72.904816" y="3.6" style="stroke: #000000; stroke-width: 0.5"/>
      </g>
     </g>
    </g>
    <g id="xtick_8">
     <g id="line2d_15">
      <g>
       <use xlink:href="#ma5ed788e61" x="88.122998" y="225.36" style="stroke: #000000; stroke-width: 0.5"/>
      </g>
     </g>
     <g id="line2d_16">
      <g>
       <use xlink:href="#m285e891c8e" x="88.122998" y="3.6" style="stroke: #000000; stroke-width: 0.5"/>
      </g>
     </g>
    </g>
    <g id="xtick_9">
     <g id="line2d_17">
      <g>
       <use xlink:href="#ma5ed788e61" x="103.34118" y="225.36" style="stroke: #000000; stroke-width: 0.5"/>
      </g>
     </g>
     <g id="line2d_18">
      <g>
       <use xlink:href="#m285e891c8e" x="103.34118" y="3.6" style="stroke: #000000; stroke-width: 0.5"/>
      </g>
     </g>
    </g>
    <g id="xtick_10">
     <g id="line2d_19">
      <g>
       <use xlink:href="#ma5ed788e61" x="133.777543" y="225.36" style="stroke: #000000; stroke-width: 0.5"/>
      </g>
     </g>
     <g id="line2d_20">
      <g>
       <use xlink:href="#m285e891c8e" x="133.777543" y="3.6" style="stroke: #000000; stroke-width: 0.5"/>
      </g>
     </g>
    </g>
    <g id="xtick_11">
     <g id="line2d_21">
      <g>
       <use xlink:href="#ma5ed788e61" x="148.995725" y="225.36" style="stroke: #000000; stroke-width: 0.5"/>
      </g>
     </g>
     <g id="line2d_22">
      <g>
       <use xlink:href="#m285e891c8e" x="148.995725" y="3.6" style="stroke: #000000; stroke-width: 0.5"/>
      </g>
     </g>
    </g>
    <g id="xtick_12">
     <g id="line2d_23">
      <g>
       <use xlink:href="#ma5ed788e61" x="164.213907" y="225.36" style="stroke: #000000; stroke-width: 0.5"/>
      </g>
     </g>
     <g id="line2d_24">
      <g>
       <use xlink:href="#m285e891c8e" x="164.213907" y="3.6" style="stroke: #000000; stroke-width: 0.5"/>
      </g>
     </g>
    </g>
    <g id="xtick_13">
     <g id="line2d_25">
      <g>
       <use xlink:href="#ma5ed788e61" x="194.65027" y="225.36" style="stroke: #000000; stroke-width: 0.5"/>
      </g>
     </g>
     <g id="line2d_26">
      <g>
       <use xlink:href="#m285e891c8e" x="194.65027" y="3.6" style="stroke: #000000; stroke-width: 0.5"/>
      </g>
     </g>
    </g>
    <g id="xtick_14">
     <g id="line2d_27">
      <g>
       <use xlink:href="#ma5ed788e61" x="209.868452" y="225.36" style="stroke: #000000; stroke-width: 0.5"/>
      </g>
     </g>
     <g id="line2d_28">
      <g>
       <use xlink:href="#m285e891c8e" x="209.868452" y="3.6" style="stroke: #000000; stroke-width: 0.5"/>
      </g>
     </g>
    </g>
    <g id="xtick_15">
     <g id="line2d_29">
      <g>
       <use xlink:href="#ma5ed788e61" x="225.086634" y="225.36" style="stroke: #000000; stroke-width: 0.5"/>
      </g>
     </g>
     <g id="line2d_30">
      <g>
       <use xlink:href="#m285e891c8e" x="225.086634" y="3.6" style="stroke: #000000; stroke-width: 0.5"/>
      </g>
     </g>
    </g>
    <g id="xtick_16">
     <g id="line2d_31">
      <g>
       <use xlink:href="#ma5ed788e61" x="255.522998" y="225.36" style="stroke: #000000; stroke-width: 0.5"/>
      </g>
     </g>
     <g id="line2d_32">
      <g>
       <use xlink:href="#m285e891c8e" x="255.522998" y="3.6" style="stroke: #000000; stroke-width: 0.5"/>
      </g>
     </g>
    </g>
    <g id="xtick_17">
     <g id="line2d_33">
      <g>
       <use xlink:href="#ma5ed788e61" x="270.74118" y="225.36" style="stroke: #000000; stroke-width: 0.5"/>
      </g>
     </g>
     <g id="line2d_34">
      <g>
       <use xlink:href="#m285e891c8e" x="270.74118" y="3.6" style="stroke: #000000; stroke-width: 0.5"/>
      </g>
     </g>
    </g>
    <g id="xtick_18">
     <g id="line2d_35">
      <g>
       <use xlink:href="#ma5ed788e61" x="285.959361" y="225.36" style="stroke: #000000; stroke-width: 0.5"/>
      </g>
     </g>
     <g id="line2d_36">
      <g>
       <use xlink:href="#m285e891c8e" x="285.959361" y="3.6" style="stroke: #000000; stroke-width: 0.5"/>
      </g>
     </g>
    </g>
    <g id="xtick_19">
     <g id="line2d_37">
      <g>
       <use xlink:href="#ma5ed788e61" x="316.395725" y="225.36" style="stroke: #000000; stroke-width: 0.5"/>
      </g>
     </g>
     <g id="line2d_38">
      <g>
       <use xlink:href="#m285e891c8e" x="316.395725" y="3.6" style="stroke: #000000; stroke-width: 0.5"/>
      </g>
     </g>
    </g>
    <g id="xtick_20">
     <g id="line2d_39">
      <g>
       <use xlink:href="#ma5ed788e61" x="331.613907" y="225.36" style="stroke: #000000; stroke-width: 0.5"/>
      </g>
     </g>
     <g id="line2d_40">
      <g>
       <use xlink:href="#m285e891c8e" x="331.613907" y="3.6" style="stroke: #000000; stroke-width: 0.5"/>
      </g>
     </g>
    </g>
    <g id="xtick_21">
     <g id="line2d_41">
      <g>
       <use xlink:href="#ma5ed788e61" x="346.832089" y="225.36" style="stroke: #000000; stroke-width: 0.5"/>
      </g>
     </g>
     <g id="line2d_42">
      <g>
       <use xlink:href="#m285e891c8e" x="346.832089" y="3.6" style="stroke: #000000; stroke-width: 0.5"/>
      </g>
     </g>
    </g>
    <g id="xtick_22">
     <g id="line2d_43">
      <g>
       <use xlink:href="#ma5ed788e61" x="377.268452" y="225.36" style="stroke: #000000; stroke-width: 0.5"/>
      </g>
     </g>
     <g id="line2d_44">
      <g>
       <use xlink:href="#m285e891c8e" x="377.268452" y="3.6" style="stroke: #000000; stroke-width: 0.5"/>
      </g>
     </g>
    </g>
    <g id="text_7">
     <!-- Радиус в безразмерных координатах -->
     <g transform="translate(111.611033 251.651592) scale(0.12 -0.12)">
      <defs>
       <path id="SFRM3583-d0" d="M 467 4352 
L 467 4211 
L 576 4211 
C 742 4211 877 4192 877 3943 
L 877 408 
C 877 159 768 140 467 140 
L 467 0 
L 1600 0 
L 1600 140 
L 1491 140 
C 1331 140 1190 159 1190 395 
L 1190 2070 
L 2170 2070 
C 2778 2070 3578 2389 3578 3204 
C 3578 3860 2963 4300 2310 4352 
L 467 4352 
z
M 1184 2179 
L 1184 4032 
C 1184 4147 1235 4211 1357 4211 
L 2106 4211 
C 2650 4211 3226 3975 3226 3179 
C 3226 2535 2746 2179 2054 2179 
L 1184 2179 
z
" transform="scale(0.015625)"/>
       <path id="SFRM3583-e0" d="M 576 2058 
C 659 2401 883 2738 1274 2738 
C 1619 2738 1869 2408 1920 2090 
C 1933 2006 1933 1915 1933 1831 
L 1933 1579 
C 1318 1579 474 1436 320 659 
C 314 620 314 575 314 536 
C 314 102 800 -64 1133 -64 
C 1446 -64 1856 141 1939 497 
L 1946 497 
C 1946 225 2125 -45 2394 -45 
C 2746 -45 2829 335 2829 614 
L 2829 905 
L 2746 905 
L 2746 575 
C 2746 368 2701 70 2470 70 
C 2208 70 2195 413 2195 588 
L 2195 1792 
C 2195 1954 2189 2123 2125 2278 
C 1990 2595 1638 2816 1293 2816 
C 800 2816 480 2375 480 1896 
C 480 1773 570 1702 672 1702 
C 774 1702 858 1786 858 1890 
C 858 1987 794 2077 672 2077 
C 640 2077 608 2071 576 2058 
z
M 1933 1507 
L 1933 873 
C 1933 445 1670 44 1229 12 
L 1190 12 
C 896 12 627 245 627 562 
C 627 1236 1363 1507 1933 1507 
z
" transform="scale(0.015625)"/>
       <path id="SFRM3583-e4" d="M 832 2752 
L 832 2681 
L 915 2681 
C 1088 2681 1203 2630 1203 2445 
L 1203 2407 
C 1203 1641 1152 85 256 85 
L 173 -1024 
L 256 -1024 
C 275 -744 282 -323 448 -157 
C 582 -23 774 9 960 9 
L 2150 9 
C 2438 9 2778 -10 2854 -444 
C 2899 -635 2912 -833 2925 -1024 
L 3008 -1024 
L 2925 85 
L 2835 85 
C 2675 85 2515 104 2515 340 
L 2515 2432 
C 2515 2649 2650 2681 2803 2681 
L 2893 2681 
L 2893 2752 
L 832 2752 
z
M 2246 245 
C 2246 104 2157 85 2061 85 
L 845 85 
C 806 92 774 111 768 155 
C 768 213 851 283 890 340 
C 1331 1004 1261 1980 1293 2458 
L 1293 2496 
C 1293 2611 1344 2681 1466 2681 
L 2074 2681 
C 2227 2681 2253 2579 2253 2477 
L 2253 353 
C 2253 315 2253 283 2246 245 
z
" transform="scale(0.015625)"/>
       <path id="SFRM3583-e8" d="M 288 2752 
L 288 2687 
L 378 2687 
C 531 2687 666 2655 666 2431 
L 666 333 
C 666 109 538 76 378 76 
L 288 76 
L 288 0 
L 1306 0 
L 1306 76 
L 1216 76 
C 1075 76 960 96 928 269 
L 928 314 
C 928 397 1005 468 1050 532 
C 1331 955 1632 1372 1926 1789 
L 2131 2084 
C 2170 2142 2214 2193 2246 2258 
L 2253 333 
C 2253 102 2112 76 1965 76 
L 1875 76 
L 1875 0 
L 2893 0 
L 2893 76 
L 2803 76 
C 2643 76 2515 109 2515 333 
L 2515 2431 
C 2515 2655 2650 2687 2803 2687 
L 2893 2687 
L 2893 2752 
L 1875 2752 
L 1875 2681 
L 1965 2681 
C 2106 2681 2221 2656 2253 2483 
L 2253 2438 
C 2253 2355 2176 2284 2131 2220 
C 1850 1798 1549 1382 1254 966 
L 1050 672 
C 1011 614 966 563 934 499 
L 928 2425 
C 928 2636 1050 2681 1216 2681 
L 1306 2681 
L 1306 2752 
L 998 2752 
L 288 2752 
z
" transform="scale(0.015625)"/>
       <path id="SFRM3583-f3" d="M 90 2752 
L 90 2688 
C 410 2688 435 2560 595 2163 
C 864 1504 1146 838 1395 172 
C 1414 121 1453 64 1453 6 
C 1453 -128 1318 -352 1261 -493 
C 1152 -788 992 -1204 627 -1204 
C 493 -1204 352 -1146 256 -1056 
C 358 -1056 448 -999 448 -884 
C 448 -788 371 -717 275 -717 
C 186 -717 109 -781 109 -896 
C 109 -1146 390 -1280 614 -1280 
L 621 -1280 
C 1043 -1280 1210 -845 1350 -500 
L 1562 19 
C 1798 608 2035 1203 2272 1792 
C 2304 1868 2336 1939 2362 2016 
C 2470 2278 2586 2669 2931 2688 
L 2931 2752 
L 2189 2752 
L 2189 2681 
C 2310 2681 2400 2553 2400 2438 
C 2400 2330 2349 2202 2310 2106 
C 2150 1716 1997 1320 1837 930 
L 1683 553 
C 1658 483 1626 419 1606 349 
L 1600 349 
C 1549 572 1427 796 1338 1007 
C 1190 1365 1050 1729 909 2087 
L 832 2279 
C 800 2349 755 2438 755 2515 
C 755 2604 832 2681 1018 2681 
L 1018 2752 
L 717 2752 
L 90 2752 
z
" transform="scale(0.015625)"/>
       <path id="SFRM3583-f1" d="M 2221 2078 
C 2189 2084 2157 2091 2125 2091 
C 2022 2091 1946 2000 1946 1903 
C 1946 1806 2022 1709 2131 1709 
C 2221 1709 2310 1773 2323 1871 
L 2323 1909 
C 2323 2356 1965 2816 1440 2816 
C 717 2816 269 2058 269 1372 
C 269 693 678 0 1363 -64 
L 1427 -64 
C 1882 -64 2240 227 2368 660 
C 2374 686 2381 712 2381 738 
C 2381 757 2368 764 2355 764 
C 2285 764 2272 641 2246 576 
C 2131 246 1824 20 1498 20 
C 890 20 595 744 595 1275 
C 595 1819 710 2731 1453 2731 
C 1811 2731 2138 2434 2221 2078 
z
" transform="scale(0.015625)"/>
       <path id="SFRM3583-e2" d="M 294 2752 
L 294 2681 
L 358 2681 
C 525 2681 666 2662 666 2425 
L 666 339 
C 666 95 525 76 358 76 
L 294 76 
L 294 0 
L 1818 0 
C 2208 31 2624 275 2669 716 
L 2669 767 
C 2669 1235 2003 1491 1722 1510 
C 1792 1542 1875 1548 1952 1574 
C 2208 1651 2541 1817 2541 2131 
C 2541 2643 1843 2752 1472 2752 
L 294 2752 
z
M 928 1478 
L 1606 1478 
C 2003 1478 2349 1190 2349 780 
L 2349 767 
C 2323 326 1946 76 1555 76 
L 1120 76 
C 979 76 928 115 928 371 
L 928 1478 
z
M 928 1555 
L 928 2431 
C 928 2553 947 2681 1120 2681 
L 1440 2681 
C 1632 2681 1811 2675 1971 2566 
C 2118 2463 2221 2297 2221 2124 
C 2221 1721 1728 1555 1440 1555 
L 928 1555 
z
" transform="scale(0.015625)"/>
       <path id="SFRM3583-e1" d="M 333 1935 
C 326 1948 326 1967 326 1980 
C 326 2519 429 3214 896 3577 
C 1165 3791 1510 3876 1830 3973 
C 2099 4044 2381 4122 2522 4408 
C 2528 4414 2534 4434 2534 4447 
C 2534 4473 2515 4480 2496 4480 
C 2406 4480 2227 4375 2112 4330 
C 1677 4155 1184 4070 806 3778 
C 218 3317 243 2331 237 1578 
L 237 1286 
C 275 643 691 -26 1376 -64 
L 1427 -64 
C 2157 -64 2624 656 2624 1370 
C 2624 1993 2298 2642 1645 2798 
C 1574 2818 1504 2824 1434 2824 
C 934 2824 467 2415 333 1935 
z
M 563 1260 
L 563 1364 
C 563 1850 621 2396 1114 2668 
C 1197 2707 1293 2740 1389 2746 
L 1434 2746 
C 2054 2746 2298 2013 2298 1487 
C 2298 974 2246 241 1606 46 
C 1549 33 1491 20 1434 20 
C 960 20 653 500 595 961 
C 576 1058 576 1162 563 1260 
z
" transform="scale(0.015625)"/>
       <path id="SFRM3583-e5" d="M 563 1515 
L 2246 1515 
C 2259 1515 2285 1508 2310 1508 
C 2355 1508 2374 1534 2374 1573 
C 2374 2149 2099 2816 1382 2816 
C 614 2816 237 2019 237 1385 
C 237 751 589 33 1350 -64 
C 1376 -58 1402 -64 1427 -64 
C 1869 -64 2208 245 2355 665 
C 2362 685 2368 710 2368 730 
C 2368 749 2362 768 2336 768 
C 2272 768 2266 665 2246 607 
C 2118 297 1843 26 1485 26 
C 1216 26 960 181 813 400 
C 576 723 563 1137 563 1517 
L 563 1515 
z
M 570 1595 
C 582 2099 832 2738 1370 2738 
C 1818 2738 2010 2260 2061 1886 
C 2067 1789 2067 1692 2080 1595 
L 570 1595 
z
" transform="scale(0.015625)"/>
       <path id="SFRM3583-e7" d="M 1389 1508 
L 1389 1515 
C 1632 1540 2291 1728 2291 2136 
C 2291 2692 1587 2816 1139 2816 
C 877 2816 550 2738 397 2492 
C 326 2595 237 2816 179 2816 
C 166 2809 160 2789 160 2777 
L 160 1959 
C 160 1933 160 1907 186 1901 
L 205 1901 
C 256 1901 256 1979 262 2018 
C 390 2543 742 2744 1158 2744 
C 1491 2744 1978 2614 1978 2154 
C 1978 1797 1574 1551 1248 1551 
L 858 1551 
C 826 1551 800 1544 794 1518 
L 794 1512 
C 794 1479 832 1473 864 1473 
L 1101 1473 
C 1504 1469 1997 1340 2035 777 
L 2035 732 
C 2035 240 1568 20 1101 20 
C 653 20 282 194 211 712 
C 211 732 205 757 186 757 
L 166 757 
C 134 757 128 732 128 706 
C 128 181 621 -64 1114 -64 
C 1562 -64 2355 39 2355 738 
C 2355 1256 1747 1469 1389 1508 
z
" transform="scale(0.015625)"/>
       <path id="SFRM3583-f0" d="M 288 2745 
L 288 2605 
L 371 2605 
C 576 2605 666 2522 666 2324 
L 666 -724 
C 666 -769 672 -814 672 -858 
C 672 -1063 512 -1076 346 -1076 
L 288 -1076 
L 288 -1216 
L 1306 -1216 
L 1306 -1076 
L 1216 -1076 
C 1069 -1076 928 -1057 928 -852 
L 934 490 
C 1069 158 1459 -9 1728 -9 
C 2438 -9 2912 707 2912 1410 
C 2912 2036 2534 2816 1798 2816 
C 1453 2816 1050 2598 928 2298 
L 922 2816 
L 288 2745 
z
M 2579 1288 
C 2547 796 2278 68 1709 68 
C 1370 68 922 368 922 765 
C 922 803 928 841 928 880 
L 928 1825 
C 928 1889 922 1953 922 2017 
C 922 2375 1357 2733 1734 2733 
C 2349 2733 2586 1902 2586 1403 
C 2586 1365 2586 1327 2579 1288 
z
" transform="scale(0.015625)"/>
       <path id="SFRM3583-ec" d="M 294 2752 
L 294 2681 
L 384 2681 
C 538 2681 672 2643 672 2425 
L 672 979 
C 672 870 678 755 678 640 
C 678 403 659 76 294 76 
L 294 0 
L 1139 0 
L 1139 76 
C 787 76 762 377 762 588 
L 768 2630 
C 813 2412 947 2169 1030 1945 
L 1549 620 
C 1606 460 1670 307 1734 147 
C 1747 102 1766 6 1824 0 
C 1894 0 2029 416 2099 614 
C 2342 1209 2560 1817 2803 2412 
C 2835 2489 2874 2572 2893 2656 
L 2899 339 
C 2899 108 2771 76 2611 76 
L 2522 76 
L 2522 0 
L 3526 0 
L 3526 76 
L 3437 76 
C 3277 76 3149 108 3149 332 
L 3149 2425 
C 3149 2649 3283 2681 3437 2681 
L 3526 2681 
L 3526 2752 
L 2938 2752 
L 2874 2739 
L 2835 2688 
L 1914 326 
L 1043 2566 
L 960 2739 
L 890 2752 
L 294 2752 
z
" transform="scale(0.015625)"/>
       <path id="SFRM3583-ed" d="M 288 2752 
L 288 2687 
L 378 2687 
C 531 2687 666 2655 666 2431 
L 666 333 
C 666 109 538 76 378 76 
L 288 76 
L 288 0 
L 1306 0 
L 1306 76 
L 1229 76 
C 1088 76 954 89 928 269 
L 928 1478 
L 2253 1478 
L 2253 268 
C 2227 89 2093 76 1952 76 
L 1875 76 
L 1875 0 
L 2893 0 
L 2893 76 
L 2803 76 
C 2643 76 2515 108 2515 332 
L 2515 2425 
C 2515 2649 2650 2681 2803 2681 
L 2893 2681 
L 2893 2752 
L 1875 2752 
L 1875 2681 
L 1958 2681 
C 2144 2681 2253 2636 2253 2419 
L 2253 1555 
L 928 1555 
L 928 2419 
C 928 2636 1037 2681 1222 2681 
L 1306 2681 
L 1306 2752 
L 998 2752 
L 288 2752 
z
" transform="scale(0.015625)"/>
       <path id="SFRM3583-fb" d="M 288 2752 
L 288 2681 
L 378 2681 
C 531 2681 666 2649 666 2425 
L 666 332 
C 666 108 538 76 378 76 
L 288 76 
L 288 0 
L 1747 0 
C 2150 25 2675 275 2675 780 
C 2675 1049 2483 1286 2253 1414 
C 2003 1548 1741 1555 1466 1555 
L 928 1555 
L 928 2419 
C 928 2636 1037 2681 1222 2681 
L 1306 2681 
L 1306 2752 
L 998 2752 
L 288 2752 
z
M 928 1484 
L 1536 1484 
C 1946 1484 2349 1214 2349 784 
L 2349 758 
C 2349 347 1933 83 1555 83 
L 1082 83 
C 928 83 928 218 928 372 
L 928 1484 
z
M 2835 2752 
L 2835 2681 
L 2925 2681 
C 3078 2681 3213 2649 3213 2432 
L 3213 326 
C 3213 108 3085 76 2925 76 
L 2835 76 
L 2835 0 
L 3853 0 
L 3853 76 
L 3763 76 
C 3603 76 3475 108 3475 332 
L 3475 2425 
C 3475 2649 3610 2681 3763 2681 
L 3853 2681 
L 3853 2752 
L 2835 2752 
z
" transform="scale(0.015625)"/>
       <path id="SFRM3583-f5" d="M 51 2752 
L 51 2687 
C 147 2687 250 2687 339 2642 
C 467 2578 550 2450 634 2341 
C 858 2052 1075 1757 1299 1469 
C 1325 1436 1376 1392 1376 1353 
C 1363 1283 1184 1096 1088 975 
C 998 853 896 737 806 615 
C 608 365 358 83 19 76 
L 19 0 
L 851 0 
L 851 76 
C 762 109 730 160 730 237 
C 730 436 890 590 1005 724 
C 1152 910 1299 1096 1446 1289 
C 1510 1173 1606 1071 1690 968 
C 1856 744 2202 372 2202 224 
C 2202 153 2131 76 2048 76 
L 2048 0 
L 3002 0 
L 3002 76 
C 2650 76 2566 243 2400 442 
C 2170 750 1939 1058 1696 1359 
C 1670 1392 1619 1436 1619 1481 
L 1619 1488 
C 1619 1539 1798 1732 1882 1841 
C 2093 2097 2426 2681 2906 2687 
L 2906 2752 
L 2074 2752 
L 2074 2681 
C 2157 2656 2195 2604 2195 2521 
C 2195 2310 2029 2156 1907 2009 
C 1786 1856 1670 1696 1542 1548 
C 1491 1644 1414 1728 1344 1811 
L 902 2387 
C 870 2432 851 2483 851 2528 
C 851 2592 909 2681 1005 2681 
L 1005 2752 
L 691 2752 
L 51 2752 
z
" transform="scale(0.015625)"/>
       <path id="SFRM3583-ea" d="M 288 2752 
L 288 2681 
L 378 2681 
C 531 2681 666 2649 666 2425 
L 666 332 
C 666 108 538 76 378 76 
L 288 76 
L 288 0 
L 1299 0 
L 1299 76 
L 1216 76 
C 1030 76 922 121 922 339 
L 922 1049 
C 922 1120 941 1145 992 1196 
L 1094 1286 
C 1210 1388 1325 1504 1453 1593 
C 1517 1472 1613 1363 1690 1248 
C 1869 992 2061 742 2234 480 
L 2272 422 
C 2304 364 2355 281 2355 211 
C 2355 121 2266 76 2189 76 
L 2189 0 
L 3085 0 
L 3085 76 
C 2816 76 2650 307 2515 518 
C 2253 883 2003 1241 1741 1606 
C 1709 1657 1677 1708 1632 1753 
L 1632 1760 
C 1933 1984 2176 2278 2496 2483 
C 2630 2579 2784 2675 2957 2681 
L 2957 2752 
L 2176 2752 
L 2176 2681 
C 2240 2649 2259 2630 2259 2579 
C 2259 2380 2067 2252 2067 2252 
C 1920 2112 1766 1990 1613 1856 
C 1382 1651 1158 1446 922 1248 
L 922 2361 
C 922 2592 979 2681 1222 2681 
L 1299 2681 
L 1299 2752 
L 288 2752 
z
" transform="scale(0.015625)"/>
       <path id="SFRM3583-ee" d="M 1350 2816 
C 614 2725 237 2032 237 1359 
C 237 673 685 -64 1440 -64 
L 1504 -64 
C 2240 26 2624 712 2624 1366 
C 2624 2021 2182 2816 1440 2816 
C 1408 2822 1382 2816 1350 2816 
z
M 563 1256 
L 563 1359 
C 563 1845 621 2388 1114 2660 
C 1197 2699 1293 2731 1389 2738 
L 1434 2738 
C 2054 2738 2298 2006 2298 1482 
C 2298 971 2246 240 1606 46 
C 1549 33 1491 20 1434 20 
C 960 20 653 499 595 958 
C 576 1055 576 1159 563 1256 
z
" transform="scale(0.015625)"/>
       <path id="SFRM3583-f2" d="M 198 2752 
L 141 1785 
L 224 1785 
C 237 2028 243 2348 378 2515 
C 512 2656 723 2675 902 2675 
L 1126 2675 
C 1286 2675 1299 2560 1299 2444 
L 1299 377 
C 1299 102 1158 76 768 76 
L 768 0 
L 2093 0 
L 2093 76 
L 1933 76 
C 1734 76 1562 102 1562 377 
L 1562 2444 
C 1562 2560 1574 2675 1734 2675 
L 1958 2675 
C 2221 2675 2534 2630 2586 2259 
C 2618 2105 2630 1945 2637 1785 
L 2720 1785 
L 2662 2752 
L 198 2752 
z
" transform="scale(0.015625)"/>
      </defs>
      <use xlink:href="#SFRM3583-d0" transform="scale(0.996264)"/>
      <use xlink:href="#SFRM3583-e0" transform="translate(58.189747 0) scale(0.996264)"/>
      <use xlink:href="#SFRM3583-e4" transform="translate(102.768214 0) scale(0.996264)"/>
      <use xlink:href="#SFRM3583-e8" transform="translate(152.306642 0) scale(0.996264)"/>
      <use xlink:href="#SFRM3583-f3" transform="translate(201.845071 0) scale(0.996264)"/>
      <use xlink:href="#SFRM3583-f1" transform="translate(246.423522 0) scale(0.996264)"/>
      <use xlink:href="#SFRM3583-e2" transform="translate(315.740214 0) scale(0.996264)"/>
      <use xlink:href="#SFRM3583-e1" transform="translate(390.016974 0) scale(0.996264)"/>
      <use xlink:href="#SFRM3583-e5" transform="translate(434.595441 0) scale(0.996264)"/>
      <use xlink:href="#SFRM3583-e7" transform="translate(474.21384 0) scale(0.996264)"/>
      <use xlink:href="#SFRM3583-f0" transform="translate(513.832239 0) scale(0.996264)"/>
      <use xlink:href="#SFRM3583-e0" transform="translate(563.370667 0) scale(0.996264)"/>
      <use xlink:href="#SFRM3583-e7" transform="translate(607.949134 0) scale(0.996264)"/>
      <use xlink:href="#SFRM3583-ec" transform="translate(647.567532 0) scale(0.996264)"/>
      <use xlink:href="#SFRM3583-e5" transform="translate(707.026066 0) scale(0.996264)"/>
      <use xlink:href="#SFRM3583-f0" transform="translate(746.644465 0) scale(0.996264)"/>
      <use xlink:href="#SFRM3583-ed" transform="translate(796.182893 0) scale(0.996264)"/>
      <use xlink:href="#SFRM3583-fb" transform="translate(845.721322 0) scale(0.996264)"/>
      <use xlink:href="#SFRM3583-f5" transform="translate(910.139908 0) scale(0.996264)"/>
      <use xlink:href="#SFRM3583-ea" transform="translate(986.896641 0) scale(0.996264)"/>
      <use xlink:href="#SFRM3583-ee" transform="translate(1033.955081 0) scale(0.996264)"/>
      <use xlink:href="#SFRM3583-ee" transform="translate(1078.533548 0) scale(0.996264)"/>
      <use xlink:href="#SFRM3583-f0" transform="translate(1123.112015 0) scale(0.996264)"/>
      <use xlink:href="#SFRM3583-e4" transform="translate(1170.170455 0) scale(0.996264)"/>
      <use xlink:href="#SFRM3583-e8" transform="translate(1219.708883 0) scale(0.996264)"/>
      <use xlink:href="#SFRM3583-ed" transform="translate(1269.247311 0) scale(0.996264)"/>
      <use xlink:href="#SFRM3583-e0" transform="translate(1318.785739 0) scale(0.996264)"/>
      <use xlink:href="#SFRM3583-f2" transform="translate(1363.364206 0) scale(0.996264)"/>
      <use xlink:href="#SFRM3583-e0" transform="translate(1405.462684 0) scale(0.996264)"/>
      <use xlink:href="#SFRM3583-f5" transform="translate(1450.041151 0) scale(0.996264)"/>
     </g>
    </g>
   </g>
   <g id="matplotlib.axis_2">
    <g id="ytick_1">
     <g id="line2d_45">
      <defs>
       <path id="mcf02c05746" d="M 0 0 
L 3 0 
" style="stroke: #000000; stroke-width: 0.5"/>
      </defs>
      <g>
       <use xlink:href="#mcf02c05746" x="42.468452" y="210.625014" style="stroke: #000000; stroke-width: 0.5"/>
      </g>
     </g>
     <g id="line2d_46">
      <defs>
       <path id="m95ed164488" d="M 0 0 
L -3 0 
" style="stroke: #000000; stroke-width: 0.5"/>
      </defs>
      <g>
       <use xlink:href="#m95ed164488" x="377.268452" y="210.625014" style="stroke: #000000; stroke-width: 0.5"/>
      </g>
     </g>
     <g id="text_8">
      <!-- $\mathdefault{0.20}$ -->
      <g transform="translate(18.15782 214.7419) scale(0.12 -0.12)">
       <defs>
        <path id="CMMI12-3a" d="M 1178 307 
C 1178 492 1024 620 870 620 
C 685 620 557 467 557 313 
C 557 128 710 0 864 0 
C 1050 0 1178 153 1178 307 
z
" transform="scale(0.015625)"/>
       </defs>
       <use xlink:href="#CMR17-30" transform="scale(0.996264)"/>
       <use xlink:href="#CMMI12-3a" transform="translate(45.690477 0) scale(0.996264)"/>
       <use xlink:href="#CMR17-32" transform="translate(72.787654 0) scale(0.996264)"/>
       <use xlink:href="#CMR17-30" transform="translate(118.478131 0) scale(0.996264)"/>
      </g>
     </g>
    </g>
    <g id="ytick_2">
     <g id="line2d_47">
      <g>
       <use xlink:href="#mcf02c05746" x="42.468452" y="183.848451" style="stroke: #000000; stroke-width: 0.5"/>
      </g>
     </g>
     <g id="line2d_48">
      <g>
       <use xlink:href="#m95ed164488" x="377.268452" y="183.848451" style="stroke: #000000; stroke-width: 0.5"/>
      </g>
     </g>
     <g id="text_9">
      <!-- $\mathdefault{0.25}$ -->
      <g transform="translate(18.15782 187.965337) scale(0.12 -0.12)">
       <defs>
        <path id="CMR17-35" d="M 730 3750 
C 794 3724 1056 3641 1325 3641 
C 1920 3641 2246 3961 2432 4140 
C 2432 4191 2432 4224 2394 4224 
C 2387 4224 2374 4224 2323 4198 
C 2099 4102 1837 4032 1517 4032 
C 1325 4032 1037 4055 723 4191 
C 653 4224 640 4224 634 4224 
C 602 4224 595 4217 595 4090 
L 595 2231 
C 595 2113 595 2080 659 2080 
C 691 2080 704 2093 736 2139 
C 941 2435 1222 2560 1542 2560 
C 1766 2560 2246 2415 2246 1293 
C 2246 1087 2246 716 2054 422 
C 1894 159 1645 25 1370 25 
C 947 25 518 319 403 812 
C 429 806 480 793 506 793 
C 589 793 749 838 749 1036 
C 749 1209 627 1280 506 1280 
C 358 1280 262 1190 262 1011 
C 262 454 704 -128 1382 -128 
C 2042 -128 2669 441 2669 1267 
C 2669 2054 2170 2662 1549 2662 
C 1222 2662 947 2540 730 2304 
L 730 3750 
z
" transform="scale(0.015625)"/>
       </defs>
       <use xlink:href="#CMR17-30" transform="scale(0.996264)"/>
       <use xlink:href="#CMMI12-3a" transform="translate(45.690477 0) scale(0.996264)"/>
       <use xlink:href="#CMR17-32" transform="translate(72.787654 0) scale(0.996264)"/>
       <use xlink:href="#CMR17-35" transform="translate(118.478131 0) scale(0.996264)"/>
      </g>
     </g>
    </g>
    <g id="ytick_3">
     <g id="line2d_49">
      <g>
       <use xlink:href="#mcf02c05746" x="42.468452" y="157.071889" style="stroke: #000000; stroke-width: 0.5"/>
      </g>
     </g>
     <g id="line2d_50">
      <g>
       <use xlink:href="#m95ed164488" x="377.268452" y="157.071889" style="stroke: #000000; stroke-width: 0.5"/>
      </g>
     </g>
     <g id="text_10">
      <!-- $\mathdefault{0.30}$ -->
      <g transform="translate(18.15782 161.188775) scale(0.12 -0.12)">
       <defs>
        <path id="CMR17-33" d="M 1414 2176 
C 1984 2176 2234 1673 2234 1094 
C 2234 322 1824 25 1453 25 
C 1114 25 563 193 390 691 
C 422 678 454 678 486 678 
C 640 678 755 780 755 947 
C 755 1132 614 1216 486 1216 
C 378 1216 211 1164 211 927 
C 211 335 787 -128 1466 -128 
C 2176 -128 2720 432 2720 1087 
C 2720 1718 2208 2176 1600 2246 
C 2086 2347 2554 2776 2554 3353 
C 2554 3856 2048 4224 1472 4224 
C 890 4224 378 3862 378 3347 
C 378 3123 544 3084 627 3084 
C 762 3084 877 3167 877 3334 
C 877 3500 762 3584 627 3584 
C 602 3584 570 3584 544 3571 
C 730 3999 1235 4076 1459 4076 
C 1683 4076 2106 3966 2106 3347 
C 2106 3167 2080 2851 1862 2574 
C 1670 2329 1453 2316 1242 2297 
C 1210 2297 1062 2284 1037 2284 
C 992 2278 966 2272 966 2227 
C 966 2182 973 2176 1101 2176 
L 1414 2176 
z
" transform="scale(0.015625)"/>
       </defs>
       <use xlink:href="#CMR17-30" transform="scale(0.996264)"/>
       <use xlink:href="#CMMI12-3a" transform="translate(45.690477 0) scale(0.996264)"/>
       <use xlink:href="#CMR17-33" transform="translate(72.787654 0) scale(0.996264)"/>
       <use xlink:href="#CMR17-30" transform="translate(118.478131 0) scale(0.996264)"/>
      </g>
     </g>
    </g>
    <g id="ytick_4">
     <g id="line2d_51">
      <g>
       <use xlink:href="#mcf02c05746" x="42.468452" y="130.295326" style="stroke: #000000; stroke-width: 0.5"/>
      </g>
     </g>
     <g id="line2d_52">
      <g>
       <use xlink:href="#m95ed164488" x="377.268452" y="130.295326" style="stroke: #000000; stroke-width: 0.5"/>
      </g>
     </g>
     <g id="text_11">
      <!-- $\mathdefault{0.35}$ -->
      <g transform="translate(18.15782 134.412212) scale(0.12 -0.12)">
       <use xlink:href="#CMR17-30" transform="scale(0.996264)"/>
       <use xlink:href="#CMMI12-3a" transform="translate(45.690477 0) scale(0.996264)"/>
       <use xlink:href="#CMR17-33" transform="translate(72.787654 0) scale(0.996264)"/>
       <use xlink:href="#CMR17-35" transform="translate(118.478131 0) scale(0.996264)"/>
      </g>
     </g>
    </g>
    <g id="ytick_5">
     <g id="line2d_53">
      <g>
       <use xlink:href="#mcf02c05746" x="42.468452" y="103.518763" style="stroke: #000000; stroke-width: 0.5"/>
      </g>
     </g>
     <g id="line2d_54">
      <g>
       <use xlink:href="#m95ed164488" x="377.268452" y="103.518763" style="stroke: #000000; stroke-width: 0.5"/>
      </g>
     </g>
     <g id="text_12">
      <!-- $\mathdefault{0.40}$ -->
      <g transform="translate(18.15782 107.635649) scale(0.12 -0.12)">
       <use xlink:href="#CMR17-30" transform="scale(0.996264)"/>
       <use xlink:href="#CMMI12-3a" transform="translate(45.690477 0) scale(0.996264)"/>
       <use xlink:href="#CMR17-34" transform="translate(72.787654 0) scale(0.996264)"/>
       <use xlink:href="#CMR17-30" transform="translate(118.478131 0) scale(0.996264)"/>
      </g>
     </g>
    </g>
    <g id="ytick_6">
     <g id="line2d_55">
      <g>
       <use xlink:href="#mcf02c05746" x="42.468452" y="76.742201" style="stroke: #000000; stroke-width: 0.5"/>
      </g>
     </g>
     <g id="line2d_56">
      <g>
       <use xlink:href="#m95ed164488" x="377.268452" y="76.742201" style="stroke: #000000; stroke-width: 0.5"/>
      </g>
     </g>
     <g id="text_13">
      <!-- $\mathdefault{0.45}$ -->
      <g transform="translate(18.15782 80.859087) scale(0.12 -0.12)">
       <use xlink:href="#CMR17-30" transform="scale(0.996264)"/>
       <use xlink:href="#CMMI12-3a" transform="translate(45.690477 0) scale(0.996264)"/>
       <use xlink:href="#CMR17-34" transform="translate(72.787654 0) scale(0.996264)"/>
       <use xlink:href="#CMR17-35" transform="translate(118.478131 0) scale(0.996264)"/>
      </g>
     </g>
    </g>
    <g id="ytick_7">
     <g id="line2d_57">
      <g>
       <use xlink:href="#mcf02c05746" x="42.468452" y="49.965638" style="stroke: #000000; stroke-width: 0.5"/>
      </g>
     </g>
     <g id="line2d_58">
      <g>
       <use xlink:href="#m95ed164488" x="377.268452" y="49.965638" style="stroke: #000000; stroke-width: 0.5"/>
      </g>
     </g>
     <g id="text_14">
      <!-- $\mathdefault{0.50}$ -->
      <g transform="translate(18.15782 54.082524) scale(0.12 -0.12)">
       <use xlink:href="#CMR17-30" transform="scale(0.996264)"/>
       <use xlink:href="#CMMI12-3a" transform="translate(45.690477 0) scale(0.996264)"/>
       <use xlink:href="#CMR17-35" transform="translate(72.787654 0) scale(0.996264)"/>
       <use xlink:href="#CMR17-30" transform="translate(118.478131 0) scale(0.996264)"/>
      </g>
     </g>
    </g>
    <g id="ytick_8">
     <g id="line2d_59">
      <g>
       <use xlink:href="#mcf02c05746" x="42.468452" y="23.189075" style="stroke: #000000; stroke-width: 0.5"/>
      </g>
     </g>
     <g id="line2d_60">
      <g>
       <use xlink:href="#m95ed164488" x="377.268452" y="23.189075" style="stroke: #000000; stroke-width: 0.5"/>
      </g>
     </g>
     <g id="text_15">
      <!-- $\mathdefault{0.55}$ -->
      <g transform="translate(18.15782 27.305961) scale(0.12 -0.12)">
       <use xlink:href="#CMR17-30" transform="scale(0.996264)"/>
       <use xlink:href="#CMMI12-3a" transform="translate(45.690477 0) scale(0.996264)"/>
       <use xlink:href="#CMR17-35" transform="translate(72.787654 0) scale(0.996264)"/>
       <use xlink:href="#CMR17-35" transform="translate(118.478131 0) scale(0.996264)"/>
      </g>
     </g>
    </g>
    <g id="ytick_9">
     <g id="line2d_61">
      <defs>
       <path id="m581cdee879" d="M 0 0 
L 1.5 0 
" style="stroke: #000000; stroke-width: 0.5"/>
      </defs>
      <g>
       <use xlink:href="#m581cdee879" x="42.468452" y="221.335639" style="stroke: #000000; stroke-width: 0.5"/>
      </g>
     </g>
     <g id="line2d_62">
      <defs>
       <path id="me0b363eb7f" d="M 0 0 
L -1.5 0 
" style="stroke: #000000; stroke-width: 0.5"/>
      </defs>
      <g>
       <use xlink:href="#me0b363eb7f" x="377.268452" y="221.335639" style="stroke: #000000; stroke-width: 0.5"/>
      </g>
     </g>
    </g>
    <g id="ytick_10">
     <g id="line2d_63">
      <g>
       <use xlink:href="#m581cdee879" x="42.468452" y="215.980326" style="stroke: #000000; stroke-width: 0.5"/>
      </g>
     </g>
     <g id="line2d_64">
      <g>
       <use xlink:href="#me0b363eb7f" x="377.268452" y="215.980326" style="stroke: #000000; stroke-width: 0.5"/>
      </g>
     </g>
    </g>
    <g id="ytick_11">
     <g id="line2d_65">
      <g>
       <use xlink:href="#m581cdee879" x="42.468452" y="205.269701" style="stroke: #000000; stroke-width: 0.5"/>
      </g>
     </g>
     <g id="line2d_66">
      <g>
       <use xlink:href="#me0b363eb7f" x="377.268452" y="205.269701" style="stroke: #000000; stroke-width: 0.5"/>
      </g>
     </g>
    </g>
    <g id="ytick_12">
     <g id="line2d_67">
      <g>
       <use xlink:href="#m581cdee879" x="42.468452" y="199.914389" style="stroke: #000000; stroke-width: 0.5"/>
      </g>
     </g>
     <g id="line2d_68">
      <g>
       <use xlink:href="#me0b363eb7f" x="377.268452" y="199.914389" style="stroke: #000000; stroke-width: 0.5"/>
      </g>
     </g>
    </g>
    <g id="ytick_13">
     <g id="line2d_69">
      <g>
       <use xlink:href="#m581cdee879" x="42.468452" y="194.559076" style="stroke: #000000; stroke-width: 0.5"/>
      </g>
     </g>
     <g id="line2d_70">
      <g>
       <use xlink:href="#me0b363eb7f" x="377.268452" y="194.559076" style="stroke: #000000; stroke-width: 0.5"/>
      </g>
     </g>
    </g>
    <g id="ytick_14">
     <g id="line2d_71">
      <g>
       <use xlink:href="#m581cdee879" x="42.468452" y="189.203764" style="stroke: #000000; stroke-width: 0.5"/>
      </g>
     </g>
     <g id="line2d_72">
      <g>
       <use xlink:href="#me0b363eb7f" x="377.268452" y="189.203764" style="stroke: #000000; stroke-width: 0.5"/>
      </g>
     </g>
    </g>
    <g id="ytick_15">
     <g id="line2d_73">
      <g>
       <use xlink:href="#m581cdee879" x="42.468452" y="178.493139" style="stroke: #000000; stroke-width: 0.5"/>
      </g>
     </g>
     <g id="line2d_74">
      <g>
       <use xlink:href="#me0b363eb7f" x="377.268452" y="178.493139" style="stroke: #000000; stroke-width: 0.5"/>
      </g>
     </g>
    </g>
    <g id="ytick_16">
     <g id="line2d_75">
      <g>
       <use xlink:href="#m581cdee879" x="42.468452" y="173.137826" style="stroke: #000000; stroke-width: 0.5"/>
      </g>
     </g>
     <g id="line2d_76">
      <g>
       <use xlink:href="#me0b363eb7f" x="377.268452" y="173.137826" style="stroke: #000000; stroke-width: 0.5"/>
      </g>
     </g>
    </g>
    <g id="ytick_17">
     <g id="line2d_77">
      <g>
       <use xlink:href="#m581cdee879" x="42.468452" y="167.782514" style="stroke: #000000; stroke-width: 0.5"/>
      </g>
     </g>
     <g id="line2d_78">
      <g>
       <use xlink:href="#me0b363eb7f" x="377.268452" y="167.782514" style="stroke: #000000; stroke-width: 0.5"/>
      </g>
     </g>
    </g>
    <g id="ytick_18">
     <g id="line2d_79">
      <g>
       <use xlink:href="#m581cdee879" x="42.468452" y="162.427201" style="stroke: #000000; stroke-width: 0.5"/>
      </g>
     </g>
     <g id="line2d_80">
      <g>
       <use xlink:href="#me0b363eb7f" x="377.268452" y="162.427201" style="stroke: #000000; stroke-width: 0.5"/>
      </g>
     </g>
    </g>
    <g id="ytick_19">
     <g id="line2d_81">
      <g>
       <use xlink:href="#m581cdee879" x="42.468452" y="151.716576" style="stroke: #000000; stroke-width: 0.5"/>
      </g>
     </g>
     <g id="line2d_82">
      <g>
       <use xlink:href="#me0b363eb7f" x="377.268452" y="151.716576" style="stroke: #000000; stroke-width: 0.5"/>
      </g>
     </g>
    </g>
    <g id="ytick_20">
     <g id="line2d_83">
      <g>
       <use xlink:href="#m581cdee879" x="42.468452" y="146.361264" style="stroke: #000000; stroke-width: 0.5"/>
      </g>
     </g>
     <g id="line2d_84">
      <g>
       <use xlink:href="#me0b363eb7f" x="377.268452" y="146.361264" style="stroke: #000000; stroke-width: 0.5"/>
      </g>
     </g>
    </g>
    <g id="ytick_21">
     <g id="line2d_85">
      <g>
       <use xlink:href="#m581cdee879" x="42.468452" y="141.005951" style="stroke: #000000; stroke-width: 0.5"/>
      </g>
     </g>
     <g id="line2d_86">
      <g>
       <use xlink:href="#me0b363eb7f" x="377.268452" y="141.005951" style="stroke: #000000; stroke-width: 0.5"/>
      </g>
     </g>
    </g>
    <g id="ytick_22">
     <g id="line2d_87">
      <g>
       <use xlink:href="#m581cdee879" x="42.468452" y="135.650638" style="stroke: #000000; stroke-width: 0.5"/>
      </g>
     </g>
     <g id="line2d_88">
      <g>
       <use xlink:href="#me0b363eb7f" x="377.268452" y="135.650638" style="stroke: #000000; stroke-width: 0.5"/>
      </g>
     </g>
    </g>
    <g id="ytick_23">
     <g id="line2d_89">
      <g>
       <use xlink:href="#m581cdee879" x="42.468452" y="124.940013" style="stroke: #000000; stroke-width: 0.5"/>
      </g>
     </g>
     <g id="line2d_90">
      <g>
       <use xlink:href="#me0b363eb7f" x="377.268452" y="124.940013" style="stroke: #000000; stroke-width: 0.5"/>
      </g>
     </g>
    </g>
    <g id="ytick_24">
     <g id="line2d_91">
      <g>
       <use xlink:href="#m581cdee879" x="42.468452" y="119.584701" style="stroke: #000000; stroke-width: 0.5"/>
      </g>
     </g>
     <g id="line2d_92">
      <g>
       <use xlink:href="#me0b363eb7f" x="377.268452" y="119.584701" style="stroke: #000000; stroke-width: 0.5"/>
      </g>
     </g>
    </g>
    <g id="ytick_25">
     <g id="line2d_93">
      <g>
       <use xlink:href="#m581cdee879" x="42.468452" y="114.229388" style="stroke: #000000; stroke-width: 0.5"/>
      </g>
     </g>
     <g id="line2d_94">
      <g>
       <use xlink:href="#me0b363eb7f" x="377.268452" y="114.229388" style="stroke: #000000; stroke-width: 0.5"/>
      </g>
     </g>
    </g>
    <g id="ytick_26">
     <g id="line2d_95">
      <g>
       <use xlink:href="#m581cdee879" x="42.468452" y="108.874076" style="stroke: #000000; stroke-width: 0.5"/>
      </g>
     </g>
     <g id="line2d_96">
      <g>
       <use xlink:href="#me0b363eb7f" x="377.268452" y="108.874076" style="stroke: #000000; stroke-width: 0.5"/>
      </g>
     </g>
    </g>
    <g id="ytick_27">
     <g id="line2d_97">
      <g>
       <use xlink:href="#m581cdee879" x="42.468452" y="98.163451" style="stroke: #000000; stroke-width: 0.5"/>
      </g>
     </g>
     <g id="line2d_98">
      <g>
       <use xlink:href="#me0b363eb7f" x="377.268452" y="98.163451" style="stroke: #000000; stroke-width: 0.5"/>
      </g>
     </g>
    </g>
    <g id="ytick_28">
     <g id="line2d_99">
      <g>
       <use xlink:href="#m581cdee879" x="42.468452" y="92.808138" style="stroke: #000000; stroke-width: 0.5"/>
      </g>
     </g>
     <g id="line2d_100">
      <g>
       <use xlink:href="#me0b363eb7f" x="377.268452" y="92.808138" style="stroke: #000000; stroke-width: 0.5"/>
      </g>
     </g>
    </g>
    <g id="ytick_29">
     <g id="line2d_101">
      <g>
       <use xlink:href="#m581cdee879" x="42.468452" y="87.452826" style="stroke: #000000; stroke-width: 0.5"/>
      </g>
     </g>
     <g id="line2d_102">
      <g>
       <use xlink:href="#me0b363eb7f" x="377.268452" y="87.452826" style="stroke: #000000; stroke-width: 0.5"/>
      </g>
     </g>
    </g>
    <g id="ytick_30">
     <g id="line2d_103">
      <g>
       <use xlink:href="#m581cdee879" x="42.468452" y="82.097513" style="stroke: #000000; stroke-width: 0.5"/>
      </g>
     </g>
     <g id="line2d_104">
      <g>
       <use xlink:href="#me0b363eb7f" x="377.268452" y="82.097513" style="stroke: #000000; stroke-width: 0.5"/>
      </g>
     </g>
    </g>
    <g id="ytick_31">
     <g id="line2d_105">
      <g>
       <use xlink:href="#m581cdee879" x="42.468452" y="71.386888" style="stroke: #000000; stroke-width: 0.5"/>
      </g>
     </g>
     <g id="line2d_106">
      <g>
       <use xlink:href="#me0b363eb7f" x="377.268452" y="71.386888" style="stroke: #000000; stroke-width: 0.5"/>
      </g>
     </g>
    </g>
    <g id="ytick_32">
     <g id="line2d_107">
      <g>
       <use xlink:href="#m581cdee879" x="42.468452" y="66.031576" style="stroke: #000000; stroke-width: 0.5"/>
      </g>
     </g>
     <g id="line2d_108">
      <g>
       <use xlink:href="#me0b363eb7f" x="377.268452" y="66.031576" style="stroke: #000000; stroke-width: 0.5"/>
      </g>
     </g>
    </g>
    <g id="ytick_33">
     <g id="line2d_109">
      <g>
       <use xlink:href="#m581cdee879" x="42.468452" y="60.676263" style="stroke: #000000; stroke-width: 0.5"/>
      </g>
     </g>
     <g id="line2d_110">
      <g>
       <use xlink:href="#me0b363eb7f" x="377.268452" y="60.676263" style="stroke: #000000; stroke-width: 0.5"/>
      </g>
     </g>
    </g>
    <g id="ytick_34">
     <g id="line2d_111">
      <g>
       <use xlink:href="#m581cdee879" x="42.468452" y="55.320951" style="stroke: #000000; stroke-width: 0.5"/>
      </g>
     </g>
     <g id="line2d_112">
      <g>
       <use xlink:href="#me0b363eb7f" x="377.268452" y="55.320951" style="stroke: #000000; stroke-width: 0.5"/>
      </g>
     </g>
    </g>
    <g id="ytick_35">
     <g id="line2d_113">
      <g>
       <use xlink:href="#m581cdee879" x="42.468452" y="44.610325" style="stroke: #000000; stroke-width: 0.5"/>
      </g>
     </g>
     <g id="line2d_114">
      <g>
       <use xlink:href="#me0b363eb7f" x="377.268452" y="44.610325" style="stroke: #000000; stroke-width: 0.5"/>
      </g>
     </g>
    </g>
    <g id="ytick_36">
     <g id="line2d_115">
      <g>
       <use xlink:href="#m581cdee879" x="42.468452" y="39.255013" style="stroke: #000000; stroke-width: 0.5"/>
      </g>
     </g>
     <g id="line2d_116">
      <g>
       <use xlink:href="#me0b363eb7f" x="377.268452" y="39.255013" style="stroke: #000000; stroke-width: 0.5"/>
      </g>
     </g>
    </g>
    <g id="ytick_37">
     <g id="line2d_117">
      <g>
       <use xlink:href="#m581cdee879" x="42.468452" y="33.8997" style="stroke: #000000; stroke-width: 0.5"/>
      </g>
     </g>
     <g id="line2d_118">
      <g>
       <use xlink:href="#me0b363eb7f" x="377.268452" y="33.8997" style="stroke: #000000; stroke-width: 0.5"/>
      </g>
     </g>
    </g>
    <g id="ytick_38">
     <g id="line2d_119">
      <g>
       <use xlink:href="#m581cdee879" x="42.468452" y="28.544388" style="stroke: #000000; stroke-width: 0.5"/>
      </g>
     </g>
     <g id="line2d_120">
      <g>
       <use xlink:href="#me0b363eb7f" x="377.268452" y="28.544388" style="stroke: #000000; stroke-width: 0.5"/>
      </g>
     </g>
    </g>
    <g id="ytick_39">
     <g id="line2d_121">
      <g>
       <use xlink:href="#m581cdee879" x="42.468452" y="17.833763" style="stroke: #000000; stroke-width: 0.5"/>
      </g>
     </g>
     <g id="line2d_122">
      <g>
       <use xlink:href="#me0b363eb7f" x="377.268452" y="17.833763" style="stroke: #000000; stroke-width: 0.5"/>
      </g>
     </g>
    </g>
    <g id="ytick_40">
     <g id="line2d_123">
      <g>
       <use xlink:href="#m581cdee879" x="42.468452" y="12.47845" style="stroke: #000000; stroke-width: 0.5"/>
      </g>
     </g>
     <g id="line2d_124">
      <g>
       <use xlink:href="#me0b363eb7f" x="377.268452" y="12.47845" style="stroke: #000000; stroke-width: 0.5"/>
      </g>
     </g>
    </g>
    <g id="ytick_41">
     <g id="line2d_125">
      <g>
       <use xlink:href="#m581cdee879" x="42.468452" y="7.123138" style="stroke: #000000; stroke-width: 0.5"/>
      </g>
     </g>
     <g id="line2d_126">
      <g>
       <use xlink:href="#me0b363eb7f" x="377.268452" y="7.123138" style="stroke: #000000; stroke-width: 0.5"/>
      </g>
     </g>
    </g>
    <g id="text_16">
     <!-- Интенсивность -->
     <g transform="translate(11.833772 154.463994) rotate(-90) scale(0.12 -0.12)">
      <defs>
       <path id="SFRM3583-c8" d="M 467 4352 
L 467 4211 
L 576 4211 
C 742 4211 877 4192 877 3943 
L 877 408 
C 877 159 768 140 467 140 
L 467 0 
L 1600 0 
L 1600 140 
L 1491 140 
C 1344 140 1190 153 1190 319 
C 1190 382 1235 433 1267 484 
C 1779 1312 2266 2166 2771 3000 
L 3117 3574 
C 3162 3657 3226 3733 3258 3822 
L 3264 363 
C 3264 191 3194 140 2854 140 
L 2854 0 
L 3987 0 
L 3987 140 
L 3878 140 
C 3712 140 3571 159 3571 408 
C 3571 459 3578 503 3578 554 
L 3578 3943 
C 3578 4192 3686 4211 3987 4211 
L 3987 4352 
L 2854 4352 
L 2854 4211 
L 2963 4211 
C 3110 4211 3264 4198 3264 4032 
C 3264 3969 3219 3918 3187 3867 
C 2675 3039 2189 2185 1683 1351 
L 1338 777 
C 1293 695 1229 618 1197 529 
L 1190 3988 
C 1190 4160 1261 4211 1600 4211 
L 1600 4352 
L 467 4352 
z
" transform="scale(0.015625)"/>
       <path id="SFRM3583-fc" d="M 294 2752 
L 294 2681 
L 358 2681 
C 525 2681 666 2662 666 2425 
L 666 339 
C 666 95 525 76 358 76 
L 294 76 
L 294 0 
L 1472 0 
C 1741 0 2003 6 2246 140 
C 2477 275 2669 511 2669 780 
C 2669 1350 2029 1555 1587 1555 
L 928 1555 
L 928 2419 
C 928 2636 1043 2681 1222 2681 
L 1299 2681 
L 1299 2752 
L 294 2752 
z
M 928 1478 
L 1530 1478 
C 1939 1478 2342 1215 2342 780 
L 2342 755 
C 2342 339 1920 83 1555 83 
L 1082 83 
C 928 83 928 217 928 371 
L 928 1478 
z
" transform="scale(0.015625)"/>
      </defs>
      <use xlink:href="#SFRM3583-c8" transform="scale(0.996264)"/>
      <use xlink:href="#SFRM3583-ed" transform="translate(69.320979 0) scale(0.996264)"/>
      <use xlink:href="#SFRM3583-f2" transform="translate(118.859407 0) scale(0.996264)"/>
      <use xlink:href="#SFRM3583-e5" transform="translate(163.437874 0) scale(0.996264)"/>
      <use xlink:href="#SFRM3583-ed" transform="translate(203.056273 0) scale(0.996264)"/>
      <use xlink:href="#SFRM3583-f1" transform="translate(252.594701 0) scale(0.996264)"/>
      <use xlink:href="#SFRM3583-e8" transform="translate(292.2131 0) scale(0.996264)"/>
      <use xlink:href="#SFRM3583-e2" transform="translate(341.751528 0) scale(0.996264)"/>
      <use xlink:href="#SFRM3583-ed" transform="translate(386.329995 0) scale(0.996264)"/>
      <use xlink:href="#SFRM3583-ee" transform="translate(435.868423 0) scale(0.996264)"/>
      <use xlink:href="#SFRM3583-f1" transform="translate(480.44689 0) scale(0.996264)"/>
      <use xlink:href="#SFRM3583-f2" transform="translate(520.065289 0) scale(0.996264)"/>
      <use xlink:href="#SFRM3583-fc" transform="translate(564.643755 0) scale(0.996264)"/>
     </g>
    </g>
   </g>
   <g id="line2d_127">
    <path d="M 57.686634 213.843703 
L 57.836346 214.698432 
L 58.28548 215.28 
L 58.734615 213.343393 
L 59.483173 201.769625 
L 60.082019 194.294662 
L 60.830577 186.850909 
L 61.279712 182.271132 
L 61.579135 179.624923 
L 62.177981 176.587177 
L 62.627116 174.863937 
L 63.375674 169.50456 
L 64.124232 163.103055 
L 64.723078 158.990762 
L 65.022501 158.767108 
L 65.321925 158.69239 
L 65.471636 158.88646 
L 66.070482 157.665492 
L 66.369906 155.927419 
L 67.268175 145.578935 
L 67.417887 144.724531 
L 67.567598 144.660414 
L 67.71731 144.936344 
L 68.016733 146.408393 
L 68.166445 146.785002 
L 68.316156 146.70881 
L 68.615579 146.885183 
L 68.765291 147.478512 
L 68.915002 147.362212 
L 69.064714 147.003036 
L 69.214426 146.077565 
L 69.364137 144.189476 
L 69.66356 138.730477 
L 70.262407 131.499477 
L 70.56183 130.605908 
L 70.711541 130.319413 
L 71.010964 131.545115 
L 71.609811 136.588907 
L 71.759522 135.991492 
L 71.909234 136.150298 
L 72.50808 131.196416 
L 73.256638 118.120887 
L 73.556061 116.703152 
L 73.855484 117.033022 
L 74.005196 117.490714 
L 74.304619 119.287596 
L 74.753754 124.440444 
L 75.053177 125.050133 
L 75.202889 125.186767 
L 75.3526 123.606569 
L 75.652023 115.750955 
L 76.101158 105.68061 
L 76.400581 103.0826 
L 76.550293 103.102132 
L 76.849716 104.861808 
L 77.149139 108.095352 
L 77.747985 117.092556 
L 77.897697 118.298572 
L 78.047409 118.251321 
L 78.19712 118.348922 
L 78.346832 117.190349 
L 78.646255 110.916276 
L 79.245101 96.013473 
L 79.394813 95.162834 
L 79.694236 95.466752 
L 80.143371 98.505916 
L 80.742217 111.157424 
L 81.04164 112.383649 
L 81.191352 111.446924 
L 81.490775 105.994584 
L 82.538756 79.550804 
L 82.688467 79.729502 
L 82.838179 80.580937 
L 83.137602 84.009139 
L 84.335295 105.051085 
L 84.634718 102.258238 
L 85.532987 75.522856 
L 85.832411 72.912587 
L 85.982122 73.662605 
L 86.131834 73.444775 
L 86.73068 80.946646 
L 87.329526 97.202976 
L 87.479238 98.685305 
L 87.62895 98.72925 
L 87.778661 98.526665 
L 88.078084 92.534537 
L 89.126065 70.156951 
L 89.5752 68.095772 
L 89.724912 68.231987 
L 90.024335 72.186001 
L 91.072316 97.813726 
L 91.222027 99.071535 
L 91.371739 98.662282 
L 91.671162 95.147519 
L 92.120297 83.878971 
L 92.41972 74.755358 
L 92.719143 70.839035 
L 92.868855 70.236746 
L 93.168278 70.421428 
L 93.467701 72.131496 
L 93.767124 75.612041 
L 94.066547 83.15446 
L 94.665394 90.657199 
L 94.815105 90.81735 
L 95.413952 87.013015 
L 96.012798 79.906021 
L 96.461933 70.787584 
L 96.761356 68.660187 
L 96.911067 68.469556 
L 97.060779 68.773227 
L 97.509914 71.737773 
L 98.408183 80.839662 
L 98.707606 82.118391 
L 99.007029 81.676092 
L 99.306453 80.01841 
L 99.605876 76.402597 
L 100.504145 66.56356 
L 100.95328 65.793391 
L 101.252703 66.953331 
L 101.701838 72.156971 
L 101.851549 72.923896 
L 102.001261 73.018265 
L 102.600107 75.984573 
L 102.749819 76.264731 
L 103.498377 73.362745 
L 103.947511 68.34639 
L 104.246935 66.975435 
L 104.396646 66.534281 
L 104.546358 66.582673 
L 104.696069 67.070358 
L 105.294916 71.843536 
L 106.043474 74.866239 
L 106.342897 75.032353 
L 106.792031 73.991076 
L 106.941743 74.552766 
L 107.091455 74.542921 
L 107.390878 73.893672 
L 107.540589 73.075166 
L 107.690301 72.933072 
L 107.989724 71.983317 
L 108.139436 71.773625 
L 108.289147 71.773905 
L 108.438859 71.601277 
L 108.58857 70.957952 
L 108.738282 71.023273 
L 108.887993 70.554441 
L 109.337128 71.691191 
L 109.48684 72.381784 
L 109.786263 72.266201 
L 109.935975 71.559591 
L 110.085686 71.437973 
L 110.684532 69.551776 
L 110.834244 69.668128 
L 110.983956 69.07289 
L 111.133667 69.246027 
L 111.283379 68.909719 
L 111.43309 68.972187 
L 111.582802 69.396638 
L 111.882225 68.429152 
L 112.181648 66.886574 
L 112.33136 66.718842 
L 112.481071 67.100324 
L 113.079918 70.62143 
L 113.678764 71.713291 
L 113.828476 72.029806 
L 113.978187 71.896073 
L 114.127899 71.98283 
L 114.27761 72.278816 
L 114.577033 70.832914 
L 115.17588 65.594193 
L 115.475303 63.702708 
L 115.625014 63.523016 
L 115.774726 63.782249 
L 115.924438 63.199994 
L 116.672996 57.124384 
L 116.822707 57.354514 
L 117.12213 59.676209 
L 117.571265 64.835092 
L 117.870688 68.509932 
L 118.619246 73.025828 
L 118.768958 73.097986 
L 119.068381 73.830926 
L 119.218092 73.810539 
L 119.367804 73.306471 
L 119.667227 73.306356 
L 119.96665 74.792395 
L 120.116362 74.921401 
L 120.415785 71.260774 
L 120.86492 57.509991 
L 121.164343 53.152635 
L 121.763189 50.605999 
L 121.912901 50.664879 
L 122.062612 50.89971 
L 122.212324 51.600154 
L 122.661459 56.359403 
L 122.81117 58.596982 
L 123.260305 69.87447 
L 123.70944 76.608322 
L 124.158574 79.600006 
L 124.308286 79.43479 
L 124.457998 79.801218 
L 124.607709 79.066112 
L 125.056844 79.990135 
L 125.206555 78.604221 
L 125.65569 71.418878 
L 125.955113 69.803974 
L 126.254536 63.088268 
L 126.853383 37.591335 
L 127.152806 36.372464 
L 127.302517 37.1296 
L 127.751652 42.298829 
L 128.200787 51.878507 
L 129.39848 76.386547 
L 129.847614 80.795137 
L 130.147037 81.195939 
L 130.296749 80.630699 
L 130.596172 77.787229 
L 131.34473 59.882042 
L 132.093288 44.479131 
L 132.392711 36.505785 
L 132.692134 30.144199 
L 132.991557 28.532937 
L 133.141269 27.879986 
L 133.290981 27.84623 
L 133.440692 27.411787 
L 133.590404 27.470658 
L 133.740115 27.324705 
L 134.039538 28.559457 
L 134.338962 33.367996 
L 135.386943 62.063458 
L 135.836077 75.771307 
L 136.285212 84.169301 
L 136.734347 88.514023 
L 136.884058 88.789741 
L 137.03377 88.381674 
L 137.183482 87.602089 
L 137.333193 87.515599 
L 137.482905 88.057547 
L 137.782328 87.570622 
L 138.231463 84.820352 
L 138.530886 79.647384 
L 139.578867 43.849118 
L 140.028002 38.091091 
L 140.477136 34.050409 
L 140.776559 32.599731 
L 141.075983 33.801792 
L 141.974252 47.591716 
L 142.273675 53.205827 
L 142.72281 63.836242 
L 143.171945 86.937267 
L 143.621079 97.568545 
L 144.219926 102.799569 
L 144.369637 102.777231 
L 144.519349 102.353995 
L 144.66906 102.453835 
L 144.818772 101.786322 
L 144.968484 100.429979 
L 145.717041 86.021136 
L 147.214157 49.594975 
L 147.51358 47.297467 
L 147.813004 41.416181 
L 148.561561 20.740971 
L 148.860985 18.972499 
L 149.010696 19.016961 
L 149.160408 19.239171 
L 149.310119 19.688432 
L 149.609542 20.828321 
L 149.908966 21.48812 
L 150.058677 21.359615 
L 150.208389 22.014196 
L 150.507812 27.757876 
L 150.807235 33.865145 
L 151.106658 37.832476 
L 152.304351 68.523713 
L 152.753486 82.663205 
L 152.903197 85.895194 
L 153.352332 101.069457 
L 153.801467 110.30844 
L 154.10089 113.935718 
L 154.250601 114.793902 
L 154.400313 114.648851 
L 154.550025 115.215149 
L 154.699736 114.988706 
L 154.849448 115.055039 
L 154.999159 115.317915 
L 155.298582 114.654624 
L 155.747717 111.481823 
L 156.04714 108.906473 
L 157.244833 87.273936 
L 157.693968 75.774847 
L 157.843679 73.43685 
L 159.191083 36.263385 
L 160.089353 22.379068 
L 160.538488 20.780725 
L 160.688199 20.659106 
L 160.987622 19.937004 
L 161.436757 19.731084 
L 161.586469 19.342291 
L 162.035603 19.15655 
L 162.335027 20.491005 
L 163.383008 26.466465 
L 163.832142 26.766693 
L 164.131565 27.879244 
L 164.5807 32.21107 
L 165.029835 38.7095 
L 165.329258 40.292086 
L 165.928104 46.679479 
L 166.227528 53.114889 
L 166.526951 59.54155 
L 167.42522 67.763989 
L 167.724643 68.715705 
L 168.024066 71.126535 
L 168.772624 84.290648 
L 169.820605 103.139644 
L 170.419452 118.399249 
L 170.718875 122.235041 
L 171.018298 123.985517 
L 171.317721 123.459352 
L 171.617144 120.365779 
L 171.916567 116.068572 
L 172.066279 115.974404 
L 172.215991 116.556559 
L 172.515414 122.806181 
L 173.11426 140.586553 
L 173.413683 142.32839 
L 173.563395 142.461721 
L 173.862818 141.355278 
L 174.162241 139.160841 
L 174.461664 138.310392 
L 174.611376 138.383658 
L 174.761087 138.221125 
L 175.060511 139.002841 
L 175.210222 138.865554 
L 175.95878 140.348701 
L 176.108492 140.656078 
L 176.407915 140.664493 
L 176.557626 140.881665 
L 176.707338 140.838228 
L 176.85705 141.085118 
L 177.006761 141.572636 
L 177.156473 141.17796 
L 177.605607 141.933776 
L 177.905031 142.446318 
L 178.204454 142.798451 
L 178.503877 142.188599 
L 178.653588 142.128907 
L 179.551858 140.391036 
L 179.701569 140.346296 
L 180.150704 140.877201 
L 180.300416 140.886576 
L 180.599839 140.445052 
L 180.899262 140.538113 
L 181.048974 140.607096 
L 181.198685 140.997085 
L 181.498108 140.800268 
L 181.64782 140.915138 
L 181.947243 140.712615 
L 182.096955 140.736386 
L 182.396378 140.472264 
L 182.845513 139.324789 
L 182.995224 139.357301 
L 183.294647 139.827844 
L 183.444359 139.4404 
L 183.59407 139.699125 
L 183.893494 138.982265 
L 184.043205 139.330684 
L 184.342628 138.257936 
L 185.390609 131.608897 
L 185.540321 131.069739 
L 185.690033 131.661626 
L 186.139167 131.765953 
L 186.43859 130.981216 
L 186.738014 129.36785 
L 187.037437 125.209327 
L 187.33686 121.992243 
L 187.636283 120.679554 
L 187.785995 120.733441 
L 188.085418 120.017242 
L 188.384841 119.484957 
L 188.534553 119.649496 
L 188.684264 119.638559 
L 188.833976 120.42438 
L 188.983687 120.392128 
L 189.28311 119.616144 
L 189.432822 119.248226 
L 189.582534 119.191632 
L 190.331091 114.60459 
L 190.929938 108.706715 
L 191.828207 89.624912 
L 192.427054 75.311588 
L 194.223592 53.553954 
L 195.720708 38.269438 
L 195.87042 38.204472 
L 196.020131 37.701798 
L 197.517247 27.76357 
L 198.415517 20.597887 
L 199.014363 18.015274 
L 199.164075 17.73087 
L 199.313786 18.062457 
L 199.463498 18.687646 
L 199.762921 23.173299 
L 200.062344 27.82164 
L 200.361767 30.963555 
L 201.858883 53.163115 
L 204.104557 102.056177 
L 204.553691 113.630818 
L 205.152538 123.541402 
L 205.451961 127.932868 
L 205.601672 129.474509 
L 205.751384 129.73954 
L 205.901095 129.339623 
L 206.499942 125.666505 
L 206.799365 123.709159 
L 207.098788 117.947985 
L 207.997058 89.334532 
L 208.446192 67.628822 
L 209.045039 38.896548 
L 209.344462 30.767757 
L 210.242731 18.13061 
L 210.691866 16.160504 
L 211.141001 14.278788 
L 211.290712 14.065302 
L 211.440424 14.656405 
L 211.590135 13.68 
L 211.739847 14.300172 
L 211.889559 14.300513 
L 212.03927 14.712759 
L 212.188982 16.113437 
L 212.338693 16.181911 
L 212.787828 22.393954 
L 213.386674 38.90649 
L 214.135232 70.811624 
L 214.88379 95.226886 
L 215.482636 105.578759 
L 215.78206 107.393866 
L 215.931771 107.247766 
L 216.081483 106.907755 
L 216.231194 105.730448 
L 216.680329 96.885854 
L 217.428887 73.36587 
L 218.177445 45.991162 
L 218.776291 28.562757 
L 219.375137 18.213637 
L 219.674561 16.888136 
L 219.824272 16.865712 
L 219.973984 17.61617 
L 220.722542 27.676241 
L 221.4711 49.77617 
L 222.818504 95.225657 
L 223.267638 98.146209 
L 223.41735 98.325194 
L 223.567062 97.799108 
L 223.716773 96.202368 
L 224.315619 82.47208 
L 224.764754 64.900293 
L 225.213889 40.4554 
L 225.962447 22.200314 
L 226.711005 16.222735 
L 227.160139 18.859825 
L 227.459563 24.712246 
L 227.758986 32.280962 
L 228.956678 80.113869 
L 229.256102 85.165463 
L 229.555525 87.35082 
L 230.154371 88.388449 
L 230.304083 88.052905 
L 230.603506 83.03396 
L 231.05264 67.76088 
L 231.352064 54.979585 
L 231.95091 36.27259 
L 232.549756 28.634569 
L 232.849179 26.115973 
L 232.998891 25.823673 
L 233.148603 25.877171 
L 233.448026 28.557575 
L 233.747449 35.098556 
L 235.094853 77.905216 
L 235.394276 82.437074 
L 235.543988 83.027279 
L 235.693699 82.918591 
L 235.843411 82.54006 
L 236.142834 79.305575 
L 236.442257 72.191966 
L 237.340527 40.710914 
L 237.63995 35.156437 
L 237.939373 33.3063 
L 238.238796 32.122792 
L 238.538219 30.437966 
L 238.687931 30.307112 
L 238.837642 30.903923 
L 238.987354 32.712264 
L 240.334758 68.008846 
L 240.634181 69.705873 
L 240.783893 69.554427 
L 240.933605 69.204421 
L 241.233028 67.315283 
L 241.532451 60.161414 
L 241.831874 51.599253 
L 242.730143 38.366844 
L 243.179278 34.358978 
L 243.32899 34.003247 
L 243.478701 34.186896 
L 243.628413 34.721674 
L 243.927836 37.069268 
L 244.676394 52.876821 
L 244.975817 58.288504 
L 245.27524 60.7256 
L 245.424952 60.980976 
L 245.574663 60.902182 
L 246.023798 59.751883 
L 246.17351 59.131902 
L 246.472933 56.24254 
L 247.071779 48.111812 
L 247.520914 43.479833 
L 247.820337 41.961796 
L 248.11976 43.738234 
L 248.568895 49.480426 
L 248.868318 49.998701 
L 249.616876 54.612119 
L 249.766588 55.135691 
L 250.066011 55.041879 
L 250.365434 53.550854 
L 250.515145 53.561417 
L 250.664857 52.971669 
L 250.814569 52.987508 
L 250.96428 53.172584 
L 251.263703 52.638612 
L 252.012261 47.679628 
L 252.311684 46.764793 
L 252.461396 46.773207 
L 252.760819 47.499234 
L 252.910531 47.809487 
L 253.060242 47.499404 
L 253.209954 48.015925 
L 253.8088 45.321841 
L 253.958512 45.583403 
L 254.257935 45.179302 
L 254.407646 45.268019 
L 254.557358 45.646827 
L 255.455628 52.310014 
L 255.755051 53.651147 
L 255.904762 53.478226 
L 256.054474 53.837801 
L 256.204185 53.046093 
L 256.353897 53.058608 
L 256.503609 52.948773 
L 257.851013 42.923295 
L 258.000724 42.558507 
L 258.150436 43.293975 
L 258.300147 43.452862 
L 258.749282 47.299559 
L 259.348129 55.453499 
L 259.946975 59.219208 
L 260.096686 59.557634 
L 260.545821 56.788822 
L 260.845244 52.453545 
L 261.743514 35.255178 
L 261.893225 34.535318 
L 262.192649 35.395506 
L 262.641783 38.094219 
L 262.941206 44.887832 
L 263.390341 55.855381 
L 263.689764 59.648836 
L 263.839476 59.971894 
L 263.989187 59.712076 
L 264.138899 58.815823 
L 264.438322 54.392789 
L 264.737745 44.398842 
L 265.18688 32.126817 
L 265.486303 28.646087 
L 265.785726 27.745192 
L 265.935438 28.152474 
L 266.08515 30.119318 
L 266.384573 42.8693 
L 266.833707 65.1941 
L 267.133131 68.609569 
L 267.432554 68.995116 
L 267.731977 66.09088 
L 268.181112 49.988765 
L 268.480535 36.20888 
L 268.779958 26.867561 
L 269.079381 23.334873 
L 269.229093 23.50672 
L 269.528516 25.266745 
L 269.678227 27.089528 
L 269.827939 30.521821 
L 270.426785 63.450524 
L 270.726208 69.749155 
L 270.87592 70.511993 
L 271.025632 69.974962 
L 271.175343 68.781563 
L 271.624478 49.311885 
L 271.923901 30.339071 
L 272.373036 18.795482 
L 272.522747 18.358122 
L 272.672459 18.460464 
L 272.971882 25.422691 
L 273.271305 39.829894 
L 273.72044 67.468811 
L 273.870152 73.053683 
L 274.019863 74.244364 
L 274.319286 72.377291 
L 274.468998 69.099029 
L 275.217556 27.731183 
L 275.516979 20.659027 
L 275.66669 19.855898 
L 275.816402 20.323971 
L 275.966114 22.195305 
L 276.415248 40.306681 
L 276.864383 68.092282 
L 277.014095 75.510601 
L 277.163806 76.519621 
L 277.313518 76.317696 
L 277.463229 75.596251 
L 277.612941 72.882943 
L 278.062076 43.955352 
L 278.51121 20.040861 
L 278.810634 14.845101 
L 278.960345 14.446569 
L 279.110057 14.948231 
L 279.40948 20.463977 
L 279.559191 26.746797 
L 280.158038 70.753968 
L 280.457461 75.136008 
L 280.607172 74.297203 
L 280.756884 68.134495 
L 281.206019 38.643511 
L 281.505442 25.197102 
L 281.804865 20.581027 
L 281.954577 21.275756 
L 282.254 28.956933 
L 282.553423 50.217319 
L 282.852846 70.687312 
L 283.152269 79.25517 
L 283.301981 80.307395 
L 283.451692 79.710027 
L 283.601404 76.180429 
L 284.349962 32.899802 
L 284.799097 21.457163 
L 284.948808 20.472768 
L 285.09852 21.469997 
L 285.248231 24.11446 
L 285.547655 35.805151 
L 285.996789 71.268606 
L 286.296212 77.845885 
L 286.445924 77.575778 
L 286.595636 76.460083 
L 286.745347 72.376883 
L 287.344193 36.862473 
L 287.643617 26.222823 
L 287.94304 23.893331 
L 288.092751 25.292185 
L 288.392175 33.05067 
L 289.140732 72.323771 
L 289.290444 74.517941 
L 289.440156 74.329565 
L 289.739579 67.241029 
L 290.039002 50.741887 
L 290.338425 39.386033 
L 290.637848 34.259013 
L 290.78756 34.827569 
L 290.937271 36.447825 
L 291.236694 45.512491 
L 291.685829 65.997296 
L 291.985252 72.492445 
L 292.134964 72.940592 
L 292.284676 71.762542 
L 292.434387 68.583489 
L 293.182945 40.136509 
L 293.482368 36.684684 
L 293.63208 36.310915 
L 293.781791 37.45436 
L 293.931503 40.415873 
L 294.829772 68.688568 
L 294.979484 68.751219 
L 295.129195 67.322707 
L 295.428619 61.492274 
L 295.728042 52.304769 
L 296.177177 44.769441 
L 296.4766 47.777411 
L 297.374869 65.741448 
L 297.524581 67.076504 
L 297.674292 67.271228 
L 297.824004 66.934579 
L 297.973715 65.166888 
L 298.572562 52.408698 
L 298.871985 49.931952 
L 299.021696 49.999978 
L 299.32112 52.332172 
L 299.919966 61.520626 
L 300.219389 63.045717 
L 300.518812 62.647369 
L 300.818235 61.117515 
L 301.566793 57.489792 
L 301.716505 57.335663 
L 301.866216 57.612603 
L 302.015928 58.381128 
L 302.315351 60.737284 
L 302.614774 61.405988 
L 302.764486 61.563064 
L 302.914197 61.528231 
L 303.063909 61.714128 
L 303.213621 61.678431 
L 303.662755 60.890641 
L 303.812467 60.924963 
L 304.11189 60.175228 
L 304.261602 60.395872 
L 304.561025 60.364151 
L 304.710736 60.60407 
L 305.01016 61.819922 
L 305.309583 62.966637 
L 305.459294 63.599177 
L 305.609006 63.674826 
L 306.207852 65.517538 
L 306.656987 65.265182 
L 306.806698 65.252938 
L 307.255833 62.937505 
L 308.004391 60.342596 
L 308.154103 60.806924 
L 308.453526 63.753856 
L 308.752949 66.597103 
L 308.902661 67.022538 
L 309.052372 67.022624 
L 309.202084 67.407605 
L 309.351795 67.08785 
L 309.501507 65.943693 
L 309.950642 60.565328 
L 310.250065 59.489407 
L 310.549488 60.693146 
L 310.6992 62.495243 
L 310.998623 67.707673 
L 311.298046 70.193859 
L 311.447757 70.676485 
L 311.597469 70.677227 
L 311.747181 70.21864 
L 312.046604 67.369678 
L 312.495738 60.715832 
L 312.795162 59.214242 
L 312.944873 59.662879 
L 313.094585 61.627916 
L 313.693431 74.109231 
L 313.843143 75.194916 
L 313.992854 74.837046 
L 314.142566 73.771789 
L 314.441989 67.652207 
L 314.891124 58.843092 
L 315.040835 57.669163 
L 315.190547 57.430663 
L 315.340258 58.536827 
L 316.088816 77.369256 
L 316.238528 78.027979 
L 316.388239 77.186752 
L 316.837374 66.753743 
L 317.136797 58.484958 
L 317.43622 55.929132 
L 317.585932 57.08792 
L 317.735644 59.417792 
L 318.184778 75.546948 
L 318.33449 79.69467 
L 318.484202 79.763847 
L 318.783625 75.847682 
L 319.532183 57.870115 
L 319.681894 58.23934 
L 319.831606 60.981368 
L 320.580164 82.987115 
L 320.729875 82.74037 
L 320.879587 81.537469 
L 321.029298 78.961265 
L 321.478433 63.042342 
L 321.628145 60.56463 
L 321.777856 60.437127 
L 321.927568 62.183804 
L 322.376703 75.936218 
L 322.526414 84.790747 
L 322.825837 87.535573 
L 322.975549 86.733522 
L 323.12526 84.35463 
L 323.574395 71.216383 
L 323.873818 64.562398 
L 324.02353 63.86495 
L 324.173241 64.816042 
L 324.322953 67.315628 
L 324.772088 82.416608 
L 324.921799 85.514039 
L 325.071511 85.443712 
L 325.370934 80.963936 
L 325.520646 78.48714 
L 325.820069 69.566957 
L 326.119492 67.187819 
L 326.269204 67.01216 
L 326.418915 68.211717 
L 326.568627 70.588323 
L 327.167473 85.488109 
L 327.466896 86.993932 
L 327.616608 85.478737 
L 328.065742 71.812676 
L 328.365166 68.99302 
L 328.514877 69.262008 
L 328.664589 69.885801 
L 328.8143 71.37972 
L 329.562858 86.605389 
L 329.71257 86.633928 
L 330.011993 81.881877 
L 330.311416 73.905295 
L 330.610839 70.545398 
L 330.760551 69.568398 
L 330.910262 70.244506 
L 331.65882 83.418541 
L 331.808532 83.056806 
L 332.257667 77.829994 
L 332.55709 72.930404 
L 332.856513 70.657853 
L 333.006225 71.224885 
L 333.305648 74.566205 
L 333.754782 82.761314 
L 333.904494 82.516682 
L 334.203917 80.203269 
L 334.50334 75.293382 
L 334.653052 73.514298 
L 334.952475 73.080591 
L 335.102187 73.431152 
L 335.40161 76.689533 
L 335.701033 79.770199 
L 336.000456 80.314248 
L 336.898726 77.253436 
L 337.048437 77.20856 
L 337.647283 80.955596 
L 337.796995 80.803499 
L 338.395841 78.305048 
L 338.695264 78.774373 
L 339.443822 82.65645 
L 339.892957 86.083823 
L 340.19238 87.099046 
L 340.342092 87.376858 
L 341.09065 90.375778 
L 341.240361 90.54036 
L 341.689496 91.387804 
L 341.839208 91.544835 
L 342.138631 92.106222 
L 343.186612 93.855879 
L 343.486035 93.199641 
L 343.785458 92.691558 
L 343.93517 92.773524 
L 344.234593 93.287546 
L 344.384304 93.252952 
L 344.534016 93.679626 
L 344.833439 93.793226 
L 344.983151 93.96122 
L 345.432285 91.962157 
L 346.180843 90.530373 
L 346.929401 93.785111 
L 347.079113 93.353682 
L 347.677959 86.073852 
L 347.977382 85.913488 
L 348.127094 86.823379 
L 348.426517 89.586886 
L 348.72594 91.33472 
L 348.875652 91.437205 
L 349.025363 91.113285 
L 349.324786 86.716328 
L 349.62421 83.662558 
L 349.773921 83.781796 
L 349.923633 85.017311 
L 350.672191 95.667296 
L 350.821902 96.20725 
L 350.971614 96.16059 
L 351.271037 92.77344 
L 351.57046 88.743285 
L 351.720172 87.473139 
L 351.869883 87.969968 
L 352.019595 89.642278 
L 352.319018 95.45806 
L 352.46873 96.219414 
L 352.618441 97.777831 
L 352.768153 98.136198 
L 353.217287 93.07694 
L 353.366999 92.234414 
L 353.516711 90.659041 
L 353.666422 90.709114 
L 353.965845 95.004145 
L 354.265268 102.033925 
L 354.41498 102.802284 
L 354.714403 101.984537 
L 355.013826 100.085605 
L 355.163538 98.461021 
L 355.313249 98.153527 
L 355.612673 99.524742 
L 356.061807 106.420233 
L 356.211519 107.207382 
L 356.361231 107.34542 
L 356.510942 107.168156 
L 356.810365 106.022571 
L 356.960077 105.844704 
L 357.109788 106.591961 
L 357.558923 112.176586 
L 357.858346 115.768795 
L 358.008058 116.240656 
L 358.307481 115.413385 
L 358.606904 114.913322 
L 358.756616 115.340941 
L 359.505174 124.168674 
L 359.654885 130.410114 
L 360.10402 133.737065 
L 360.253732 133.962223 
L 360.403443 134.757726 
L 360.553155 134.612435 
L 360.702866 134.228199 
L 360.852578 134.225129 
L 361.002289 135.062115 
L 361.750847 142.750702 
L 362.05027 143.764799 
L 362.05027 143.764799 
" clip-path="url(#pf309c5af25)" style="fill: none; stroke: #0c5da5; stroke-linecap: square"/>
   </g>
   <g id="patch_3">
    <path d="M 42.468452 225.36 
L 42.468452 3.6 
" style="fill: none; stroke: #000000; stroke-width: 0.5; stroke-linejoin: miter; stroke-linecap: square"/>
   </g>
   <g id="patch_4">
    <path d="M 377.268452 225.36 
L 377.268452 3.6 
" style="fill: none; stroke: #000000; stroke-width: 0.5; stroke-linejoin: miter; stroke-linecap: square"/>
   </g>
   <g id="patch_5">
    <path d="M 42.468452 225.36 
L 377.268452 225.36 
" style="fill: none; stroke: #000000; stroke-width: 0.5; stroke-linejoin: miter; stroke-linecap: square"/>
   </g>
   <g id="patch_6">
    <path d="M 42.468452 3.6 
L 377.268452 3.6 
" style="fill: none; stroke: #000000; stroke-width: 0.5; stroke-linejoin: miter; stroke-linecap: square"/>
   </g>
  </g>
 </g>
 <defs>
  <clipPath id="pf309c5af25">
   <rect x="42.468452" y="3.6" width="334.8" height="221.76"/>
  </clipPath>
 </defs>
</svg>
