<?xml version="1.0" encoding="utf-8" standalone="no"?>
<!DOCTYPE svg PUBLIC "-//W3C//DTD SVG 1.1//EN"
  "http://www.w3.org/Graphics/SVG/1.1/DTD/svg11.dtd">
<svg xmlns:xlink="http://www.w3.org/1999/xlink" width="509.4pt" height="118.08pt" viewBox="0 0 509.4 118.08" xmlns="http://www.w3.org/2000/svg" version="1.1">
 <metadata>
  <rdf:RDF xmlns:dc="http://purl.org/dc/elements/1.1/" xmlns:cc="http://creativecommons.org/ns#" xmlns:rdf="http://www.w3.org/1999/02/22-rdf-syntax-ns#">
   <cc:Work>
    <dc:type rdf:resource="http://purl.org/dc/dcmitype/StillImage"/>
    <dc:date>2023-03-18T16:12:49.994402</dc:date>
    <dc:format>image/svg+xml</dc:format>
    <dc:creator>
     <cc:Agent>
      <dc:title>Matplotlib v3.7.0, https://matplotlib.org/</dc:title>
     </cc:Agent>
    </dc:creator>
   </cc:Work>
  </rdf:RDF>
 </metadata>
 <defs>
  <style type="text/css">*{stroke-linejoin: round; stroke-linecap: butt}</style>
 </defs>
 <g id="figure_1">
  <g id="patch_1">
   <path d="M 0 118.08 
L 509.4 118.08 
L 509.4 0 
L 0 0 
z
" style="fill: #ffffff"/>
  </g>
  <g id="axes_1">
   <g id="line2d_1">
    <path d="M 26.427273 109.323456 
L 26.884275 107.234073 
L 27.341278 102.630422 
L 27.79828 95.752674 
L 28.712285 76.710047 
L 30.997297 23.368771 
L 31.4543 16.219996 
L 31.911302 11.305132 
L 32.368305 8.880586 
L 32.825307 9.072845 
L 33.28231 11.871881 
L 33.739312 17.131667 
L 34.653317 33.821826 
L 37.395332 96.885433 
L 37.852334 103.451041 
L 38.309337 107.699739 
L 38.766339 109.409876 
L 39.223342 108.492233 
L 39.680344 104.994684 
L 40.137346 99.099695 
L 41.051351 81.456587 
L 43.336364 27.207478 
L 43.793366 19.171222 
L 44.250369 13.214912 
L 44.707371 9.649288 
L 45.164373 8.660367 
L 45.621376 10.29974 
L 46.078378 14.481883 
L 46.535381 20.988613 
L 47.449386 39.514456 
L 49.734398 93.273154 
L 50.1914 100.773693 
L 50.648403 106.096999 
L 51.105405 108.965358 
L 51.562408 109.229128 
L 52.01941 106.874548 
L 52.476413 102.024456 
L 52.933415 94.93188 
L 53.84742 75.597033 
L 55.67543 31.381725 
L 56.589435 15.607727 
L 57.046437 10.938609 
L 57.50344 8.778931 
L 57.960442 9.241362 
L 58.417445 12.301777 
L 58.874447 17.800516 
L 59.788452 34.853252 
L 62.530467 97.656439 
L 62.987469 103.998241 
L 63.444472 107.994588 
L 63.901474 109.43699 
L 64.358477 108.250198 
L 64.815479 104.496127 
L 65.272482 98.370626 
L 66.186486 80.39064 
L 68.471499 26.298885 
L 68.928501 18.458353 
L 69.385504 12.734958 
L 69.842506 9.427288 
L 70.299509 8.707902 
L 70.756511 10.614331 
L 71.213514 15.047117 
L 71.670516 21.775002 
L 72.584521 40.610682 
L 74.869533 94.132137 
L 75.326536 101.425588 
L 75.783538 106.507797 
L 76.240541 109.113628 
L 76.697543 109.107134 
L 77.154545 106.488655 
L 77.611548 101.394796 
L 78.06855 94.091301 
L 78.982555 74.474892 
L 80.810565 30.40019 
L 81.72457 15.0194 
L 82.181572 10.598603 
L 82.638575 8.704983 
L 83.095577 9.43733 
L 83.55258 12.757438 
L 84.009582 18.492098 
L 84.923587 35.898011 
L 87.665602 98.406157 
L 88.122604 104.520658 
L 88.579607 108.26245 
L 89.036609 109.436322 
L 89.493612 107.981036 
L 89.950614 103.972512 
L 90.407617 97.619875 
L 91.321622 79.312923 
L 93.606634 25.40834 
L 94.063636 17.767855 
L 94.520639 12.28053 
L 94.977641 9.232636 
L 95.434644 8.783182 
L 95.891646 10.955616 
L 96.348649 15.636602 
L 96.805651 22.581934 
L 97.719656 41.717066 
L 100.004668 94.971776 
L 100.461671 102.054118 
L 100.918673 106.892428 
L 101.375676 109.234294 
L 101.832678 108.95754 
L 102.289681 106.076605 
L 102.746683 100.741787 
L 103.660688 83.937262 
L 106.402703 20.951352 
L 106.859705 14.455339 
L 107.316708 10.2853 
L 107.77371 8.658782 
L 108.230713 9.660642 
L 108.687715 13.238613 
L 109.144717 19.206032 
L 110.058722 36.955528 
L 112.343735 91.158646 
L 112.800737 99.134174 
L 113.25774 105.018004 
L 113.714742 108.503178 
L 114.171744 109.407874 
L 114.628747 107.684895 
L 115.085749 103.424129 
L 115.542752 96.847857 
L 116.456757 78.224031 
L 118.741769 24.536335 
L 119.198771 17.100108 
L 119.655774 11.851877 
L 120.112776 9.065441 
L 120.569779 8.886167 
L 121.026781 11.323407 
L 121.483784 16.250013 
L 121.940786 23.408963 
L 122.854791 42.833 
L 124.682801 87.00696 
L 125.596806 102.658936 
L 126.053808 107.250681 
L 126.510811 109.327291 
L 126.967813 108.780429 
L 127.424816 105.638627 
L 127.881818 100.06579 
L 128.795823 82.901605 
L 131.537838 20.186957 
L 131.99484 13.915856 
L 132.451843 9.998872 
L 132.908845 8.640354 
L 133.365848 9.911174 
L 133.82285 13.745035 
L 134.279853 19.941924 
L 135.193857 38.025218 
L 137.47887 92.061649 
L 137.935872 99.84009 
L 138.392875 105.490005 
L 138.849877 108.716639 
L 139.30688 109.35166 
L 139.763882 107.361939 
L 140.220885 102.851278 
L 140.677887 96.054998 
L 141.591892 77.124564 
L 143.876904 23.68335 
L 144.333907 16.455481 
L 144.790909 11.449237 
L 145.247912 8.925794 
L 145.704914 9.016799 
L 146.161916 11.717503 
L 146.618919 16.887012 
L 147.075921 24.255634 
L 147.989926 43.957868 
L 149.817936 87.983617 
L 150.731941 103.23971 
L 151.188943 107.582357 
L 151.645946 109.392566 
L 152.102948 108.575899 
L 152.559951 105.174961 
L 153.016953 99.367177 
L 153.930958 81.852795 
L 156.672973 19.44398 
L 157.129975 13.401248 
L 157.586978 9.739479 
L 158.04398 8.649708 
L 158.500983 10.188789 
L 158.957985 14.276426 
L 159.414988 20.69937 
L 160.328993 39.106493 
L 162.614005 92.946449 
L 163.071007 100.523515 
L 163.52801 105.936401 
L 163.985012 108.902717 
L 164.442015 109.267712 
L 164.899017 107.012345 
L 165.35602 102.254276 
L 165.813022 95.241734 
L 166.727027 76.015128 
L 168.555037 31.753415 
L 169.469042 15.834328 
L 169.926044 11.072832 
L 170.383047 8.813773 
L 170.840049 9.175006 
L 171.297052 12.137685 
L 171.754054 17.547248 
L 172.668059 34.465234 
L 175.410074 97.370051 
L 175.867076 103.796119 
L 176.324079 107.887275 
L 176.781081 109.430086 
L 177.238084 108.344062 
L 177.695086 104.685863 
L 178.152088 98.646335 
L 179.066093 80.791409 
L 181.351106 26.637203 
L 181.808108 18.722831 
L 182.265111 12.911798 
L 182.722113 9.507263 
L 183.179115 8.686841 
L 183.636118 10.493332 
L 184.09312 14.832493 
L 184.550123 21.47795 
L 185.464128 40.198756 
L 187.74914 93.812558 
L 188.206143 101.184072 
L 188.663145 106.356944 
L 189.120147 109.061308 
L 189.57715 109.156076 
L 190.034152 106.636306 
L 190.491155 101.633453 
L 190.948157 94.408514 
L 191.862162 74.896334 
L 193.690172 30.766103 
L 194.604177 15.236992 
L 195.061179 10.722868 
L 195.518182 8.729439 
L 195.975184 9.360701 
L 196.432187 12.583722 
L 196.889189 18.230356 
L 197.803194 35.505065 
L 200.545209 98.127794 
L 201.002211 104.327856 
L 201.459214 108.165266 
L 201.916216 109.439827 
L 202.373219 108.085047 
L 202.830221 104.171603 
L 203.287224 97.903659 
L 204.201229 79.718033 
L 206.486241 25.739838 
L 206.943243 18.023906 
L 207.400246 12.447776 
L 207.857248 9.302352 
L 208.314251 8.75173 
L 208.771253 10.824637 
L 209.228256 15.41293 
L 209.685258 22.277237 
L 210.599263 41.301406 
L 212.884275 94.659499 
L 213.341278 101.821397 
L 213.79828 106.751404 
L 214.255283 109.192324 
L 214.712285 109.016814 
L 215.169287 106.23403 
L 215.62629 100.98915 
L 216.540295 84.321769 
L 219.28231 21.243164 
L 219.739312 14.663803 
L 220.196314 10.39954 
L 220.653317 8.672839 
L 221.110319 9.573782 
L 221.567322 13.055368 
L 222.024324 18.935962 
L 222.938329 36.55787 
L 225.680344 98.863989 
L 226.137346 104.834627 
L 226.594349 108.416176 
L 227.051351 109.421786 
L 227.508354 107.798995 
L 227.965356 103.632464 
L 228.422359 97.13956 
L 229.336364 78.633258 
L 231.621376 24.86083 
L 232.078378 17.347592 
L 232.535381 12.009438 
L 232.992383 9.124858 
L 233.449386 8.844341 
L 233.906388 11.182521 
L 234.363391 16.017415 
L 234.820393 23.096789 
L 235.734398 42.413834 
L 237.562408 86.637054 
L 238.476413 102.435139 
L 238.933415 107.119564 
L 239.390418 109.295694 
L 239.84742 108.850002 
L 240.304423 105.805739 
L 240.761425 100.321723 
L 241.67543 83.291187 
L 244.417445 20.470853 
L 244.874447 14.115076 
L 245.33145 10.103024 
L 245.788452 8.644004 
L 246.245455 9.814131 
L 246.702457 13.552363 
L 247.159459 19.663674 
L 248.073464 37.623068 
L 250.358477 91.725443 
L 250.815479 99.578232 
L 251.272482 105.316155 
L 251.729484 108.639868 
L 252.186486 109.375972 
L 252.643489 107.486065 
L 253.100491 103.068744 
L 253.557494 96.354458 
L 254.471499 77.537682 
L 256.756511 24.000664 
L 257.213514 16.69426 
L 257.670516 11.597025 
L 258.127518 8.974881 
L 258.584521 8.964623 
L 259.041523 11.566786 
L 259.498526 16.645618 
L 259.955528 23.936155 
L 260.869533 43.535427 
L 262.697543 87.619551 
L 263.611548 103.024959 
L 264.06855 107.461219 
L 264.525553 109.371361 
L 264.982555 108.655732 
L 265.439558 105.351667 
L 265.89656 99.631539 
L 266.810565 82.247238 
L 269.55258 19.719803 
L 270.009582 13.591115 
L 270.466585 9.833485 
L 270.923587 8.642949 
L 271.38059 10.081617 
L 271.837592 14.074433 
L 272.294595 20.413093 
L 273.2086 38.700072 
L 275.493612 92.617121 
L 275.950614 100.270128 
L 276.407617 105.772173 
L 276.864619 108.836217 
L 277.321622 109.30241 
L 277.778624 107.146429 
L 278.235627 102.480753 
L 278.692629 95.548787 
L 279.606634 76.431909 
L 281.891646 23.159813 
L 282.348649 16.064272 
L 282.805651 11.210766 
L 283.262654 8.852502 
L 283.719656 9.112508 
L 284.176658 11.977221 
L 284.633661 17.29719 
L 285.547666 34.079117 
L 288.289681 97.080698 
L 288.746683 103.590533 
L 289.203686 107.776183 
L 289.660688 109.419282 
L 290.11769 108.434111 
L 290.574693 104.872067 
L 291.031695 98.918979 
L 291.9457 81.190495 
L 294.230713 26.978029 
L 294.687715 18.990428 
L 295.144717 13.092206 
L 295.60172 9.591071 
L 296.058722 8.669676 
L 296.515725 10.37609 
L 296.972727 14.62129 
L 297.42973 21.183805 
L 298.343735 39.788289 
L 300.628747 93.490289 
L 301.085749 100.939295 
L 301.542752 106.20243 
L 301.999754 109.005117 
L 302.456757 109.201141 
L 302.913759 106.780275 
L 303.370762 101.868815 
L 303.827764 94.722991 
L 304.741769 75.316549 
L 306.569779 31.134205 
L 307.483784 15.457974 
L 307.940786 10.850873 
L 308.397789 8.757788 
L 308.854791 9.287916 
L 309.311794 12.4136 
L 309.768796 17.971773 
L 310.682801 35.11394 
L 313.424816 97.846406 
L 313.881818 104.131548 
L 314.338821 108.06428 
L 314.795823 109.439432 
L 315.252826 108.185263 
L 315.709828 104.367201 
L 316.16683 98.184436 
L 317.080835 80.121542 
L 319.365848 26.073914 
L 319.82285 18.283131 
L 320.279853 12.618627 
L 320.736855 9.375916 
L 321.193857 8.72417 
L 321.65086 10.69739 
L 322.107862 15.192633 
L 322.564865 21.975385 
L 323.47887 40.887118 
L 325.763882 94.344467 
L 326.220885 101.585366 
L 326.677887 106.606689 
L 327.134889 109.146474 
L 327.591892 109.072221 
L 328.048894 106.387803 
L 328.505897 101.233268 
L 328.962899 93.877524 
L 329.876904 74.192217 
L 331.704914 30.156576 
L 332.618919 14.8757 
L 333.075921 10.517544 
L 333.532924 8.690793 
L 333.989926 9.49075 
L 334.446929 12.875681 
L 334.903931 18.668994 
L 335.817936 36.161951 
L 338.559951 98.590722 
L 339.016953 104.647707 
L 339.473956 108.325353 
L 339.930958 109.431799 
L 340.387961 107.909322 
L 340.844963 103.837349 
L 341.301966 97.428314 
L 342.215971 79.040968 
L 344.500983 25.187971 
L 344.957985 17.598302 
L 345.414988 12.170638 
L 345.87199 9.188138 
L 346.328993 8.8064 
L 346.785995 11.045338 
L 347.242998 15.788147 
L 347.7 22.787397 
L 348.614005 41.995954 
L 350.442015 86.265014 
L 351.35602 102.207984 
L 351.813022 106.984726 
L 352.270025 109.260209 
L 352.727027 108.91572 
L 353.184029 105.969232 
L 353.641032 100.574461 
L 354.555037 83.678893 
L 357.297052 20.757732 
L 357.754054 14.317773 
L 358.211057 10.210963 
L 358.668059 8.651553 
L 359.125061 9.720898 
L 359.582064 13.36321 
L 360.039066 19.388471 
L 360.953071 37.222575 
L 363.238084 91.386708 
L 363.695086 99.313236 
L 364.152088 105.138724 
L 364.609091 108.559258 
L 365.066093 109.396388 
L 365.523096 107.606443 
L 365.980098 103.282803 
L 366.437101 96.651031 
L 367.351106 77.949368 
L 369.636118 24.320689 
L 370.09312 16.936317 
L 370.550123 11.748485 
L 371.007125 9.027841 
L 371.464128 8.916322 
L 371.92113 11.419743 
L 372.378133 16.407504 
L 372.835135 23.619393 
L 373.74914 43.114186 
L 375.57715 87.253273 
L 376.491155 102.806805 
L 376.948157 107.336334 
L 377.40516 109.34626 
L 377.862162 108.731726 
L 378.319165 105.52479 
L 378.776167 99.892759 
L 379.690172 82.639885 
L 382.432187 19.998668 
L 382.889189 13.784498 
L 383.346192 9.931298 
L 383.803194 8.640089 
L 384.260197 9.978233 
L 384.717199 13.875919 
L 385.174201 20.129805 
L 386.088206 38.295225 
L 388.373219 92.285194 
L 388.830221 100.01355 
L 389.287224 105.60433 
L 389.744226 108.765865 
L 390.201229 109.333218 
L 390.658231 107.276791 
L 391.115233 102.703868 
L 391.572236 95.853015 
L 392.486241 76.847345 
L 394.771253 23.472547 
L 395.228256 16.297541 
L 395.685258 11.352401 
L 396.14226 8.895114 
L 396.599263 9.053874 
L 397.056265 11.8204 
L 397.513268 17.050362 
L 398.427273 33.694932 
L 401.169287 96.788401 
L 401.62629 103.3815 
L 402.083292 107.661319 
L 402.540295 109.40458 
L 402.997297 108.520339 
L 403.4543 105.054724 
L 403.911302 99.188537 
L 404.825307 81.587868 
L 407.567322 19.261125 
L 408.024324 13.276171 
L 408.481327 9.678706 
L 408.938329 8.656409 
L 409.395332 10.262614 
L 409.852334 14.413524 
L 410.309337 20.892589 
L 411.223342 39.379311 
L 413.508354 93.165354 
L 413.965356 100.691277 
L 414.422359 106.044267 
L 414.879361 108.94506 
L 415.336364 109.242324 
L 415.793366 106.920549 
L 416.250369 102.100863 
L 416.707371 95.034706 
L 417.621376 75.735505 
L 419.449386 31.504465 
L 420.363391 15.682328 
L 420.820393 10.982606 
L 421.277396 8.790028 
L 421.734398 9.218981 
L 422.1914 12.247086 
L 422.648403 17.716367 
L 423.562408 34.724666 
L 426.304423 97.562016 
L 426.761425 103.931752 
L 427.218428 107.959502 
L 427.67543 109.435137 
L 428.132432 108.281676 
L 428.589435 104.559292 
L 429.046437 98.462183 
L 429.960442 80.52342 
L 432.245455 26.41054 
L 432.702457 18.54551 
L 433.159459 12.79307 
L 433.616462 9.453323 
L 434.073464 8.700502 
L 434.530467 10.573883 
L 434.987469 14.97573 
L 435.444472 21.676401 
L 436.358477 40.474235 
L 438.643489 94.026702 
L 439.100491 101.346043 
L 439.557494 106.458293 
L 440.014496 109.096746 
L 440.471499 109.123756 
L 440.928501 106.537913 
L 441.385504 101.47412 
L 441.842506 94.196554 
L 442.756511 74.614462 
L 444.584521 30.52101 
L 445.498526 15.091015 
L 445.955528 10.639302 
L 446.412531 8.712643 
L 446.869533 9.411552 
L 447.326536 12.699566 
L 447.783538 18.405151 
L 448.697543 35.767803 
L 451.439558 98.314395 
L 451.89656 104.457257 
L 452.353563 108.230717 
L 452.810565 109.437914 
L 453.267568 108.015868 
L 453.72457 104.038768 
L 454.181572 97.714098 
L 455.095577 79.447131 
L 457.38059 25.517731 
L 457.837592 17.852218 
L 458.294595 12.335464 
L 458.751597 9.255276 
L 459.2086 8.772346 
L 459.665602 10.911869 
L 460.122604 15.562226 
L 460.579607 22.48081 
L 461.493612 41.579393 
L 463.778624 94.868764 
L 464.235627 101.977489 
L 464.692629 106.846179 
L 465.149631 109.220838 
L 465.606634 108.977579 
L 466.063636 106.129094 
L 466.520639 100.823986 
L 467.434644 84.064692 
L 470.176658 21.047574 
L 470.633661 14.52393 
L 471.090663 10.322679 
L 471.547666 8.663001 
L 472.004668 9.631481 
L 472.461671 13.177592 
L 472.918673 19.116336 
L 473.832678 36.82377 
L 476.11769 91.04547 
L 476.574693 99.045125 
L 477.031695 104.957726 
L 477.488698 108.474816 
L 477.9457 109.412908 
L 478.402703 107.723063 
L 478.859705 103.493438 
L 479.316708 96.944694 
L 480.230713 78.359592 
L 482.515725 24.643401 
L 482.972727 17.181631 
L 482.972727 17.181631 
" clip-path="url(#pb781d0d12a)" style="fill: none; stroke: #ffff00; stroke-opacity: 0.2; stroke-linecap: square"/>
   </g>
   <g id="line2d_2">
    <path d="M 26.427273 31.129763 
L 27.79828 66.014034 
L 28.712285 88.431789 
L 29.169287 97.38383 
L 29.62629 104.10303 
L 30.083292 108.198114 
L 30.540295 109.430615 
L 30.997297 107.728764 
L 31.4543 103.191662 
L 31.911302 96.083515 
L 32.825307 75.935392 
L 34.653317 29.519724 
L 35.110319 20.593616 
L 35.567322 13.90633 
L 36.024324 9.847281 
L 36.481327 8.652835 
L 36.938329 10.392549 
L 37.395332 14.965114 
L 37.852334 22.104261 
L 38.766339 42.294136 
L 40.594349 88.688713 
L 41.051351 97.588797 
L 41.508354 104.244104 
L 41.965356 108.26708 
L 42.422359 109.423457 
L 42.879361 107.645899 
L 43.336364 103.037915 
L 43.793366 95.867839 
L 44.707371 75.636411 
L 46.535381 29.263385 
L 46.992383 20.389411 
L 47.449386 13.76615 
L 47.906388 9.779288 
L 48.363391 8.66099 
L 48.820393 10.476376 
L 49.277396 15.119732 
L 49.734398 22.320666 
L 50.648403 42.593446 
L 52.476413 88.944464 
L 52.933415 97.79224 
L 53.390418 104.38339 
L 53.84742 108.334098 
L 54.304423 109.414306 
L 54.761425 107.561111 
L 55.218428 102.882427 
L 55.67543 95.650707 
L 56.589435 75.336774 
L 58.417445 29.008223 
L 58.874447 20.186734 
L 59.33145 13.62776 
L 59.788452 9.713244 
L 60.245455 8.671137 
L 60.702457 10.562124 
L 61.159459 15.276088 
L 61.616462 22.538524 
L 62.530467 42.893407 
L 64.358477 89.199033 
L 64.815479 97.994149 
L 65.272482 104.520882 
L 65.729484 108.399167 
L 66.186486 109.403162 
L 66.643489 107.474403 
L 67.100491 102.725206 
L 67.557494 95.432126 
L 68.471499 75.036492 
L 70.299509 28.75425 
L 70.756511 19.985595 
L 71.213514 13.491167 
L 71.670516 9.649151 
L 72.127518 8.683277 
L 72.584521 10.64979 
L 73.041523 15.434174 
L 73.498526 22.757826 
L 74.412531 43.194007 
L 76.240541 89.452408 
L 76.697543 98.194517 
L 77.154545 104.656575 
L 77.611548 108.462283 
L 78.06855 109.390026 
L 78.525553 107.38578 
L 78.982555 102.566256 
L 79.439558 95.212105 
L 80.353563 74.735578 
L 82.181572 28.501475 
L 82.638575 19.786 
L 83.095577 13.356375 
L 83.55258 9.587012 
L 84.009582 8.697409 
L 84.466585 10.73937 
L 84.923587 15.593986 
L 85.38059 22.978563 
L 86.294595 43.495234 
L 88.122604 89.704581 
L 88.579607 98.393336 
L 89.036609 104.790464 
L 89.493612 108.523444 
L 89.950614 109.374899 
L 90.407617 107.295244 
L 90.864619 102.405584 
L 91.321622 94.990654 
L 92.235627 74.434042 
L 94.063636 28.249908 
L 94.520639 19.587958 
L 94.977641 13.223391 
L 95.434644 9.526829 
L 95.891646 8.713532 
L 96.348649 10.83086 
L 96.805651 15.755516 
L 97.262654 23.200726 
L 98.176658 43.797075 
L 100.004668 89.95554 
L 100.461671 98.590599 
L 100.918673 104.922543 
L 101.375676 108.582648 
L 101.832678 109.35778 
L 102.289681 107.2028 
L 102.746683 102.243197 
L 103.203686 94.76778 
L 104.11769 74.131898 
L 105.9457 27.999559 
L 106.402703 19.391477 
L 106.859705 13.092219 
L 107.316708 9.468605 
L 107.77371 8.731647 
L 108.230713 10.924258 
L 108.687715 15.918758 
L 109.144717 23.424307 
L 110.058722 44.099519 
L 111.886732 90.205277 
L 112.343735 98.786297 
L 112.800737 105.052806 
L 113.25774 108.639892 
L 113.714742 109.33867 
L 114.171744 107.10845 
L 114.628747 102.079101 
L 115.085749 94.543494 
L 115.999754 73.829157 
L 117.827764 27.750437 
L 118.284767 19.196564 
L 118.741769 12.962864 
L 119.198771 9.412342 
L 119.655774 8.751751 
L 120.112776 11.019559 
L 120.569779 16.083707 
L 121.026781 23.649297 
L 121.940786 44.402555 
L 123.768796 90.45378 
L 124.225799 98.980423 
L 124.682801 105.18125 
L 125.139803 108.695174 
L 125.596806 109.317572 
L 126.053808 107.012199 
L 126.510811 101.913302 
L 126.967813 94.317802 
L 127.881818 73.52583 
L 129.709828 27.502554 
L 130.16683 19.003227 
L 130.623833 12.835333 
L 131.080835 9.358042 
L 131.537838 8.773844 
L 131.99484 11.116759 
L 132.451843 16.250354 
L 132.908845 23.875687 
L 133.82285 44.706169 
L 135.65086 90.701041 
L 136.107862 99.172969 
L 136.564865 105.307869 
L 137.021867 108.748492 
L 137.47887 109.294484 
L 137.935872 106.91405 
L 138.392875 101.745808 
L 138.849877 94.090716 
L 139.763882 73.221931 
L 141.591892 27.255918 
L 142.048894 18.811474 
L 142.505897 12.709629 
L 142.962899 9.305707 
L 143.419902 8.797926 
L 143.876904 11.215856 
L 144.333907 16.418694 
L 144.790909 24.103468 
L 145.704914 45.010351 
L 147.532924 90.94705 
L 147.989926 99.363927 
L 148.446929 105.432657 
L 148.903931 108.799843 
L 149.360934 109.269408 
L 149.817936 106.814007 
L 150.274939 101.576624 
L 150.731941 93.862243 
L 151.645946 72.91747 
L 153.473956 27.010539 
L 153.930958 18.621312 
L 154.387961 12.585757 
L 154.844963 9.255339 
L 155.301966 8.823996 
L 155.758968 11.316844 
L 156.215971 16.58872 
L 156.672973 24.332632 
L 157.586978 45.315087 
L 159.414988 91.191796 
L 159.87199 99.55329 
L 160.328993 105.55561 
L 160.785995 108.849226 
L 161.242998 109.242345 
L 161.7 106.712074 
L 162.157002 101.405757 
L 162.614005 93.632392 
L 163.52801 72.612461 
L 165.35602 26.766427 
L 165.813022 18.432749 
L 166.270025 12.463724 
L 166.727027 9.206941 
L 167.184029 8.852051 
L 167.641032 11.41972 
L 168.098034 16.760425 
L 168.555037 24.563167 
L 169.469042 45.620366 
L 171.297052 91.435271 
L 171.754054 99.741051 
L 172.211057 105.676723 
L 172.668059 108.896639 
L 173.125061 109.213297 
L 173.582064 106.608256 
L 174.039066 101.233215 
L 174.496069 93.401173 
L 175.410074 72.306915 
L 177.238084 26.523592 
L 177.695086 18.245792 
L 178.152088 12.343533 
L 178.609091 9.160514 
L 179.066093 8.882092 
L 179.523096 11.524479 
L 179.980098 16.933803 
L 180.437101 24.795067 
L 181.351106 45.926177 
L 183.179115 91.677464 
L 183.636118 99.927202 
L 184.09312 105.795991 
L 184.550123 108.94208 
L 185.007125 109.182263 
L 185.464128 106.502556 
L 185.92113 101.059003 
L 186.378133 93.168595 
L 187.292138 72.000844 
L 189.120147 26.282043 
L 189.57715 18.060449 
L 190.034152 12.225188 
L 190.491155 9.116061 
L 190.948157 8.914118 
L 191.40516 11.631118 
L 191.862162 17.108847 
L 192.319165 25.028322 
L 193.23317 46.232505 
L 195.061179 91.918366 
L 195.518182 100.111735 
L 195.975184 105.91341 
L 196.432187 108.985546 
L 196.889189 109.149247 
L 197.346192 106.394979 
L 197.803194 100.88313 
L 198.260197 92.934666 
L 199.174201 71.69426 
L 201.002211 26.04179 
L 201.459214 17.876728 
L 201.916216 12.108696 
L 202.373219 9.073582 
L 202.830221 8.948126 
L 203.287224 11.739633 
L 203.744226 17.285549 
L 204.201229 25.262922 
L 205.115233 46.539341 
L 206.943243 92.157968 
L 207.400246 100.294644 
L 207.857248 106.028974 
L 208.314251 109.027037 
L 208.771253 109.114248 
L 209.228256 106.285528 
L 209.685258 100.705601 
L 210.14226 92.699397 
L 211.056265 71.387175 
L 212.884275 25.802843 
L 213.341278 17.694634 
L 213.79828 11.994061 
L 214.255283 9.03308 
L 214.712285 8.984115 
L 215.169287 11.850019 
L 215.62629 17.463902 
L 216.540295 35.486991 
L 218.825307 92.396259 
L 219.28231 100.47592 
L 219.739312 106.14268 
L 220.196314 109.06655 
L 220.653317 109.077268 
L 221.110319 106.174209 
L 221.567322 100.526424 
L 222.481327 82.45289 
L 224.766339 25.56521 
L 225.223342 17.514176 
L 225.680344 11.881286 
L 226.137346 8.994555 
L 226.594349 9.022085 
L 227.051351 11.962271 
L 227.508354 17.643901 
L 228.422359 35.767702 
L 230.707371 92.633231 
L 231.164373 100.655558 
L 231.621376 106.254523 
L 232.078378 109.104085 
L 232.535381 109.038309 
L 232.992383 106.061025 
L 233.449386 100.345606 
L 234.363391 82.171718 
L 236.648403 25.328901 
L 237.105405 17.335361 
L 237.562408 11.770377 
L 238.01941 8.958011 
L 238.476413 9.062033 
L 238.933415 12.076386 
L 239.390418 17.825537 
L 240.304423 36.049333 
L 242.589435 92.868874 
L 243.046437 100.833549 
L 243.50344 106.364497 
L 243.960442 109.139639 
L 244.417445 108.997372 
L 244.874447 105.945981 
L 245.33145 100.163154 
L 246.245455 81.88963 
L 248.530467 25.093926 
L 248.987469 17.158195 
L 249.444472 11.661337 
L 249.901474 8.923447 
L 250.358477 9.103958 
L 250.815479 12.192358 
L 251.272482 18.008803 
L 252.186486 36.331874 
L 254.471499 93.103179 
L 254.928501 101.009887 
L 255.385504 106.4726 
L 255.842506 109.173212 
L 256.299509 108.954459 
L 256.756511 105.829081 
L 257.213514 99.979075 
L 258.127518 81.606639 
L 260.412531 24.860294 
L 260.869533 16.982686 
L 261.326536 11.554172 
L 261.783538 8.890866 
L 262.240541 9.147859 
L 262.697543 12.310184 
L 263.154545 18.193692 
L 264.06855 36.615313 
L 266.353563 93.336137 
L 266.810565 101.184565 
L 267.267568 106.578827 
L 267.72457 109.204801 
L 268.181572 108.909571 
L 268.638575 105.710331 
L 269.095577 99.793377 
L 270.009582 81.322755 
L 272.294595 24.628013 
L 272.751597 16.808841 
L 273.2086 11.448886 
L 273.665602 8.860269 
L 274.122604 9.193733 
L 274.579607 12.429858 
L 275.036609 18.380198 
L 275.950614 36.899639 
L 278.235627 93.567738 
L 278.692629 101.357576 
L 279.149631 106.683173 
L 279.606634 109.234406 
L 280.063636 108.862711 
L 280.520639 105.589734 
L 280.977641 99.606067 
L 281.891646 81.037989 
L 284.176658 24.397094 
L 284.633661 16.636666 
L 285.090663 11.345481 
L 285.547666 8.831657 
L 286.004668 9.241579 
L 286.461671 12.551376 
L 286.918673 18.568311 
L 287.832678 37.184841 
L 290.11769 93.797973 
L 290.574693 101.528913 
L 291.031695 106.785634 
L 291.488698 109.262025 
L 291.9457 108.81388 
L 292.402703 105.467296 
L 292.859705 99.417152 
L 293.77371 80.752354 
L 296.058722 24.167546 
L 296.515725 16.466169 
L 296.972727 11.243964 
L 297.42973 8.805031 
L 297.886732 9.291394 
L 298.343735 12.674732 
L 298.800737 18.758026 
L 299.714742 37.470908 
L 301.999754 94.026833 
L 302.456757 101.698569 
L 302.913759 106.886207 
L 303.370762 109.287657 
L 303.827764 108.76308 
L 304.284767 105.343022 
L 304.741769 99.22664 
L 305.655774 80.465859 
L 307.940786 23.939376 
L 308.397789 16.297356 
L 308.854791 11.144337 
L 309.311794 8.780392 
L 309.768796 9.343178 
L 310.225799 12.799923 
L 310.682801 18.949334 
L 311.596806 37.757827 
L 313.881818 94.254309 
L 314.338821 101.866538 
L 314.795823 106.984886 
L 315.252826 109.311302 
L 315.709828 108.710313 
L 316.16683 105.216915 
L 316.623833 99.034538 
L 317.537838 80.178517 
L 319.82285 23.712596 
L 320.279853 16.130233 
L 320.736855 11.046605 
L 321.193857 8.757741 
L 321.65086 9.396928 
L 322.107862 12.926943 
L 322.564865 19.142227 
L 323.47887 38.045589 
L 325.763882 94.480392 
L 326.220885 102.032812 
L 326.677887 107.08167 
L 327.134889 109.332959 
L 327.591892 108.655581 
L 328.048894 105.088983 
L 328.505897 98.840854 
L 329.419902 79.890339 
L 331.704914 23.487212 
L 332.161916 15.964808 
L 332.618919 10.950771 
L 333.075921 8.73708 
L 333.532924 9.452641 
L 333.989926 13.055788 
L 334.446929 19.3367 
L 335.360934 38.334181 
L 337.645946 94.705073 
L 338.102948 102.197386 
L 338.559951 107.176553 
L 339.016953 109.352626 
L 339.473956 108.598887 
L 339.930958 104.959228 
L 340.387961 98.645595 
L 341.301966 79.601336 
L 343.586978 23.263235 
L 344.04398 15.801087 
L 344.500983 10.85684 
L 344.957985 8.718408 
L 345.414988 9.510316 
L 345.87199 13.186451 
L 346.328993 19.532742 
L 347.242998 38.623592 
L 349.52801 94.928343 
L 349.985012 102.360253 
L 350.442015 107.269532 
L 350.899017 109.370302 
L 351.35602 108.540232 
L 351.813022 104.827658 
L 352.270025 98.44877 
L 353.184029 79.311519 
L 355.469042 23.040674 
L 355.926044 15.639077 
L 356.383047 10.764815 
L 356.840049 8.701726 
L 357.297052 9.56995 
L 357.754054 13.318928 
L 358.211057 19.730348 
L 359.125061 38.913811 
L 361.410074 95.150194 
L 361.867076 102.521406 
L 362.324079 107.360603 
L 362.781081 109.385988 
L 363.238084 108.479619 
L 363.695086 104.694276 
L 364.152088 98.250386 
L 365.066093 79.020901 
L 367.351106 22.819536 
L 367.808108 15.478783 
L 368.265111 10.674699 
L 368.722113 8.687036 
L 369.179115 9.631541 
L 369.636118 13.453213 
L 370.09312 19.929508 
L 371.007125 39.204826 
L 373.292138 95.370616 
L 373.74914 102.680839 
L 374.206143 107.449762 
L 374.663145 109.399682 
L 375.120147 108.41705 
L 375.57715 104.559088 
L 376.034152 98.050452 
L 376.948157 78.729492 
L 379.23317 22.599831 
L 379.690172 15.320212 
L 380.147174 10.586496 
L 380.604177 8.674338 
L 381.061179 9.695087 
L 381.518182 13.589302 
L 381.975184 20.130216 
L 382.889189 39.496626 
L 385.174201 95.589602 
L 385.631204 102.838545 
L 386.088206 107.537007 
L 386.545209 109.411384 
L 387.002211 108.352529 
L 387.459214 104.422099 
L 387.916216 97.848973 
L 388.830221 78.437305 
L 391.115233 22.381568 
L 391.572236 15.163371 
L 392.029238 10.50021 
L 392.486241 8.663632 
L 392.943243 9.760585 
L 393.400246 13.727189 
L 393.857248 20.332462 
L 394.771253 39.789198 
L 397.056265 95.807141 
L 397.513268 102.99452 
L 397.97027 107.622333 
L 398.427273 109.421094 
L 398.884275 108.286056 
L 399.341278 104.283315 
L 399.79828 97.64596 
L 400.712285 78.14435 
L 402.997297 22.164755 
L 403.4543 15.008266 
L 403.911302 10.415845 
L 404.368305 8.654919 
L 404.825307 9.828031 
L 405.28231 13.866869 
L 405.739312 20.53624 
L 406.653317 40.082532 
L 408.938329 96.023226 
L 409.395332 103.148755 
L 409.852334 107.705738 
L 410.309337 109.428811 
L 410.766339 108.217635 
L 411.223342 104.142742 
L 411.680344 97.44142 
L 412.594349 77.850639 
L 414.879361 21.9494 
L 415.336364 14.854902 
L 415.793366 10.333402 
L 416.250369 8.648199 
L 416.707371 9.897425 
L 417.164373 14.008335 
L 417.621376 20.741541 
L 418.535381 40.376616 
L 420.363391 87.008341 
L 421.277396 103.301246 
L 421.734398 107.787217 
L 422.1914 109.434534 
L 422.648403 108.14727 
L 423.105405 104.000384 
L 423.562408 97.23536 
L 424.476413 77.556184 
L 426.304423 30.940066 
L 427.218428 14.703286 
L 427.67543 10.252887 
L 428.132432 8.643473 
L 428.589435 9.968763 
L 429.046437 14.151582 
L 429.50344 20.948357 
L 430.417445 40.671439 
L 432.245455 87.27149 
L 433.159459 103.451985 
L 433.616462 107.866768 
L 434.073464 109.438264 
L 434.530467 108.074961 
L 434.987469 103.856248 
L 435.444472 97.02779 
L 436.358477 77.260997 
L 438.186486 30.677474 
L 439.100491 14.553424 
L 439.557494 10.174301 
L 440.014496 8.640739 
L 440.471499 10.042041 
L 440.928501 14.296606 
L 441.385504 21.15668 
L 442.299509 40.966988 
L 444.127518 87.533522 
L 445.041523 103.600968 
L 445.498526 107.944387 
L 445.955528 109.44 
L 446.412531 108.000713 
L 446.869533 103.710339 
L 447.326536 96.818717 
L 448.240541 76.965089 
L 450.06855 30.416004 
L 450.982555 14.405322 
L 451.439558 10.097648 
L 451.89656 8.64 
L 452.353563 10.117258 
L 452.810565 14.443399 
L 453.267568 21.366501 
L 454.181572 41.263252 
L 456.009582 87.794428 
L 456.923587 103.748188 
L 457.38059 108.020073 
L 457.837592 109.439743 
L 458.294595 107.924528 
L 458.751597 103.562663 
L 459.2086 96.608149 
L 460.122604 76.668473 
L 461.950614 30.155666 
L 462.407617 21.102739 
L 462.864619 14.258985 
L 463.321622 10.022932 
L 463.778624 8.641254 
L 464.235627 10.19441 
L 464.692629 14.591956 
L 465.149631 21.577813 
L 466.063636 41.560219 
L 467.891646 88.054195 
L 468.348649 97.081537 
L 468.805651 103.89364 
L 469.262654 108.09382 
L 469.719656 109.437491 
L 470.176658 107.846409 
L 470.633661 103.413226 
L 471.090663 96.396095 
L 472.004668 76.371158 
L 473.832678 29.896471 
L 474.289681 20.894804 
L 474.746683 14.11442 
L 475.203686 9.950154 
L 475.660688 8.644502 
L 476.11769 10.273495 
L 476.574693 14.742272 
L 477.031695 21.790607 
L 477.9457 41.857877 
L 479.77371 88.312815 
L 480.230713 97.288718 
L 480.687715 104.037317 
L 481.144717 108.165627 
L 481.60172 109.433247 
L 482.058722 107.76636 
L 482.515725 103.262034 
L 482.972727 96.182564 
L 482.972727 96.182564 
" clip-path="url(#pb781d0d12a)" style="fill: none; stroke: #008000; stroke-opacity: 0.2; stroke-linecap: square"/>
   </g>
   <g id="line2d_3">
    <path d="M 26.427273 70.226609 
L 27.341278 78.242089 
L 27.79828 80.883354 
L 28.255283 82.36392 
L 28.712285 82.570918 
L 29.169287 81.461224 
L 29.62629 79.065594 
L 30.083292 75.488642 
L 30.997297 65.548768 
L 32.825307 42.504119 
L 33.739312 34.520409 
L 34.196314 32.371334 
L 34.653317 31.670775 
L 35.110319 32.487546 
L 35.567322 34.806096 
L 36.024324 38.525736 
L 36.938329 49.368996 
L 39.223342 81.330699 
L 39.680344 85.661259 
L 40.137346 88.580909 
L 40.594349 89.90176 
L 41.051351 89.522692 
L 41.508354 87.436503 
L 41.965356 83.731856 
L 42.879361 72.275165 
L 45.621376 30.947617 
L 46.078378 27.176601 
L 46.535381 25.125999 
L 46.992383 24.934944 
L 47.449386 26.640303 
L 47.906388 30.173184 
L 48.363391 35.361364 
L 49.277396 49.553208 
L 51.105405 81.725061 
L 51.562408 87.935237 
L 52.01941 92.614919 
L 52.476413 95.48446 
L 52.933415 96.36206 
L 53.390418 95.175114 
L 53.84742 91.965566 
L 54.304423 86.888881 
L 55.218428 72.273054 
L 57.50344 30.03053 
L 57.960442 24.409947 
L 58.417445 20.655 
L 58.874447 18.993625 
L 59.33145 19.539235 
L 59.788452 22.283248 
L 60.245455 27.094375 
L 61.159459 41.822824 
L 63.444472 87.474573 
L 63.901474 94.042342 
L 64.358477 98.724615 
L 64.815479 101.245138 
L 65.272482 101.445754 
L 65.729484 99.296213 
L 66.186486 94.896901 
L 66.643489 88.474284 
L 67.557494 71.019109 
L 69.385504 31.852016 
L 69.842506 24.356901 
L 70.299509 18.731076 
L 70.756511 15.299963 
L 71.213514 14.269142 
L 71.670516 15.712077 
L 72.127518 19.565137 
L 72.584521 25.630236 
L 73.498526 42.999925 
L 75.783538 92.723559 
L 76.240541 99.283018 
L 76.697543 103.650825 
L 77.154545 105.572615 
L 77.611548 104.928539 
L 78.06855 101.740664 
L 78.525553 96.172487 
L 79.439558 79.198732 
L 81.72457 27.00734 
L 82.181572 19.550039 
L 82.638575 14.245491 
L 83.095577 11.396853 
L 83.55258 11.172225 
L 84.009582 13.594754 
L 84.466585 18.540752 
L 84.923587 25.745999 
L 85.837592 45.266638 
L 87.665602 88.81816 
L 88.122604 97.11262 
L 88.579607 103.327893 
L 89.036609 107.113393 
L 89.493612 108.25224 
L 89.950614 106.673706 
L 90.407617 102.45756 
L 90.864619 95.830062 
L 91.778624 76.897959 
L 94.063636 23.008881 
L 94.520639 15.934244 
L 94.977641 11.228013 
L 95.434644 9.155006 
L 95.891646 9.834574 
L 96.348649 13.233731 
L 96.805651 19.168725 
L 97.719656 37.225003 
L 100.004668 92.463658 
L 100.461671 100.322358 
L 100.918673 105.907485 
L 101.375676 108.908471 
L 101.832678 109.15766 
L 102.289681 106.639702 
L 102.746683 101.492492 
L 103.203686 93.999591 
L 104.11769 73.73807 
L 105.9457 28.717 
L 106.402703 20.171414 
L 106.859705 13.773779 
L 107.316708 9.876952 
L 107.77371 8.695214 
L 108.230713 10.29245 
L 108.687715 14.578685 
L 109.144717 21.31517 
L 110.058722 40.527524 
L 112.343735 94.972471 
L 112.800737 102.09349 
L 113.25774 106.828948 
L 113.714742 108.920924 
L 114.171744 108.258162 
L 114.628747 104.881998 
L 115.085749 98.983811 
L 115.999754 81.06416 
L 118.284767 26.484587 
L 118.741769 18.749599 
L 119.198771 13.256225 
L 119.655774 10.301814 
L 120.112776 10.0425 
L 120.569779 12.484937 
L 121.026781 17.486352 
L 121.483784 24.762892 
L 122.397789 44.404246 
L 124.225799 87.871855 
L 124.682801 96.094105 
L 125.139803 102.243391 
L 125.596806 105.988254 
L 126.053808 107.13144 
L 126.510811 105.620296 
L 126.967813 101.549116 
L 127.424816 95.153314 
L 128.338821 76.946386 
L 130.623833 25.606226 
L 131.080835 18.921528 
L 131.537838 14.480401 
L 131.99484 12.516308 
L 132.451843 13.124613 
L 132.908845 16.258021 
L 133.365848 21.729947 
L 134.279853 38.320119 
L 136.564865 88.570063 
L 137.021867 95.654486 
L 137.47887 100.678066 
L 137.935872 103.37707 
L 138.392875 103.617906 
L 138.849877 101.403678 
L 139.30688 96.873104 
L 139.763882 90.291935 
L 140.677887 72.576434 
L 142.505897 33.589562 
L 142.962899 26.252569 
L 143.419902 20.776847 
L 143.876904 17.449603 
L 144.333907 16.437087 
L 144.790909 17.776353 
L 145.247912 21.374236 
L 145.704914 27.013575 
L 146.618919 43.012297 
L 148.446929 80.348139 
L 149.360934 93.567742 
L 149.817936 97.398812 
L 150.274939 99.083901 
L 150.731941 98.550976 
L 151.188943 95.851223 
L 151.645946 91.155018 
L 152.559951 76.981134 
L 154.844963 34.447652 
L 155.301966 28.506356 
L 155.758968 24.310212 
L 156.215971 22.070575 
L 156.672973 21.888306 
L 157.129975 23.74944 
L 157.586978 27.527283 
L 158.04398 32.990742 
L 158.957985 47.617231 
L 160.785995 79.489802 
L 161.242998 85.430712 
L 161.7 89.842653 
L 162.157002 92.503127 
L 162.614005 93.289421 
L 163.071007 92.184077 
L 163.52801 89.274431 
L 163.985012 84.746324 
L 164.899017 71.995908 
L 166.727027 42.611035 
L 167.641032 32.356052 
L 168.098034 29.420469 
L 168.555037 28.158291 
L 169.012039 28.611715 
L 169.469042 30.727347 
L 169.926044 34.360724 
L 170.840049 45.209026 
L 173.125061 77.152173 
L 173.582064 81.526419 
L 174.039066 84.583368 
L 174.496069 86.179831 
L 174.953071 86.256263 
L 175.410074 84.838483 
L 175.867076 82.034591 
L 176.781081 73.062492 
L 179.066093 44.836751 
L 179.523096 40.715989 
L 179.980098 37.69522 
L 180.437101 35.915639 
L 180.894103 35.446258 
L 181.351106 36.28169 
L 181.808108 38.344171 
L 182.265111 41.489608 
L 183.179115 50.182152 
L 185.007125 69.632638 
L 185.92113 76.178224 
L 186.378133 77.98433 
L 186.835135 78.698666 
L 187.292138 78.313908 
L 187.74914 76.884352 
L 188.206143 74.521087 
L 189.120147 67.671675 
L 190.948157 51.661316 
L 191.862162 46.00259 
L 192.319165 44.32768 
L 192.776167 43.523408 
L 193.23317 43.601723 
L 193.690172 44.524276 
L 194.147174 46.206409 
L 195.061179 51.320617 
L 197.346192 66.200501 
L 197.803194 68.194097 
L 198.260197 69.583294 
L 198.717199 70.31971 
L 199.174201 70.395005 
L 199.631204 69.839557 
L 200.088206 68.718886 
L 201.002211 65.184823 
L 203.287224 54.821646 
L 203.744226 53.44688 
L 204.201229 52.490477 
L 204.658231 51.97815 
L 205.115233 51.906485 
L 205.572236 52.244868 
L 206.029238 52.939091 
L 206.943243 55.090937 
L 208.771253 59.969443 
L 209.685258 61.491419 
L 210.14226 61.879424 
L 210.599263 62.017271 
L 211.056265 61.927978 
L 211.513268 61.650597 
L 212.427273 60.742936 
L 213.79828 59.372733 
L 214.255283 59.112702 
L 214.712285 59.000464 
L 215.169287 59.042024 
L 216.083292 59.527328 
L 217.911302 60.97082 
L 218.368305 61.122762 
L 218.825307 61.095318 
L 219.28231 60.859542 
L 219.739312 60.403242 
L 220.653317 58.875053 
L 222.938329 53.818736 
L 223.395332 53.19254 
L 223.852334 52.871513 
L 224.309337 52.908997 
L 224.766339 53.337493 
L 225.223342 54.164962 
L 225.680344 55.372638 
L 226.594349 58.71913 
L 228.422359 66.453631 
L 228.879361 67.906749 
L 229.336364 68.933323 
L 229.793366 69.443182 
L 230.250369 69.373147 
L 230.707371 68.692457 
L 231.164373 67.406374 
L 231.621376 65.557676 
L 232.535381 60.523873 
L 234.363391 49.094567 
L 234.820393 46.934172 
L 235.277396 45.369776 
L 235.734398 44.519623 
L 236.1914 44.464628 
L 236.648403 45.242035 
L 237.105405 46.841468 
L 237.562408 49.203716 
L 238.476413 55.748586 
L 240.304423 70.927536 
L 240.761425 73.892244 
L 241.218428 76.117212 
L 241.67543 77.449723 
L 242.132432 77.783709 
L 242.589435 77.067416 
L 243.046437 75.308097 
L 243.50344 72.573393 
L 244.417445 64.734112 
L 246.702457 42.007702 
L 247.159459 39.01747 
L 247.616462 37.073839 
L 248.073464 36.314741 
L 248.530467 36.81407 
L 248.987469 38.57582 
L 249.444472 41.532139 
L 250.358477 50.414701 
L 252.643489 77.628786 
L 253.100491 81.468038 
L 253.557494 84.134721 
L 254.014496 85.453196 
L 254.471499 85.320431 
L 254.928501 83.713372 
L 255.385504 80.691893 
L 255.842506 76.397065 
L 256.756511 64.914872 
L 258.584521 39.559349 
L 259.041523 34.810553 
L 259.498526 31.328791 
L 259.955528 29.33221 
L 260.412531 28.959174 
L 260.869533 30.259057 
L 261.326536 33.187922 
L 261.783538 37.609428 
L 262.697543 49.964867 
L 264.525553 78.726027 
L 265.439558 88.786434 
L 265.89656 91.561055 
L 266.353563 92.56495 
L 266.810565 91.715902 
L 267.267568 89.034413 
L 267.72457 84.644026 
L 268.638575 71.707371 
L 270.923587 33.19018 
L 271.38059 27.893812 
L 271.837592 24.262754 
L 272.294595 22.520553 
L 272.751597 22.787876 
L 273.2086 25.074479 
L 273.665602 29.277317 
L 274.579607 42.488244 
L 277.321622 90.914652 
L 277.778624 95.456853 
L 278.235627 98.024245 
L 278.692629 98.453182 
L 279.149631 96.697672 
L 279.606634 92.833157 
L 280.063636 87.053515 
L 280.977641 71.052361 
L 282.805651 34.315661 
L 283.719656 21.643683 
L 284.176658 18.187158 
L 284.633661 16.966928 
L 285.090663 18.070177 
L 285.547666 21.455387 
L 286.004668 26.953573 
L 286.918673 43.032552 
L 289.203686 90.304119 
L 289.660688 96.731142 
L 290.11769 101.116042 
L 290.574693 103.20049 
L 291.031695 102.852306 
L 291.488698 100.073722 
L 291.9457 95.002188 
L 292.859705 79.158561 
L 295.60172 21.745348 
L 296.058722 16.418611 
L 296.515725 13.42113 
L 296.972727 12.932627 
L 297.42973 14.994418 
L 297.886732 19.506332 
L 298.343735 26.231511 
L 299.25774 44.772422 
L 301.085749 87.037983 
L 301.999754 101.515975 
L 302.456757 105.449855 
L 302.913759 106.833241 
L 303.370762 105.578236 
L 303.827764 101.743035 
L 304.284767 95.52931 
L 305.198771 77.419233 
L 307.483784 24.54168 
L 307.940786 17.395125 
L 308.397789 12.527572 
L 308.854791 10.216127 
L 309.311794 10.596996 
L 309.768796 13.657475 
L 310.225799 19.236195 
L 311.139803 36.618473 
L 313.881818 99.192929 
L 314.338821 104.965409 
L 314.795823 108.212159 
L 315.252826 108.748282 
L 315.709828 106.538757 
L 316.16683 101.700676 
L 316.623833 94.497028 
L 317.537838 74.681134 
L 319.365848 29.713034 
L 320.279853 14.37443 
L 320.736855 10.211261 
L 321.193857 8.740956 
L 321.65086 10.047159 
L 322.107862 14.059788 
L 322.564865 20.558806 
L 323.47887 39.466353 
L 325.763882 94.412429 
L 326.220885 101.809089 
L 326.677887 106.844179 
L 327.134889 109.239716 
L 327.591892 108.863901 
L 328.048894 105.738393 
L 328.505897 100.037061 
L 329.419902 82.297329 
L 331.704914 26.821894 
L 332.161916 18.751354 
L 332.618919 12.913236 
L 333.075921 9.627312 
L 333.532924 9.071717 
L 333.989926 11.273269 
L 334.446929 16.10619 
L 334.903931 23.29931 
L 335.817936 43.053218 
L 337.645946 87.70771 
L 338.559951 102.883638 
L 339.016953 107.000166 
L 339.473956 108.46212 
L 339.930958 107.195514 
L 340.387961 103.277459 
L 340.844963 96.931497 
L 341.758968 78.498136 
L 344.04398 25.172391 
L 344.500983 18.022405 
L 344.957985 13.158355 
L 345.414988 10.840477 
L 345.87199 11.187295 
L 346.328993 14.169571 
L 346.785995 19.612485 
L 347.7 36.521923 
L 349.985012 89.145389 
L 350.442015 96.767273 
L 350.899017 102.274743 
L 351.35602 105.374108 
L 351.813022 105.906192 
L 352.270025 103.85449 
L 352.727027 99.345374 
L 353.184029 92.640375 
L 354.098034 74.267027 
L 355.926044 32.928938 
L 356.840049 18.948298 
L 357.297052 15.163841 
L 357.754054 13.81835 
L 358.211057 14.970655 
L 358.668059 18.541206 
L 359.125061 24.317354 
L 360.039066 41.05274 
L 362.324079 89.166634 
L 362.781081 95.579326 
L 363.238084 99.933163 
L 363.695086 102.003756 
L 364.152088 101.694555 
L 364.609091 99.041226 
L 365.066093 94.208645 
L 365.980098 79.24393 
L 368.265111 33.013948 
L 368.722113 26.365318 
L 369.179115 21.573952 
L 369.636118 18.886951 
L 370.09312 18.432912 
L 370.550123 20.215891 
L 371.007125 24.116334 
L 371.464128 29.898863 
L 372.378133 45.679869 
L 374.206143 80.914906 
L 374.663145 87.644354 
L 375.120147 92.728872 
L 375.57715 95.90618 
L 376.034152 97.022214 
L 376.491155 96.03848 
L 376.948157 93.032913 
L 377.40516 88.194266 
L 378.319165 74.251184 
L 380.604177 34.600397 
L 381.061179 29.375668 
L 381.518182 25.848098 
L 381.975184 24.189916 
L 382.432187 24.467801 
L 382.889189 26.640562 
L 383.346192 30.562836 
L 384.260197 42.615463 
L 386.545209 79.335229 
L 387.002211 84.542861 
L 387.459214 88.270541 
L 387.916216 90.335711 
L 388.373219 90.650557 
L 388.830221 89.225427 
L 389.287224 86.166738 
L 389.744226 81.66955 
L 390.658231 69.505631 
L 392.486241 42.755489 
L 392.943243 37.722316 
L 393.400246 33.950663 
L 393.857248 31.62527 
L 394.314251 30.847432 
L 394.771253 31.630872 
L 395.228256 33.902597 
L 395.685258 37.508568 
L 396.599263 47.766304 
L 398.427273 71.558013 
L 399.341278 79.921414 
L 399.79828 82.352685 
L 400.255283 83.450719 
L 400.712285 83.185165 
L 401.169287 81.602059 
L 401.62629 78.819541 
L 402.540295 70.436577 
L 404.825307 45.707949 
L 405.28231 42.319238 
L 405.739312 39.939777 
L 406.196314 38.673488 
L 406.653317 38.559418 
L 407.110319 39.571282 
L 407.567322 41.62071 
L 408.481327 48.211396 
L 410.766339 68.789716 
L 411.223342 71.761026 
L 411.680344 73.93197 
L 412.137346 75.209604 
L 412.594349 75.554365 
L 413.051351 74.98056 
L 413.508354 73.553737 
L 413.965356 71.385192 
L 414.879361 65.44723 
L 416.707371 52.466065 
L 417.164373 50.049526 
L 417.621376 48.238523 
L 418.078378 47.107125 
L 418.535381 46.687187 
L 418.992383 46.968268 
L 419.449386 47.900062 
L 419.906388 49.397095 
L 420.820393 53.610227 
L 422.648403 62.931818 
L 423.562408 65.980013 
L 424.01941 66.811252 
L 424.476413 67.14854 
L 424.933415 67.006684 
L 425.390418 66.428756 
L 425.84742 65.481771 
L 426.761425 62.833633 
L 428.132432 58.462574 
L 429.046437 56.306883 
L 429.50344 55.628395 
L 429.960442 55.243358 
L 430.417445 55.144533 
L 430.874447 55.304616 
L 431.33145 55.679554 
L 432.245455 56.841015 
L 433.616462 58.660046 
L 434.073464 59.069383 
L 434.530467 59.324422 
L 434.987469 59.415989 
L 435.444472 59.352095 
L 436.358477 58.867616 
L 437.729484 57.936412 
L 438.186486 57.779796 
L 438.643489 57.774902 
L 439.100491 57.949733 
L 439.557494 58.316297 
L 440.471499 59.582898 
L 442.756511 63.689043 
L 443.213514 64.128639 
L 443.670516 64.284924 
L 444.127518 64.113918 
L 444.584521 63.59184 
L 445.041523 62.718253 
L 445.955528 60.039651 
L 448.240541 51.597869 
L 448.697543 50.463504 
L 449.154545 49.758028 
L 449.611548 49.55511 
L 450.06855 49.901138 
L 450.525553 50.810707 
L 450.982555 52.263962 
L 451.89656 56.548629 
L 454.181572 69.488675 
L 454.638575 71.225041 
L 455.095577 72.343791 
L 455.55258 72.749695 
L 456.009582 72.385804 
L 456.466585 71.238508 
L 456.923587 69.340141 
L 457.837592 63.64598 
L 460.122604 46.115349 
L 460.579607 43.662626 
L 461.036609 41.994544 
L 461.493612 41.234994 
L 461.950614 41.459345 
L 462.407617 42.688432 
L 462.864619 44.885577 
L 463.778624 51.755009 
L 466.520639 77.108567 
L 466.977641 79.446966 
L 467.434644 80.700994 
L 467.891646 80.769515 
L 468.348649 79.616466 
L 468.805651 77.27464 
L 469.262654 73.845558 
L 470.176658 64.446992 
L 472.004668 43.001319 
L 472.461671 38.85352 
L 472.918673 35.742207 
L 473.375676 33.866561 
L 473.832678 33.36012 
L 474.289681 34.281736 
L 474.746683 36.610615 
L 475.203686 40.245811 
L 476.11769 50.659482 
L 478.402703 80.715657 
L 478.859705 84.681274 
L 479.316708 87.288495 
L 479.77371 88.365645 
L 480.230713 87.824155 
L 480.687715 85.665066 
L 481.144717 81.98056 
L 482.058722 70.832998 
L 482.972727 56.682098 
L 482.972727 56.682098 
" clip-path="url(#pb781d0d12a)" style="fill: none; stroke: #0c5da5; stroke-linecap: square"/>
   </g>
   <g id="legend_1">
    <g id="patch_2">
     <path d="M 12 85.926073 
L 123.703679 85.926073 
Q 126.103679 85.926073 126.103679 83.526073 
L 126.103679 34.553927 
Q 126.103679 32.153927 123.703679 32.153927 
L 12 32.153927 
Q 9.6 32.153927 9.6 34.553927 
L 9.6 83.526073 
Q 9.6 85.926073 12 85.926073 
z
" style="fill: #ffffff; opacity: 0.8; stroke: #cccccc; stroke-linejoin: miter"/>
    </g>
    <g id="line2d_4">
     <path d="M 14.4 41.153927 
L 26.4 41.153927 
L 38.4 41.153927 
" style="fill: none; stroke: #ffff00; stroke-opacity: 0.2; stroke-linecap: square"/>
    </g>
    <g id="text_1">
     <!-- Первая волна -->
     <g transform="translate(48 45.353927) scale(0.12 -0.12)">
      <defs>
       <path id="SFRM3583-cf" d="M 467 4365 
L 467 4224 
L 576 4224 
C 742 4224 877 4205 877 3955 
L 877 410 
C 877 160 768 141 467 141 
L 467 0 
L 1600 0 
L 1600 141 
L 1491 141 
C 1338 141 1184 160 1184 378 
C 1184 428 1190 473 1190 518 
L 1190 3885 
C 1190 3923 1184 3974 1184 4019 
C 1184 4160 1242 4224 1363 4224 
L 3110 4224 
C 3251 4224 3264 4115 3264 4013 
L 3264 518 
C 3264 473 3270 428 3270 377 
C 3270 154 3104 141 2931 141 
L 2854 141 
L 2854 0 
L 3987 0 
L 3987 141 
L 3878 141 
C 3712 141 3571 160 3571 410 
C 3571 460 3578 505 3578 556 
L 3578 3955 
C 3578 4205 3686 4224 3987 4224 
L 3987 4365 
L 467 4365 
z
" transform="scale(0.015625)"/>
       <path id="SFRM3583-e5" d="M 563 1524 
L 2246 1524 
C 2259 1524 2285 1517 2310 1517 
C 2355 1517 2374 1543 2374 1581 
C 2374 2154 2099 2816 1382 2816 
C 614 2816 237 2031 237 1405 
C 237 778 589 70 1350 -26 
C 1376 -26 1402 -32 1427 -32 
C 1869 -32 2208 273 2355 686 
C 2362 705 2368 730 2368 749 
C 2368 768 2362 787 2336 787 
C 2272 787 2266 686 2246 628 
C 2118 324 1843 57 1485 57 
C 1216 57 960 210 813 425 
C 576 742 563 1149 563 1524 
z
M 570 1600 
C 582 2103 832 2740 1370 2740 
C 1818 2740 2010 2264 2061 1890 
C 2067 1793 2067 1697 2080 1600 
L 570 1600 
z
" transform="scale(0.015625)"/>
       <path id="SFRM3583-f0" d="M 288 2750 
L 288 2608 
L 371 2608 
C 576 2608 666 2524 666 2326 
L 666 -731 
C 666 -775 672 -818 672 -862 
C 672 -1062 512 -1075 346 -1075 
L 288 -1075 
L 288 -1216 
L 1306 -1216 
L 1306 -1075 
L 1216 -1075 
C 1069 -1075 928 -1056 928 -854 
L 934 471 
C 1069 135 1459 -32 1728 -32 
C 2438 -32 2912 691 2912 1400 
C 2912 2032 2534 2819 1798 2819 
C 1453 2819 1050 2600 928 2298 
L 922 2819 
L 288 2750 
z
M 2579 1278 
C 2547 780 2278 45 1709 45 
C 1370 45 922 349 922 749 
C 922 788 928 827 928 866 
L 928 1821 
C 928 1885 922 1950 922 2014 
C 922 2375 1357 2737 1734 2737 
C 2349 2737 2586 1898 2586 1394 
C 2586 1355 2586 1317 2579 1278 
z
" transform="scale(0.015625)"/>
       <path id="SFRM3583-e2" d="M 294 2749 
L 294 2679 
L 358 2679 
C 525 2679 666 2660 666 2423 
L 666 340 
C 666 96 525 77 358 77 
L 294 77 
L 294 0 
L 1818 0 
C 2208 32 2624 273 2669 709 
L 2669 760 
C 2669 1224 2003 1478 1722 1478 
C 1792 1511 1875 1517 1952 1544 
C 2208 1622 2541 1792 2541 2114 
C 2541 2638 1843 2749 1472 2749 
L 294 2749 
z
M 928 1460 
L 1606 1460 
C 2003 1460 2349 1176 2349 771 
L 2349 759 
C 2323 324 1946 77 1555 77 
L 1120 77 
C 979 77 928 115 928 368 
L 928 1460 
z
M 928 1536 
L 928 2425 
C 928 2549 947 2679 1120 2679 
L 1440 2679 
C 1632 2679 1811 2679 1971 2568 
C 2118 2463 2221 2293 2221 2117 
C 2221 1705 1728 1536 1440 1536 
L 928 1536 
z
" transform="scale(0.015625)"/>
       <path id="SFRM3583-e0" d="M 576 2080 
C 659 2413 883 2740 1274 2740 
C 1619 2740 1869 2415 1920 2101 
C 1933 2018 1933 1928 1933 1846 
L 1933 1597 
C 1318 1597 474 1456 320 686 
C 314 647 314 603 314 564 
C 314 134 800 -32 1133 -32 
C 1446 -32 1856 177 1939 535 
L 1946 535 
C 1946 268 2125 0 2394 0 
C 2746 0 2829 376 2829 650 
L 2829 936 
L 2746 936 
L 2746 612 
C 2746 408 2701 115 2470 115 
C 2208 115 2195 453 2195 625 
L 2195 1810 
C 2195 1969 2189 2134 2125 2288 
C 1990 2599 1638 2816 1293 2816 
C 800 2816 480 2386 480 1918 
C 480 1798 570 1728 672 1728 
C 774 1728 858 1811 858 1914 
C 858 2010 794 2099 672 2099 
C 640 2099 608 2093 576 2080 
z
M 1933 1527 
L 1933 898 
C 1933 475 1670 77 1229 45 
L 1190 45 
C 896 45 627 276 627 590 
C 627 1257 1363 1527 1933 1527 
z
" transform="scale(0.015625)"/>
       <path id="SFRM3583-ff" d="M 1344 1406 
C 1235 1238 1107 1078 986 918 
C 755 604 474 90 96 90 
L 96 0 
L 998 0 
L 998 77 
L 941 77 
C 883 77 787 90 787 159 
C 787 281 1024 554 1146 713 
L 1491 1189 
C 1562 1279 1600 1393 1715 1393 
C 1747 1393 1786 1393 1811 1393 
L 2182 1393 
L 2182 268 
C 2157 90 2022 77 1882 77 
L 1805 77 
L 1805 0 
L 2816 0 
L 2816 77 
L 2726 77 
C 2566 77 2438 109 2438 333 
L 2438 2423 
C 2438 2647 2573 2679 2726 2679 
L 2816 2679 
L 2816 2749 
L 1722 2749 
C 1325 2749 781 2749 512 2408 
C 435 2312 397 2203 397 2094 
C 397 1701 787 1502 1126 1438 
C 1197 1419 1274 1406 1344 1406 
z
M 2182 1475 
C 2048 1475 1907 1475 1766 1475 
C 1338 1475 723 1475 723 2087 
C 723 2633 1254 2679 1638 2679 
L 2029 2679 
C 2163 2679 2182 2557 2182 2423 
L 2182 1475 
z
" transform="scale(0.015625)"/>
       <path id="SFRM3583-ee" d="M 1350 2816 
C 614 2726 237 2042 237 1376 
C 237 698 685 -32 1440 -32 
L 1504 -32 
C 2240 58 2624 736 2624 1382 
C 2624 2035 2182 2822 1440 2822 
C 1408 2822 1382 2816 1350 2816 
z
M 563 1274 
L 563 1376 
C 563 1856 621 2395 1114 2663 
C 1197 2702 1293 2734 1389 2734 
L 1434 2734 
C 2054 2734 2298 2012 2298 1495 
C 2298 990 2246 269 1606 77 
C 1549 64 1491 51 1434 51 
C 960 51 653 525 595 979 
C 576 1075 576 1178 563 1274 
z
" transform="scale(0.015625)"/>
       <path id="SFRM3583-eb" d="M 813 2749 
L 813 2679 
L 909 2679 
C 1062 2679 1203 2641 1203 2444 
L 1203 2394 
C 1203 2261 1197 2128 1184 1995 
C 1139 1463 1107 906 890 412 
C 813 241 698 51 538 51 
C 422 51 320 102 243 179 
L 282 179 
C 378 179 448 243 448 339 
C 448 441 378 512 282 512 
C 166 512 109 429 109 320 
C 115 96 326 -32 538 -32 
C 813 -32 960 335 1037 563 
C 1203 1058 1274 1634 1274 2153 
L 1274 2242 
C 1274 2489 1286 2679 1478 2679 
L 2099 2679 
C 2214 2679 2240 2597 2253 2508 
L 2253 365 
C 2253 103 2125 77 1946 77 
L 1875 77 
L 1875 0 
L 2893 0 
L 2893 77 
L 2803 77 
C 2643 77 2515 109 2515 333 
L 2515 2423 
C 2515 2647 2650 2679 2803 2679 
L 2893 2679 
L 2893 2749 
L 813 2749 
z
" transform="scale(0.015625)"/>
       <path id="SFRM3583-ed" d="M 288 2749 
L 288 2679 
L 378 2679 
C 531 2679 666 2647 666 2423 
L 666 333 
C 666 109 538 77 378 77 
L 288 77 
L 288 0 
L 1306 0 
L 1306 77 
L 1229 77 
C 1088 77 954 90 928 266 
L 928 1460 
L 2253 1460 
L 2253 266 
C 2227 90 2093 77 1952 77 
L 1875 77 
L 1875 0 
L 2893 0 
L 2893 77 
L 2803 77 
C 2643 77 2515 109 2515 333 
L 2515 2423 
C 2515 2647 2650 2679 2803 2679 
L 2893 2679 
L 2893 2749 
L 1875 2749 
L 1875 2679 
L 1958 2679 
C 2144 2679 2253 2633 2253 2413 
L 2253 1536 
L 928 1536 
L 928 2413 
C 928 2633 1037 2679 1222 2679 
L 1306 2679 
L 1306 2749 
L 998 2749 
L 288 2749 
z
" transform="scale(0.015625)"/>
      </defs>
      <use xlink:href="#SFRM3583-cf" transform="scale(0.996264)"/>
      <use xlink:href="#SFRM3583-e5" transform="translate(69.320979 0) scale(0.996264)"/>
      <use xlink:href="#SFRM3583-f0" transform="translate(108.939378 0) scale(0.996264)"/>
      <use xlink:href="#SFRM3583-e2" transform="translate(158.477806 0) scale(0.996264)"/>
      <use xlink:href="#SFRM3583-e0" transform="translate(203.056273 0) scale(0.996264)"/>
      <use xlink:href="#SFRM3583-ff" transform="translate(247.634739 0) scale(0.996264)"/>
      <use xlink:href="#SFRM3583-e2" transform="translate(325.631467 0) scale(0.996264)"/>
      <use xlink:href="#SFRM3583-ee" transform="translate(370.209934 0) scale(0.996264)"/>
      <use xlink:href="#SFRM3583-eb" transform="translate(414.7884 0) scale(0.996264)"/>
      <use xlink:href="#SFRM3583-ed" transform="translate(464.326829 0) scale(0.996264)"/>
      <use xlink:href="#SFRM3583-e0" transform="translate(513.865257 0) scale(0.996264)"/>
     </g>
    </g>
    <g id="line2d_5">
     <path d="M 14.4 57.877976 
L 26.4 57.877976 
L 38.4 57.877976 
" style="fill: none; stroke: #008000; stroke-opacity: 0.2; stroke-linecap: square"/>
    </g>
    <g id="text_2">
     <!-- Вторая волна -->
     <g transform="translate(48 62.077976) scale(0.12 -0.12)">
      <defs>
       <path id="SFRM3583-c2" d="M 474 4352 
L 474 4231 
L 582 4231 
C 749 4231 883 4212 883 3962 
L 883 416 
C 883 166 774 147 474 147 
L 474 0 
L 2067 0 
C 2176 0 2278 0 2387 0 
C 2995 0 3738 369 3738 1153 
C 3738 1771 3168 2275 2554 2275 
C 2976 2391 3578 2592 3578 3297 
C 3578 3925 2989 4352 2387 4352 
L 474 4352 
z
M 1184 2225 
L 2285 2225 
C 2470 2225 2656 2225 2822 2129 
C 3168 1945 3379 1569 3379 1186 
C 3379 567 2854 147 2227 147 
C 2131 147 2029 147 1933 147 
L 1357 147 
C 1235 147 1184 217 1184 332 
L 1184 2225 
z
M 1184 2307 
L 1184 4020 
C 1184 4135 1210 4231 1357 4231 
L 1907 4231 
C 2003 4231 2099 4231 2202 4231 
C 2662 4231 3232 3962 3232 3291 
C 3232 2799 2816 2403 2342 2326 
C 2240 2307 2131 2307 2029 2307 
L 1184 2307 
z
" transform="scale(0.015625)"/>
       <path id="SFRM3583-f2" d="M 198 2752 
L 141 1786 
L 224 1786 
C 237 2029 243 2349 378 2516 
C 512 2656 723 2676 902 2676 
L 1126 2676 
C 1286 2676 1299 2560 1299 2445 
L 1299 378 
C 1299 103 1158 77 768 77 
L 768 0 
L 2093 0 
L 2093 77 
L 1933 77 
C 1734 77 1562 103 1562 378 
L 1562 2445 
C 1562 2560 1574 2676 1734 2676 
L 1958 2676 
C 2221 2676 2534 2631 2586 2260 
C 2618 2106 2630 1946 2637 1786 
L 2720 1786 
L 2662 2752 
L 198 2752 
z
" transform="scale(0.015625)"/>
      </defs>
      <use xlink:href="#SFRM3583-c2" transform="scale(0.996264)"/>
      <use xlink:href="#SFRM3583-f2" transform="translate(63.149724 0) scale(0.996264)"/>
      <use xlink:href="#SFRM3583-ee" transform="translate(107.728191 0) scale(0.996264)"/>
      <use xlink:href="#SFRM3583-f0" transform="translate(152.306658 0) scale(0.996264)"/>
      <use xlink:href="#SFRM3583-e0" transform="translate(201.845086 0) scale(0.996264)"/>
      <use xlink:href="#SFRM3583-ff" transform="translate(246.423553 0) scale(0.996264)"/>
      <use xlink:href="#SFRM3583-e2" transform="translate(324.42028 0) scale(0.996264)"/>
      <use xlink:href="#SFRM3583-ee" transform="translate(368.998747 0) scale(0.996264)"/>
      <use xlink:href="#SFRM3583-eb" transform="translate(413.577214 0) scale(0.996264)"/>
      <use xlink:href="#SFRM3583-ed" transform="translate(463.115642 0) scale(0.996264)"/>
      <use xlink:href="#SFRM3583-e0" transform="translate(512.65407 0) scale(0.996264)"/>
     </g>
    </g>
    <g id="line2d_6">
     <path d="M 14.4 74.602024 
L 26.4 74.602024 
L 38.4 74.602024 
" style="fill: none; stroke: #0c5da5; stroke-linecap: square"/>
    </g>
    <g id="text_3">
     <!-- Сумма -->
     <g transform="translate(48 78.802024) scale(0.12 -0.12)">
      <defs>
       <path id="SFRM3583-d1" d="M 3501 3725 
C 3187 4096 2899 4429 2285 4429 
C 1120 4429 320 3301 320 2185 
C 320 1051 1133 -64 2285 -64 
C 3142 -64 3821 682 3821 1523 
L 3821 1548 
C 3814 1567 3802 1574 3782 1574 
C 3718 1574 3712 1211 3654 1051 
C 3475 504 2995 77 2374 77 
C 1779 77 1242 446 960 943 
C 742 1319 678 1778 678 2204 
C 678 3212 1242 4288 2374 4288 
C 3213 4288 3654 3460 3725 2785 
C 3731 2746 3744 2708 3776 2708 
C 3814 2708 3821 2734 3821 2765 
L 3821 4371 
C 3821 4393 3821 4421 3802 4429 
L 3795 4429 
C 3744 4429 3526 3827 3501 3725 
z
" transform="scale(0.015625)"/>
       <path id="SFRM3583-f3" d="M 90 2819 
L 90 2749 
C 410 2749 435 2620 595 2220 
C 864 1556 1146 885 1395 215 
C 1414 164 1453 105 1453 47 
C 1453 -88 1318 -314 1261 -456 
C 1152 -752 992 -1171 627 -1171 
C 493 -1171 352 -1114 256 -1024 
C 358 -1024 448 -966 448 -851 
C 448 -755 371 -685 275 -685 
C 186 -685 109 -749 109 -864 
C 109 -1114 390 -1248 614 -1248 
L 621 -1248 
C 1043 -1248 1210 -809 1350 -460 
L 1562 63 
C 1798 657 2035 1258 2272 1852 
C 2304 1930 2336 2000 2362 2078 
C 2470 2342 2586 2737 2931 2737 
L 2931 2819 
L 2189 2819 
L 2189 2749 
C 2310 2749 2400 2620 2400 2504 
C 2400 2394 2349 2265 2310 2168 
C 2150 1775 1997 1374 1837 980 
L 1683 600 
C 1658 528 1626 464 1606 393 
L 1600 393 
C 1549 619 1427 845 1338 1058 
C 1190 1420 1050 1787 909 2149 
L 832 2343 
C 800 2413 755 2504 755 2582 
C 755 2671 832 2749 1018 2749 
L 1018 2819 
L 717 2819 
L 90 2819 
z
" transform="scale(0.015625)"/>
       <path id="SFRM3583-ec" d="M 294 2749 
L 294 2679 
L 384 2679 
C 538 2679 672 2641 672 2423 
L 672 979 
C 672 870 678 755 678 639 
C 678 404 659 77 294 77 
L 294 0 
L 1139 0 
L 1139 77 
C 787 77 762 378 762 588 
L 768 2628 
C 813 2410 947 2168 1030 1944 
L 1549 620 
C 1606 460 1670 308 1734 148 
C 1747 103 1766 7 1824 0 
C 1894 0 2029 416 2099 614 
C 2342 1209 2560 1816 2803 2410 
C 2835 2487 2874 2570 2893 2653 
L 2899 340 
C 2899 109 2771 77 2611 77 
L 2522 77 
L 2522 0 
L 3526 0 
L 3526 77 
L 3437 77 
C 3277 77 3149 109 3149 333 
L 3149 2423 
C 3149 2647 3283 2679 3437 2679 
L 3526 2679 
L 3526 2749 
L 2938 2749 
L 2874 2737 
L 2835 2685 
L 1914 326 
L 1043 2564 
L 960 2737 
L 890 2749 
L 294 2749 
z
" transform="scale(0.015625)"/>
      </defs>
      <use xlink:href="#SFRM3583-d1" transform="scale(0.996264)"/>
      <use xlink:href="#SFRM3583-f3" transform="translate(64.418587 0) scale(0.996264)"/>
      <use xlink:href="#SFRM3583-ec" transform="translate(111.477026 0) scale(0.996264)"/>
      <use xlink:href="#SFRM3583-ec" transform="translate(170.93556 0) scale(0.996264)"/>
      <use xlink:href="#SFRM3583-e0" transform="translate(230.394094 0) scale(0.996264)"/>
     </g>
    </g>
   </g>
  </g>
 </g>
 <defs>
  <clipPath id="pb781d0d12a">
   <rect x="3.6" y="3.6" width="502.2" height="110.88"/>
  </clipPath>
 </defs>
</svg>
