<?xml version="1.0" encoding="utf-8" standalone="no"?>
<!DOCTYPE svg PUBLIC "-//W3C//DTD SVG 1.1//EN"
  "http://www.w3.org/Graphics/SVG/1.1/DTD/svg11.dtd">
<svg xmlns:xlink="http://www.w3.org/1999/xlink" width="396.416729pt" height="257.575641pt" viewBox="0 0 396.416729 257.575641" xmlns="http://www.w3.org/2000/svg" version="1.1">
 <metadata>
  <rdf:RDF xmlns:dc="http://purl.org/dc/elements/1.1/" xmlns:cc="http://creativecommons.org/ns#" xmlns:rdf="http://www.w3.org/1999/02/22-rdf-syntax-ns#">
   <cc:Work>
    <dc:type rdf:resource="http://purl.org/dc/dcmitype/StillImage"/>
    <dc:date>2023-03-28T16:15:10.563301</dc:date>
    <dc:format>image/svg+xml</dc:format>
    <dc:creator>
     <cc:Agent>
      <dc:title>Matplotlib v3.7.1, https://matplotlib.org/</dc:title>
     </cc:Agent>
    </dc:creator>
   </cc:Work>
  </rdf:RDF>
 </metadata>
 <defs>
  <style type="text/css">*{stroke-linejoin: round; stroke-linecap: butt}</style>
 </defs>
 <g id="figure_1">
  <g id="patch_1">
   <path d="M 0 257.575641 
L 396.416729 257.575641 
L 396.416729 0 
L 0 0 
z
" style="fill: #ffffff"/>
  </g>
  <g id="axes_1">
   <g id="patch_2">
    <path d="M 58.016729 225.36 
L 392.816729 225.36 
L 392.816729 3.6 
L 58.016729 3.6 
z
" style="fill: #ffffff"/>
   </g>
   <g id="PolyCollection_1">
    <path d="M 73.234911 215.084364 
L 73.234911 213.890938 
L 87.728417 204.357084 
L 102.221924 194.82323 
L 116.71543 185.289375 
L 131.208937 175.755521 
L 145.702443 166.221667 
L 160.19595 156.687813 
L 174.689456 147.153959 
L 189.182963 137.620104 
L 203.676469 128.08625 
L 218.169976 118.552396 
L 232.663482 109.018542 
L 247.156989 99.484688 
L 261.650495 89.950834 
L 276.144002 80.416979 
L 290.637508 70.883125 
L 305.131015 61.349271 
L 319.624521 51.815417 
L 334.118028 42.281563 
L 348.611534 32.747708 
L 363.105041 23.213854 
L 377.598547 13.68 
L 377.598547 39.93538 
L 377.598547 39.93538 
L 363.105041 48.275808 
L 348.611534 56.616236 
L 334.118028 64.956664 
L 319.624521 73.297092 
L 305.131015 81.637519 
L 290.637508 89.977947 
L 276.144002 98.318375 
L 261.650495 106.658803 
L 247.156989 114.999231 
L 232.663482 123.339658 
L 218.169976 131.680086 
L 203.676469 140.020514 
L 189.182963 148.360942 
L 174.689456 156.70137 
L 160.19595 165.041797 
L 145.702443 173.382225 
L 131.208937 181.722653 
L 116.71543 190.063081 
L 102.221924 198.403509 
L 87.728417 206.743937 
L 73.234911 215.084364 
z
" clip-path="url(#p05d8c29539)" style="fill: #0c5da5; fill-opacity: 0.15"/>
   </g>
   <g id="matplotlib.axis_1">
    <g id="xtick_1">
     <g id="line2d_1">
      <defs>
       <path id="mdddbef80f3" d="M 0 0 
L 0 -3 
" style="stroke: #000000; stroke-width: 0.5"/>
      </defs>
      <g>
       <use xlink:href="#mdddbef80f3" x="58.741404" y="225.36" style="stroke: #000000; stroke-width: 0.5"/>
      </g>
     </g>
     <g id="line2d_2">
      <defs>
       <path id="m86278ab630" d="M 0 0 
L 0 3 
" style="stroke: #000000; stroke-width: 0.5"/>
      </defs>
      <g>
       <use xlink:href="#m86278ab630" x="58.741404" y="3.6" style="stroke: #000000; stroke-width: 0.5"/>
      </g>
     </g>
     <g id="text_1">
      <!-- $\mathdefault{0}$ -->
      <g transform="translate(55.814909 237.093772) scale(0.12 -0.12)">
       <defs>
        <path id="CMR17-30" d="M 2688 2038 
C 2688 2430 2682 3099 2413 3613 
C 2176 4063 1798 4224 1466 4224 
C 1158 4224 768 4082 525 3620 
C 269 3137 243 2539 243 2038 
C 243 1671 250 1112 448 623 
C 723 -39 1216 -128 1466 -128 
C 1760 -128 2208 -7 2470 604 
C 2662 1048 2688 1568 2688 2038 
z
M 1466 -26 
C 1056 -26 813 328 723 816 
C 653 1196 653 1749 653 2109 
C 653 2604 653 3015 736 3407 
C 858 3954 1216 4121 1466 4121 
C 1728 4121 2067 3947 2189 3420 
C 2272 3054 2278 2623 2278 2109 
C 2278 1691 2278 1176 2202 797 
C 2067 96 1690 -26 1466 -26 
z
" transform="scale(0.015625)"/>
       </defs>
       <use xlink:href="#CMR17-30" transform="scale(0.996264)"/>
      </g>
     </g>
    </g>
    <g id="xtick_2">
     <g id="line2d_3">
      <g>
       <use xlink:href="#mdddbef80f3" x="131.208937" y="225.36" style="stroke: #000000; stroke-width: 0.5"/>
      </g>
     </g>
     <g id="line2d_4">
      <g>
       <use xlink:href="#m86278ab630" x="131.208937" y="3.6" style="stroke: #000000; stroke-width: 0.5"/>
      </g>
     </g>
     <g id="text_2">
      <!-- $\mathdefault{5}$ -->
      <g transform="translate(128.282442 237.093772) scale(0.12 -0.12)">
       <defs>
        <path id="CMR17-35" d="M 730 3750 
C 794 3724 1056 3641 1325 3641 
C 1920 3641 2246 3961 2432 4140 
C 2432 4191 2432 4224 2394 4224 
C 2387 4224 2374 4224 2323 4198 
C 2099 4102 1837 4032 1517 4032 
C 1325 4032 1037 4055 723 4191 
C 653 4224 640 4224 634 4224 
C 602 4224 595 4217 595 4090 
L 595 2231 
C 595 2113 595 2080 659 2080 
C 691 2080 704 2093 736 2139 
C 941 2435 1222 2560 1542 2560 
C 1766 2560 2246 2415 2246 1293 
C 2246 1087 2246 716 2054 422 
C 1894 159 1645 25 1370 25 
C 947 25 518 319 403 812 
C 429 806 480 793 506 793 
C 589 793 749 838 749 1036 
C 749 1209 627 1280 506 1280 
C 358 1280 262 1190 262 1011 
C 262 454 704 -128 1382 -128 
C 2042 -128 2669 441 2669 1267 
C 2669 2054 2170 2662 1549 2662 
C 1222 2662 947 2540 730 2304 
L 730 3750 
z
" transform="scale(0.015625)"/>
       </defs>
       <use xlink:href="#CMR17-35" transform="scale(0.996264)"/>
      </g>
     </g>
    </g>
    <g id="xtick_3">
     <g id="line2d_5">
      <g>
       <use xlink:href="#mdddbef80f3" x="203.676469" y="225.36" style="stroke: #000000; stroke-width: 0.5"/>
      </g>
     </g>
     <g id="line2d_6">
      <g>
       <use xlink:href="#m86278ab630" x="203.676469" y="3.6" style="stroke: #000000; stroke-width: 0.5"/>
      </g>
     </g>
     <g id="text_3">
      <!-- $\mathdefault{10}$ -->
      <g transform="translate(197.823479 237.093772) scale(0.12 -0.12)">
       <defs>
        <path id="CMR17-31" d="M 1702 4083 
C 1702 4217 1696 4224 1606 4224 
C 1357 3927 979 3833 621 3820 
C 602 3820 570 3820 563 3808 
C 557 3795 557 3782 557 3648 
C 755 3648 1088 3686 1344 3839 
L 1344 467 
C 1344 243 1331 166 781 166 
L 589 166 
L 589 0 
C 896 6 1216 12 1523 12 
C 1830 12 2150 6 2458 0 
L 2458 166 
L 2266 166 
C 1715 166 1702 236 1702 467 
L 1702 4083 
z
" transform="scale(0.015625)"/>
       </defs>
       <use xlink:href="#CMR17-31" transform="scale(0.996264)"/>
       <use xlink:href="#CMR17-30" transform="translate(45.690477 0) scale(0.996264)"/>
      </g>
     </g>
    </g>
    <g id="xtick_4">
     <g id="line2d_7">
      <g>
       <use xlink:href="#mdddbef80f3" x="276.144002" y="225.36" style="stroke: #000000; stroke-width: 0.5"/>
      </g>
     </g>
     <g id="line2d_8">
      <g>
       <use xlink:href="#m86278ab630" x="276.144002" y="3.6" style="stroke: #000000; stroke-width: 0.5"/>
      </g>
     </g>
     <g id="text_4">
      <!-- $\mathdefault{15}$ -->
      <g transform="translate(270.291011 237.093772) scale(0.12 -0.12)">
       <use xlink:href="#CMR17-31" transform="scale(0.996264)"/>
       <use xlink:href="#CMR17-35" transform="translate(45.690477 0) scale(0.996264)"/>
      </g>
     </g>
    </g>
    <g id="xtick_5">
     <g id="line2d_9">
      <g>
       <use xlink:href="#mdddbef80f3" x="348.611534" y="225.36" style="stroke: #000000; stroke-width: 0.5"/>
      </g>
     </g>
     <g id="line2d_10">
      <g>
       <use xlink:href="#m86278ab630" x="348.611534" y="3.6" style="stroke: #000000; stroke-width: 0.5"/>
      </g>
     </g>
     <g id="text_5">
      <!-- $\mathdefault{20}$ -->
      <g transform="translate(342.758544 237.093772) scale(0.12 -0.12)">
       <defs>
        <path id="CMR17-32" d="M 2669 990 
L 2554 990 
C 2490 537 2438 460 2413 422 
C 2381 371 1920 371 1830 371 
L 602 371 
C 832 620 1280 1073 1824 1596 
C 2214 1966 2669 2400 2669 3033 
C 2669 3788 2067 4224 1395 4224 
C 691 4224 262 3603 262 3027 
C 262 2777 448 2745 525 2745 
C 589 2745 781 2783 781 3007 
C 781 3206 614 3264 525 3264 
C 486 3264 448 3257 422 3244 
C 544 3788 915 4057 1306 4057 
C 1862 4057 2227 3616 2227 3033 
C 2227 2477 1901 1998 1536 1583 
L 262 147 
L 262 0 
L 2515 0 
L 2669 990 
z
" transform="scale(0.015625)"/>
       </defs>
       <use xlink:href="#CMR17-32" transform="scale(0.996264)"/>
       <use xlink:href="#CMR17-30" transform="translate(45.690477 0) scale(0.996264)"/>
      </g>
     </g>
    </g>
    <g id="xtick_6">
     <g id="line2d_11">
      <defs>
       <path id="made187d85c" d="M 0 0 
L 0 -1.5 
" style="stroke: #000000; stroke-width: 0.5"/>
      </defs>
      <g>
       <use xlink:href="#made187d85c" x="73.234911" y="225.36" style="stroke: #000000; stroke-width: 0.5"/>
      </g>
     </g>
     <g id="line2d_12">
      <defs>
       <path id="mf15f1db1b9" d="M 0 0 
L 0 1.5 
" style="stroke: #000000; stroke-width: 0.5"/>
      </defs>
      <g>
       <use xlink:href="#mf15f1db1b9" x="73.234911" y="3.6" style="stroke: #000000; stroke-width: 0.5"/>
      </g>
     </g>
    </g>
    <g id="xtick_7">
     <g id="line2d_13">
      <g>
       <use xlink:href="#made187d85c" x="87.728417" y="225.36" style="stroke: #000000; stroke-width: 0.5"/>
      </g>
     </g>
     <g id="line2d_14">
      <g>
       <use xlink:href="#mf15f1db1b9" x="87.728417" y="3.6" style="stroke: #000000; stroke-width: 0.5"/>
      </g>
     </g>
    </g>
    <g id="xtick_8">
     <g id="line2d_15">
      <g>
       <use xlink:href="#made187d85c" x="102.221924" y="225.36" style="stroke: #000000; stroke-width: 0.5"/>
      </g>
     </g>
     <g id="line2d_16">
      <g>
       <use xlink:href="#mf15f1db1b9" x="102.221924" y="3.6" style="stroke: #000000; stroke-width: 0.5"/>
      </g>
     </g>
    </g>
    <g id="xtick_9">
     <g id="line2d_17">
      <g>
       <use xlink:href="#made187d85c" x="116.71543" y="225.36" style="stroke: #000000; stroke-width: 0.5"/>
      </g>
     </g>
     <g id="line2d_18">
      <g>
       <use xlink:href="#mf15f1db1b9" x="116.71543" y="3.6" style="stroke: #000000; stroke-width: 0.5"/>
      </g>
     </g>
    </g>
    <g id="xtick_10">
     <g id="line2d_19">
      <g>
       <use xlink:href="#made187d85c" x="145.702443" y="225.36" style="stroke: #000000; stroke-width: 0.5"/>
      </g>
     </g>
     <g id="line2d_20">
      <g>
       <use xlink:href="#mf15f1db1b9" x="145.702443" y="3.6" style="stroke: #000000; stroke-width: 0.5"/>
      </g>
     </g>
    </g>
    <g id="xtick_11">
     <g id="line2d_21">
      <g>
       <use xlink:href="#made187d85c" x="160.19595" y="225.36" style="stroke: #000000; stroke-width: 0.5"/>
      </g>
     </g>
     <g id="line2d_22">
      <g>
       <use xlink:href="#mf15f1db1b9" x="160.19595" y="3.6" style="stroke: #000000; stroke-width: 0.5"/>
      </g>
     </g>
    </g>
    <g id="xtick_12">
     <g id="line2d_23">
      <g>
       <use xlink:href="#made187d85c" x="174.689456" y="225.36" style="stroke: #000000; stroke-width: 0.5"/>
      </g>
     </g>
     <g id="line2d_24">
      <g>
       <use xlink:href="#mf15f1db1b9" x="174.689456" y="3.6" style="stroke: #000000; stroke-width: 0.5"/>
      </g>
     </g>
    </g>
    <g id="xtick_13">
     <g id="line2d_25">
      <g>
       <use xlink:href="#made187d85c" x="189.182963" y="225.36" style="stroke: #000000; stroke-width: 0.5"/>
      </g>
     </g>
     <g id="line2d_26">
      <g>
       <use xlink:href="#mf15f1db1b9" x="189.182963" y="3.6" style="stroke: #000000; stroke-width: 0.5"/>
      </g>
     </g>
    </g>
    <g id="xtick_14">
     <g id="line2d_27">
      <g>
       <use xlink:href="#made187d85c" x="218.169976" y="225.36" style="stroke: #000000; stroke-width: 0.5"/>
      </g>
     </g>
     <g id="line2d_28">
      <g>
       <use xlink:href="#mf15f1db1b9" x="218.169976" y="3.6" style="stroke: #000000; stroke-width: 0.5"/>
      </g>
     </g>
    </g>
    <g id="xtick_15">
     <g id="line2d_29">
      <g>
       <use xlink:href="#made187d85c" x="232.663482" y="225.36" style="stroke: #000000; stroke-width: 0.5"/>
      </g>
     </g>
     <g id="line2d_30">
      <g>
       <use xlink:href="#mf15f1db1b9" x="232.663482" y="3.6" style="stroke: #000000; stroke-width: 0.5"/>
      </g>
     </g>
    </g>
    <g id="xtick_16">
     <g id="line2d_31">
      <g>
       <use xlink:href="#made187d85c" x="247.156989" y="225.36" style="stroke: #000000; stroke-width: 0.5"/>
      </g>
     </g>
     <g id="line2d_32">
      <g>
       <use xlink:href="#mf15f1db1b9" x="247.156989" y="3.6" style="stroke: #000000; stroke-width: 0.5"/>
      </g>
     </g>
    </g>
    <g id="xtick_17">
     <g id="line2d_33">
      <g>
       <use xlink:href="#made187d85c" x="261.650495" y="225.36" style="stroke: #000000; stroke-width: 0.5"/>
      </g>
     </g>
     <g id="line2d_34">
      <g>
       <use xlink:href="#mf15f1db1b9" x="261.650495" y="3.6" style="stroke: #000000; stroke-width: 0.5"/>
      </g>
     </g>
    </g>
    <g id="xtick_18">
     <g id="line2d_35">
      <g>
       <use xlink:href="#made187d85c" x="290.637508" y="225.36" style="stroke: #000000; stroke-width: 0.5"/>
      </g>
     </g>
     <g id="line2d_36">
      <g>
       <use xlink:href="#mf15f1db1b9" x="290.637508" y="3.6" style="stroke: #000000; stroke-width: 0.5"/>
      </g>
     </g>
    </g>
    <g id="xtick_19">
     <g id="line2d_37">
      <g>
       <use xlink:href="#made187d85c" x="305.131015" y="225.36" style="stroke: #000000; stroke-width: 0.5"/>
      </g>
     </g>
     <g id="line2d_38">
      <g>
       <use xlink:href="#mf15f1db1b9" x="305.131015" y="3.6" style="stroke: #000000; stroke-width: 0.5"/>
      </g>
     </g>
    </g>
    <g id="xtick_20">
     <g id="line2d_39">
      <g>
       <use xlink:href="#made187d85c" x="319.624521" y="225.36" style="stroke: #000000; stroke-width: 0.5"/>
      </g>
     </g>
     <g id="line2d_40">
      <g>
       <use xlink:href="#mf15f1db1b9" x="319.624521" y="3.6" style="stroke: #000000; stroke-width: 0.5"/>
      </g>
     </g>
    </g>
    <g id="xtick_21">
     <g id="line2d_41">
      <g>
       <use xlink:href="#made187d85c" x="334.118028" y="225.36" style="stroke: #000000; stroke-width: 0.5"/>
      </g>
     </g>
     <g id="line2d_42">
      <g>
       <use xlink:href="#mf15f1db1b9" x="334.118028" y="3.6" style="stroke: #000000; stroke-width: 0.5"/>
      </g>
     </g>
    </g>
    <g id="xtick_22">
     <g id="line2d_43">
      <g>
       <use xlink:href="#made187d85c" x="363.105041" y="225.36" style="stroke: #000000; stroke-width: 0.5"/>
      </g>
     </g>
     <g id="line2d_44">
      <g>
       <use xlink:href="#mf15f1db1b9" x="363.105041" y="3.6" style="stroke: #000000; stroke-width: 0.5"/>
      </g>
     </g>
    </g>
    <g id="xtick_23">
     <g id="line2d_45">
      <g>
       <use xlink:href="#made187d85c" x="377.598547" y="225.36" style="stroke: #000000; stroke-width: 0.5"/>
      </g>
     </g>
     <g id="line2d_46">
      <g>
       <use xlink:href="#mf15f1db1b9" x="377.598547" y="3.6" style="stroke: #000000; stroke-width: 0.5"/>
      </g>
     </g>
    </g>
    <g id="xtick_24">
     <g id="line2d_47">
      <g>
       <use xlink:href="#made187d85c" x="392.092054" y="225.36" style="stroke: #000000; stroke-width: 0.5"/>
      </g>
     </g>
     <g id="line2d_48">
      <g>
       <use xlink:href="#mf15f1db1b9" x="392.092054" y="3.6" style="stroke: #000000; stroke-width: 0.5"/>
      </g>
     </g>
    </g>
    <g id="text_6">
     <!-- Порядковый номер m -->
     <g transform="translate(167.308942 251.651592) scale(0.12 -0.12)">
      <defs>
       <path id="SFRM3583-cf" d="M 467 4352 
L 467 4211 
L 576 4211 
C 742 4211 877 4192 877 3943 
L 877 408 
C 877 159 768 140 467 140 
L 467 0 
L 1600 0 
L 1600 140 
L 1491 140 
C 1338 140 1184 159 1184 376 
C 1184 427 1190 472 1190 516 
L 1190 3873 
C 1190 3911 1184 3962 1184 4007 
C 1184 4147 1242 4211 1363 4211 
L 3110 4211 
C 3251 4211 3264 4103 3264 4001 
L 3264 516 
C 3264 472 3270 427 3270 376 
C 3270 153 3104 140 2931 140 
L 2854 140 
L 2854 0 
L 3987 0 
L 3987 140 
L 3878 140 
C 3712 140 3571 159 3571 408 
C 3571 459 3578 503 3578 554 
L 3578 3943 
C 3578 4192 3686 4211 3987 4211 
L 3987 4352 
L 467 4352 
z
" transform="scale(0.015625)"/>
       <path id="SFRM3583-ee" d="M 1350 2816 
C 614 2725 237 2032 237 1359 
C 237 673 685 -64 1440 -64 
L 1504 -64 
C 2240 26 2624 712 2624 1366 
C 2624 2021 2182 2816 1440 2816 
C 1408 2822 1382 2816 1350 2816 
z
M 563 1256 
L 563 1359 
C 563 1845 621 2388 1114 2660 
C 1197 2699 1293 2731 1389 2738 
L 1434 2738 
C 2054 2738 2298 2006 2298 1482 
C 2298 971 2246 240 1606 46 
C 1549 33 1491 20 1434 20 
C 960 20 653 499 595 958 
C 576 1055 576 1159 563 1256 
z
" transform="scale(0.015625)"/>
       <path id="SFRM3583-f0" d="M 288 2745 
L 288 2605 
L 371 2605 
C 576 2605 666 2522 666 2324 
L 666 -724 
C 666 -769 672 -814 672 -858 
C 672 -1063 512 -1076 346 -1076 
L 288 -1076 
L 288 -1216 
L 1306 -1216 
L 1306 -1076 
L 1216 -1076 
C 1069 -1076 928 -1057 928 -852 
L 934 490 
C 1069 158 1459 -9 1728 -9 
C 2438 -9 2912 707 2912 1410 
C 2912 2036 2534 2816 1798 2816 
C 1453 2816 1050 2598 928 2298 
L 922 2816 
L 288 2745 
z
M 2579 1288 
C 2547 796 2278 68 1709 68 
C 1370 68 922 368 922 765 
C 922 803 928 841 928 880 
L 928 1825 
C 928 1889 922 1953 922 2017 
C 922 2375 1357 2733 1734 2733 
C 2349 2733 2586 1902 2586 1403 
C 2586 1365 2586 1327 2579 1288 
z
" transform="scale(0.015625)"/>
       <path id="SFRM3583-ff" d="M 1344 1414 
C 1235 1248 1107 1088 986 928 
C 755 614 474 102 96 76 
L 96 0 
L 998 0 
L 998 76 
L 941 76 
C 883 76 787 89 787 160 
C 787 281 1024 556 1146 716 
L 1491 1196 
C 1562 1286 1600 1401 1715 1401 
C 1747 1401 1786 1395 1811 1395 
L 2182 1395 
L 2182 268 
C 2157 89 2022 76 1882 76 
L 1805 76 
L 1805 0 
L 2816 0 
L 2816 76 
L 2726 76 
C 2566 76 2438 108 2438 332 
L 2438 2425 
C 2438 2649 2573 2681 2726 2681 
L 2816 2681 
L 2816 2752 
L 1722 2752 
C 1325 2752 781 2752 512 2412 
C 435 2316 397 2208 397 2099 
C 397 1708 787 1510 1126 1446 
C 1197 1427 1274 1414 1344 1414 
z
M 2182 1472 
C 2048 1472 1907 1465 1766 1465 
C 1338 1465 723 1504 723 2099 
C 723 2630 1254 2675 1638 2675 
L 2029 2675 
C 2163 2675 2182 2553 2182 2419 
L 2182 1472 
z
" transform="scale(0.015625)"/>
       <path id="SFRM3583-e4" d="M 832 2752 
L 832 2681 
L 915 2681 
C 1088 2681 1203 2630 1203 2445 
L 1203 2407 
C 1203 1641 1152 85 256 85 
L 173 -1024 
L 256 -1024 
C 275 -744 282 -323 448 -157 
C 582 -23 774 9 960 9 
L 2150 9 
C 2438 9 2778 -10 2854 -444 
C 2899 -635 2912 -833 2925 -1024 
L 3008 -1024 
L 2925 85 
L 2835 85 
C 2675 85 2515 104 2515 340 
L 2515 2432 
C 2515 2649 2650 2681 2803 2681 
L 2893 2681 
L 2893 2752 
L 832 2752 
z
M 2246 245 
C 2246 104 2157 85 2061 85 
L 845 85 
C 806 92 774 111 768 155 
C 768 213 851 283 890 340 
C 1331 1004 1261 1980 1293 2458 
L 1293 2496 
C 1293 2611 1344 2681 1466 2681 
L 2074 2681 
C 2227 2681 2253 2579 2253 2477 
L 2253 353 
C 2253 315 2253 283 2246 245 
z
" transform="scale(0.015625)"/>
       <path id="SFRM3583-ea" d="M 288 2752 
L 288 2681 
L 378 2681 
C 531 2681 666 2649 666 2425 
L 666 332 
C 666 108 538 76 378 76 
L 288 76 
L 288 0 
L 1299 0 
L 1299 76 
L 1216 76 
C 1030 76 922 121 922 339 
L 922 1049 
C 922 1120 941 1145 992 1196 
L 1094 1286 
C 1210 1388 1325 1504 1453 1593 
C 1517 1472 1613 1363 1690 1248 
C 1869 992 2061 742 2234 480 
L 2272 422 
C 2304 364 2355 281 2355 211 
C 2355 121 2266 76 2189 76 
L 2189 0 
L 3085 0 
L 3085 76 
C 2816 76 2650 307 2515 518 
C 2253 883 2003 1241 1741 1606 
C 1709 1657 1677 1708 1632 1753 
L 1632 1760 
C 1933 1984 2176 2278 2496 2483 
C 2630 2579 2784 2675 2957 2681 
L 2957 2752 
L 2176 2752 
L 2176 2681 
C 2240 2649 2259 2630 2259 2579 
C 2259 2380 2067 2252 2067 2252 
C 1920 2112 1766 1990 1613 1856 
C 1382 1651 1158 1446 922 1248 
L 922 2361 
C 922 2592 979 2681 1222 2681 
L 1299 2681 
L 1299 2752 
L 288 2752 
z
" transform="scale(0.015625)"/>
       <path id="SFRM3583-e2" d="M 294 2752 
L 294 2681 
L 358 2681 
C 525 2681 666 2662 666 2425 
L 666 339 
C 666 95 525 76 358 76 
L 294 76 
L 294 0 
L 1818 0 
C 2208 31 2624 275 2669 716 
L 2669 767 
C 2669 1235 2003 1491 1722 1510 
C 1792 1542 1875 1548 1952 1574 
C 2208 1651 2541 1817 2541 2131 
C 2541 2643 1843 2752 1472 2752 
L 294 2752 
z
M 928 1478 
L 1606 1478 
C 2003 1478 2349 1190 2349 780 
L 2349 767 
C 2323 326 1946 76 1555 76 
L 1120 76 
C 979 76 928 115 928 371 
L 928 1478 
z
M 928 1555 
L 928 2431 
C 928 2553 947 2681 1120 2681 
L 1440 2681 
C 1632 2681 1811 2675 1971 2566 
C 2118 2463 2221 2297 2221 2124 
C 2221 1721 1728 1555 1440 1555 
L 928 1555 
z
" transform="scale(0.015625)"/>
       <path id="SFRM3583-fb" d="M 288 2752 
L 288 2681 
L 378 2681 
C 531 2681 666 2649 666 2425 
L 666 332 
C 666 108 538 76 378 76 
L 288 76 
L 288 0 
L 1747 0 
C 2150 25 2675 275 2675 780 
C 2675 1049 2483 1286 2253 1414 
C 2003 1548 1741 1555 1466 1555 
L 928 1555 
L 928 2419 
C 928 2636 1037 2681 1222 2681 
L 1306 2681 
L 1306 2752 
L 998 2752 
L 288 2752 
z
M 928 1484 
L 1536 1484 
C 1946 1484 2349 1214 2349 784 
L 2349 758 
C 2349 347 1933 83 1555 83 
L 1082 83 
C 928 83 928 218 928 372 
L 928 1484 
z
M 2835 2752 
L 2835 2681 
L 2925 2681 
C 3078 2681 3213 2649 3213 2432 
L 3213 326 
C 3213 108 3085 76 2925 76 
L 2835 76 
L 2835 0 
L 3853 0 
L 3853 76 
L 3763 76 
C 3603 76 3475 108 3475 332 
L 3475 2425 
C 3475 2649 3610 2681 3763 2681 
L 3853 2681 
L 3853 2752 
L 2835 2752 
z
" transform="scale(0.015625)"/>
       <path id="SFRM3583-e9" d="M 288 2758 
L 288 2688 
L 378 2688 
C 531 2688 666 2655 666 2431 
L 666 333 
C 666 109 538 76 378 76 
L 288 76 
L 288 0 
L 1306 0 
L 1306 76 
L 1216 76 
C 1075 76 960 96 928 269 
L 928 314 
C 928 397 1005 468 1050 532 
C 1331 955 1632 1372 1926 1789 
L 2131 2084 
C 2170 2142 2214 2193 2246 2258 
L 2253 333 
C 2253 102 2112 76 1965 76 
L 1875 76 
L 1875 0 
L 2893 0 
L 2893 76 
L 2803 76 
C 2643 76 2515 109 2515 333 
L 2515 2431 
C 2515 2655 2650 2688 2803 2688 
L 2893 2688 
L 2893 2758 
L 1875 2758 
L 1875 2688 
L 1965 2688 
C 2106 2688 2221 2662 2253 2489 
L 2253 2444 
C 2253 2360 2176 2290 2131 2226 
C 1850 1802 1549 1385 1254 968 
L 1050 673 
C 1011 615 966 564 934 500 
L 928 2431 
C 928 2642 1050 2688 1216 2688 
L 1306 2688 
L 1306 2758 
L 998 2752 
L 288 2758 
z
M 2221 3276 
C 2080 3078 1843 3001 1606 3001 
C 1357 3001 1114 3072 960 3276 
C 986 3270 1011 3264 1037 3264 
C 1146 3264 1235 3353 1235 3456 
C 1235 3552 1158 3654 1037 3660 
C 883 3660 832 3545 832 3443 
C 832 3052 1274 2880 1600 2880 
L 1626 2880 
C 1939 2886 2349 3072 2349 3443 
C 2349 3532 2291 3660 2157 3660 
L 2150 3660 
C 2029 3660 1952 3558 1952 3456 
C 1952 3360 2029 3257 2144 3257 
C 2170 3257 2195 3264 2221 3270 
L 2221 3276 
z
" transform="scale(0.015625)"/>
       <path id="SFRM3583-ed" d="M 288 2752 
L 288 2687 
L 378 2687 
C 531 2687 666 2655 666 2431 
L 666 333 
C 666 109 538 76 378 76 
L 288 76 
L 288 0 
L 1306 0 
L 1306 76 
L 1229 76 
C 1088 76 954 89 928 269 
L 928 1478 
L 2253 1478 
L 2253 268 
C 2227 89 2093 76 1952 76 
L 1875 76 
L 1875 0 
L 2893 0 
L 2893 76 
L 2803 76 
C 2643 76 2515 108 2515 332 
L 2515 2425 
C 2515 2649 2650 2681 2803 2681 
L 2893 2681 
L 2893 2752 
L 1875 2752 
L 1875 2681 
L 1958 2681 
C 2144 2681 2253 2636 2253 2419 
L 2253 1555 
L 928 1555 
L 928 2419 
C 928 2636 1037 2681 1222 2681 
L 1306 2681 
L 1306 2752 
L 998 2752 
L 288 2752 
z
" transform="scale(0.015625)"/>
       <path id="SFRM3583-ec" d="M 294 2752 
L 294 2681 
L 384 2681 
C 538 2681 672 2643 672 2425 
L 672 979 
C 672 870 678 755 678 640 
C 678 403 659 76 294 76 
L 294 0 
L 1139 0 
L 1139 76 
C 787 76 762 377 762 588 
L 768 2630 
C 813 2412 947 2169 1030 1945 
L 1549 620 
C 1606 460 1670 307 1734 147 
C 1747 102 1766 6 1824 0 
C 1894 0 2029 416 2099 614 
C 2342 1209 2560 1817 2803 2412 
C 2835 2489 2874 2572 2893 2656 
L 2899 339 
C 2899 108 2771 76 2611 76 
L 2522 76 
L 2522 0 
L 3526 0 
L 3526 76 
L 3437 76 
C 3277 76 3149 108 3149 332 
L 3149 2425 
C 3149 2649 3283 2681 3437 2681 
L 3526 2681 
L 3526 2752 
L 2938 2752 
L 2874 2739 
L 2835 2688 
L 1914 326 
L 1043 2566 
L 960 2739 
L 890 2752 
L 294 2752 
z
" transform="scale(0.015625)"/>
       <path id="SFRM3583-e5" d="M 563 1515 
L 2246 1515 
C 2259 1515 2285 1508 2310 1508 
C 2355 1508 2374 1534 2374 1573 
C 2374 2149 2099 2816 1382 2816 
C 614 2816 237 2019 237 1385 
C 237 751 589 33 1350 -64 
C 1376 -58 1402 -64 1427 -64 
C 1869 -64 2208 245 2355 665 
C 2362 685 2368 710 2368 730 
C 2368 749 2362 768 2336 768 
C 2272 768 2266 665 2246 607 
C 2118 297 1843 26 1485 26 
C 1216 26 960 181 813 400 
C 576 723 563 1137 563 1517 
L 563 1515 
z
M 570 1595 
C 582 2099 832 2738 1370 2738 
C 1818 2738 2010 2260 2061 1886 
C 2067 1789 2067 1692 2080 1595 
L 570 1595 
z
" transform="scale(0.015625)"/>
       <path id="SFRM3583-6d" d="M 301 2744 
L 301 2602 
L 365 2602 
C 570 2602 678 2557 678 2273 
L 678 360 
C 678 153 525 140 301 140 
L 301 0 
L 1318 0 
L 1318 140 
L 1229 140 
C 1082 140 941 160 941 360 
L 941 1258 
C 941 1375 934 1484 934 1601 
C 934 2066 1088 2738 1715 2738 
C 2112 2738 2272 2428 2272 1950 
L 2272 360 
C 2272 153 2118 140 1894 140 
L 1894 0 
L 2912 0 
L 2912 140 
L 2822 140 
C 2675 140 2534 160 2534 360 
L 2534 1258 
C 2534 1375 2528 1484 2528 1601 
C 2528 2066 2682 2738 3309 2738 
C 3706 2738 3866 2428 3866 1950 
L 3866 360 
C 3866 153 3712 140 3488 140 
L 3488 0 
L 4506 0 
L 4506 140 
L 4403 140 
C 4256 140 4128 160 4128 386 
L 4128 1859 
C 4128 2292 4058 2816 3354 2816 
C 2957 2816 2611 2525 2534 2144 
L 2528 2144 
C 2470 2486 2323 2816 1760 2816 
C 1357 2816 998 2492 934 2118 
L 928 2816 
L 301 2744 
z
" transform="scale(0.015625)"/>
      </defs>
      <use xlink:href="#SFRM3583-cf" transform="scale(0.996264)"/>
      <use xlink:href="#SFRM3583-ee" transform="translate(69.320979 0) scale(0.996264)"/>
      <use xlink:href="#SFRM3583-f0" transform="translate(113.899446 0) scale(0.996264)"/>
      <use xlink:href="#SFRM3583-ff" transform="translate(160.957886 0) scale(0.996264)"/>
      <use xlink:href="#SFRM3583-e4" transform="translate(209.25632 0) scale(0.996264)"/>
      <use xlink:href="#SFRM3583-ea" transform="translate(258.794748 0) scale(0.996264)"/>
      <use xlink:href="#SFRM3583-ee" transform="translate(305.853188 0) scale(0.996264)"/>
      <use xlink:href="#SFRM3583-e2" transform="translate(350.431655 0) scale(0.996264)"/>
      <use xlink:href="#SFRM3583-fb" transform="translate(395.010121 0) scale(0.996264)"/>
      <use xlink:href="#SFRM3583-e9" transform="translate(459.428708 0) scale(0.996264)"/>
      <use xlink:href="#SFRM3583-ed" transform="translate(538.665429 0) scale(0.996264)"/>
      <use xlink:href="#SFRM3583-ee" transform="translate(588.203858 0) scale(0.996264)"/>
      <use xlink:href="#SFRM3583-ec" transform="translate(632.782324 0) scale(0.996264)"/>
      <use xlink:href="#SFRM3583-e5" transform="translate(692.240858 0) scale(0.996264)"/>
      <use xlink:href="#SFRM3583-f0" transform="translate(731.859257 0) scale(0.996264)"/>
      <use xlink:href="#SFRM3583-6d" transform="translate(811.095979 0) scale(0.996264)"/>
     </g>
    </g>
   </g>
   <g id="matplotlib.axis_2">
    <g id="ytick_1">
     <g id="line2d_49">
      <defs>
       <path id="mc3916b7a44" d="M 0 0 
L 3 0 
" style="stroke: #000000; stroke-width: 0.5"/>
      </defs>
      <g>
       <use xlink:href="#mc3916b7a44" x="58.016729" y="223.424792" style="stroke: #000000; stroke-width: 0.5"/>
      </g>
     </g>
     <g id="line2d_50">
      <defs>
       <path id="m02c2d4688c" d="M 0 0 
L -3 0 
" style="stroke: #000000; stroke-width: 0.5"/>
      </defs>
      <g>
       <use xlink:href="#m02c2d4688c" x="392.816729" y="223.424792" style="stroke: #000000; stroke-width: 0.5"/>
      </g>
     </g>
     <g id="text_7">
      <!-- $\mathdefault{0}$ -->
      <g transform="translate(48.663739 227.541678) scale(0.12 -0.12)">
       <use xlink:href="#CMR17-30" transform="scale(0.996264)"/>
      </g>
     </g>
    </g>
    <g id="ytick_2">
     <g id="line2d_51">
      <g>
       <use xlink:href="#mc3916b7a44" x="58.016729" y="197.478395" style="stroke: #000000; stroke-width: 0.5"/>
      </g>
     </g>
     <g id="line2d_52">
      <g>
       <use xlink:href="#m02c2d4688c" x="392.816729" y="197.478395" style="stroke: #000000; stroke-width: 0.5"/>
      </g>
     </g>
     <g id="text_8">
      <!-- $\mathdefault{20000}$ -->
      <g transform="translate(25.251778 201.595281) scale(0.12 -0.12)">
       <use xlink:href="#CMR17-32" transform="scale(0.996264)"/>
       <use xlink:href="#CMR17-30" transform="translate(45.690477 0) scale(0.996264)"/>
       <use xlink:href="#CMR17-30" transform="translate(91.380954 0) scale(0.996264)"/>
       <use xlink:href="#CMR17-30" transform="translate(137.071431 0) scale(0.996264)"/>
       <use xlink:href="#CMR17-30" transform="translate(182.761908 0) scale(0.996264)"/>
      </g>
     </g>
    </g>
    <g id="ytick_3">
     <g id="line2d_53">
      <g>
       <use xlink:href="#mc3916b7a44" x="58.016729" y="171.531998" style="stroke: #000000; stroke-width: 0.5"/>
      </g>
     </g>
     <g id="line2d_54">
      <g>
       <use xlink:href="#m02c2d4688c" x="392.816729" y="171.531998" style="stroke: #000000; stroke-width: 0.5"/>
      </g>
     </g>
     <g id="text_9">
      <!-- $\mathdefault{40000}$ -->
      <g transform="translate(25.251778 175.648883) scale(0.12 -0.12)">
       <defs>
        <path id="CMR17-34" d="M 2150 4147 
C 2150 4281 2144 4288 2029 4288 
L 128 1254 
L 128 1088 
L 1779 1088 
L 1779 460 
C 1779 230 1766 166 1318 166 
L 1197 166 
L 1197 0 
C 1402 12 1747 12 1965 12 
C 2182 12 2528 12 2733 0 
L 2733 166 
L 2611 166 
C 2163 166 2150 230 2150 460 
L 2150 1088 
L 2803 1088 
L 2803 1254 
L 2150 1254 
L 2150 4147 
z
M 1798 3723 
L 1798 1254 
L 256 1254 
L 1798 3723 
z
" transform="scale(0.015625)"/>
       </defs>
       <use xlink:href="#CMR17-34" transform="scale(0.996264)"/>
       <use xlink:href="#CMR17-30" transform="translate(45.690477 0) scale(0.996264)"/>
       <use xlink:href="#CMR17-30" transform="translate(91.380954 0) scale(0.996264)"/>
       <use xlink:href="#CMR17-30" transform="translate(137.071431 0) scale(0.996264)"/>
       <use xlink:href="#CMR17-30" transform="translate(182.761908 0) scale(0.996264)"/>
      </g>
     </g>
    </g>
    <g id="ytick_4">
     <g id="line2d_55">
      <g>
       <use xlink:href="#mc3916b7a44" x="58.016729" y="145.5856" style="stroke: #000000; stroke-width: 0.5"/>
      </g>
     </g>
     <g id="line2d_56">
      <g>
       <use xlink:href="#m02c2d4688c" x="392.816729" y="145.5856" style="stroke: #000000; stroke-width: 0.5"/>
      </g>
     </g>
     <g id="text_10">
      <!-- $\mathdefault{60000}$ -->
      <g transform="translate(25.251778 149.702486) scale(0.12 -0.12)">
       <defs>
        <path id="CMR17-36" d="M 678 2198 
C 678 3712 1395 4076 1811 4076 
C 1946 4076 2272 4049 2400 3782 
C 2298 3782 2106 3782 2106 3558 
C 2106 3385 2246 3328 2336 3328 
C 2394 3328 2566 3353 2566 3571 
C 2566 3987 2246 4224 1805 4224 
C 1043 4224 243 3411 243 2011 
C 243 257 966 -128 1478 -128 
C 2099 -128 2688 431 2688 1295 
C 2688 2101 2170 2688 1517 2688 
C 1126 2688 838 2430 678 1979 
L 678 2198 
z
M 1478 25 
C 691 25 691 1212 691 1450 
C 691 1914 909 2585 1504 2585 
C 1613 2585 1926 2585 2138 2140 
C 2253 1889 2253 1624 2253 1302 
C 2253 954 2253 696 2118 438 
C 1978 173 1773 25 1478 25 
z
" transform="scale(0.015625)"/>
       </defs>
       <use xlink:href="#CMR17-36" transform="scale(0.996264)"/>
       <use xlink:href="#CMR17-30" transform="translate(45.690477 0) scale(0.996264)"/>
       <use xlink:href="#CMR17-30" transform="translate(91.380954 0) scale(0.996264)"/>
       <use xlink:href="#CMR17-30" transform="translate(137.071431 0) scale(0.996264)"/>
       <use xlink:href="#CMR17-30" transform="translate(182.761908 0) scale(0.996264)"/>
      </g>
     </g>
    </g>
    <g id="ytick_5">
     <g id="line2d_57">
      <g>
       <use xlink:href="#mc3916b7a44" x="58.016729" y="119.639203" style="stroke: #000000; stroke-width: 0.5"/>
      </g>
     </g>
     <g id="line2d_58">
      <g>
       <use xlink:href="#m02c2d4688c" x="392.816729" y="119.639203" style="stroke: #000000; stroke-width: 0.5"/>
      </g>
     </g>
     <g id="text_11">
      <!-- $\mathdefault{80000}$ -->
      <g transform="translate(25.251778 123.756089) scale(0.12 -0.12)">
       <defs>
        <path id="CMR17-38" d="M 1741 2289 
C 2144 2494 2554 2803 2554 3298 
C 2554 3884 1990 4224 1472 4224 
C 890 4224 378 3800 378 3215 
C 378 3054 416 2777 666 2533 
C 730 2469 998 2276 1171 2154 
C 883 2006 211 1652 211 945 
C 211 282 838 -128 1459 -128 
C 2144 -128 2720 366 2720 1022 
C 2720 1607 2330 1877 2074 2051 
L 1741 2289 
z
M 902 2855 
C 851 2887 595 3086 595 3388 
C 595 3781 998 4076 1459 4076 
C 1965 4076 2336 3716 2336 3298 
C 2336 2700 1670 2359 1638 2359 
C 1632 2359 1626 2359 1574 2398 
L 902 2855 
z
M 2080 1536 
C 2176 1466 2483 1253 2483 861 
C 2483 385 2010 25 1472 25 
C 890 25 448 443 448 951 
C 448 1459 838 1884 1280 2083 
L 2080 1536 
z
" transform="scale(0.015625)"/>
       </defs>
       <use xlink:href="#CMR17-38" transform="scale(0.996264)"/>
       <use xlink:href="#CMR17-30" transform="translate(45.690477 0) scale(0.996264)"/>
       <use xlink:href="#CMR17-30" transform="translate(91.380954 0) scale(0.996264)"/>
       <use xlink:href="#CMR17-30" transform="translate(137.071431 0) scale(0.996264)"/>
       <use xlink:href="#CMR17-30" transform="translate(182.761908 0) scale(0.996264)"/>
      </g>
     </g>
    </g>
    <g id="ytick_6">
     <g id="line2d_59">
      <g>
       <use xlink:href="#mc3916b7a44" x="58.016729" y="93.692806" style="stroke: #000000; stroke-width: 0.5"/>
      </g>
     </g>
     <g id="line2d_60">
      <g>
       <use xlink:href="#m02c2d4688c" x="392.816729" y="93.692806" style="stroke: #000000; stroke-width: 0.5"/>
      </g>
     </g>
     <g id="text_12">
      <!-- $\mathdefault{100000}$ -->
      <g transform="translate(19.398787 97.809692) scale(0.12 -0.12)">
       <use xlink:href="#CMR17-31" transform="scale(0.996264)"/>
       <use xlink:href="#CMR17-30" transform="translate(45.690477 0) scale(0.996264)"/>
       <use xlink:href="#CMR17-30" transform="translate(91.380954 0) scale(0.996264)"/>
       <use xlink:href="#CMR17-30" transform="translate(137.071431 0) scale(0.996264)"/>
       <use xlink:href="#CMR17-30" transform="translate(182.761908 0) scale(0.996264)"/>
       <use xlink:href="#CMR17-30" transform="translate(228.452386 0) scale(0.996264)"/>
      </g>
     </g>
    </g>
    <g id="ytick_7">
     <g id="line2d_61">
      <g>
       <use xlink:href="#mc3916b7a44" x="58.016729" y="67.746408" style="stroke: #000000; stroke-width: 0.5"/>
      </g>
     </g>
     <g id="line2d_62">
      <g>
       <use xlink:href="#m02c2d4688c" x="392.816729" y="67.746408" style="stroke: #000000; stroke-width: 0.5"/>
      </g>
     </g>
     <g id="text_13">
      <!-- $\mathdefault{120000}$ -->
      <g transform="translate(19.398787 71.863294) scale(0.12 -0.12)">
       <use xlink:href="#CMR17-31" transform="scale(0.996264)"/>
       <use xlink:href="#CMR17-32" transform="translate(45.690477 0) scale(0.996264)"/>
       <use xlink:href="#CMR17-30" transform="translate(91.380954 0) scale(0.996264)"/>
       <use xlink:href="#CMR17-30" transform="translate(137.071431 0) scale(0.996264)"/>
       <use xlink:href="#CMR17-30" transform="translate(182.761908 0) scale(0.996264)"/>
       <use xlink:href="#CMR17-30" transform="translate(228.452386 0) scale(0.996264)"/>
      </g>
     </g>
    </g>
    <g id="ytick_8">
     <g id="line2d_63">
      <g>
       <use xlink:href="#mc3916b7a44" x="58.016729" y="41.800011" style="stroke: #000000; stroke-width: 0.5"/>
      </g>
     </g>
     <g id="line2d_64">
      <g>
       <use xlink:href="#m02c2d4688c" x="392.816729" y="41.800011" style="stroke: #000000; stroke-width: 0.5"/>
      </g>
     </g>
     <g id="text_14">
      <!-- $\mathdefault{140000}$ -->
      <g transform="translate(19.398787 45.916897) scale(0.12 -0.12)">
       <use xlink:href="#CMR17-31" transform="scale(0.996264)"/>
       <use xlink:href="#CMR17-34" transform="translate(45.690477 0) scale(0.996264)"/>
       <use xlink:href="#CMR17-30" transform="translate(91.380954 0) scale(0.996264)"/>
       <use xlink:href="#CMR17-30" transform="translate(137.071431 0) scale(0.996264)"/>
       <use xlink:href="#CMR17-30" transform="translate(182.761908 0) scale(0.996264)"/>
       <use xlink:href="#CMR17-30" transform="translate(228.452386 0) scale(0.996264)"/>
      </g>
     </g>
    </g>
    <g id="ytick_9">
     <g id="line2d_65">
      <g>
       <use xlink:href="#mc3916b7a44" x="58.016729" y="15.853614" style="stroke: #000000; stroke-width: 0.5"/>
      </g>
     </g>
     <g id="line2d_66">
      <g>
       <use xlink:href="#m02c2d4688c" x="392.816729" y="15.853614" style="stroke: #000000; stroke-width: 0.5"/>
      </g>
     </g>
     <g id="text_15">
      <!-- $\mathdefault{160000}$ -->
      <g transform="translate(19.398787 19.9705) scale(0.12 -0.12)">
       <use xlink:href="#CMR17-31" transform="scale(0.996264)"/>
       <use xlink:href="#CMR17-36" transform="translate(45.690477 0) scale(0.996264)"/>
       <use xlink:href="#CMR17-30" transform="translate(91.380954 0) scale(0.996264)"/>
       <use xlink:href="#CMR17-30" transform="translate(137.071431 0) scale(0.996264)"/>
       <use xlink:href="#CMR17-30" transform="translate(182.761908 0) scale(0.996264)"/>
       <use xlink:href="#CMR17-30" transform="translate(228.452386 0) scale(0.996264)"/>
      </g>
     </g>
    </g>
    <g id="ytick_10">
     <g id="line2d_67">
      <defs>
       <path id="mcc9c10652b" d="M 0 0 
L 1.5 0 
" style="stroke: #000000; stroke-width: 0.5"/>
      </defs>
      <g>
       <use xlink:href="#mcc9c10652b" x="58.016729" y="216.938193" style="stroke: #000000; stroke-width: 0.5"/>
      </g>
     </g>
     <g id="line2d_68">
      <defs>
       <path id="m0e1dc9898f" d="M 0 0 
L -1.5 0 
" style="stroke: #000000; stroke-width: 0.5"/>
      </defs>
      <g>
       <use xlink:href="#m0e1dc9898f" x="392.816729" y="216.938193" style="stroke: #000000; stroke-width: 0.5"/>
      </g>
     </g>
    </g>
    <g id="ytick_11">
     <g id="line2d_69">
      <g>
       <use xlink:href="#mcc9c10652b" x="58.016729" y="210.451594" style="stroke: #000000; stroke-width: 0.5"/>
      </g>
     </g>
     <g id="line2d_70">
      <g>
       <use xlink:href="#m0e1dc9898f" x="392.816729" y="210.451594" style="stroke: #000000; stroke-width: 0.5"/>
      </g>
     </g>
    </g>
    <g id="ytick_12">
     <g id="line2d_71">
      <g>
       <use xlink:href="#mcc9c10652b" x="58.016729" y="203.964994" style="stroke: #000000; stroke-width: 0.5"/>
      </g>
     </g>
     <g id="line2d_72">
      <g>
       <use xlink:href="#m0e1dc9898f" x="392.816729" y="203.964994" style="stroke: #000000; stroke-width: 0.5"/>
      </g>
     </g>
    </g>
    <g id="ytick_13">
     <g id="line2d_73">
      <g>
       <use xlink:href="#mcc9c10652b" x="58.016729" y="190.991796" style="stroke: #000000; stroke-width: 0.5"/>
      </g>
     </g>
     <g id="line2d_74">
      <g>
       <use xlink:href="#m0e1dc9898f" x="392.816729" y="190.991796" style="stroke: #000000; stroke-width: 0.5"/>
      </g>
     </g>
    </g>
    <g id="ytick_14">
     <g id="line2d_75">
      <g>
       <use xlink:href="#mcc9c10652b" x="58.016729" y="184.505196" style="stroke: #000000; stroke-width: 0.5"/>
      </g>
     </g>
     <g id="line2d_76">
      <g>
       <use xlink:href="#m0e1dc9898f" x="392.816729" y="184.505196" style="stroke: #000000; stroke-width: 0.5"/>
      </g>
     </g>
    </g>
    <g id="ytick_15">
     <g id="line2d_77">
      <g>
       <use xlink:href="#mcc9c10652b" x="58.016729" y="178.018597" style="stroke: #000000; stroke-width: 0.5"/>
      </g>
     </g>
     <g id="line2d_78">
      <g>
       <use xlink:href="#m0e1dc9898f" x="392.816729" y="178.018597" style="stroke: #000000; stroke-width: 0.5"/>
      </g>
     </g>
    </g>
    <g id="ytick_16">
     <g id="line2d_79">
      <g>
       <use xlink:href="#mcc9c10652b" x="58.016729" y="165.045398" style="stroke: #000000; stroke-width: 0.5"/>
      </g>
     </g>
     <g id="line2d_80">
      <g>
       <use xlink:href="#m0e1dc9898f" x="392.816729" y="165.045398" style="stroke: #000000; stroke-width: 0.5"/>
      </g>
     </g>
    </g>
    <g id="ytick_17">
     <g id="line2d_81">
      <g>
       <use xlink:href="#mcc9c10652b" x="58.016729" y="158.558799" style="stroke: #000000; stroke-width: 0.5"/>
      </g>
     </g>
     <g id="line2d_82">
      <g>
       <use xlink:href="#m0e1dc9898f" x="392.816729" y="158.558799" style="stroke: #000000; stroke-width: 0.5"/>
      </g>
     </g>
    </g>
    <g id="ytick_18">
     <g id="line2d_83">
      <g>
       <use xlink:href="#mcc9c10652b" x="58.016729" y="152.0722" style="stroke: #000000; stroke-width: 0.5"/>
      </g>
     </g>
     <g id="line2d_84">
      <g>
       <use xlink:href="#m0e1dc9898f" x="392.816729" y="152.0722" style="stroke: #000000; stroke-width: 0.5"/>
      </g>
     </g>
    </g>
    <g id="ytick_19">
     <g id="line2d_85">
      <g>
       <use xlink:href="#mcc9c10652b" x="58.016729" y="139.099001" style="stroke: #000000; stroke-width: 0.5"/>
      </g>
     </g>
     <g id="line2d_86">
      <g>
       <use xlink:href="#m0e1dc9898f" x="392.816729" y="139.099001" style="stroke: #000000; stroke-width: 0.5"/>
      </g>
     </g>
    </g>
    <g id="ytick_20">
     <g id="line2d_87">
      <g>
       <use xlink:href="#mcc9c10652b" x="58.016729" y="132.612402" style="stroke: #000000; stroke-width: 0.5"/>
      </g>
     </g>
     <g id="line2d_88">
      <g>
       <use xlink:href="#m0e1dc9898f" x="392.816729" y="132.612402" style="stroke: #000000; stroke-width: 0.5"/>
      </g>
     </g>
    </g>
    <g id="ytick_21">
     <g id="line2d_89">
      <g>
       <use xlink:href="#mcc9c10652b" x="58.016729" y="126.125802" style="stroke: #000000; stroke-width: 0.5"/>
      </g>
     </g>
     <g id="line2d_90">
      <g>
       <use xlink:href="#m0e1dc9898f" x="392.816729" y="126.125802" style="stroke: #000000; stroke-width: 0.5"/>
      </g>
     </g>
    </g>
    <g id="ytick_22">
     <g id="line2d_91">
      <g>
       <use xlink:href="#mcc9c10652b" x="58.016729" y="113.152604" style="stroke: #000000; stroke-width: 0.5"/>
      </g>
     </g>
     <g id="line2d_92">
      <g>
       <use xlink:href="#m0e1dc9898f" x="392.816729" y="113.152604" style="stroke: #000000; stroke-width: 0.5"/>
      </g>
     </g>
    </g>
    <g id="ytick_23">
     <g id="line2d_93">
      <g>
       <use xlink:href="#mcc9c10652b" x="58.016729" y="106.666004" style="stroke: #000000; stroke-width: 0.5"/>
      </g>
     </g>
     <g id="line2d_94">
      <g>
       <use xlink:href="#m0e1dc9898f" x="392.816729" y="106.666004" style="stroke: #000000; stroke-width: 0.5"/>
      </g>
     </g>
    </g>
    <g id="ytick_24">
     <g id="line2d_95">
      <g>
       <use xlink:href="#mcc9c10652b" x="58.016729" y="100.179405" style="stroke: #000000; stroke-width: 0.5"/>
      </g>
     </g>
     <g id="line2d_96">
      <g>
       <use xlink:href="#m0e1dc9898f" x="392.816729" y="100.179405" style="stroke: #000000; stroke-width: 0.5"/>
      </g>
     </g>
    </g>
    <g id="ytick_25">
     <g id="line2d_97">
      <g>
       <use xlink:href="#mcc9c10652b" x="58.016729" y="87.206206" style="stroke: #000000; stroke-width: 0.5"/>
      </g>
     </g>
     <g id="line2d_98">
      <g>
       <use xlink:href="#m0e1dc9898f" x="392.816729" y="87.206206" style="stroke: #000000; stroke-width: 0.5"/>
      </g>
     </g>
    </g>
    <g id="ytick_26">
     <g id="line2d_99">
      <g>
       <use xlink:href="#mcc9c10652b" x="58.016729" y="80.719607" style="stroke: #000000; stroke-width: 0.5"/>
      </g>
     </g>
     <g id="line2d_100">
      <g>
       <use xlink:href="#m0e1dc9898f" x="392.816729" y="80.719607" style="stroke: #000000; stroke-width: 0.5"/>
      </g>
     </g>
    </g>
    <g id="ytick_27">
     <g id="line2d_101">
      <g>
       <use xlink:href="#mcc9c10652b" x="58.016729" y="74.233008" style="stroke: #000000; stroke-width: 0.5"/>
      </g>
     </g>
     <g id="line2d_102">
      <g>
       <use xlink:href="#m0e1dc9898f" x="392.816729" y="74.233008" style="stroke: #000000; stroke-width: 0.5"/>
      </g>
     </g>
    </g>
    <g id="ytick_28">
     <g id="line2d_103">
      <g>
       <use xlink:href="#mcc9c10652b" x="58.016729" y="61.259809" style="stroke: #000000; stroke-width: 0.5"/>
      </g>
     </g>
     <g id="line2d_104">
      <g>
       <use xlink:href="#m0e1dc9898f" x="392.816729" y="61.259809" style="stroke: #000000; stroke-width: 0.5"/>
      </g>
     </g>
    </g>
    <g id="ytick_29">
     <g id="line2d_105">
      <g>
       <use xlink:href="#mcc9c10652b" x="58.016729" y="54.77321" style="stroke: #000000; stroke-width: 0.5"/>
      </g>
     </g>
     <g id="line2d_106">
      <g>
       <use xlink:href="#m0e1dc9898f" x="392.816729" y="54.77321" style="stroke: #000000; stroke-width: 0.5"/>
      </g>
     </g>
    </g>
    <g id="ytick_30">
     <g id="line2d_107">
      <g>
       <use xlink:href="#mcc9c10652b" x="58.016729" y="48.28661" style="stroke: #000000; stroke-width: 0.5"/>
      </g>
     </g>
     <g id="line2d_108">
      <g>
       <use xlink:href="#m0e1dc9898f" x="392.816729" y="48.28661" style="stroke: #000000; stroke-width: 0.5"/>
      </g>
     </g>
    </g>
    <g id="ytick_31">
     <g id="line2d_109">
      <g>
       <use xlink:href="#mcc9c10652b" x="58.016729" y="35.313412" style="stroke: #000000; stroke-width: 0.5"/>
      </g>
     </g>
     <g id="line2d_110">
      <g>
       <use xlink:href="#m0e1dc9898f" x="392.816729" y="35.313412" style="stroke: #000000; stroke-width: 0.5"/>
      </g>
     </g>
    </g>
    <g id="ytick_32">
     <g id="line2d_111">
      <g>
       <use xlink:href="#mcc9c10652b" x="58.016729" y="28.826812" style="stroke: #000000; stroke-width: 0.5"/>
      </g>
     </g>
     <g id="line2d_112">
      <g>
       <use xlink:href="#m0e1dc9898f" x="392.816729" y="28.826812" style="stroke: #000000; stroke-width: 0.5"/>
      </g>
     </g>
    </g>
    <g id="ytick_33">
     <g id="line2d_113">
      <g>
       <use xlink:href="#mcc9c10652b" x="58.016729" y="22.340213" style="stroke: #000000; stroke-width: 0.5"/>
      </g>
     </g>
     <g id="line2d_114">
      <g>
       <use xlink:href="#m0e1dc9898f" x="392.816729" y="22.340213" style="stroke: #000000; stroke-width: 0.5"/>
      </g>
     </g>
    </g>
    <g id="ytick_34">
     <g id="line2d_115">
      <g>
       <use xlink:href="#mcc9c10652b" x="58.016729" y="9.367015" style="stroke: #000000; stroke-width: 0.5"/>
      </g>
     </g>
     <g id="line2d_116">
      <g>
       <use xlink:href="#m0e1dc9898f" x="392.816729" y="9.367015" style="stroke: #000000; stroke-width: 0.5"/>
      </g>
     </g>
    </g>
    <g id="text_16">
     <!-- Квадрат расстояния до центра, $\text{мкм}^2$ -->
     <g transform="translate(13.074739 214.122036) rotate(-90) scale(0.12 -0.12)">
      <defs>
       <path id="SFRM3583-ca" d="M 467 4352 
L 467 4211 
L 576 4211 
C 742 4211 877 4192 877 3943 
L 877 408 
C 877 159 768 140 467 140 
L 467 0 
L 1600 0 
L 1600 140 
L 1536 140 
C 1338 140 1184 153 1184 382 
C 1184 433 1190 484 1190 523 
L 1190 1491 
C 1190 1605 1325 1688 1402 1765 
C 1555 1924 1715 2083 1862 2242 
C 1926 2306 2003 2370 2054 2446 
L 2067 2446 
C 2099 2370 2150 2306 2195 2236 
L 2426 1879 
C 2669 1497 2918 1109 3162 726 
L 3283 535 
C 3334 459 3398 363 3398 280 
C 3398 198 3328 140 3213 140 
L 3213 0 
L 4211 0 
L 4211 140 
C 3910 140 3789 312 3590 618 
C 3462 822 3328 1026 3200 1230 
L 2368 2529 
C 2342 2567 2298 2612 2291 2657 
C 2291 2676 2304 2695 2317 2707 
L 2394 2784 
C 2682 3071 2963 3370 3251 3663 
C 3488 3911 3763 4204 4134 4211 
L 4134 4352 
L 3302 4352 
L 3302 4211 
C 3379 4173 3411 4153 3411 4077 
C 3411 3880 3142 3682 3002 3529 
C 2406 2905 1805 2287 1190 1676 
L 1190 3988 
C 1190 4198 1357 4211 1542 4211 
L 1600 4211 
L 1600 4352 
L 467 4352 
z
" transform="scale(0.015625)"/>
       <path id="SFRM3583-e0" d="M 576 2058 
C 659 2401 883 2738 1274 2738 
C 1619 2738 1869 2408 1920 2090 
C 1933 2006 1933 1915 1933 1831 
L 1933 1579 
C 1318 1579 474 1436 320 659 
C 314 620 314 575 314 536 
C 314 102 800 -64 1133 -64 
C 1446 -64 1856 141 1939 497 
L 1946 497 
C 1946 225 2125 -45 2394 -45 
C 2746 -45 2829 335 2829 614 
L 2829 905 
L 2746 905 
L 2746 575 
C 2746 368 2701 70 2470 70 
C 2208 70 2195 413 2195 588 
L 2195 1792 
C 2195 1954 2189 2123 2125 2278 
C 1990 2595 1638 2816 1293 2816 
C 800 2816 480 2375 480 1896 
C 480 1773 570 1702 672 1702 
C 774 1702 858 1786 858 1890 
C 858 1987 794 2077 672 2077 
C 640 2077 608 2071 576 2058 
z
M 1933 1507 
L 1933 873 
C 1933 445 1670 44 1229 12 
L 1190 12 
C 896 12 627 245 627 562 
C 627 1236 1363 1507 1933 1507 
z
" transform="scale(0.015625)"/>
       <path id="SFRM3583-f2" d="M 198 2752 
L 141 1785 
L 224 1785 
C 237 2028 243 2348 378 2515 
C 512 2656 723 2675 902 2675 
L 1126 2675 
C 1286 2675 1299 2560 1299 2444 
L 1299 377 
C 1299 102 1158 76 768 76 
L 768 0 
L 2093 0 
L 2093 76 
L 1933 76 
C 1734 76 1562 102 1562 377 
L 1562 2444 
C 1562 2560 1574 2675 1734 2675 
L 1958 2675 
C 2221 2675 2534 2630 2586 2259 
C 2618 2105 2630 1945 2637 1785 
L 2720 1785 
L 2662 2752 
L 198 2752 
z
" transform="scale(0.015625)"/>
       <path id="SFRM3583-f1" d="M 2221 2078 
C 2189 2084 2157 2091 2125 2091 
C 2022 2091 1946 2000 1946 1903 
C 1946 1806 2022 1709 2131 1709 
C 2221 1709 2310 1773 2323 1871 
L 2323 1909 
C 2323 2356 1965 2816 1440 2816 
C 717 2816 269 2058 269 1372 
C 269 693 678 0 1363 -64 
L 1427 -64 
C 1882 -64 2240 227 2368 660 
C 2374 686 2381 712 2381 738 
C 2381 757 2368 764 2355 764 
C 2285 764 2272 641 2246 576 
C 2131 246 1824 20 1498 20 
C 890 20 595 744 595 1275 
C 595 1819 710 2731 1453 2731 
C 1811 2731 2138 2434 2221 2078 
z
" transform="scale(0.015625)"/>
       <path id="SFRM3583-e8" d="M 288 2752 
L 288 2687 
L 378 2687 
C 531 2687 666 2655 666 2431 
L 666 333 
C 666 109 538 76 378 76 
L 288 76 
L 288 0 
L 1306 0 
L 1306 76 
L 1216 76 
C 1075 76 960 96 928 269 
L 928 314 
C 928 397 1005 468 1050 532 
C 1331 955 1632 1372 1926 1789 
L 2131 2084 
C 2170 2142 2214 2193 2246 2258 
L 2253 333 
C 2253 102 2112 76 1965 76 
L 1875 76 
L 1875 0 
L 2893 0 
L 2893 76 
L 2803 76 
C 2643 76 2515 109 2515 333 
L 2515 2431 
C 2515 2655 2650 2687 2803 2687 
L 2893 2687 
L 2893 2752 
L 1875 2752 
L 1875 2681 
L 1965 2681 
C 2106 2681 2221 2656 2253 2483 
L 2253 2438 
C 2253 2355 2176 2284 2131 2220 
C 1850 1798 1549 1382 1254 966 
L 1050 672 
C 1011 614 966 563 934 499 
L 928 2425 
C 928 2636 1050 2681 1216 2681 
L 1306 2681 
L 1306 2752 
L 998 2752 
L 288 2752 
z
" transform="scale(0.015625)"/>
       <path id="SFRM3583-f6" d="M 288 2752 
L 288 2688 
L 378 2688 
C 531 2688 666 2656 666 2432 
L 666 343 
C 666 119 538 87 378 87 
L 288 87 
L 288 11 
L 2176 11 
C 2470 11 2752 -21 2861 -449 
C 2899 -635 2912 -833 2925 -1024 
L 3008 -1024 
L 2925 87 
L 2835 87 
C 2675 87 2515 106 2515 343 
L 2515 2439 
C 2515 2656 2650 2688 2803 2688 
L 2893 2688 
L 2893 2752 
L 1875 2752 
L 1875 2681 
L 1965 2681 
C 2118 2681 2253 2649 2253 2426 
L 2253 283 
C 2253 155 2202 79 2061 79 
C 2010 79 1958 85 1920 85 
L 1082 85 
C 966 85 934 175 928 257 
L 928 2407 
C 928 2656 1062 2681 1229 2681 
L 1306 2681 
L 1306 2752 
L 1005 2752 
L 288 2752 
z
" transform="scale(0.015625)"/>
       <path id="SFRM3583-2c" d="M 973 125 
C 992 73 992 22 992 -36 
L 992 -120 
C 992 -481 877 -791 666 -1100 
C 653 -1120 621 -1146 621 -1178 
C 621 -1197 634 -1216 653 -1216 
C 710 -1216 845 -991 896 -875 
C 1011 -636 1069 -372 1069 -107 
C 1069 73 1062 448 800 448 
C 685 448 589 351 589 235 
C 589 112 698 28 800 28 
C 864 28 934 60 973 125 
z
" transform="scale(0.015625)"/>
      </defs>
      <use xlink:href="#SFRM3583-ca" transform="scale(0.996264)"/>
      <use xlink:href="#SFRM3583-e2" transform="translate(69.320979 0) scale(0.996264)"/>
      <use xlink:href="#SFRM3583-e0" transform="translate(113.899446 0) scale(0.996264)"/>
      <use xlink:href="#SFRM3583-e4" transform="translate(158.477912 0) scale(0.996264)"/>
      <use xlink:href="#SFRM3583-f0" transform="translate(208.016341 0) scale(0.996264)"/>
      <use xlink:href="#SFRM3583-e0" transform="translate(257.554769 0) scale(0.996264)"/>
      <use xlink:href="#SFRM3583-f2" transform="translate(302.133236 0) scale(0.996264)"/>
      <use xlink:href="#SFRM3583-f0" transform="translate(376.409996 0) scale(0.996264)"/>
      <use xlink:href="#SFRM3583-e0" transform="translate(425.948424 0) scale(0.996264)"/>
      <use xlink:href="#SFRM3583-f1" transform="translate(470.526891 0) scale(0.996264)"/>
      <use xlink:href="#SFRM3583-f1" transform="translate(510.14529 0) scale(0.996264)"/>
      <use xlink:href="#SFRM3583-f2" transform="translate(549.763688 0) scale(0.996264)"/>
      <use xlink:href="#SFRM3583-ee" transform="translate(594.342155 0) scale(0.996264)"/>
      <use xlink:href="#SFRM3583-ff" transform="translate(636.440633 0) scale(0.996264)"/>
      <use xlink:href="#SFRM3583-ed" transform="translate(684.739067 0) scale(0.996264)"/>
      <use xlink:href="#SFRM3583-e8" transform="translate(734.277496 0) scale(0.996264)"/>
      <use xlink:href="#SFRM3583-ff" transform="translate(783.815924 0) scale(0.996264)"/>
      <use xlink:href="#SFRM3583-e4" transform="translate(861.812651 0) scale(0.996264)"/>
      <use xlink:href="#SFRM3583-ee" transform="translate(911.35108 0) scale(0.996264)"/>
      <use xlink:href="#SFRM3583-f6" transform="translate(985.62784 0) scale(0.996264)"/>
      <use xlink:href="#SFRM3583-e5" transform="translate(1035.166268 0) scale(0.996264)"/>
      <use xlink:href="#SFRM3583-ed" transform="translate(1074.784667 0) scale(0.996264)"/>
      <use xlink:href="#SFRM3583-f2" transform="translate(1124.323095 0) scale(0.996264)"/>
      <use xlink:href="#SFRM3583-f0" transform="translate(1168.901562 0) scale(0.996264)"/>
      <use xlink:href="#SFRM3583-e0" transform="translate(1218.43999 0) scale(0.996264)"/>
      <use xlink:href="#SFRM3583-2c" transform="translate(1263.018457 0) scale(0.996264)"/>
      <use xlink:href="#SFRM3583-ec" transform="translate(1317.455082 0) scale(0.996264)"/>
      <use xlink:href="#SFRM3583-ea" transform="translate(1376.913616 0) scale(0.996264)"/>
      <use xlink:href="#SFRM3583-ec" transform="translate(1426.452044 0) scale(0.996264)"/>
      <use xlink:href="#CMR17-32" transform="translate(1485.910578 36.153639) scale(0.697382)"/>
     </g>
    </g>
   </g>
   <g id="line2d_117">
    <path d="M 73.234911 214.487651 
L 87.728417 205.55051 
L 102.221924 196.613369 
L 116.71543 187.676228 
L 131.208937 178.739087 
L 145.702443 169.801946 
L 160.19595 160.864805 
L 174.689456 151.927664 
L 189.182963 142.990523 
L 203.676469 134.053382 
L 218.169976 125.116241 
L 232.663482 116.1791 
L 247.156989 107.241959 
L 261.650495 98.304818 
L 276.144002 89.367677 
L 290.637508 80.430536 
L 305.131015 71.493395 
L 319.624521 62.556254 
L 334.118028 53.619113 
L 348.611534 44.681972 
L 363.105041 35.744831 
L 377.598547 26.80769 
" clip-path="url(#p05d8c29539)" style="fill: none; stroke: #0c5da5; stroke-opacity: 0.65; stroke-linecap: square"/>
   </g>
   <g id="LineCollection_1">
    <path d="M 73.234911 215.28 
L 73.234911 214.674346 
" clip-path="url(#p05d8c29539)" style="fill: none; stroke: #0c5da5"/>
    <path d="M 87.728417 206.892549 
L 87.728417 205.808494 
" clip-path="url(#p05d8c29539)" style="fill: none; stroke: #0c5da5"/>
    <path d="M 102.221924 198.076162 
L 102.221924 196.496036 
" clip-path="url(#p05d8c29539)" style="fill: none; stroke: #0c5da5"/>
    <path d="M 116.71543 189.434133 
L 116.71543 187.369738 
" clip-path="url(#p05d8c29539)" style="fill: none; stroke: #0c5da5"/>
    <path d="M 131.208937 181.790153 
L 131.208937 179.29813 
" clip-path="url(#p05d8c29539)" style="fill: none; stroke: #0c5da5"/>
    <path d="M 145.702443 172.882693 
L 145.702443 169.892808 
" clip-path="url(#p05d8c29539)" style="fill: none; stroke: #0c5da5"/>
    <path d="M 160.19595 164.182666 
L 160.19595 160.706789 
" clip-path="url(#p05d8c29539)" style="fill: none; stroke: #0c5da5"/>
    <path d="M 174.689456 155.364454 
L 174.689456 151.396157 
" clip-path="url(#p05d8c29539)" style="fill: none; stroke: #0c5da5"/>
    <path d="M 189.182963 147.147431 
L 189.182963 142.720393 
" clip-path="url(#p05d8c29539)" style="fill: none; stroke: #0c5da5"/>
    <path d="M 203.676469 137.824504 
L 203.676469 132.877071 
" clip-path="url(#p05d8c29539)" style="fill: none; stroke: #0c5da5"/>
    <path d="M 218.169976 129.979619 
L 218.169976 124.594348 
" clip-path="url(#p05d8c29539)" style="fill: none; stroke: #0c5da5"/>
    <path d="M 232.663482 121.093261 
L 232.663482 115.21207 
" clip-path="url(#p05d8c29539)" style="fill: none; stroke: #0c5da5"/>
    <path d="M 247.156989 112.532565 
L 247.156989 106.173662 
" clip-path="url(#p05d8c29539)" style="fill: none; stroke: #0c5da5"/>
    <path d="M 261.650495 103.628281 
L 261.650495 96.772522 
" clip-path="url(#p05d8c29539)" style="fill: none; stroke: #0c5da5"/>
    <path d="M 276.144002 95.164191 
L 276.144002 87.836159 
" clip-path="url(#p05d8c29539)" style="fill: none; stroke: #0c5da5"/>
    <path d="M 290.637508 81.515456 
L 290.637508 73.425897 
" clip-path="url(#p05d8c29539)" style="fill: none; stroke: #0c5da5"/>
    <path d="M 305.131015 74.010494 
L 305.131015 65.502213 
" clip-path="url(#p05d8c29539)" style="fill: none; stroke: #0c5da5"/>
    <path d="M 319.624521 66.312266 
L 319.624521 57.37449 
" clip-path="url(#p05d8c29539)" style="fill: none; stroke: #0c5da5"/>
    <path d="M 334.118028 56.640863 
L 334.118028 47.163515 
" clip-path="url(#p05d8c29539)" style="fill: none; stroke: #0c5da5"/>
    <path d="M 348.611534 47.59815 
L 348.611534 37.616315 
" clip-path="url(#p05d8c29539)" style="fill: none; stroke: #0c5da5"/>
    <path d="M 363.105041 39.255707 
L 363.105041 28.808459 
" clip-path="url(#p05d8c29539)" style="fill: none; stroke: #0c5da5"/>
    <path d="M 377.598547 31.677956 
L 377.598547 20.807961 
" clip-path="url(#p05d8c29539)" style="fill: none; stroke: #0c5da5"/>
   </g>
   <g id="line2d_118">
    <defs>
     <path id="m59e2d3f4e9" d="M 0 1.5 
C 0.397805 1.5 0.77937 1.341951 1.06066 1.06066 
C 1.341951 0.77937 1.5 0.397805 1.5 0 
C 1.5 -0.397805 1.341951 -0.77937 1.06066 -1.06066 
C 0.77937 -1.341951 0.397805 -1.5 0 -1.5 
C -0.397805 -1.5 -0.77937 -1.341951 -1.06066 -1.06066 
C -1.341951 -0.77937 -1.5 -0.397805 -1.5 0 
C -1.5 0.397805 -1.341951 0.77937 -1.06066 1.06066 
C -0.77937 1.341951 -0.397805 1.5 0 1.5 
z
" style="stroke: #0c5da5"/>
    </defs>
    <g clip-path="url(#p05d8c29539)">
     <use xlink:href="#m59e2d3f4e9" x="73.234911" y="214.977173" style="fill: #0c5da5; stroke: #0c5da5"/>
     <use xlink:href="#m59e2d3f4e9" x="87.728417" y="206.350521" style="fill: #0c5da5; stroke: #0c5da5"/>
     <use xlink:href="#m59e2d3f4e9" x="102.221924" y="197.286099" style="fill: #0c5da5; stroke: #0c5da5"/>
     <use xlink:href="#m59e2d3f4e9" x="116.71543" y="188.401936" style="fill: #0c5da5; stroke: #0c5da5"/>
     <use xlink:href="#m59e2d3f4e9" x="131.208937" y="180.544141" style="fill: #0c5da5; stroke: #0c5da5"/>
     <use xlink:href="#m59e2d3f4e9" x="145.702443" y="171.387751" style="fill: #0c5da5; stroke: #0c5da5"/>
     <use xlink:href="#m59e2d3f4e9" x="160.19595" y="162.444727" style="fill: #0c5da5; stroke: #0c5da5"/>
     <use xlink:href="#m59e2d3f4e9" x="174.689456" y="153.380305" style="fill: #0c5da5; stroke: #0c5da5"/>
     <use xlink:href="#m59e2d3f4e9" x="189.182963" y="144.933912" style="fill: #0c5da5; stroke: #0c5da5"/>
     <use xlink:href="#m59e2d3f4e9" x="203.676469" y="135.350788" style="fill: #0c5da5; stroke: #0c5da5"/>
     <use xlink:href="#m59e2d3f4e9" x="218.169976" y="127.286984" style="fill: #0c5da5; stroke: #0c5da5"/>
     <use xlink:href="#m59e2d3f4e9" x="232.663482" y="118.152666" style="fill: #0c5da5; stroke: #0c5da5"/>
     <use xlink:href="#m59e2d3f4e9" x="247.156989" y="109.353113" style="fill: #0c5da5; stroke: #0c5da5"/>
     <use xlink:href="#m59e2d3f4e9" x="261.650495" y="100.200401" style="fill: #0c5da5; stroke: #0c5da5"/>
     <use xlink:href="#m59e2d3f4e9" x="276.144002" y="91.500175" style="fill: #0c5da5; stroke: #0c5da5"/>
     <use xlink:href="#m59e2d3f4e9" x="290.637508" y="77.470677" style="fill: #0c5da5; stroke: #0c5da5"/>
     <use xlink:href="#m59e2d3f4e9" x="305.131015" y="69.756353" style="fill: #0c5da5; stroke: #0c5da5"/>
     <use xlink:href="#m59e2d3f4e9" x="319.624521" y="61.843378" style="fill: #0c5da5; stroke: #0c5da5"/>
     <use xlink:href="#m59e2d3f4e9" x="334.118028" y="51.902189" style="fill: #0c5da5; stroke: #0c5da5"/>
     <use xlink:href="#m59e2d3f4e9" x="348.611534" y="42.607232" style="fill: #0c5da5; stroke: #0c5da5"/>
     <use xlink:href="#m59e2d3f4e9" x="363.105041" y="34.032083" style="fill: #0c5da5; stroke: #0c5da5"/>
     <use xlink:href="#m59e2d3f4e9" x="377.598547" y="26.242959" style="fill: #0c5da5; stroke: #0c5da5"/>
    </g>
   </g>
   <g id="patch_3">
    <path d="M 58.016729 225.36 
L 58.016729 3.6 
" style="fill: none; stroke: #000000; stroke-width: 0.5; stroke-linejoin: miter; stroke-linecap: square"/>
   </g>
   <g id="patch_4">
    <path d="M 392.816729 225.36 
L 392.816729 3.6 
" style="fill: none; stroke: #000000; stroke-width: 0.5; stroke-linejoin: miter; stroke-linecap: square"/>
   </g>
   <g id="patch_5">
    <path d="M 58.016729 225.36 
L 392.816729 225.36 
" style="fill: none; stroke: #000000; stroke-width: 0.5; stroke-linejoin: miter; stroke-linecap: square"/>
   </g>
   <g id="patch_6">
    <path d="M 58.016729 3.6 
L 392.816729 3.6 
" style="fill: none; stroke: #000000; stroke-width: 0.5; stroke-linejoin: miter; stroke-linecap: square"/>
   </g>
   <g id="legend_1">
    <g id="patch_7">
     <path d="M 68.816729 22.8 
L 92.816729 22.8 
L 92.816729 14.4 
L 68.816729 14.4 
z
" style="fill: #0c5da5; fill-opacity: 0.15"/>
    </g>
    <g id="text_17">
     <!-- Случайная ошибка -->
     <g transform="translate(102.416729 22.8) scale(0.12 -0.12)">
      <defs>
       <path id="SFRM3583-d1" d="M 3501 3765 
C 3187 4139 2899 4480 2285 4480 
C 1120 4480 320 3339 320 2211 
C 320 1063 1133 -64 2285 -64 
C 3142 -64 3821 689 3821 1540 
L 3821 1566 
C 3814 1585 3802 1592 3782 1592 
C 3718 1592 3712 1224 3654 1063 
C 3475 508 2995 76 2374 76 
C 1779 76 1242 450 960 953 
C 742 1334 678 1798 678 2230 
C 678 3249 1242 4339 2374 4339 
C 3213 4339 3654 3500 3725 2817 
C 3731 2778 3744 2739 3776 2739 
C 3814 2739 3821 2765 3821 2797 
L 3821 4422 
C 3821 4384 3821 4409 3802 4416 
L 3795 4416 
C 3744 4416 3526 3817 3501 3716 
L 3501 3765 
z
" transform="scale(0.015625)"/>
       <path id="SFRM3583-eb" d="M 813 2752 
L 813 2681 
L 909 2681 
C 1062 2681 1203 2643 1203 2444 
L 1203 2392 
C 1203 2258 1197 2123 1184 1988 
C 1139 1449 1107 885 890 385 
C 813 211 698 19 538 19 
C 422 19 320 70 243 147 
L 282 147 
C 378 147 448 211 448 308 
C 448 410 378 481 282 481 
C 166 481 109 397 109 288 
C 115 64 326 -64 538 -64 
C 813 -64 960 308 1037 539 
C 1203 1039 1274 1623 1274 2149 
L 1274 2238 
C 1274 2489 1286 2681 1478 2681 
L 2099 2681 
C 2214 2681 2240 2598 2253 2508 
L 2253 359 
C 2253 96 2125 70 1946 70 
L 1875 70 
L 1875 -7 
L 2893 -7 
L 2893 70 
L 2803 70 
C 2643 70 2515 102 2515 327 
L 2515 2425 
C 2515 2649 2650 2681 2803 2681 
L 2893 2681 
L 2893 2752 
L 813 2752 
z
" transform="scale(0.015625)"/>
       <path id="SFRM3583-f3" d="M 90 2752 
L 90 2688 
C 410 2688 435 2560 595 2163 
C 864 1504 1146 838 1395 172 
C 1414 121 1453 64 1453 6 
C 1453 -128 1318 -352 1261 -493 
C 1152 -788 992 -1204 627 -1204 
C 493 -1204 352 -1146 256 -1056 
C 358 -1056 448 -999 448 -884 
C 448 -788 371 -717 275 -717 
C 186 -717 109 -781 109 -896 
C 109 -1146 390 -1280 614 -1280 
L 621 -1280 
C 1043 -1280 1210 -845 1350 -500 
L 1562 19 
C 1798 608 2035 1203 2272 1792 
C 2304 1868 2336 1939 2362 2016 
C 2470 2278 2586 2669 2931 2688 
L 2931 2752 
L 2189 2752 
L 2189 2681 
C 2310 2681 2400 2553 2400 2438 
C 2400 2330 2349 2202 2310 2106 
C 2150 1716 1997 1320 1837 930 
L 1683 553 
C 1658 483 1626 419 1606 349 
L 1600 349 
C 1549 572 1427 796 1338 1007 
C 1190 1365 1050 1729 909 2087 
L 832 2279 
C 800 2349 755 2438 755 2515 
C 755 2604 832 2681 1018 2681 
L 1018 2752 
L 717 2752 
L 90 2752 
z
" transform="scale(0.015625)"/>
       <path id="SFRM3583-f7" d="M 288 2752 
L 288 2687 
L 378 2687 
C 570 2687 666 2617 666 2424 
L 666 1809 
C 666 1436 966 1289 1261 1263 
L 1485 1263 
C 1728 1263 2029 1263 2253 1372 
L 2253 500 
C 2253 455 2259 397 2259 346 
C 2259 115 2131 76 1952 76 
L 1875 76 
L 1875 0 
L 2893 0 
L 2893 76 
L 2803 76 
C 2643 76 2515 109 2515 333 
L 2515 2431 
C 2515 2655 2650 2687 2803 2687 
L 2893 2687 
L 2893 2752 
L 1875 2752 
L 1875 2681 
L 1952 2681 
C 2125 2681 2253 2649 2253 2425 
L 2253 1504 
C 2253 1344 1728 1337 1472 1337 
L 1318 1337 
C 1030 1337 928 1606 928 1843 
L 928 2400 
C 928 2656 1050 2681 1229 2681 
L 1306 2681 
L 1306 2752 
L 998 2752 
L 288 2752 
z
" transform="scale(0.015625)"/>
       <path id="SFRM3583-f8" d="M 288 2752 
L 288 2687 
L 378 2687 
C 531 2687 666 2655 666 2431 
L 666 333 
C 666 109 538 76 378 76 
L 288 76 
L 288 0 
L 4326 0 
L 4326 76 
L 4237 76 
C 4077 76 3949 109 3949 333 
L 3949 2431 
C 3949 2655 4083 2687 4237 2687 
L 4326 2687 
L 4326 2752 
L 3309 2752 
L 3309 2681 
L 3386 2681 
C 3552 2681 3686 2656 3686 2406 
L 3686 249 
C 3674 83 3558 70 3360 70 
L 3277 70 
C 3104 70 2925 76 2752 76 
C 2720 76 2675 70 2630 70 
C 2483 70 2438 147 2438 275 
L 2438 2425 
C 2438 2649 2573 2681 2726 2681 
L 2816 2681 
L 2816 2752 
L 1798 2752 
L 1798 2681 
L 1888 2681 
C 2042 2681 2176 2649 2176 2425 
L 2176 275 
C 2176 140 2125 70 1984 70 
C 1939 70 1894 76 1862 76 
C 1690 76 1510 70 1338 70 
L 1190 70 
C 1056 70 941 89 928 249 
L 928 2406 
C 928 2656 1062 2681 1229 2681 
L 1306 2681 
L 1306 2752 
L 998 2752 
L 288 2752 
z
" transform="scale(0.015625)"/>
       <path id="SFRM3583-e1" d="M 333 1935 
C 326 1948 326 1967 326 1980 
C 326 2519 429 3214 896 3577 
C 1165 3791 1510 3876 1830 3973 
C 2099 4044 2381 4122 2522 4408 
C 2528 4414 2534 4434 2534 4447 
C 2534 4473 2515 4480 2496 4480 
C 2406 4480 2227 4375 2112 4330 
C 1677 4155 1184 4070 806 3778 
C 218 3317 243 2331 237 1578 
L 237 1286 
C 275 643 691 -26 1376 -64 
L 1427 -64 
C 2157 -64 2624 656 2624 1370 
C 2624 1993 2298 2642 1645 2798 
C 1574 2818 1504 2824 1434 2824 
C 934 2824 467 2415 333 1935 
z
M 563 1260 
L 563 1364 
C 563 1850 621 2396 1114 2668 
C 1197 2707 1293 2740 1389 2746 
L 1434 2746 
C 2054 2746 2298 2013 2298 1487 
C 2298 974 2246 241 1606 46 
C 1549 33 1491 20 1434 20 
C 960 20 653 500 595 961 
C 576 1058 576 1162 563 1260 
z
" transform="scale(0.015625)"/>
      </defs>
      <use xlink:href="#SFRM3583-d1" transform="scale(0.996264)"/>
      <use xlink:href="#SFRM3583-eb" transform="translate(64.418587 0) scale(0.996264)"/>
      <use xlink:href="#SFRM3583-f3" transform="translate(113.957015 0) scale(0.996264)"/>
      <use xlink:href="#SFRM3583-f7" transform="translate(161.015455 0) scale(0.996264)"/>
      <use xlink:href="#SFRM3583-e0" transform="translate(210.553883 0) scale(0.996264)"/>
      <use xlink:href="#SFRM3583-e9" transform="translate(255.13235 0) scale(0.996264)"/>
      <use xlink:href="#SFRM3583-ed" transform="translate(304.670778 0) scale(0.996264)"/>
      <use xlink:href="#SFRM3583-e0" transform="translate(354.209206 0) scale(0.996264)"/>
      <use xlink:href="#SFRM3583-ff" transform="translate(398.787673 0) scale(0.996264)"/>
      <use xlink:href="#SFRM3583-ee" transform="translate(476.7844 0) scale(0.996264)"/>
      <use xlink:href="#SFRM3583-f8" transform="translate(521.362867 0) scale(0.996264)"/>
      <use xlink:href="#SFRM3583-e8" transform="translate(593.221495 0) scale(0.996264)"/>
      <use xlink:href="#SFRM3583-e1" transform="translate(642.759923 0) scale(0.996264)"/>
      <use xlink:href="#SFRM3583-ea" transform="translate(687.33839 0) scale(0.996264)"/>
      <use xlink:href="#SFRM3583-e0" transform="translate(734.39683 0) scale(0.996264)"/>
     </g>
    </g>
    <g id="line2d_119">
     <path d="M 68.816729 37.590683 
L 80.816729 37.590683 
L 92.816729 37.590683 
" style="fill: none; stroke: #0c5da5; stroke-opacity: 0.65; stroke-linecap: square"/>
    </g>
    <g id="text_18">
     <!-- Аппроксимация $r=\sqrt{m\lambda R}$ -->
     <g transform="translate(102.416729 41.790683) scale(0.12 -0.12)">
      <defs>
       <path id="SFRM3583-c0" d="M 166 140 
L 166 0 
L 998 0 
L 998 140 
C 858 147 749 261 749 402 
L 749 433 
C 762 542 813 644 851 746 
C 947 994 1024 1243 1120 1485 
C 1139 1536 1139 1600 1222 1600 
L 2906 1600 
C 2925 1491 2976 1383 3014 1281 
L 3245 650 
C 3283 542 3360 395 3360 300 
C 3360 140 3168 140 3066 140 
L 3066 0 
L 4128 0 
L 4128 140 
L 4026 140 
C 3776 140 3725 242 3654 421 
C 3232 1696 2726 2959 2285 4236 
C 2259 4313 2221 4480 2144 4480 
C 2048 4480 1850 3780 1728 3447 
C 1421 2600 1120 1747 813 905 
L 717 637 
C 627 408 518 140 166 140 
z
M 1210 1740 
L 2029 4018 
L 2848 1740 
L 1210 1740 
z
" transform="scale(0.015625)"/>
       <path id="SFRM3583-ef" d="M 288 2752 
L 288 2681 
L 378 2681 
C 531 2681 666 2649 666 2425 
L 666 332 
C 666 108 538 76 378 76 
L 288 76 
L 288 0 
L 1306 0 
L 1306 76 
L 1216 76 
C 1062 76 928 108 928 332 
L 928 2476 
C 928 2624 992 2688 1133 2688 
C 1178 2688 1222 2681 1254 2681 
L 2099 2681 
C 2214 2681 2240 2598 2253 2508 
L 2253 364 
C 2253 102 2125 76 1946 76 
L 1875 76 
L 1875 0 
L 2893 0 
L 2893 76 
L 2803 76 
C 2643 76 2515 108 2515 332 
L 2515 2425 
C 2515 2649 2650 2681 2803 2681 
L 2893 2681 
L 2893 2752 
L 288 2752 
z
" transform="scale(0.015625)"/>
       <path id="CMMI12-72" d="M 2490 2633 
C 2291 2598 2189 2457 2189 2316 
C 2189 2163 2310 2111 2400 2111 
C 2579 2111 2726 2265 2726 2457 
C 2726 2651 2528 2816 2208 2816 
C 1952 2816 1658 2700 1389 2335 
C 1344 2660 1088 2816 832 2816 
C 582 2816 454 2642 378 2508 
C 269 2278 173 1892 173 1860 
C 173 1834 198 1801 243 1801 
C 294 1801 301 1808 339 1957 
C 435 2342 557 2687 813 2687 
C 966 2687 1011 2604 1011 2419 
C 1011 2278 947 2028 902 1827 
L 723 1130 
C 698 1007 627 716 595 600 
C 550 432 480 128 480 96 
C 480 6 550 -64 646 -64 
C 717 -64 838 -20 877 109 
C 896 160 1133 1136 1171 1285 
C 1203 1427 1242 1562 1274 1705 
C 1299 1795 1325 1898 1344 1982 
C 1363 2040 1536 2355 1696 2495 
C 1773 2566 1939 2687 2202 2687 
C 2304 2687 2406 2674 2490 2633 
z
" transform="scale(0.015625)"/>
       <path id="CMR17-3d" d="M 4115 2048 
C 4211 2048 4307 2048 4307 2156 
C 4307 2272 4198 2272 4090 2272 
L 512 2272 
C 403 2272 294 2272 294 2156 
C 294 2048 390 2048 486 2048 
L 4115 2048 
z
M 4090 927 
C 4198 927 4307 927 4307 1043 
C 4307 1152 4211 1152 4115 1152 
L 486 1152 
C 390 1152 294 1152 294 1043 
C 294 927 403 927 512 927 
L 4090 927 
z
" transform="scale(0.015625)"/>
       <path id="CMSY10-70" d="M 2490 -5472 
L 1363 -2983 
C 1318 -2880 1286 -2880 1267 -2880 
C 1261 -2880 1229 -2880 1158 -2932 
L 550 -3392 
C 467 -3456 467 -3476 467 -3495 
C 467 -3527 486 -3565 531 -3565 
C 570 -3565 678 -3476 749 -3424 
C 787 -3392 883 -3322 954 -3271 
L 2214 -6042 
C 2259 -6144 2291 -6144 2349 -6144 
C 2445 -6144 2464 -6106 2509 -6016 
L 5414 0 
C 5459 89 5459 115 5459 128 
C 5459 192 5408 256 5331 256 
C 5280 256 5235 224 5184 121 
L 2490 -5472 
z
" transform="scale(0.015625)"/>
       <path id="CMMI12-6d" d="M 1318 1870 
C 1331 1909 1491 2228 1728 2432 
C 1894 2585 2112 2687 2362 2687 
C 2618 2687 2707 2496 2707 2241 
C 2707 2202 2707 2075 2630 1775 
L 2470 1117 
C 2419 925 2298 453 2285 383 
C 2259 287 2221 121 2221 95 
C 2221 6 2291 -64 2387 -64 
C 2579 -64 2611 83 2669 313 
L 3053 1838 
C 3066 1890 3398 2687 4102 2687 
C 4358 2687 4448 2496 4448 2241 
C 4448 1883 4198 1187 4058 804 
C 4000 651 3968 568 3968 453 
C 3968 166 4166 -64 4474 -64 
C 5069 -64 5293 874 5293 913 
C 5293 945 5267 970 5229 970 
C 5171 970 5165 951 5133 842 
C 4986 332 4749 64 4493 64 
C 4429 64 4326 70 4326 274 
C 4326 440 4403 645 4429 715 
C 4544 1021 4832 1775 4832 2145 
C 4832 2528 4608 2816 4122 2816 
C 3693 2816 3347 2573 3091 2196 
C 3072 2541 2861 2816 2381 2816 
C 1811 2816 1510 2413 1395 2253 
C 1376 2617 1114 2816 832 2816 
C 646 2816 499 2726 378 2483 
C 262 2253 173 1864 173 1838 
C 173 1813 198 1781 243 1781 
C 294 1781 301 1787 339 1934 
C 435 2311 557 2687 813 2687 
C 960 2687 1011 2585 1011 2394 
C 1011 2253 947 2004 902 1807 
L 723 1117 
C 698 996 627 708 595 593 
C 550 427 480 127 480 95 
C 480 6 550 -64 646 -64 
C 723 -64 813 -26 864 70 
C 877 102 934 325 966 453 
L 1107 1028 
L 1318 1870 
z
" transform="scale(0.015625)"/>
       <path id="CMMI12-15" d="M 1978 3963 
C 1818 4416 1312 4416 1229 4416 
C 1190 4416 1120 4416 1120 4351 
C 1120 4300 1158 4294 1190 4287 
C 1286 4275 1363 4262 1466 4078 
C 1530 3957 2189 2055 2189 2042 
C 2189 2036 2182 2029 2131 1978 
L 467 305 
C 390 229 339 178 339 95 
C 339 6 416 -71 518 -71 
C 544 -71 614 -58 653 -20 
C 755 76 1670 1190 2253 1877 
C 2419 1380 2624 795 2822 261 
C 2854 165 2886 76 2976 -7 
C 3040 -64 3053 -64 3232 -64 
L 3354 -64 
C 3379 -64 3424 -64 3424 -13 
C 3424 12 3418 19 3392 44 
C 3334 114 3290 229 3264 305 
L 1978 3963 
z
" transform="scale(0.015625)"/>
       <path id="CMMI12-52" d="M 2355 3917 
C 2413 4153 2438 4166 2688 4166 
L 3149 4166 
C 3699 4166 4109 4000 4109 3503 
C 4109 3177 3942 2240 2656 2240 
L 1933 2240 
L 2355 3917 
z
M 3245 2163 
C 4038 2335 4659 2846 4659 3394 
C 4659 3892 4154 4352 3264 4352 
L 1530 4352 
C 1402 4352 1344 4352 1344 4230 
C 1344 4166 1389 4166 1510 4166 
C 1894 4166 1894 4115 1894 4045 
C 1894 4032 1894 3994 1869 3898 
L 1005 475 
C 947 253 934 190 493 190 
C 346 190 301 190 301 69 
C 301 6 371 6 390 6 
C 506 6 640 19 762 19 
L 1517 19 
C 1632 19 1766 6 1882 6 
C 1933 6 2003 6 2003 126 
C 2003 190 1946 190 1850 190 
C 1459 190 1459 241 1459 304 
C 1459 310 1459 355 1472 405 
L 1901 2112 
L 2669 2112 
C 3277 2112 3392 1731 3392 1522 
C 3392 1426 3328 1179 3283 1014 
C 3213 723 3194 653 3194 532 
C 3194 82 3565 -128 3994 -128 
C 4512 -128 4736 501 4736 589 
C 4736 634 4704 653 4666 653 
C 4614 653 4602 615 4589 564 
C 4435 114 4173 0 4013 0 
C 3853 0 3750 69 3750 355 
C 3750 507 3827 1084 3834 1116 
C 3866 1350 3866 1376 3866 1426 
C 3866 1889 3488 2086 3245 2163 
z
" transform="scale(0.015625)"/>
      </defs>
      <use xlink:href="#SFRM3583-c0" transform="scale(0.996264)"/>
      <use xlink:href="#SFRM3583-ef" transform="translate(66.840991 0) scale(0.996264)"/>
      <use xlink:href="#SFRM3583-ef" transform="translate(116.379419 0) scale(0.996264)"/>
      <use xlink:href="#SFRM3583-f0" transform="translate(165.917847 0) scale(0.996264)"/>
      <use xlink:href="#SFRM3583-ee" transform="translate(215.456275 0) scale(0.996264)"/>
      <use xlink:href="#SFRM3583-ea" transform="translate(260.034742 0) scale(0.996264)"/>
      <use xlink:href="#SFRM3583-f1" transform="translate(307.093182 0) scale(0.996264)"/>
      <use xlink:href="#SFRM3583-e8" transform="translate(346.711581 0) scale(0.996264)"/>
      <use xlink:href="#SFRM3583-ec" transform="translate(396.250009 0) scale(0.996264)"/>
      <use xlink:href="#SFRM3583-e0" transform="translate(455.708543 0) scale(0.996264)"/>
      <use xlink:href="#SFRM3583-f6" transform="translate(500.28701 0) scale(0.996264)"/>
      <use xlink:href="#SFRM3583-e8" transform="translate(549.825438 0) scale(0.996264)"/>
      <use xlink:href="#SFRM3583-ff" transform="translate(599.363866 0) scale(0.996264)"/>
      <use xlink:href="#CMMI12-72" transform="translate(677.360594 0) scale(0.996264)"/>
      <use xlink:href="#CMR17-3d" transform="translate(751.705214 0) scale(0.996264)"/>
      <use xlink:href="#CMSY10-70" transform="translate(851.094011 84.903779) scale(0.996264)"/>
      <use xlink:href="#CMMI12-6d" transform="translate(934.116266 0) scale(0.996264)"/>
      <use xlink:href="#CMMI12-15" transform="translate(1019.44349 0) scale(0.996264)"/>
      <use xlink:href="#CMMI12-52" transform="translate(1076.347562 0) scale(0.996264)"/>
      <path d="M 934.116266 84.903779 
L 1151.418524 84.903779 
L 1151.418524 88.888728 
L 934.116266 88.888728 
L 934.116266 84.903779 
z
"/>
     </g>
    </g>
    <g id="LineCollection_2">
     <path d="M 80.816729 60.314732 
L 80.816729 48.314732 
" style="fill: none; stroke: #0c5da5"/>
    </g>
    <g id="line2d_120"/>
    <g id="line2d_121">
     <g>
      <use xlink:href="#m59e2d3f4e9" x="80.816729" y="54.314732" style="fill: #0c5da5; stroke: #0c5da5"/>
     </g>
    </g>
    <g id="text_19">
     <!-- Эксперимент -->
     <g transform="translate(102.416729 58.514732) scale(0.12 -0.12)">
      <defs>
       <path id="SFRM3583-dd" d="M 3456 2132 
C 3456 1193 2810 76 1734 76 
C 1120 76 544 505 422 1128 
C 416 1180 410 1225 403 1277 
L 403 1348 
C 397 1361 378 1374 358 1374 
C 326 1374 320 1342 320 1316 
C 320 505 1088 -64 1837 -64 
C 3014 -64 3821 1063 3821 2219 
C 3821 3353 3008 4480 1862 4480 
C 1382 4480 941 4256 646 3859 
C 582 3993 390 4416 346 4416 
L 339 4416 
C 320 4409 320 4397 320 4378 
L 320 3035 
C 320 3010 320 2979 346 2973 
C 448 2973 429 3153 461 3240 
C 627 3846 1088 4339 1747 4339 
C 2765 4339 3392 3404 3456 2438 
C 3462 2412 3469 2380 3469 2348 
C 3469 2152 2867 2112 2765 2112 
C 2310 2112 1952 2432 1478 2432 
C 1242 2432 794 2348 794 2206 
C 794 2172 826 2145 845 2145 
C 877 2145 915 2172 941 2179 
C 1056 2226 1171 2239 1293 2239 
C 1766 2239 2054 1913 2579 1913 
C 2880 1913 3206 1990 3456 2132 
z
" transform="scale(0.015625)"/>
      </defs>
      <use xlink:href="#SFRM3583-dd" transform="scale(0.996264)"/>
      <use xlink:href="#SFRM3583-ea" transform="translate(64.418587 0) scale(0.996264)"/>
      <use xlink:href="#SFRM3583-f1" transform="translate(111.477026 0) scale(0.996264)"/>
      <use xlink:href="#SFRM3583-ef" transform="translate(151.095425 0) scale(0.996264)"/>
      <use xlink:href="#SFRM3583-e5" transform="translate(200.633854 0) scale(0.996264)"/>
      <use xlink:href="#SFRM3583-f0" transform="translate(240.252252 0) scale(0.996264)"/>
      <use xlink:href="#SFRM3583-e8" transform="translate(289.790681 0) scale(0.996264)"/>
      <use xlink:href="#SFRM3583-ec" transform="translate(339.329109 0) scale(0.996264)"/>
      <use xlink:href="#SFRM3583-e5" transform="translate(398.787643 0) scale(0.996264)"/>
      <use xlink:href="#SFRM3583-ed" transform="translate(438.406041 0) scale(0.996264)"/>
      <use xlink:href="#SFRM3583-f2" transform="translate(487.94447 0) scale(0.996264)"/>
     </g>
    </g>
   </g>
  </g>
 </g>
 <defs>
  <clipPath id="p05d8c29539">
   <rect x="58.016729" y="3.6" width="334.8" height="221.76"/>
  </clipPath>
 </defs>
</svg>
