<?xml version="1.0" encoding="utf-8" standalone="no"?>
<!DOCTYPE svg PUBLIC "-//W3C//DTD SVG 1.1//EN"
  "http://www.w3.org/Graphics/SVG/1.1/DTD/svg11.dtd">
<svg xmlns:xlink="http://www.w3.org/1999/xlink" width="396.416729pt" height="257.575641pt" viewBox="0 0 396.416729 257.575641" xmlns="http://www.w3.org/2000/svg" version="1.1">
 <metadata>
  <rdf:RDF xmlns:dc="http://purl.org/dc/elements/1.1/" xmlns:cc="http://creativecommons.org/ns#" xmlns:rdf="http://www.w3.org/1999/02/22-rdf-syntax-ns#">
   <cc:Work>
    <dc:type rdf:resource="http://purl.org/dc/dcmitype/StillImage"/>
    <dc:date>2023-03-28T16:15:16.888123</dc:date>
    <dc:format>image/svg+xml</dc:format>
    <dc:creator>
     <cc:Agent>
      <dc:title>Matplotlib v3.7.1, https://matplotlib.org/</dc:title>
     </cc:Agent>
    </dc:creator>
   </cc:Work>
  </rdf:RDF>
 </metadata>
 <defs>
  <style type="text/css">*{stroke-linejoin: round; stroke-linecap: butt}</style>
 </defs>
 <g id="figure_1">
  <g id="patch_1">
   <path d="M 0 257.575641 
L 396.416729 257.575641 
L 396.416729 0 
L 0 0 
z
" style="fill: #ffffff"/>
  </g>
  <g id="axes_1">
   <g id="patch_2">
    <path d="M 58.016729 225.36 
L 392.816729 225.36 
L 392.816729 3.6 
L 58.016729 3.6 
z
" style="fill: #ffffff"/>
   </g>
   <g id="matplotlib.axis_1">
    <g id="xtick_1">
     <g id="line2d_1">
      <defs>
       <path id="ma1cdcee5fa" d="M 0 0 
L 0 -3 
" style="stroke: #000000; stroke-width: 0.5"/>
      </defs>
      <g>
       <use xlink:href="#ma1cdcee5fa" x="73.234911" y="225.36" style="stroke: #000000; stroke-width: 0.5"/>
      </g>
     </g>
     <g id="line2d_2">
      <defs>
       <path id="m7d45ecdf80" d="M 0 0 
L 0 3 
" style="stroke: #000000; stroke-width: 0.5"/>
      </defs>
      <g>
       <use xlink:href="#m7d45ecdf80" x="73.234911" y="3.6" style="stroke: #000000; stroke-width: 0.5"/>
      </g>
     </g>
     <g id="text_1">
      <!-- $\mathdefault{0}$ -->
      <g transform="translate(70.308416 237.093772) scale(0.12 -0.12)">
       <defs>
        <path id="CMR17-30" d="M 2688 2038 
C 2688 2430 2682 3099 2413 3613 
C 2176 4063 1798 4224 1466 4224 
C 1158 4224 768 4082 525 3620 
C 269 3137 243 2539 243 2038 
C 243 1671 250 1112 448 623 
C 723 -39 1216 -128 1466 -128 
C 1760 -128 2208 -7 2470 604 
C 2662 1048 2688 1568 2688 2038 
z
M 1466 -26 
C 1056 -26 813 328 723 816 
C 653 1196 653 1749 653 2109 
C 653 2604 653 3015 736 3407 
C 858 3954 1216 4121 1466 4121 
C 1728 4121 2067 3947 2189 3420 
C 2272 3054 2278 2623 2278 2109 
C 2278 1691 2278 1176 2202 797 
C 2067 96 1690 -26 1466 -26 
z
" transform="scale(0.015625)"/>
       </defs>
       <use xlink:href="#CMR17-30" transform="scale(0.996264)"/>
      </g>
     </g>
    </g>
    <g id="xtick_2">
     <g id="line2d_3">
      <g>
       <use xlink:href="#ma1cdcee5fa" x="115.507638" y="225.36" style="stroke: #000000; stroke-width: 0.5"/>
      </g>
     </g>
     <g id="line2d_4">
      <g>
       <use xlink:href="#m7d45ecdf80" x="115.507638" y="3.6" style="stroke: #000000; stroke-width: 0.5"/>
      </g>
     </g>
     <g id="text_2">
      <!-- $\mathdefault{5}$ -->
      <g transform="translate(112.581143 237.093772) scale(0.12 -0.12)">
       <defs>
        <path id="CMR17-35" d="M 730 3750 
C 794 3724 1056 3641 1325 3641 
C 1920 3641 2246 3961 2432 4140 
C 2432 4191 2432 4224 2394 4224 
C 2387 4224 2374 4224 2323 4198 
C 2099 4102 1837 4032 1517 4032 
C 1325 4032 1037 4055 723 4191 
C 653 4224 640 4224 634 4224 
C 602 4224 595 4217 595 4090 
L 595 2231 
C 595 2113 595 2080 659 2080 
C 691 2080 704 2093 736 2139 
C 941 2435 1222 2560 1542 2560 
C 1766 2560 2246 2415 2246 1293 
C 2246 1087 2246 716 2054 422 
C 1894 159 1645 25 1370 25 
C 947 25 518 319 403 812 
C 429 806 480 793 506 793 
C 589 793 749 838 749 1036 
C 749 1209 627 1280 506 1280 
C 358 1280 262 1190 262 1011 
C 262 454 704 -128 1382 -128 
C 2042 -128 2669 441 2669 1267 
C 2669 2054 2170 2662 1549 2662 
C 1222 2662 947 2540 730 2304 
L 730 3750 
z
" transform="scale(0.015625)"/>
       </defs>
       <use xlink:href="#CMR17-35" transform="scale(0.996264)"/>
      </g>
     </g>
    </g>
    <g id="xtick_3">
     <g id="line2d_5">
      <g>
       <use xlink:href="#ma1cdcee5fa" x="157.780365" y="225.36" style="stroke: #000000; stroke-width: 0.5"/>
      </g>
     </g>
     <g id="line2d_6">
      <g>
       <use xlink:href="#m7d45ecdf80" x="157.780365" y="3.6" style="stroke: #000000; stroke-width: 0.5"/>
      </g>
     </g>
     <g id="text_3">
      <!-- $\mathdefault{10}$ -->
      <g transform="translate(151.927375 237.093772) scale(0.12 -0.12)">
       <defs>
        <path id="CMR17-31" d="M 1702 4083 
C 1702 4217 1696 4224 1606 4224 
C 1357 3927 979 3833 621 3820 
C 602 3820 570 3820 563 3808 
C 557 3795 557 3782 557 3648 
C 755 3648 1088 3686 1344 3839 
L 1344 467 
C 1344 243 1331 166 781 166 
L 589 166 
L 589 0 
C 896 6 1216 12 1523 12 
C 1830 12 2150 6 2458 0 
L 2458 166 
L 2266 166 
C 1715 166 1702 236 1702 467 
L 1702 4083 
z
" transform="scale(0.015625)"/>
       </defs>
       <use xlink:href="#CMR17-31" transform="scale(0.996264)"/>
       <use xlink:href="#CMR17-30" transform="translate(45.690477 0) scale(0.996264)"/>
      </g>
     </g>
    </g>
    <g id="xtick_4">
     <g id="line2d_7">
      <g>
       <use xlink:href="#ma1cdcee5fa" x="200.053093" y="225.36" style="stroke: #000000; stroke-width: 0.5"/>
      </g>
     </g>
     <g id="line2d_8">
      <g>
       <use xlink:href="#m7d45ecdf80" x="200.053093" y="3.6" style="stroke: #000000; stroke-width: 0.5"/>
      </g>
     </g>
     <g id="text_4">
      <!-- $\mathdefault{15}$ -->
      <g transform="translate(194.200102 237.093772) scale(0.12 -0.12)">
       <use xlink:href="#CMR17-31" transform="scale(0.996264)"/>
       <use xlink:href="#CMR17-35" transform="translate(45.690477 0) scale(0.996264)"/>
      </g>
     </g>
    </g>
    <g id="xtick_5">
     <g id="line2d_9">
      <g>
       <use xlink:href="#ma1cdcee5fa" x="242.32582" y="225.36" style="stroke: #000000; stroke-width: 0.5"/>
      </g>
     </g>
     <g id="line2d_10">
      <g>
       <use xlink:href="#m7d45ecdf80" x="242.32582" y="3.6" style="stroke: #000000; stroke-width: 0.5"/>
      </g>
     </g>
     <g id="text_5">
      <!-- $\mathdefault{20}$ -->
      <g transform="translate(236.47283 237.093772) scale(0.12 -0.12)">
       <defs>
        <path id="CMR17-32" d="M 2669 990 
L 2554 990 
C 2490 537 2438 460 2413 422 
C 2381 371 1920 371 1830 371 
L 602 371 
C 832 620 1280 1073 1824 1596 
C 2214 1966 2669 2400 2669 3033 
C 2669 3788 2067 4224 1395 4224 
C 691 4224 262 3603 262 3027 
C 262 2777 448 2745 525 2745 
C 589 2745 781 2783 781 3007 
C 781 3206 614 3264 525 3264 
C 486 3264 448 3257 422 3244 
C 544 3788 915 4057 1306 4057 
C 1862 4057 2227 3616 2227 3033 
C 2227 2477 1901 1998 1536 1583 
L 262 147 
L 262 0 
L 2515 0 
L 2669 990 
z
" transform="scale(0.015625)"/>
       </defs>
       <use xlink:href="#CMR17-32" transform="scale(0.996264)"/>
       <use xlink:href="#CMR17-30" transform="translate(45.690477 0) scale(0.996264)"/>
      </g>
     </g>
    </g>
    <g id="xtick_6">
     <g id="line2d_11">
      <g>
       <use xlink:href="#ma1cdcee5fa" x="284.598547" y="225.36" style="stroke: #000000; stroke-width: 0.5"/>
      </g>
     </g>
     <g id="line2d_12">
      <g>
       <use xlink:href="#m7d45ecdf80" x="284.598547" y="3.6" style="stroke: #000000; stroke-width: 0.5"/>
      </g>
     </g>
     <g id="text_6">
      <!-- $\mathdefault{25}$ -->
      <g transform="translate(278.745557 237.093772) scale(0.12 -0.12)">
       <use xlink:href="#CMR17-32" transform="scale(0.996264)"/>
       <use xlink:href="#CMR17-35" transform="translate(45.690477 0) scale(0.996264)"/>
      </g>
     </g>
    </g>
    <g id="xtick_7">
     <g id="line2d_13">
      <g>
       <use xlink:href="#ma1cdcee5fa" x="326.871274" y="225.36" style="stroke: #000000; stroke-width: 0.5"/>
      </g>
     </g>
     <g id="line2d_14">
      <g>
       <use xlink:href="#m7d45ecdf80" x="326.871274" y="3.6" style="stroke: #000000; stroke-width: 0.5"/>
      </g>
     </g>
     <g id="text_7">
      <!-- $\mathdefault{30}$ -->
      <g transform="translate(321.018284 237.093772) scale(0.12 -0.12)">
       <defs>
        <path id="CMR17-33" d="M 1414 2176 
C 1984 2176 2234 1673 2234 1094 
C 2234 322 1824 25 1453 25 
C 1114 25 563 193 390 691 
C 422 678 454 678 486 678 
C 640 678 755 780 755 947 
C 755 1132 614 1216 486 1216 
C 378 1216 211 1164 211 927 
C 211 335 787 -128 1466 -128 
C 2176 -128 2720 432 2720 1087 
C 2720 1718 2208 2176 1600 2246 
C 2086 2347 2554 2776 2554 3353 
C 2554 3856 2048 4224 1472 4224 
C 890 4224 378 3862 378 3347 
C 378 3123 544 3084 627 3084 
C 762 3084 877 3167 877 3334 
C 877 3500 762 3584 627 3584 
C 602 3584 570 3584 544 3571 
C 730 3999 1235 4076 1459 4076 
C 1683 4076 2106 3966 2106 3347 
C 2106 3167 2080 2851 1862 2574 
C 1670 2329 1453 2316 1242 2297 
C 1210 2297 1062 2284 1037 2284 
C 992 2278 966 2272 966 2227 
C 966 2182 973 2176 1101 2176 
L 1414 2176 
z
" transform="scale(0.015625)"/>
       </defs>
       <use xlink:href="#CMR17-33" transform="scale(0.996264)"/>
       <use xlink:href="#CMR17-30" transform="translate(45.690477 0) scale(0.996264)"/>
      </g>
     </g>
    </g>
    <g id="xtick_8">
     <g id="line2d_15">
      <g>
       <use xlink:href="#ma1cdcee5fa" x="369.144002" y="225.36" style="stroke: #000000; stroke-width: 0.5"/>
      </g>
     </g>
     <g id="line2d_16">
      <g>
       <use xlink:href="#m7d45ecdf80" x="369.144002" y="3.6" style="stroke: #000000; stroke-width: 0.5"/>
      </g>
     </g>
     <g id="text_8">
      <!-- $\mathdefault{35}$ -->
      <g transform="translate(363.291011 237.093772) scale(0.12 -0.12)">
       <use xlink:href="#CMR17-33" transform="scale(0.996264)"/>
       <use xlink:href="#CMR17-35" transform="translate(45.690477 0) scale(0.996264)"/>
      </g>
     </g>
    </g>
    <g id="xtick_9">
     <g id="line2d_17">
      <defs>
       <path id="m9c8ada3b82" d="M 0 0 
L 0 -1.5 
" style="stroke: #000000; stroke-width: 0.5"/>
      </defs>
      <g>
       <use xlink:href="#m9c8ada3b82" x="64.780365" y="225.36" style="stroke: #000000; stroke-width: 0.5"/>
      </g>
     </g>
     <g id="line2d_18">
      <defs>
       <path id="me8d20bf7bd" d="M 0 0 
L 0 1.5 
" style="stroke: #000000; stroke-width: 0.5"/>
      </defs>
      <g>
       <use xlink:href="#me8d20bf7bd" x="64.780365" y="3.6" style="stroke: #000000; stroke-width: 0.5"/>
      </g>
     </g>
    </g>
    <g id="xtick_10">
     <g id="line2d_19">
      <g>
       <use xlink:href="#m9c8ada3b82" x="81.689456" y="225.36" style="stroke: #000000; stroke-width: 0.5"/>
      </g>
     </g>
     <g id="line2d_20">
      <g>
       <use xlink:href="#me8d20bf7bd" x="81.689456" y="3.6" style="stroke: #000000; stroke-width: 0.5"/>
      </g>
     </g>
    </g>
    <g id="xtick_11">
     <g id="line2d_21">
      <g>
       <use xlink:href="#m9c8ada3b82" x="90.144002" y="225.36" style="stroke: #000000; stroke-width: 0.5"/>
      </g>
     </g>
     <g id="line2d_22">
      <g>
       <use xlink:href="#me8d20bf7bd" x="90.144002" y="3.6" style="stroke: #000000; stroke-width: 0.5"/>
      </g>
     </g>
    </g>
    <g id="xtick_12">
     <g id="line2d_23">
      <g>
       <use xlink:href="#m9c8ada3b82" x="98.598547" y="225.36" style="stroke: #000000; stroke-width: 0.5"/>
      </g>
     </g>
     <g id="line2d_24">
      <g>
       <use xlink:href="#me8d20bf7bd" x="98.598547" y="3.6" style="stroke: #000000; stroke-width: 0.5"/>
      </g>
     </g>
    </g>
    <g id="xtick_13">
     <g id="line2d_25">
      <g>
       <use xlink:href="#m9c8ada3b82" x="107.053093" y="225.36" style="stroke: #000000; stroke-width: 0.5"/>
      </g>
     </g>
     <g id="line2d_26">
      <g>
       <use xlink:href="#me8d20bf7bd" x="107.053093" y="3.6" style="stroke: #000000; stroke-width: 0.5"/>
      </g>
     </g>
    </g>
    <g id="xtick_14">
     <g id="line2d_27">
      <g>
       <use xlink:href="#m9c8ada3b82" x="123.962183" y="225.36" style="stroke: #000000; stroke-width: 0.5"/>
      </g>
     </g>
     <g id="line2d_28">
      <g>
       <use xlink:href="#me8d20bf7bd" x="123.962183" y="3.6" style="stroke: #000000; stroke-width: 0.5"/>
      </g>
     </g>
    </g>
    <g id="xtick_15">
     <g id="line2d_29">
      <g>
       <use xlink:href="#m9c8ada3b82" x="132.416729" y="225.36" style="stroke: #000000; stroke-width: 0.5"/>
      </g>
     </g>
     <g id="line2d_30">
      <g>
       <use xlink:href="#me8d20bf7bd" x="132.416729" y="3.6" style="stroke: #000000; stroke-width: 0.5"/>
      </g>
     </g>
    </g>
    <g id="xtick_16">
     <g id="line2d_31">
      <g>
       <use xlink:href="#m9c8ada3b82" x="140.871274" y="225.36" style="stroke: #000000; stroke-width: 0.5"/>
      </g>
     </g>
     <g id="line2d_32">
      <g>
       <use xlink:href="#me8d20bf7bd" x="140.871274" y="3.6" style="stroke: #000000; stroke-width: 0.5"/>
      </g>
     </g>
    </g>
    <g id="xtick_17">
     <g id="line2d_33">
      <g>
       <use xlink:href="#m9c8ada3b82" x="149.32582" y="225.36" style="stroke: #000000; stroke-width: 0.5"/>
      </g>
     </g>
     <g id="line2d_34">
      <g>
       <use xlink:href="#me8d20bf7bd" x="149.32582" y="3.6" style="stroke: #000000; stroke-width: 0.5"/>
      </g>
     </g>
    </g>
    <g id="xtick_18">
     <g id="line2d_35">
      <g>
       <use xlink:href="#m9c8ada3b82" x="166.234911" y="225.36" style="stroke: #000000; stroke-width: 0.5"/>
      </g>
     </g>
     <g id="line2d_36">
      <g>
       <use xlink:href="#me8d20bf7bd" x="166.234911" y="3.6" style="stroke: #000000; stroke-width: 0.5"/>
      </g>
     </g>
    </g>
    <g id="xtick_19">
     <g id="line2d_37">
      <g>
       <use xlink:href="#m9c8ada3b82" x="174.689456" y="225.36" style="stroke: #000000; stroke-width: 0.5"/>
      </g>
     </g>
     <g id="line2d_38">
      <g>
       <use xlink:href="#me8d20bf7bd" x="174.689456" y="3.6" style="stroke: #000000; stroke-width: 0.5"/>
      </g>
     </g>
    </g>
    <g id="xtick_20">
     <g id="line2d_39">
      <g>
       <use xlink:href="#m9c8ada3b82" x="183.144002" y="225.36" style="stroke: #000000; stroke-width: 0.5"/>
      </g>
     </g>
     <g id="line2d_40">
      <g>
       <use xlink:href="#me8d20bf7bd" x="183.144002" y="3.6" style="stroke: #000000; stroke-width: 0.5"/>
      </g>
     </g>
    </g>
    <g id="xtick_21">
     <g id="line2d_41">
      <g>
       <use xlink:href="#m9c8ada3b82" x="191.598547" y="225.36" style="stroke: #000000; stroke-width: 0.5"/>
      </g>
     </g>
     <g id="line2d_42">
      <g>
       <use xlink:href="#me8d20bf7bd" x="191.598547" y="3.6" style="stroke: #000000; stroke-width: 0.5"/>
      </g>
     </g>
    </g>
    <g id="xtick_22">
     <g id="line2d_43">
      <g>
       <use xlink:href="#m9c8ada3b82" x="208.507638" y="225.36" style="stroke: #000000; stroke-width: 0.5"/>
      </g>
     </g>
     <g id="line2d_44">
      <g>
       <use xlink:href="#me8d20bf7bd" x="208.507638" y="3.6" style="stroke: #000000; stroke-width: 0.5"/>
      </g>
     </g>
    </g>
    <g id="xtick_23">
     <g id="line2d_45">
      <g>
       <use xlink:href="#m9c8ada3b82" x="216.962183" y="225.36" style="stroke: #000000; stroke-width: 0.5"/>
      </g>
     </g>
     <g id="line2d_46">
      <g>
       <use xlink:href="#me8d20bf7bd" x="216.962183" y="3.6" style="stroke: #000000; stroke-width: 0.5"/>
      </g>
     </g>
    </g>
    <g id="xtick_24">
     <g id="line2d_47">
      <g>
       <use xlink:href="#m9c8ada3b82" x="225.416729" y="225.36" style="stroke: #000000; stroke-width: 0.5"/>
      </g>
     </g>
     <g id="line2d_48">
      <g>
       <use xlink:href="#me8d20bf7bd" x="225.416729" y="3.6" style="stroke: #000000; stroke-width: 0.5"/>
      </g>
     </g>
    </g>
    <g id="xtick_25">
     <g id="line2d_49">
      <g>
       <use xlink:href="#m9c8ada3b82" x="233.871274" y="225.36" style="stroke: #000000; stroke-width: 0.5"/>
      </g>
     </g>
     <g id="line2d_50">
      <g>
       <use xlink:href="#me8d20bf7bd" x="233.871274" y="3.6" style="stroke: #000000; stroke-width: 0.5"/>
      </g>
     </g>
    </g>
    <g id="xtick_26">
     <g id="line2d_51">
      <g>
       <use xlink:href="#m9c8ada3b82" x="250.780365" y="225.36" style="stroke: #000000; stroke-width: 0.5"/>
      </g>
     </g>
     <g id="line2d_52">
      <g>
       <use xlink:href="#me8d20bf7bd" x="250.780365" y="3.6" style="stroke: #000000; stroke-width: 0.5"/>
      </g>
     </g>
    </g>
    <g id="xtick_27">
     <g id="line2d_53">
      <g>
       <use xlink:href="#m9c8ada3b82" x="259.234911" y="225.36" style="stroke: #000000; stroke-width: 0.5"/>
      </g>
     </g>
     <g id="line2d_54">
      <g>
       <use xlink:href="#me8d20bf7bd" x="259.234911" y="3.6" style="stroke: #000000; stroke-width: 0.5"/>
      </g>
     </g>
    </g>
    <g id="xtick_28">
     <g id="line2d_55">
      <g>
       <use xlink:href="#m9c8ada3b82" x="267.689456" y="225.36" style="stroke: #000000; stroke-width: 0.5"/>
      </g>
     </g>
     <g id="line2d_56">
      <g>
       <use xlink:href="#me8d20bf7bd" x="267.689456" y="3.6" style="stroke: #000000; stroke-width: 0.5"/>
      </g>
     </g>
    </g>
    <g id="xtick_29">
     <g id="line2d_57">
      <g>
       <use xlink:href="#m9c8ada3b82" x="276.144002" y="225.36" style="stroke: #000000; stroke-width: 0.5"/>
      </g>
     </g>
     <g id="line2d_58">
      <g>
       <use xlink:href="#me8d20bf7bd" x="276.144002" y="3.6" style="stroke: #000000; stroke-width: 0.5"/>
      </g>
     </g>
    </g>
    <g id="xtick_30">
     <g id="line2d_59">
      <g>
       <use xlink:href="#m9c8ada3b82" x="293.053093" y="225.36" style="stroke: #000000; stroke-width: 0.5"/>
      </g>
     </g>
     <g id="line2d_60">
      <g>
       <use xlink:href="#me8d20bf7bd" x="293.053093" y="3.6" style="stroke: #000000; stroke-width: 0.5"/>
      </g>
     </g>
    </g>
    <g id="xtick_31">
     <g id="line2d_61">
      <g>
       <use xlink:href="#m9c8ada3b82" x="301.507638" y="225.36" style="stroke: #000000; stroke-width: 0.5"/>
      </g>
     </g>
     <g id="line2d_62">
      <g>
       <use xlink:href="#me8d20bf7bd" x="301.507638" y="3.6" style="stroke: #000000; stroke-width: 0.5"/>
      </g>
     </g>
    </g>
    <g id="xtick_32">
     <g id="line2d_63">
      <g>
       <use xlink:href="#m9c8ada3b82" x="309.962183" y="225.36" style="stroke: #000000; stroke-width: 0.5"/>
      </g>
     </g>
     <g id="line2d_64">
      <g>
       <use xlink:href="#me8d20bf7bd" x="309.962183" y="3.6" style="stroke: #000000; stroke-width: 0.5"/>
      </g>
     </g>
    </g>
    <g id="xtick_33">
     <g id="line2d_65">
      <g>
       <use xlink:href="#m9c8ada3b82" x="318.416729" y="225.36" style="stroke: #000000; stroke-width: 0.5"/>
      </g>
     </g>
     <g id="line2d_66">
      <g>
       <use xlink:href="#me8d20bf7bd" x="318.416729" y="3.6" style="stroke: #000000; stroke-width: 0.5"/>
      </g>
     </g>
    </g>
    <g id="xtick_34">
     <g id="line2d_67">
      <g>
       <use xlink:href="#m9c8ada3b82" x="335.32582" y="225.36" style="stroke: #000000; stroke-width: 0.5"/>
      </g>
     </g>
     <g id="line2d_68">
      <g>
       <use xlink:href="#me8d20bf7bd" x="335.32582" y="3.6" style="stroke: #000000; stroke-width: 0.5"/>
      </g>
     </g>
    </g>
    <g id="xtick_35">
     <g id="line2d_69">
      <g>
       <use xlink:href="#m9c8ada3b82" x="343.780365" y="225.36" style="stroke: #000000; stroke-width: 0.5"/>
      </g>
     </g>
     <g id="line2d_70">
      <g>
       <use xlink:href="#me8d20bf7bd" x="343.780365" y="3.6" style="stroke: #000000; stroke-width: 0.5"/>
      </g>
     </g>
    </g>
    <g id="xtick_36">
     <g id="line2d_71">
      <g>
       <use xlink:href="#m9c8ada3b82" x="352.234911" y="225.36" style="stroke: #000000; stroke-width: 0.5"/>
      </g>
     </g>
     <g id="line2d_72">
      <g>
       <use xlink:href="#me8d20bf7bd" x="352.234911" y="3.6" style="stroke: #000000; stroke-width: 0.5"/>
      </g>
     </g>
    </g>
    <g id="xtick_37">
     <g id="line2d_73">
      <g>
       <use xlink:href="#m9c8ada3b82" x="360.689456" y="225.36" style="stroke: #000000; stroke-width: 0.5"/>
      </g>
     </g>
     <g id="line2d_74">
      <g>
       <use xlink:href="#me8d20bf7bd" x="360.689456" y="3.6" style="stroke: #000000; stroke-width: 0.5"/>
      </g>
     </g>
    </g>
    <g id="xtick_38">
     <g id="line2d_75">
      <g>
       <use xlink:href="#m9c8ada3b82" x="377.598547" y="225.36" style="stroke: #000000; stroke-width: 0.5"/>
      </g>
     </g>
     <g id="line2d_76">
      <g>
       <use xlink:href="#me8d20bf7bd" x="377.598547" y="3.6" style="stroke: #000000; stroke-width: 0.5"/>
      </g>
     </g>
    </g>
    <g id="xtick_39">
     <g id="line2d_77">
      <g>
       <use xlink:href="#m9c8ada3b82" x="386.053093" y="225.36" style="stroke: #000000; stroke-width: 0.5"/>
      </g>
     </g>
     <g id="line2d_78">
      <g>
       <use xlink:href="#me8d20bf7bd" x="386.053093" y="3.6" style="stroke: #000000; stroke-width: 0.5"/>
      </g>
     </g>
    </g>
    <g id="text_9">
     <!-- Порядковый номер m -->
     <g transform="translate(167.308942 251.651592) scale(0.12 -0.12)">
      <defs>
       <path id="SFRM3583-cf" d="M 467 4352 
L 467 4211 
L 576 4211 
C 742 4211 877 4192 877 3943 
L 877 408 
C 877 159 768 140 467 140 
L 467 0 
L 1600 0 
L 1600 140 
L 1491 140 
C 1338 140 1184 159 1184 376 
C 1184 427 1190 472 1190 516 
L 1190 3873 
C 1190 3911 1184 3962 1184 4007 
C 1184 4147 1242 4211 1363 4211 
L 3110 4211 
C 3251 4211 3264 4103 3264 4001 
L 3264 516 
C 3264 472 3270 427 3270 376 
C 3270 153 3104 140 2931 140 
L 2854 140 
L 2854 0 
L 3987 0 
L 3987 140 
L 3878 140 
C 3712 140 3571 159 3571 408 
C 3571 459 3578 503 3578 554 
L 3578 3943 
C 3578 4192 3686 4211 3987 4211 
L 3987 4352 
L 467 4352 
z
" transform="scale(0.015625)"/>
       <path id="SFRM3583-ee" d="M 1350 2816 
C 614 2725 237 2032 237 1359 
C 237 673 685 -64 1440 -64 
L 1504 -64 
C 2240 26 2624 712 2624 1366 
C 2624 2021 2182 2816 1440 2816 
C 1408 2822 1382 2816 1350 2816 
z
M 563 1256 
L 563 1359 
C 563 1845 621 2388 1114 2660 
C 1197 2699 1293 2731 1389 2738 
L 1434 2738 
C 2054 2738 2298 2006 2298 1482 
C 2298 971 2246 240 1606 46 
C 1549 33 1491 20 1434 20 
C 960 20 653 499 595 958 
C 576 1055 576 1159 563 1256 
z
" transform="scale(0.015625)"/>
       <path id="SFRM3583-f0" d="M 288 2745 
L 288 2605 
L 371 2605 
C 576 2605 666 2522 666 2324 
L 666 -724 
C 666 -769 672 -814 672 -858 
C 672 -1063 512 -1076 346 -1076 
L 288 -1076 
L 288 -1216 
L 1306 -1216 
L 1306 -1076 
L 1216 -1076 
C 1069 -1076 928 -1057 928 -852 
L 934 490 
C 1069 158 1459 -9 1728 -9 
C 2438 -9 2912 707 2912 1410 
C 2912 2036 2534 2816 1798 2816 
C 1453 2816 1050 2598 928 2298 
L 922 2816 
L 288 2745 
z
M 2579 1288 
C 2547 796 2278 68 1709 68 
C 1370 68 922 368 922 765 
C 922 803 928 841 928 880 
L 928 1825 
C 928 1889 922 1953 922 2017 
C 922 2375 1357 2733 1734 2733 
C 2349 2733 2586 1902 2586 1403 
C 2586 1365 2586 1327 2579 1288 
z
" transform="scale(0.015625)"/>
       <path id="SFRM3583-ff" d="M 1344 1414 
C 1235 1248 1107 1088 986 928 
C 755 614 474 102 96 76 
L 96 0 
L 998 0 
L 998 76 
L 941 76 
C 883 76 787 89 787 160 
C 787 281 1024 556 1146 716 
L 1491 1196 
C 1562 1286 1600 1401 1715 1401 
C 1747 1401 1786 1395 1811 1395 
L 2182 1395 
L 2182 268 
C 2157 89 2022 76 1882 76 
L 1805 76 
L 1805 0 
L 2816 0 
L 2816 76 
L 2726 76 
C 2566 76 2438 108 2438 332 
L 2438 2425 
C 2438 2649 2573 2681 2726 2681 
L 2816 2681 
L 2816 2752 
L 1722 2752 
C 1325 2752 781 2752 512 2412 
C 435 2316 397 2208 397 2099 
C 397 1708 787 1510 1126 1446 
C 1197 1427 1274 1414 1344 1414 
z
M 2182 1472 
C 2048 1472 1907 1465 1766 1465 
C 1338 1465 723 1504 723 2099 
C 723 2630 1254 2675 1638 2675 
L 2029 2675 
C 2163 2675 2182 2553 2182 2419 
L 2182 1472 
z
" transform="scale(0.015625)"/>
       <path id="SFRM3583-e4" d="M 832 2752 
L 832 2681 
L 915 2681 
C 1088 2681 1203 2630 1203 2445 
L 1203 2407 
C 1203 1641 1152 85 256 85 
L 173 -1024 
L 256 -1024 
C 275 -744 282 -323 448 -157 
C 582 -23 774 9 960 9 
L 2150 9 
C 2438 9 2778 -10 2854 -444 
C 2899 -635 2912 -833 2925 -1024 
L 3008 -1024 
L 2925 85 
L 2835 85 
C 2675 85 2515 104 2515 340 
L 2515 2432 
C 2515 2649 2650 2681 2803 2681 
L 2893 2681 
L 2893 2752 
L 832 2752 
z
M 2246 245 
C 2246 104 2157 85 2061 85 
L 845 85 
C 806 92 774 111 768 155 
C 768 213 851 283 890 340 
C 1331 1004 1261 1980 1293 2458 
L 1293 2496 
C 1293 2611 1344 2681 1466 2681 
L 2074 2681 
C 2227 2681 2253 2579 2253 2477 
L 2253 353 
C 2253 315 2253 283 2246 245 
z
" transform="scale(0.015625)"/>
       <path id="SFRM3583-ea" d="M 288 2752 
L 288 2681 
L 378 2681 
C 531 2681 666 2649 666 2425 
L 666 332 
C 666 108 538 76 378 76 
L 288 76 
L 288 0 
L 1299 0 
L 1299 76 
L 1216 76 
C 1030 76 922 121 922 339 
L 922 1049 
C 922 1120 941 1145 992 1196 
L 1094 1286 
C 1210 1388 1325 1504 1453 1593 
C 1517 1472 1613 1363 1690 1248 
C 1869 992 2061 742 2234 480 
L 2272 422 
C 2304 364 2355 281 2355 211 
C 2355 121 2266 76 2189 76 
L 2189 0 
L 3085 0 
L 3085 76 
C 2816 76 2650 307 2515 518 
C 2253 883 2003 1241 1741 1606 
C 1709 1657 1677 1708 1632 1753 
L 1632 1760 
C 1933 1984 2176 2278 2496 2483 
C 2630 2579 2784 2675 2957 2681 
L 2957 2752 
L 2176 2752 
L 2176 2681 
C 2240 2649 2259 2630 2259 2579 
C 2259 2380 2067 2252 2067 2252 
C 1920 2112 1766 1990 1613 1856 
C 1382 1651 1158 1446 922 1248 
L 922 2361 
C 922 2592 979 2681 1222 2681 
L 1299 2681 
L 1299 2752 
L 288 2752 
z
" transform="scale(0.015625)"/>
       <path id="SFRM3583-e2" d="M 294 2752 
L 294 2681 
L 358 2681 
C 525 2681 666 2662 666 2425 
L 666 339 
C 666 95 525 76 358 76 
L 294 76 
L 294 0 
L 1818 0 
C 2208 31 2624 275 2669 716 
L 2669 767 
C 2669 1235 2003 1491 1722 1510 
C 1792 1542 1875 1548 1952 1574 
C 2208 1651 2541 1817 2541 2131 
C 2541 2643 1843 2752 1472 2752 
L 294 2752 
z
M 928 1478 
L 1606 1478 
C 2003 1478 2349 1190 2349 780 
L 2349 767 
C 2323 326 1946 76 1555 76 
L 1120 76 
C 979 76 928 115 928 371 
L 928 1478 
z
M 928 1555 
L 928 2431 
C 928 2553 947 2681 1120 2681 
L 1440 2681 
C 1632 2681 1811 2675 1971 2566 
C 2118 2463 2221 2297 2221 2124 
C 2221 1721 1728 1555 1440 1555 
L 928 1555 
z
" transform="scale(0.015625)"/>
       <path id="SFRM3583-fb" d="M 288 2752 
L 288 2681 
L 378 2681 
C 531 2681 666 2649 666 2425 
L 666 332 
C 666 108 538 76 378 76 
L 288 76 
L 288 0 
L 1747 0 
C 2150 25 2675 275 2675 780 
C 2675 1049 2483 1286 2253 1414 
C 2003 1548 1741 1555 1466 1555 
L 928 1555 
L 928 2419 
C 928 2636 1037 2681 1222 2681 
L 1306 2681 
L 1306 2752 
L 998 2752 
L 288 2752 
z
M 928 1484 
L 1536 1484 
C 1946 1484 2349 1214 2349 784 
L 2349 758 
C 2349 347 1933 83 1555 83 
L 1082 83 
C 928 83 928 218 928 372 
L 928 1484 
z
M 2835 2752 
L 2835 2681 
L 2925 2681 
C 3078 2681 3213 2649 3213 2432 
L 3213 326 
C 3213 108 3085 76 2925 76 
L 2835 76 
L 2835 0 
L 3853 0 
L 3853 76 
L 3763 76 
C 3603 76 3475 108 3475 332 
L 3475 2425 
C 3475 2649 3610 2681 3763 2681 
L 3853 2681 
L 3853 2752 
L 2835 2752 
z
" transform="scale(0.015625)"/>
       <path id="SFRM3583-e9" d="M 288 2758 
L 288 2688 
L 378 2688 
C 531 2688 666 2655 666 2431 
L 666 333 
C 666 109 538 76 378 76 
L 288 76 
L 288 0 
L 1306 0 
L 1306 76 
L 1216 76 
C 1075 76 960 96 928 269 
L 928 314 
C 928 397 1005 468 1050 532 
C 1331 955 1632 1372 1926 1789 
L 2131 2084 
C 2170 2142 2214 2193 2246 2258 
L 2253 333 
C 2253 102 2112 76 1965 76 
L 1875 76 
L 1875 0 
L 2893 0 
L 2893 76 
L 2803 76 
C 2643 76 2515 109 2515 333 
L 2515 2431 
C 2515 2655 2650 2688 2803 2688 
L 2893 2688 
L 2893 2758 
L 1875 2758 
L 1875 2688 
L 1965 2688 
C 2106 2688 2221 2662 2253 2489 
L 2253 2444 
C 2253 2360 2176 2290 2131 2226 
C 1850 1802 1549 1385 1254 968 
L 1050 673 
C 1011 615 966 564 934 500 
L 928 2431 
C 928 2642 1050 2688 1216 2688 
L 1306 2688 
L 1306 2758 
L 998 2752 
L 288 2758 
z
M 2221 3276 
C 2080 3078 1843 3001 1606 3001 
C 1357 3001 1114 3072 960 3276 
C 986 3270 1011 3264 1037 3264 
C 1146 3264 1235 3353 1235 3456 
C 1235 3552 1158 3654 1037 3660 
C 883 3660 832 3545 832 3443 
C 832 3052 1274 2880 1600 2880 
L 1626 2880 
C 1939 2886 2349 3072 2349 3443 
C 2349 3532 2291 3660 2157 3660 
L 2150 3660 
C 2029 3660 1952 3558 1952 3456 
C 1952 3360 2029 3257 2144 3257 
C 2170 3257 2195 3264 2221 3270 
L 2221 3276 
z
" transform="scale(0.015625)"/>
       <path id="SFRM3583-ed" d="M 288 2752 
L 288 2687 
L 378 2687 
C 531 2687 666 2655 666 2431 
L 666 333 
C 666 109 538 76 378 76 
L 288 76 
L 288 0 
L 1306 0 
L 1306 76 
L 1229 76 
C 1088 76 954 89 928 269 
L 928 1478 
L 2253 1478 
L 2253 268 
C 2227 89 2093 76 1952 76 
L 1875 76 
L 1875 0 
L 2893 0 
L 2893 76 
L 2803 76 
C 2643 76 2515 108 2515 332 
L 2515 2425 
C 2515 2649 2650 2681 2803 2681 
L 2893 2681 
L 2893 2752 
L 1875 2752 
L 1875 2681 
L 1958 2681 
C 2144 2681 2253 2636 2253 2419 
L 2253 1555 
L 928 1555 
L 928 2419 
C 928 2636 1037 2681 1222 2681 
L 1306 2681 
L 1306 2752 
L 998 2752 
L 288 2752 
z
" transform="scale(0.015625)"/>
       <path id="SFRM3583-ec" d="M 294 2752 
L 294 2681 
L 384 2681 
C 538 2681 672 2643 672 2425 
L 672 979 
C 672 870 678 755 678 640 
C 678 403 659 76 294 76 
L 294 0 
L 1139 0 
L 1139 76 
C 787 76 762 377 762 588 
L 768 2630 
C 813 2412 947 2169 1030 1945 
L 1549 620 
C 1606 460 1670 307 1734 147 
C 1747 102 1766 6 1824 0 
C 1894 0 2029 416 2099 614 
C 2342 1209 2560 1817 2803 2412 
C 2835 2489 2874 2572 2893 2656 
L 2899 339 
C 2899 108 2771 76 2611 76 
L 2522 76 
L 2522 0 
L 3526 0 
L 3526 76 
L 3437 76 
C 3277 76 3149 108 3149 332 
L 3149 2425 
C 3149 2649 3283 2681 3437 2681 
L 3526 2681 
L 3526 2752 
L 2938 2752 
L 2874 2739 
L 2835 2688 
L 1914 326 
L 1043 2566 
L 960 2739 
L 890 2752 
L 294 2752 
z
" transform="scale(0.015625)"/>
       <path id="SFRM3583-e5" d="M 563 1515 
L 2246 1515 
C 2259 1515 2285 1508 2310 1508 
C 2355 1508 2374 1534 2374 1573 
C 2374 2149 2099 2816 1382 2816 
C 614 2816 237 2019 237 1385 
C 237 751 589 33 1350 -64 
C 1376 -58 1402 -64 1427 -64 
C 1869 -64 2208 245 2355 665 
C 2362 685 2368 710 2368 730 
C 2368 749 2362 768 2336 768 
C 2272 768 2266 665 2246 607 
C 2118 297 1843 26 1485 26 
C 1216 26 960 181 813 400 
C 576 723 563 1137 563 1517 
L 563 1515 
z
M 570 1595 
C 582 2099 832 2738 1370 2738 
C 1818 2738 2010 2260 2061 1886 
C 2067 1789 2067 1692 2080 1595 
L 570 1595 
z
" transform="scale(0.015625)"/>
       <path id="SFRM3583-6d" d="M 301 2744 
L 301 2602 
L 365 2602 
C 570 2602 678 2557 678 2273 
L 678 360 
C 678 153 525 140 301 140 
L 301 0 
L 1318 0 
L 1318 140 
L 1229 140 
C 1082 140 941 160 941 360 
L 941 1258 
C 941 1375 934 1484 934 1601 
C 934 2066 1088 2738 1715 2738 
C 2112 2738 2272 2428 2272 1950 
L 2272 360 
C 2272 153 2118 140 1894 140 
L 1894 0 
L 2912 0 
L 2912 140 
L 2822 140 
C 2675 140 2534 160 2534 360 
L 2534 1258 
C 2534 1375 2528 1484 2528 1601 
C 2528 2066 2682 2738 3309 2738 
C 3706 2738 3866 2428 3866 1950 
L 3866 360 
C 3866 153 3712 140 3488 140 
L 3488 0 
L 4506 0 
L 4506 140 
L 4403 140 
C 4256 140 4128 160 4128 386 
L 4128 1859 
C 4128 2292 4058 2816 3354 2816 
C 2957 2816 2611 2525 2534 2144 
L 2528 2144 
C 2470 2486 2323 2816 1760 2816 
C 1357 2816 998 2492 934 2118 
L 928 2816 
L 301 2744 
z
" transform="scale(0.015625)"/>
      </defs>
      <use xlink:href="#SFRM3583-cf" transform="scale(0.996264)"/>
      <use xlink:href="#SFRM3583-ee" transform="translate(69.320979 0) scale(0.996264)"/>
      <use xlink:href="#SFRM3583-f0" transform="translate(113.899446 0) scale(0.996264)"/>
      <use xlink:href="#SFRM3583-ff" transform="translate(160.957886 0) scale(0.996264)"/>
      <use xlink:href="#SFRM3583-e4" transform="translate(209.25632 0) scale(0.996264)"/>
      <use xlink:href="#SFRM3583-ea" transform="translate(258.794748 0) scale(0.996264)"/>
      <use xlink:href="#SFRM3583-ee" transform="translate(305.853188 0) scale(0.996264)"/>
      <use xlink:href="#SFRM3583-e2" transform="translate(350.431655 0) scale(0.996264)"/>
      <use xlink:href="#SFRM3583-fb" transform="translate(395.010121 0) scale(0.996264)"/>
      <use xlink:href="#SFRM3583-e9" transform="translate(459.428708 0) scale(0.996264)"/>
      <use xlink:href="#SFRM3583-ed" transform="translate(538.665429 0) scale(0.996264)"/>
      <use xlink:href="#SFRM3583-ee" transform="translate(588.203858 0) scale(0.996264)"/>
      <use xlink:href="#SFRM3583-ec" transform="translate(632.782324 0) scale(0.996264)"/>
      <use xlink:href="#SFRM3583-e5" transform="translate(692.240858 0) scale(0.996264)"/>
      <use xlink:href="#SFRM3583-f0" transform="translate(731.859257 0) scale(0.996264)"/>
      <use xlink:href="#SFRM3583-6d" transform="translate(811.095979 0) scale(0.996264)"/>
     </g>
    </g>
   </g>
   <g id="matplotlib.axis_2">
    <g id="ytick_1">
     <g id="line2d_79">
      <defs>
       <path id="mad1afc5c6c" d="M 0 0 
L 3 0 
" style="stroke: #000000; stroke-width: 0.5"/>
      </defs>
      <g>
       <use xlink:href="#mad1afc5c6c" x="58.016729" y="215.28" style="stroke: #000000; stroke-width: 0.5"/>
      </g>
     </g>
     <g id="line2d_80">
      <defs>
       <path id="mbc8a927685" d="M 0 0 
L -3 0 
" style="stroke: #000000; stroke-width: 0.5"/>
      </defs>
      <g>
       <use xlink:href="#mbc8a927685" x="392.816729" y="215.28" style="stroke: #000000; stroke-width: 0.5"/>
      </g>
     </g>
     <g id="text_10">
      <!-- $\mathdefault{0}$ -->
      <g transform="translate(48.663739 219.396886) scale(0.12 -0.12)">
       <use xlink:href="#CMR17-30" transform="scale(0.996264)"/>
      </g>
     </g>
    </g>
    <g id="ytick_2">
     <g id="line2d_81">
      <g>
       <use xlink:href="#mad1afc5c6c" x="58.016729" y="166.593429" style="stroke: #000000; stroke-width: 0.5"/>
      </g>
     </g>
     <g id="line2d_82">
      <g>
       <use xlink:href="#mbc8a927685" x="392.816729" y="166.593429" style="stroke: #000000; stroke-width: 0.5"/>
      </g>
     </g>
     <g id="text_11">
      <!-- $\mathdefault{50000}$ -->
      <g transform="translate(25.251778 170.710315) scale(0.12 -0.12)">
       <use xlink:href="#CMR17-35" transform="scale(0.996264)"/>
       <use xlink:href="#CMR17-30" transform="translate(45.690477 0) scale(0.996264)"/>
       <use xlink:href="#CMR17-30" transform="translate(91.380954 0) scale(0.996264)"/>
       <use xlink:href="#CMR17-30" transform="translate(137.071431 0) scale(0.996264)"/>
       <use xlink:href="#CMR17-30" transform="translate(182.761908 0) scale(0.996264)"/>
      </g>
     </g>
    </g>
    <g id="ytick_3">
     <g id="line2d_83">
      <g>
       <use xlink:href="#mad1afc5c6c" x="58.016729" y="117.906858" style="stroke: #000000; stroke-width: 0.5"/>
      </g>
     </g>
     <g id="line2d_84">
      <g>
       <use xlink:href="#mbc8a927685" x="392.816729" y="117.906858" style="stroke: #000000; stroke-width: 0.5"/>
      </g>
     </g>
     <g id="text_12">
      <!-- $\mathdefault{100000}$ -->
      <g transform="translate(19.398787 122.023744) scale(0.12 -0.12)">
       <use xlink:href="#CMR17-31" transform="scale(0.996264)"/>
       <use xlink:href="#CMR17-30" transform="translate(45.690477 0) scale(0.996264)"/>
       <use xlink:href="#CMR17-30" transform="translate(91.380954 0) scale(0.996264)"/>
       <use xlink:href="#CMR17-30" transform="translate(137.071431 0) scale(0.996264)"/>
       <use xlink:href="#CMR17-30" transform="translate(182.761908 0) scale(0.996264)"/>
       <use xlink:href="#CMR17-30" transform="translate(228.452386 0) scale(0.996264)"/>
      </g>
     </g>
    </g>
    <g id="ytick_4">
     <g id="line2d_85">
      <g>
       <use xlink:href="#mad1afc5c6c" x="58.016729" y="69.220288" style="stroke: #000000; stroke-width: 0.5"/>
      </g>
     </g>
     <g id="line2d_86">
      <g>
       <use xlink:href="#mbc8a927685" x="392.816729" y="69.220288" style="stroke: #000000; stroke-width: 0.5"/>
      </g>
     </g>
     <g id="text_13">
      <!-- $\mathdefault{150000}$ -->
      <g transform="translate(19.398787 73.337174) scale(0.12 -0.12)">
       <use xlink:href="#CMR17-31" transform="scale(0.996264)"/>
       <use xlink:href="#CMR17-35" transform="translate(45.690477 0) scale(0.996264)"/>
       <use xlink:href="#CMR17-30" transform="translate(91.380954 0) scale(0.996264)"/>
       <use xlink:href="#CMR17-30" transform="translate(137.071431 0) scale(0.996264)"/>
       <use xlink:href="#CMR17-30" transform="translate(182.761908 0) scale(0.996264)"/>
       <use xlink:href="#CMR17-30" transform="translate(228.452386 0) scale(0.996264)"/>
      </g>
     </g>
    </g>
    <g id="ytick_5">
     <g id="line2d_87">
      <g>
       <use xlink:href="#mad1afc5c6c" x="58.016729" y="20.533717" style="stroke: #000000; stroke-width: 0.5"/>
      </g>
     </g>
     <g id="line2d_88">
      <g>
       <use xlink:href="#mbc8a927685" x="392.816729" y="20.533717" style="stroke: #000000; stroke-width: 0.5"/>
      </g>
     </g>
     <g id="text_14">
      <!-- $\mathdefault{200000}$ -->
      <g transform="translate(19.398787 24.650603) scale(0.12 -0.12)">
       <use xlink:href="#CMR17-32" transform="scale(0.996264)"/>
       <use xlink:href="#CMR17-30" transform="translate(45.690477 0) scale(0.996264)"/>
       <use xlink:href="#CMR17-30" transform="translate(91.380954 0) scale(0.996264)"/>
       <use xlink:href="#CMR17-30" transform="translate(137.071431 0) scale(0.996264)"/>
       <use xlink:href="#CMR17-30" transform="translate(182.761908 0) scale(0.996264)"/>
       <use xlink:href="#CMR17-30" transform="translate(228.452386 0) scale(0.996264)"/>
      </g>
     </g>
    </g>
    <g id="ytick_6">
     <g id="line2d_89">
      <defs>
       <path id="m741bfc6857" d="M 0 0 
L 1.5 0 
" style="stroke: #000000; stroke-width: 0.5"/>
      </defs>
      <g>
       <use xlink:href="#m741bfc6857" x="58.016729" y="225.017314" style="stroke: #000000; stroke-width: 0.5"/>
      </g>
     </g>
     <g id="line2d_90">
      <defs>
       <path id="m9cfbf9a831" d="M 0 0 
L -1.5 0 
" style="stroke: #000000; stroke-width: 0.5"/>
      </defs>
      <g>
       <use xlink:href="#m9cfbf9a831" x="392.816729" y="225.017314" style="stroke: #000000; stroke-width: 0.5"/>
      </g>
     </g>
    </g>
    <g id="ytick_7">
     <g id="line2d_91">
      <g>
       <use xlink:href="#m741bfc6857" x="58.016729" y="205.542686" style="stroke: #000000; stroke-width: 0.5"/>
      </g>
     </g>
     <g id="line2d_92">
      <g>
       <use xlink:href="#m9cfbf9a831" x="392.816729" y="205.542686" style="stroke: #000000; stroke-width: 0.5"/>
      </g>
     </g>
    </g>
    <g id="ytick_8">
     <g id="line2d_93">
      <g>
       <use xlink:href="#m741bfc6857" x="58.016729" y="195.805372" style="stroke: #000000; stroke-width: 0.5"/>
      </g>
     </g>
     <g id="line2d_94">
      <g>
       <use xlink:href="#m9cfbf9a831" x="392.816729" y="195.805372" style="stroke: #000000; stroke-width: 0.5"/>
      </g>
     </g>
    </g>
    <g id="ytick_9">
     <g id="line2d_95">
      <g>
       <use xlink:href="#m741bfc6857" x="58.016729" y="186.068058" style="stroke: #000000; stroke-width: 0.5"/>
      </g>
     </g>
     <g id="line2d_96">
      <g>
       <use xlink:href="#m9cfbf9a831" x="392.816729" y="186.068058" style="stroke: #000000; stroke-width: 0.5"/>
      </g>
     </g>
    </g>
    <g id="ytick_10">
     <g id="line2d_97">
      <g>
       <use xlink:href="#m741bfc6857" x="58.016729" y="176.330743" style="stroke: #000000; stroke-width: 0.5"/>
      </g>
     </g>
     <g id="line2d_98">
      <g>
       <use xlink:href="#m9cfbf9a831" x="392.816729" y="176.330743" style="stroke: #000000; stroke-width: 0.5"/>
      </g>
     </g>
    </g>
    <g id="ytick_11">
     <g id="line2d_99">
      <g>
       <use xlink:href="#m741bfc6857" x="58.016729" y="156.856115" style="stroke: #000000; stroke-width: 0.5"/>
      </g>
     </g>
     <g id="line2d_100">
      <g>
       <use xlink:href="#m9cfbf9a831" x="392.816729" y="156.856115" style="stroke: #000000; stroke-width: 0.5"/>
      </g>
     </g>
    </g>
    <g id="ytick_12">
     <g id="line2d_101">
      <g>
       <use xlink:href="#m741bfc6857" x="58.016729" y="147.118801" style="stroke: #000000; stroke-width: 0.5"/>
      </g>
     </g>
     <g id="line2d_102">
      <g>
       <use xlink:href="#m9cfbf9a831" x="392.816729" y="147.118801" style="stroke: #000000; stroke-width: 0.5"/>
      </g>
     </g>
    </g>
    <g id="ytick_13">
     <g id="line2d_103">
      <g>
       <use xlink:href="#m741bfc6857" x="58.016729" y="137.381487" style="stroke: #000000; stroke-width: 0.5"/>
      </g>
     </g>
     <g id="line2d_104">
      <g>
       <use xlink:href="#m9cfbf9a831" x="392.816729" y="137.381487" style="stroke: #000000; stroke-width: 0.5"/>
      </g>
     </g>
    </g>
    <g id="ytick_14">
     <g id="line2d_105">
      <g>
       <use xlink:href="#m741bfc6857" x="58.016729" y="127.644173" style="stroke: #000000; stroke-width: 0.5"/>
      </g>
     </g>
     <g id="line2d_106">
      <g>
       <use xlink:href="#m9cfbf9a831" x="392.816729" y="127.644173" style="stroke: #000000; stroke-width: 0.5"/>
      </g>
     </g>
    </g>
    <g id="ytick_15">
     <g id="line2d_107">
      <g>
       <use xlink:href="#m741bfc6857" x="58.016729" y="108.169544" style="stroke: #000000; stroke-width: 0.5"/>
      </g>
     </g>
     <g id="line2d_108">
      <g>
       <use xlink:href="#m9cfbf9a831" x="392.816729" y="108.169544" style="stroke: #000000; stroke-width: 0.5"/>
      </g>
     </g>
    </g>
    <g id="ytick_16">
     <g id="line2d_109">
      <g>
       <use xlink:href="#m741bfc6857" x="58.016729" y="98.43223" style="stroke: #000000; stroke-width: 0.5"/>
      </g>
     </g>
     <g id="line2d_110">
      <g>
       <use xlink:href="#m9cfbf9a831" x="392.816729" y="98.43223" style="stroke: #000000; stroke-width: 0.5"/>
      </g>
     </g>
    </g>
    <g id="ytick_17">
     <g id="line2d_111">
      <g>
       <use xlink:href="#m741bfc6857" x="58.016729" y="88.694916" style="stroke: #000000; stroke-width: 0.5"/>
      </g>
     </g>
     <g id="line2d_112">
      <g>
       <use xlink:href="#m9cfbf9a831" x="392.816729" y="88.694916" style="stroke: #000000; stroke-width: 0.5"/>
      </g>
     </g>
    </g>
    <g id="ytick_18">
     <g id="line2d_113">
      <g>
       <use xlink:href="#m741bfc6857" x="58.016729" y="78.957602" style="stroke: #000000; stroke-width: 0.5"/>
      </g>
     </g>
     <g id="line2d_114">
      <g>
       <use xlink:href="#m9cfbf9a831" x="392.816729" y="78.957602" style="stroke: #000000; stroke-width: 0.5"/>
      </g>
     </g>
    </g>
    <g id="ytick_19">
     <g id="line2d_115">
      <g>
       <use xlink:href="#m741bfc6857" x="58.016729" y="59.482974" style="stroke: #000000; stroke-width: 0.5"/>
      </g>
     </g>
     <g id="line2d_116">
      <g>
       <use xlink:href="#m9cfbf9a831" x="392.816729" y="59.482974" style="stroke: #000000; stroke-width: 0.5"/>
      </g>
     </g>
    </g>
    <g id="ytick_20">
     <g id="line2d_117">
      <g>
       <use xlink:href="#m741bfc6857" x="58.016729" y="49.745659" style="stroke: #000000; stroke-width: 0.5"/>
      </g>
     </g>
     <g id="line2d_118">
      <g>
       <use xlink:href="#m9cfbf9a831" x="392.816729" y="49.745659" style="stroke: #000000; stroke-width: 0.5"/>
      </g>
     </g>
    </g>
    <g id="ytick_21">
     <g id="line2d_119">
      <g>
       <use xlink:href="#m741bfc6857" x="58.016729" y="40.008345" style="stroke: #000000; stroke-width: 0.5"/>
      </g>
     </g>
     <g id="line2d_120">
      <g>
       <use xlink:href="#m9cfbf9a831" x="392.816729" y="40.008345" style="stroke: #000000; stroke-width: 0.5"/>
      </g>
     </g>
    </g>
    <g id="ytick_22">
     <g id="line2d_121">
      <g>
       <use xlink:href="#m741bfc6857" x="58.016729" y="30.271031" style="stroke: #000000; stroke-width: 0.5"/>
      </g>
     </g>
     <g id="line2d_122">
      <g>
       <use xlink:href="#m9cfbf9a831" x="392.816729" y="30.271031" style="stroke: #000000; stroke-width: 0.5"/>
      </g>
     </g>
    </g>
    <g id="ytick_23">
     <g id="line2d_123">
      <g>
       <use xlink:href="#m741bfc6857" x="58.016729" y="10.796403" style="stroke: #000000; stroke-width: 0.5"/>
      </g>
     </g>
     <g id="line2d_124">
      <g>
       <use xlink:href="#m9cfbf9a831" x="392.816729" y="10.796403" style="stroke: #000000; stroke-width: 0.5"/>
      </g>
     </g>
    </g>
    <g id="text_15">
     <!-- Квадрат расстояния до центра, $\text{мкм}^2$ -->
     <g transform="translate(13.074739 214.122036) rotate(-90) scale(0.12 -0.12)">
      <defs>
       <path id="SFRM3583-ca" d="M 467 4352 
L 467 4211 
L 576 4211 
C 742 4211 877 4192 877 3943 
L 877 408 
C 877 159 768 140 467 140 
L 467 0 
L 1600 0 
L 1600 140 
L 1536 140 
C 1338 140 1184 153 1184 382 
C 1184 433 1190 484 1190 523 
L 1190 1491 
C 1190 1605 1325 1688 1402 1765 
C 1555 1924 1715 2083 1862 2242 
C 1926 2306 2003 2370 2054 2446 
L 2067 2446 
C 2099 2370 2150 2306 2195 2236 
L 2426 1879 
C 2669 1497 2918 1109 3162 726 
L 3283 535 
C 3334 459 3398 363 3398 280 
C 3398 198 3328 140 3213 140 
L 3213 0 
L 4211 0 
L 4211 140 
C 3910 140 3789 312 3590 618 
C 3462 822 3328 1026 3200 1230 
L 2368 2529 
C 2342 2567 2298 2612 2291 2657 
C 2291 2676 2304 2695 2317 2707 
L 2394 2784 
C 2682 3071 2963 3370 3251 3663 
C 3488 3911 3763 4204 4134 4211 
L 4134 4352 
L 3302 4352 
L 3302 4211 
C 3379 4173 3411 4153 3411 4077 
C 3411 3880 3142 3682 3002 3529 
C 2406 2905 1805 2287 1190 1676 
L 1190 3988 
C 1190 4198 1357 4211 1542 4211 
L 1600 4211 
L 1600 4352 
L 467 4352 
z
" transform="scale(0.015625)"/>
       <path id="SFRM3583-e0" d="M 576 2058 
C 659 2401 883 2738 1274 2738 
C 1619 2738 1869 2408 1920 2090 
C 1933 2006 1933 1915 1933 1831 
L 1933 1579 
C 1318 1579 474 1436 320 659 
C 314 620 314 575 314 536 
C 314 102 800 -64 1133 -64 
C 1446 -64 1856 141 1939 497 
L 1946 497 
C 1946 225 2125 -45 2394 -45 
C 2746 -45 2829 335 2829 614 
L 2829 905 
L 2746 905 
L 2746 575 
C 2746 368 2701 70 2470 70 
C 2208 70 2195 413 2195 588 
L 2195 1792 
C 2195 1954 2189 2123 2125 2278 
C 1990 2595 1638 2816 1293 2816 
C 800 2816 480 2375 480 1896 
C 480 1773 570 1702 672 1702 
C 774 1702 858 1786 858 1890 
C 858 1987 794 2077 672 2077 
C 640 2077 608 2071 576 2058 
z
M 1933 1507 
L 1933 873 
C 1933 445 1670 44 1229 12 
L 1190 12 
C 896 12 627 245 627 562 
C 627 1236 1363 1507 1933 1507 
z
" transform="scale(0.015625)"/>
       <path id="SFRM3583-f2" d="M 198 2752 
L 141 1785 
L 224 1785 
C 237 2028 243 2348 378 2515 
C 512 2656 723 2675 902 2675 
L 1126 2675 
C 1286 2675 1299 2560 1299 2444 
L 1299 377 
C 1299 102 1158 76 768 76 
L 768 0 
L 2093 0 
L 2093 76 
L 1933 76 
C 1734 76 1562 102 1562 377 
L 1562 2444 
C 1562 2560 1574 2675 1734 2675 
L 1958 2675 
C 2221 2675 2534 2630 2586 2259 
C 2618 2105 2630 1945 2637 1785 
L 2720 1785 
L 2662 2752 
L 198 2752 
z
" transform="scale(0.015625)"/>
       <path id="SFRM3583-f1" d="M 2221 2078 
C 2189 2084 2157 2091 2125 2091 
C 2022 2091 1946 2000 1946 1903 
C 1946 1806 2022 1709 2131 1709 
C 2221 1709 2310 1773 2323 1871 
L 2323 1909 
C 2323 2356 1965 2816 1440 2816 
C 717 2816 269 2058 269 1372 
C 269 693 678 0 1363 -64 
L 1427 -64 
C 1882 -64 2240 227 2368 660 
C 2374 686 2381 712 2381 738 
C 2381 757 2368 764 2355 764 
C 2285 764 2272 641 2246 576 
C 2131 246 1824 20 1498 20 
C 890 20 595 744 595 1275 
C 595 1819 710 2731 1453 2731 
C 1811 2731 2138 2434 2221 2078 
z
" transform="scale(0.015625)"/>
       <path id="SFRM3583-e8" d="M 288 2752 
L 288 2687 
L 378 2687 
C 531 2687 666 2655 666 2431 
L 666 333 
C 666 109 538 76 378 76 
L 288 76 
L 288 0 
L 1306 0 
L 1306 76 
L 1216 76 
C 1075 76 960 96 928 269 
L 928 314 
C 928 397 1005 468 1050 532 
C 1331 955 1632 1372 1926 1789 
L 2131 2084 
C 2170 2142 2214 2193 2246 2258 
L 2253 333 
C 2253 102 2112 76 1965 76 
L 1875 76 
L 1875 0 
L 2893 0 
L 2893 76 
L 2803 76 
C 2643 76 2515 109 2515 333 
L 2515 2431 
C 2515 2655 2650 2687 2803 2687 
L 2893 2687 
L 2893 2752 
L 1875 2752 
L 1875 2681 
L 1965 2681 
C 2106 2681 2221 2656 2253 2483 
L 2253 2438 
C 2253 2355 2176 2284 2131 2220 
C 1850 1798 1549 1382 1254 966 
L 1050 672 
C 1011 614 966 563 934 499 
L 928 2425 
C 928 2636 1050 2681 1216 2681 
L 1306 2681 
L 1306 2752 
L 998 2752 
L 288 2752 
z
" transform="scale(0.015625)"/>
       <path id="SFRM3583-f6" d="M 288 2752 
L 288 2688 
L 378 2688 
C 531 2688 666 2656 666 2432 
L 666 343 
C 666 119 538 87 378 87 
L 288 87 
L 288 11 
L 2176 11 
C 2470 11 2752 -21 2861 -449 
C 2899 -635 2912 -833 2925 -1024 
L 3008 -1024 
L 2925 87 
L 2835 87 
C 2675 87 2515 106 2515 343 
L 2515 2439 
C 2515 2656 2650 2688 2803 2688 
L 2893 2688 
L 2893 2752 
L 1875 2752 
L 1875 2681 
L 1965 2681 
C 2118 2681 2253 2649 2253 2426 
L 2253 283 
C 2253 155 2202 79 2061 79 
C 2010 79 1958 85 1920 85 
L 1082 85 
C 966 85 934 175 928 257 
L 928 2407 
C 928 2656 1062 2681 1229 2681 
L 1306 2681 
L 1306 2752 
L 1005 2752 
L 288 2752 
z
" transform="scale(0.015625)"/>
       <path id="SFRM3583-2c" d="M 973 125 
C 992 73 992 22 992 -36 
L 992 -120 
C 992 -481 877 -791 666 -1100 
C 653 -1120 621 -1146 621 -1178 
C 621 -1197 634 -1216 653 -1216 
C 710 -1216 845 -991 896 -875 
C 1011 -636 1069 -372 1069 -107 
C 1069 73 1062 448 800 448 
C 685 448 589 351 589 235 
C 589 112 698 28 800 28 
C 864 28 934 60 973 125 
z
" transform="scale(0.015625)"/>
      </defs>
      <use xlink:href="#SFRM3583-ca" transform="scale(0.996264)"/>
      <use xlink:href="#SFRM3583-e2" transform="translate(69.320979 0) scale(0.996264)"/>
      <use xlink:href="#SFRM3583-e0" transform="translate(113.899446 0) scale(0.996264)"/>
      <use xlink:href="#SFRM3583-e4" transform="translate(158.477912 0) scale(0.996264)"/>
      <use xlink:href="#SFRM3583-f0" transform="translate(208.016341 0) scale(0.996264)"/>
      <use xlink:href="#SFRM3583-e0" transform="translate(257.554769 0) scale(0.996264)"/>
      <use xlink:href="#SFRM3583-f2" transform="translate(302.133236 0) scale(0.996264)"/>
      <use xlink:href="#SFRM3583-f0" transform="translate(376.409996 0) scale(0.996264)"/>
      <use xlink:href="#SFRM3583-e0" transform="translate(425.948424 0) scale(0.996264)"/>
      <use xlink:href="#SFRM3583-f1" transform="translate(470.526891 0) scale(0.996264)"/>
      <use xlink:href="#SFRM3583-f1" transform="translate(510.14529 0) scale(0.996264)"/>
      <use xlink:href="#SFRM3583-f2" transform="translate(549.763688 0) scale(0.996264)"/>
      <use xlink:href="#SFRM3583-ee" transform="translate(594.342155 0) scale(0.996264)"/>
      <use xlink:href="#SFRM3583-ff" transform="translate(636.440633 0) scale(0.996264)"/>
      <use xlink:href="#SFRM3583-ed" transform="translate(684.739067 0) scale(0.996264)"/>
      <use xlink:href="#SFRM3583-e8" transform="translate(734.277496 0) scale(0.996264)"/>
      <use xlink:href="#SFRM3583-ff" transform="translate(783.815924 0) scale(0.996264)"/>
      <use xlink:href="#SFRM3583-e4" transform="translate(861.812651 0) scale(0.996264)"/>
      <use xlink:href="#SFRM3583-ee" transform="translate(911.35108 0) scale(0.996264)"/>
      <use xlink:href="#SFRM3583-f6" transform="translate(985.62784 0) scale(0.996264)"/>
      <use xlink:href="#SFRM3583-e5" transform="translate(1035.166268 0) scale(0.996264)"/>
      <use xlink:href="#SFRM3583-ed" transform="translate(1074.784667 0) scale(0.996264)"/>
      <use xlink:href="#SFRM3583-f2" transform="translate(1124.323095 0) scale(0.996264)"/>
      <use xlink:href="#SFRM3583-f0" transform="translate(1168.901562 0) scale(0.996264)"/>
      <use xlink:href="#SFRM3583-e0" transform="translate(1218.43999 0) scale(0.996264)"/>
      <use xlink:href="#SFRM3583-2c" transform="translate(1263.018457 0) scale(0.996264)"/>
      <use xlink:href="#SFRM3583-ec" transform="translate(1317.455082 0) scale(0.996264)"/>
      <use xlink:href="#SFRM3583-ea" transform="translate(1376.913616 0) scale(0.996264)"/>
      <use xlink:href="#SFRM3583-ec" transform="translate(1426.452044 0) scale(0.996264)"/>
      <use xlink:href="#CMR17-32" transform="translate(1485.910578 36.153639) scale(0.697382)"/>
     </g>
    </g>
   </g>
   <g id="line2d_125">
    <path d="M 73.234911 215.28 
L 81.689456 209.144616 
L 90.144002 203.737843 
L 98.598547 198.34884 
L 107.053093 193.093028 
L 115.507638 187.983048 
L 123.962183 182.499144 
L 132.416729 177.35179 
L 140.871274 172.00749 
L 149.32582 166.311067 
L 157.780365 161.261912 
L 166.234911 155.75639 
L 174.689456 150.638349 
L 183.144002 144.628278 
L 191.598547 139.297901 
L 200.053093 134.017906 
L 208.507638 128.560567 
L 216.962183 123.185855 
L 225.416729 117.38189 
L 233.871274 111.951666 
L 242.32582 106.657198 
L 250.780365 100.941173 
L 259.234911 95.375193 
L 267.689456 89.676939 
L 276.144002 84.156577 
L 284.598547 78.833895 
L 293.053093 73.40532 
L 301.507638 67.541997 
L 309.962183 62.23049 
L 318.416729 56.142923 
L 326.871274 50.979264 
L 335.32582 45.027452 
L 343.780365 39.329015 
L 352.234911 33.901539 
L 360.689456 28.021361 
L 369.144002 22.047382 
L 377.598547 16.361585 
" clip-path="url(#p09744b257c)" style="fill: none; stroke: #0c5da5; stroke-linecap: square"/>
    <defs>
     <path id="m16a2f3748a" d="M 0 1.5 
C 0.397805 1.5 0.77937 1.341951 1.06066 1.06066 
C 1.341951 0.77937 1.5 0.397805 1.5 0 
C 1.5 -0.397805 1.341951 -0.77937 1.06066 -1.06066 
C 0.77937 -1.341951 0.397805 -1.5 0 -1.5 
C -0.397805 -1.5 -0.77937 -1.341951 -1.06066 -1.06066 
C -1.341951 -0.77937 -1.5 -0.397805 -1.5 0 
C -1.5 0.397805 -1.341951 0.77937 -1.06066 1.06066 
C -0.77937 1.341951 -0.397805 1.5 0 1.5 
z
" style="stroke: #0c5da5"/>
    </defs>
    <g clip-path="url(#p09744b257c)">
     <use xlink:href="#m16a2f3748a" x="73.234911" y="215.28" style="fill: #0c5da5; stroke: #0c5da5"/>
     <use xlink:href="#m16a2f3748a" x="81.689456" y="209.144616" style="fill: #0c5da5; stroke: #0c5da5"/>
     <use xlink:href="#m16a2f3748a" x="90.144002" y="203.737843" style="fill: #0c5da5; stroke: #0c5da5"/>
     <use xlink:href="#m16a2f3748a" x="98.598547" y="198.34884" style="fill: #0c5da5; stroke: #0c5da5"/>
     <use xlink:href="#m16a2f3748a" x="107.053093" y="193.093028" style="fill: #0c5da5; stroke: #0c5da5"/>
     <use xlink:href="#m16a2f3748a" x="115.507638" y="187.983048" style="fill: #0c5da5; stroke: #0c5da5"/>
     <use xlink:href="#m16a2f3748a" x="123.962183" y="182.499144" style="fill: #0c5da5; stroke: #0c5da5"/>
     <use xlink:href="#m16a2f3748a" x="132.416729" y="177.35179" style="fill: #0c5da5; stroke: #0c5da5"/>
     <use xlink:href="#m16a2f3748a" x="140.871274" y="172.00749" style="fill: #0c5da5; stroke: #0c5da5"/>
     <use xlink:href="#m16a2f3748a" x="149.32582" y="166.311067" style="fill: #0c5da5; stroke: #0c5da5"/>
     <use xlink:href="#m16a2f3748a" x="157.780365" y="161.261912" style="fill: #0c5da5; stroke: #0c5da5"/>
     <use xlink:href="#m16a2f3748a" x="166.234911" y="155.75639" style="fill: #0c5da5; stroke: #0c5da5"/>
     <use xlink:href="#m16a2f3748a" x="174.689456" y="150.638349" style="fill: #0c5da5; stroke: #0c5da5"/>
     <use xlink:href="#m16a2f3748a" x="183.144002" y="144.628278" style="fill: #0c5da5; stroke: #0c5da5"/>
     <use xlink:href="#m16a2f3748a" x="191.598547" y="139.297901" style="fill: #0c5da5; stroke: #0c5da5"/>
     <use xlink:href="#m16a2f3748a" x="200.053093" y="134.017906" style="fill: #0c5da5; stroke: #0c5da5"/>
     <use xlink:href="#m16a2f3748a" x="208.507638" y="128.560567" style="fill: #0c5da5; stroke: #0c5da5"/>
     <use xlink:href="#m16a2f3748a" x="216.962183" y="123.185855" style="fill: #0c5da5; stroke: #0c5da5"/>
     <use xlink:href="#m16a2f3748a" x="225.416729" y="117.38189" style="fill: #0c5da5; stroke: #0c5da5"/>
     <use xlink:href="#m16a2f3748a" x="233.871274" y="111.951666" style="fill: #0c5da5; stroke: #0c5da5"/>
     <use xlink:href="#m16a2f3748a" x="242.32582" y="106.657198" style="fill: #0c5da5; stroke: #0c5da5"/>
     <use xlink:href="#m16a2f3748a" x="250.780365" y="100.941173" style="fill: #0c5da5; stroke: #0c5da5"/>
     <use xlink:href="#m16a2f3748a" x="259.234911" y="95.375193" style="fill: #0c5da5; stroke: #0c5da5"/>
     <use xlink:href="#m16a2f3748a" x="267.689456" y="89.676939" style="fill: #0c5da5; stroke: #0c5da5"/>
     <use xlink:href="#m16a2f3748a" x="276.144002" y="84.156577" style="fill: #0c5da5; stroke: #0c5da5"/>
     <use xlink:href="#m16a2f3748a" x="284.598547" y="78.833895" style="fill: #0c5da5; stroke: #0c5da5"/>
     <use xlink:href="#m16a2f3748a" x="293.053093" y="73.40532" style="fill: #0c5da5; stroke: #0c5da5"/>
     <use xlink:href="#m16a2f3748a" x="301.507638" y="67.541997" style="fill: #0c5da5; stroke: #0c5da5"/>
     <use xlink:href="#m16a2f3748a" x="309.962183" y="62.23049" style="fill: #0c5da5; stroke: #0c5da5"/>
     <use xlink:href="#m16a2f3748a" x="318.416729" y="56.142923" style="fill: #0c5da5; stroke: #0c5da5"/>
     <use xlink:href="#m16a2f3748a" x="326.871274" y="50.979264" style="fill: #0c5da5; stroke: #0c5da5"/>
     <use xlink:href="#m16a2f3748a" x="335.32582" y="45.027452" style="fill: #0c5da5; stroke: #0c5da5"/>
     <use xlink:href="#m16a2f3748a" x="343.780365" y="39.329015" style="fill: #0c5da5; stroke: #0c5da5"/>
     <use xlink:href="#m16a2f3748a" x="352.234911" y="33.901539" style="fill: #0c5da5; stroke: #0c5da5"/>
     <use xlink:href="#m16a2f3748a" x="360.689456" y="28.021361" style="fill: #0c5da5; stroke: #0c5da5"/>
     <use xlink:href="#m16a2f3748a" x="369.144002" y="22.047382" style="fill: #0c5da5; stroke: #0c5da5"/>
     <use xlink:href="#m16a2f3748a" x="377.598547" y="16.361585" style="fill: #0c5da5; stroke: #0c5da5"/>
    </g>
   </g>
   <g id="line2d_126">
    <path d="M 73.234911 212.18382 
L 81.689456 206.49326 
L 90.144002 201.019066 
L 98.598547 196.047773 
L 107.053093 190.738465 
L 115.507638 184.782806 
L 123.962183 179.972368 
L 132.416729 174.464648 
L 140.871274 169.478515 
L 149.32582 163.817451 
L 157.780365 158.644448 
L 166.234911 153.43682 
L 174.689456 147.332398 
L 183.144002 142.10315 
L 191.598547 136.919888 
L 200.053093 131.063161 
L 208.507638 126.021333 
L 216.962183 120.569674 
L 225.416729 114.685099 
L 233.871274 109.460249 
L 242.32582 103.817506 
L 250.780365 98.321144 
L 259.234911 92.692508 
L 267.689456 87.238101 
L 276.144002 81.977709 
L 284.598547 75.973134 
L 293.053093 70.814055 
L 301.507638 64.897969 
L 309.962183 59.201546 
L 318.416729 53.399231 
L 326.871274 48.191602 
L 335.32582 42.189959 
L 343.780365 36.444621 
L 352.234911 31.340503 
L 360.689456 25.046097 
L 369.144002 19.025217 
L 377.598547 13.68 
" clip-path="url(#p09744b257c)" style="fill: none; stroke: #00b945; stroke-linecap: square"/>
    <defs>
     <path id="m6c8c42c6e4" d="M 0 1.5 
C 0.397805 1.5 0.77937 1.341951 1.06066 1.06066 
C 1.341951 0.77937 1.5 0.397805 1.5 0 
C 1.5 -0.397805 1.341951 -0.77937 1.06066 -1.06066 
C 0.77937 -1.341951 0.397805 -1.5 0 -1.5 
C -0.397805 -1.5 -0.77937 -1.341951 -1.06066 -1.06066 
C -1.341951 -0.77937 -1.5 -0.397805 -1.5 0 
C -1.5 0.397805 -1.341951 0.77937 -1.06066 1.06066 
C -0.77937 1.341951 -0.397805 1.5 0 1.5 
z
" style="stroke: #00b945"/>
    </defs>
    <g clip-path="url(#p09744b257c)">
     <use xlink:href="#m6c8c42c6e4" x="73.234911" y="212.18382" style="fill: #00b945; stroke: #00b945"/>
     <use xlink:href="#m6c8c42c6e4" x="81.689456" y="206.49326" style="fill: #00b945; stroke: #00b945"/>
     <use xlink:href="#m6c8c42c6e4" x="90.144002" y="201.019066" style="fill: #00b945; stroke: #00b945"/>
     <use xlink:href="#m6c8c42c6e4" x="98.598547" y="196.047773" style="fill: #00b945; stroke: #00b945"/>
     <use xlink:href="#m6c8c42c6e4" x="107.053093" y="190.738465" style="fill: #00b945; stroke: #00b945"/>
     <use xlink:href="#m6c8c42c6e4" x="115.507638" y="184.782806" style="fill: #00b945; stroke: #00b945"/>
     <use xlink:href="#m6c8c42c6e4" x="123.962183" y="179.972368" style="fill: #00b945; stroke: #00b945"/>
     <use xlink:href="#m6c8c42c6e4" x="132.416729" y="174.464648" style="fill: #00b945; stroke: #00b945"/>
     <use xlink:href="#m6c8c42c6e4" x="140.871274" y="169.478515" style="fill: #00b945; stroke: #00b945"/>
     <use xlink:href="#m6c8c42c6e4" x="149.32582" y="163.817451" style="fill: #00b945; stroke: #00b945"/>
     <use xlink:href="#m6c8c42c6e4" x="157.780365" y="158.644448" style="fill: #00b945; stroke: #00b945"/>
     <use xlink:href="#m6c8c42c6e4" x="166.234911" y="153.43682" style="fill: #00b945; stroke: #00b945"/>
     <use xlink:href="#m6c8c42c6e4" x="174.689456" y="147.332398" style="fill: #00b945; stroke: #00b945"/>
     <use xlink:href="#m6c8c42c6e4" x="183.144002" y="142.10315" style="fill: #00b945; stroke: #00b945"/>
     <use xlink:href="#m6c8c42c6e4" x="191.598547" y="136.919888" style="fill: #00b945; stroke: #00b945"/>
     <use xlink:href="#m6c8c42c6e4" x="200.053093" y="131.063161" style="fill: #00b945; stroke: #00b945"/>
     <use xlink:href="#m6c8c42c6e4" x="208.507638" y="126.021333" style="fill: #00b945; stroke: #00b945"/>
     <use xlink:href="#m6c8c42c6e4" x="216.962183" y="120.569674" style="fill: #00b945; stroke: #00b945"/>
     <use xlink:href="#m6c8c42c6e4" x="225.416729" y="114.685099" style="fill: #00b945; stroke: #00b945"/>
     <use xlink:href="#m6c8c42c6e4" x="233.871274" y="109.460249" style="fill: #00b945; stroke: #00b945"/>
     <use xlink:href="#m6c8c42c6e4" x="242.32582" y="103.817506" style="fill: #00b945; stroke: #00b945"/>
     <use xlink:href="#m6c8c42c6e4" x="250.780365" y="98.321144" style="fill: #00b945; stroke: #00b945"/>
     <use xlink:href="#m6c8c42c6e4" x="259.234911" y="92.692508" style="fill: #00b945; stroke: #00b945"/>
     <use xlink:href="#m6c8c42c6e4" x="267.689456" y="87.238101" style="fill: #00b945; stroke: #00b945"/>
     <use xlink:href="#m6c8c42c6e4" x="276.144002" y="81.977709" style="fill: #00b945; stroke: #00b945"/>
     <use xlink:href="#m6c8c42c6e4" x="284.598547" y="75.973134" style="fill: #00b945; stroke: #00b945"/>
     <use xlink:href="#m6c8c42c6e4" x="293.053093" y="70.814055" style="fill: #00b945; stroke: #00b945"/>
     <use xlink:href="#m6c8c42c6e4" x="301.507638" y="64.897969" style="fill: #00b945; stroke: #00b945"/>
     <use xlink:href="#m6c8c42c6e4" x="309.962183" y="59.201546" style="fill: #00b945; stroke: #00b945"/>
     <use xlink:href="#m6c8c42c6e4" x="318.416729" y="53.399231" style="fill: #00b945; stroke: #00b945"/>
     <use xlink:href="#m6c8c42c6e4" x="326.871274" y="48.191602" style="fill: #00b945; stroke: #00b945"/>
     <use xlink:href="#m6c8c42c6e4" x="335.32582" y="42.189959" style="fill: #00b945; stroke: #00b945"/>
     <use xlink:href="#m6c8c42c6e4" x="343.780365" y="36.444621" style="fill: #00b945; stroke: #00b945"/>
     <use xlink:href="#m6c8c42c6e4" x="352.234911" y="31.340503" style="fill: #00b945; stroke: #00b945"/>
     <use xlink:href="#m6c8c42c6e4" x="360.689456" y="25.046097" style="fill: #00b945; stroke: #00b945"/>
     <use xlink:href="#m6c8c42c6e4" x="369.144002" y="19.025217" style="fill: #00b945; stroke: #00b945"/>
     <use xlink:href="#m6c8c42c6e4" x="377.598547" y="13.68" style="fill: #00b945; stroke: #00b945"/>
    </g>
   </g>
   <g id="patch_3">
    <path d="M 58.016729 225.36 
L 58.016729 3.6 
" style="fill: none; stroke: #000000; stroke-width: 0.5; stroke-linejoin: miter; stroke-linecap: square"/>
   </g>
   <g id="patch_4">
    <path d="M 392.816729 225.36 
L 392.816729 3.6 
" style="fill: none; stroke: #000000; stroke-width: 0.5; stroke-linejoin: miter; stroke-linecap: square"/>
   </g>
   <g id="patch_5">
    <path d="M 58.016729 225.36 
L 392.816729 225.36 
" style="fill: none; stroke: #000000; stroke-width: 0.5; stroke-linejoin: miter; stroke-linecap: square"/>
   </g>
   <g id="patch_6">
    <path d="M 58.016729 3.6 
L 392.816729 3.6 
" style="fill: none; stroke: #000000; stroke-width: 0.5; stroke-linejoin: miter; stroke-linecap: square"/>
   </g>
   <g id="legend_1">
    <g id="line2d_127">
     <path d="M 68.816729 19.164187 
L 80.816729 19.164187 
L 92.816729 19.164187 
" style="fill: none; stroke: #0c5da5; stroke-linecap: square"/>
     <g>
      <use xlink:href="#m16a2f3748a" x="80.816729" y="19.164187" style="fill: #0c5da5; stroke: #0c5da5"/>
     </g>
    </g>
    <g id="text_16">
     <!-- Тёмные кольца (по фото) -->
     <g transform="translate(102.416729 23.364187) scale(0.12 -0.12)">
      <defs>
       <path id="SFRM3583-d2" d="M 301 4352 
L 205 2969 
L 288 2969 
C 307 3332 320 3829 576 4032 
C 787 4211 1075 4211 1331 4211 
L 1715 4211 
C 1830 4211 1920 4179 1920 4013 
C 1920 3975 1914 3931 1914 3892 
L 1914 535 
C 1914 497 1920 446 1920 401 
C 1920 166 1722 140 1523 140 
L 1338 140 
L 1338 0 
L 2803 0 
L 2803 140 
L 2605 140 
C 2400 140 2221 166 2221 408 
C 2221 452 2227 503 2227 542 
L 2227 3892 
C 2227 3931 2221 3975 2221 4013 
C 2221 4179 2310 4211 2426 4211 
L 2810 4211 
C 3200 4211 3661 4192 3776 3618 
C 3821 3408 3840 3185 3853 2969 
L 3936 2969 
L 3840 4352 
L 301 4352 
z
" transform="scale(0.015625)"/>
       <path id="SFRM3583-bc" d="M 563 1519 
L 2246 1519 
C 2259 1519 2285 1512 2310 1512 
C 2355 1512 2374 1538 2374 1577 
C 2374 2154 2099 2822 1382 2822 
C 614 2822 237 2025 237 1389 
C 237 753 589 33 1350 -64 
C 1376 -58 1402 -64 1427 -64 
C 1869 -64 2208 246 2355 667 
C 2362 686 2368 712 2368 732 
C 2368 751 2362 771 2336 771 
C 2272 771 2266 667 2246 609 
C 2118 298 1843 26 1485 26 
C 1216 26 960 181 813 402 
C 576 725 563 1140 563 1522 
L 563 1519 
z
M 570 1599 
C 582 2104 832 2745 1370 2745 
C 1818 2745 2010 2266 2061 1891 
C 2067 1793 2067 1696 2080 1599 
L 570 1599 
z
M 1792 3968 
C 1702 3968 1619 3851 1619 3767 
C 1619 3654 1709 3551 1824 3551 
C 1939 3551 2035 3641 2035 3756 
C 2035 3865 1952 3968 1837 3968 
C 1824 3974 1805 3968 1792 3968 
z
M 678 3968 
C 582 3968 512 3851 512 3767 
C 512 3654 595 3551 710 3551 
C 794 3551 928 3622 928 3756 
C 928 3865 838 3968 723 3968 
C 710 3974 691 3968 678 3968 
z
" transform="scale(0.015625)"/>
       <path id="SFRM3583-eb" d="M 813 2752 
L 813 2681 
L 909 2681 
C 1062 2681 1203 2643 1203 2444 
L 1203 2392 
C 1203 2258 1197 2123 1184 1988 
C 1139 1449 1107 885 890 385 
C 813 211 698 19 538 19 
C 422 19 320 70 243 147 
L 282 147 
C 378 147 448 211 448 308 
C 448 410 378 481 282 481 
C 166 481 109 397 109 288 
C 115 64 326 -64 538 -64 
C 813 -64 960 308 1037 539 
C 1203 1039 1274 1623 1274 2149 
L 1274 2238 
C 1274 2489 1286 2681 1478 2681 
L 2099 2681 
C 2214 2681 2240 2598 2253 2508 
L 2253 359 
C 2253 96 2125 70 1946 70 
L 1875 70 
L 1875 -7 
L 2893 -7 
L 2893 70 
L 2803 70 
C 2643 70 2515 102 2515 327 
L 2515 2425 
C 2515 2649 2650 2681 2803 2681 
L 2893 2681 
L 2893 2752 
L 813 2752 
z
" transform="scale(0.015625)"/>
       <path id="SFRM3583-fc" d="M 294 2752 
L 294 2681 
L 358 2681 
C 525 2681 666 2662 666 2425 
L 666 339 
C 666 95 525 76 358 76 
L 294 76 
L 294 0 
L 1472 0 
C 1741 0 2003 6 2246 140 
C 2477 275 2669 511 2669 780 
C 2669 1350 2029 1555 1587 1555 
L 928 1555 
L 928 2419 
C 928 2636 1043 2681 1222 2681 
L 1299 2681 
L 1299 2752 
L 294 2752 
z
M 928 1478 
L 1530 1478 
C 1939 1478 2342 1215 2342 780 
L 2342 755 
C 2342 339 1920 83 1555 83 
L 1082 83 
C 928 83 928 217 928 371 
L 928 1478 
z
" transform="scale(0.015625)"/>
       <path id="SFRM3583-28" d="M 1837 4800 
C 1747 4748 1645 4639 1574 4549 
C 845 3751 595 2639 595 1584 
C 595 561 851 -507 1523 -1292 
C 1619 -1395 1786 -1600 1869 -1600 
C 1882 -1600 1894 -1594 1894 -1581 
C 1894 -1543 1709 -1362 1619 -1253 
C 1011 -462 813 587 813 1571 
C 813 2685 1030 3804 1805 4671 
C 1830 4697 1882 4735 1894 4774 
L 1894 4780 
C 1894 4793 1882 4800 1869 4800 
C 1856 4806 1843 4800 1837 4800 
z
" transform="scale(0.015625)"/>
       <path id="SFRM3583-ef" d="M 288 2752 
L 288 2681 
L 378 2681 
C 531 2681 666 2649 666 2425 
L 666 332 
C 666 108 538 76 378 76 
L 288 76 
L 288 0 
L 1306 0 
L 1306 76 
L 1216 76 
C 1062 76 928 108 928 332 
L 928 2476 
C 928 2624 992 2688 1133 2688 
C 1178 2688 1222 2681 1254 2681 
L 2099 2681 
C 2214 2681 2240 2598 2253 2508 
L 2253 364 
C 2253 102 2125 76 1946 76 
L 1875 76 
L 1875 0 
L 2893 0 
L 2893 76 
L 2803 76 
C 2643 76 2515 108 2515 332 
L 2515 2425 
C 2515 2649 2650 2681 2803 2681 
L 2893 2681 
L 2893 2752 
L 288 2752 
z
" transform="scale(0.015625)"/>
       <path id="SFRM3583-f4" d="M 1722 4409 
L 1722 4268 
L 1792 4268 
C 1978 4268 2099 4223 2099 3973 
L 2093 2416 
C 1984 2666 1722 2826 1459 2826 
C 749 2826 269 2109 269 1410 
C 269 738 730 -6 1478 -6 
C 1709 -6 1997 148 2093 411 
L 2099 -851 
C 2099 -1031 2022 -1076 1722 -1076 
L 1722 -1216 
L 2733 -1216 
L 2733 -1076 
L 2643 -1076 
C 2496 -1076 2355 -1056 2355 -851 
L 2362 411 
C 2464 148 2733 -6 2976 -6 
C 3712 -6 4186 725 4186 1410 
C 4186 2083 3731 2826 2995 2826 
C 2746 2826 2470 2679 2362 2416 
L 2355 4480 
L 1722 4409 
z
M 3853 1295 
C 3808 789 3552 71 2944 71 
C 2662 71 2355 379 2355 686 
L 2355 1820 
C 2355 1904 2349 1993 2349 2077 
C 2349 2391 2598 2743 2944 2743 
C 3597 2743 3859 1904 3859 1404 
C 3859 1365 3859 1327 3853 1295 
z
M 595 1301 
L 595 1391 
C 595 1833 730 2333 1114 2608 
C 1229 2692 1370 2737 1504 2737 
C 1837 2737 2106 2416 2106 2077 
C 2106 1993 2099 1904 2099 1820 
L 2099 686 
C 2099 347 1773 71 1510 71 
C 902 71 646 795 595 1301 
z
" transform="scale(0.015625)"/>
       <path id="SFRM3583-29" d="M 333 4787 
C 333 4787 326 4787 326 4781 
C 326 4748 518 4568 608 4453 
C 1210 3661 1414 2632 1414 1648 
C 1414 542 1216 -597 422 -1478 
C 397 -1504 346 -1543 333 -1581 
L 333 -1588 
C 333 -1600 339 -1600 352 -1600 
C 448 -1600 570 -1440 659 -1343 
C 1395 -513 1632 561 1632 1622 
C 1632 2735 1318 4002 442 4755 
C 429 4768 390 4800 358 4800 
C 346 4800 339 4794 333 4787 
z
" transform="scale(0.015625)"/>
      </defs>
      <use xlink:href="#SFRM3583-d2" transform="scale(0.996264)"/>
      <use xlink:href="#SFRM3583-bc" transform="translate(56.978545 0) scale(0.996264)"/>
      <use xlink:href="#SFRM3583-ec" transform="translate(96.596944 0) scale(0.996264)"/>
      <use xlink:href="#SFRM3583-ed" transform="translate(156.055478 0) scale(0.996264)"/>
      <use xlink:href="#SFRM3583-fb" transform="translate(205.593906 0) scale(0.996264)"/>
      <use xlink:href="#SFRM3583-e5" transform="translate(270.012493 0) scale(0.996264)"/>
      <use xlink:href="#SFRM3583-ea" transform="translate(339.329185 0) scale(0.996264)"/>
      <use xlink:href="#SFRM3583-ee" transform="translate(386.387625 0) scale(0.996264)"/>
      <use xlink:href="#SFRM3583-eb" transform="translate(430.966092 0) scale(0.996264)"/>
      <use xlink:href="#SFRM3583-fc" transform="translate(480.50452 0) scale(0.996264)"/>
      <use xlink:href="#SFRM3583-f6" transform="translate(525.082987 0) scale(0.996264)"/>
      <use xlink:href="#SFRM3583-e0" transform="translate(574.621415 0) scale(0.996264)"/>
      <use xlink:href="#SFRM3583-28" transform="translate(648.898175 0) scale(0.996264)"/>
      <use xlink:href="#SFRM3583-ef" transform="translate(683.556521 0) scale(0.996264)"/>
      <use xlink:href="#SFRM3583-ee" transform="translate(733.094949 0) scale(0.996264)"/>
      <use xlink:href="#SFRM3583-f4" transform="translate(807.371709 0) scale(0.996264)"/>
      <use xlink:href="#SFRM3583-ee" transform="translate(876.750257 0) scale(0.996264)"/>
      <use xlink:href="#SFRM3583-f2" transform="translate(921.328724 0) scale(0.996264)"/>
      <use xlink:href="#SFRM3583-ee" transform="translate(965.907191 0) scale(0.996264)"/>
      <use xlink:href="#SFRM3583-29" transform="translate(1010.485657 0) scale(0.996264)"/>
     </g>
    </g>
    <g id="line2d_128">
     <path d="M 68.816729 37.116436 
L 80.816729 37.116436 
L 92.816729 37.116436 
" style="fill: none; stroke: #00b945; stroke-linecap: square"/>
     <g>
      <use xlink:href="#m6c8c42c6e4" x="80.816729" y="37.116436" style="fill: #00b945; stroke: #00b945"/>
     </g>
    </g>
    <g id="text_17">
     <!-- Светлые кольца (по фото) -->
     <g transform="translate(102.416729 41.316436) scale(0.12 -0.12)">
      <defs>
       <path id="SFRM3583-d1" d="M 3501 3765 
C 3187 4139 2899 4480 2285 4480 
C 1120 4480 320 3339 320 2211 
C 320 1063 1133 -64 2285 -64 
C 3142 -64 3821 689 3821 1540 
L 3821 1566 
C 3814 1585 3802 1592 3782 1592 
C 3718 1592 3712 1224 3654 1063 
C 3475 508 2995 76 2374 76 
C 1779 76 1242 450 960 953 
C 742 1334 678 1798 678 2230 
C 678 3249 1242 4339 2374 4339 
C 3213 4339 3654 3500 3725 2817 
C 3731 2778 3744 2739 3776 2739 
C 3814 2739 3821 2765 3821 2797 
L 3821 4422 
C 3821 4384 3821 4409 3802 4416 
L 3795 4416 
C 3744 4416 3526 3817 3501 3716 
L 3501 3765 
z
" transform="scale(0.015625)"/>
      </defs>
      <use xlink:href="#SFRM3583-d1" transform="scale(0.996264)"/>
      <use xlink:href="#SFRM3583-e2" transform="translate(64.418587 0) scale(0.996264)"/>
      <use xlink:href="#SFRM3583-e5" transform="translate(108.997053 0) scale(0.996264)"/>
      <use xlink:href="#SFRM3583-f2" transform="translate(148.615452 0) scale(0.996264)"/>
      <use xlink:href="#SFRM3583-eb" transform="translate(190.71393 0) scale(0.996264)"/>
      <use xlink:href="#SFRM3583-fb" transform="translate(240.252359 0) scale(0.996264)"/>
      <use xlink:href="#SFRM3583-e5" transform="translate(304.670945 0) scale(0.996264)"/>
      <use xlink:href="#SFRM3583-ea" transform="translate(373.987637 0) scale(0.996264)"/>
      <use xlink:href="#SFRM3583-ee" transform="translate(421.046077 0) scale(0.996264)"/>
      <use xlink:href="#SFRM3583-eb" transform="translate(465.624544 0) scale(0.996264)"/>
      <use xlink:href="#SFRM3583-fc" transform="translate(515.162972 0) scale(0.996264)"/>
      <use xlink:href="#SFRM3583-f6" transform="translate(559.741439 0) scale(0.996264)"/>
      <use xlink:href="#SFRM3583-e0" transform="translate(609.279867 0) scale(0.996264)"/>
      <use xlink:href="#SFRM3583-28" transform="translate(683.556627 0) scale(0.996264)"/>
      <use xlink:href="#SFRM3583-ef" transform="translate(718.214973 0) scale(0.996264)"/>
      <use xlink:href="#SFRM3583-ee" transform="translate(767.753402 0) scale(0.996264)"/>
      <use xlink:href="#SFRM3583-f4" transform="translate(842.030162 0) scale(0.996264)"/>
      <use xlink:href="#SFRM3583-ee" transform="translate(911.40871 0) scale(0.996264)"/>
      <use xlink:href="#SFRM3583-f2" transform="translate(955.987176 0) scale(0.996264)"/>
      <use xlink:href="#SFRM3583-ee" transform="translate(1000.565643 0) scale(0.996264)"/>
      <use xlink:href="#SFRM3583-29" transform="translate(1045.14411 0) scale(0.996264)"/>
     </g>
    </g>
   </g>
  </g>
 </g>
 <defs>
  <clipPath id="p09744b257c">
   <rect x="58.016729" y="3.6" width="334.8" height="221.76"/>
  </clipPath>
 </defs>
</svg>
